<svg xmlns="http://www.w3.org/2000/svg" viewBox="0 0 1247.39 998.86"><defs><style>.cls-1{fill:none;}.cls-2{fill:#6a92e2;}</style></defs><g id="Layer_2" data-name="Layer 2"><g id="Layer_1-2" data-name="Layer 1"><path class="cls-1" d="M904,635.86a3.35,3.35,0,0,1,2,1.29A3.35,3.35,0,0,0,904,635.86Z"/><path class="cls-1" d="M908.86,640.13a3.63,3.63,0,0,1-2-1.5A3.63,3.63,0,0,0,908.86,640.13Z"/><path class="cls-1" d="M916.22,641.11c-.18-.1-.38-.18-.58-.27C915.84,640.93,916,641,916.22,641.11Z"/><path class="cls-2" d="M1246.55,307.82c-.1-3.87.18-7.74-.38-11.59-.17-1.18,0-2.5-1.11-3.27a5.64,5.64,0,0,1-2.47-5c0-.76-.41-1.91-1.06-1.66-2.26.88-3.55-1.12-5.29-1.42-2.79-.49-5.63-2.12-8.57-.24a2.06,2.06,0,0,1-2.86-.39c-1.88-2.67-3.81-5.35-4.37-8.68-.28-1.64.2-3.27,2-3.41,4.75-.38,8.93-3.15,13.83-3a9.88,9.88,0,0,0,5.09-1.33c1.6-1,.2-3.08.86-4.58a5.17,5.17,0,0,0,.38-1.73,1.33,1.33,0,0,0-1.73-1.47,5.43,5.43,0,0,0-2.81,1.2c-2,2.06-4.72,3.11-6.54,5.35-1.36,1.68-3.57,2.06-5.44,2.77-1.34.5-2.19-1.27-3.24-2-1.67-1.2-3.37-1.89-5.38-.81-.78.41-1.85,1-2.46.16-2.36-3.09-4.1.56-6.16.51-.44,0-.69,1.09-.31,1.55,2.4,2.88,1.19,6.25,1.38,9.43.13,2.16-.53,4.51,2.22,5.76.72.33.79,1.6.68,2.48-.28,2.28.79,3.06,2.93,3.53a7.3,7.3,0,0,1,6.12,6.64c.26,2,.49,4.07,2.38,5.52,2-4.17,4.11-4.55,7.37-1.55,1.09,1,2,2.67,3.28,2.93,4.34.92,5.28,6,9.29,7.19.72.22.61,1.27.68,2,.74,8.12,1.87,16.24,0,24.35-.52,2.22.67,2.89,2.56,3V310.61C1246.21,310,1246.58,308.8,1246.55,307.82Z"/><path class="cls-2" d="M1203.65,600.36a11.48,11.48,0,0,0-.29-4.81c-2.13-.59-4.62-.29-5.78-2.79a1.52,1.52,0,0,0-1.47-.84c-2.68.15-3.23-1.43-3.19-3.68a9.62,9.62,0,0,0-.53-2.61c-.85-3.1-1.66-3.31-4.05-1-1.71,1.65-3.36,3.37-5.06,5-3.27,3.17-4.33,2.92-5.71-1.27-.19-.56-.41-1.12-.57-1.69a7.21,7.21,0,0,0-5.61-5.18c-3.58-1-5.59.41-6.33,4.12-.37,1.89-.83,3.76-1.32,5.62-.25.93-.78,1.56-1.94,1.28-2.06-.51-3.29-2.4-5.35-3.08-1-.34-1-2.31-1.07-3.67a4.74,4.74,0,0,0-.34-1.2,3.5,3.5,0,0,0-.89-.18c-4.07.47-4.09.48-4.15-3.3,0-2.53.31-5.13-.17-7.57a19.5,19.5,0,0,1,0-8.33c.8-3.47.58-6.87-3.78-8.25-.78-.25-1.33-1.15-2-1.71-3.38-2.73-6.33-1.9-7.31,2.27a65.5,65.5,0,0,1-1.94,6.39,9.19,9.19,0,0,0-.42,6.12c1,3,0,5.42-1,8.15-1.91,5.33-6.42,9.26-7.67,14.88a1.14,1.14,0,0,1-.55.67c-3.94,1.86-3.8,4.72-2.23,8.15a3.06,3.06,0,0,1-1.33,3.9c-.78.55-1.9.87-2.44.11-1.13-1.58-3-2.38-3.93-4.16-1.72-3.31-1.88-3.32-4.56-1.2-1.88,1.48-3.45,1.09-4.3-1.23-.39-1.09-.23-2.35-1.14-3.3a8.58,8.58,0,0,1-1.94-9.47,8,8,0,0,0,.26-2.2c.13-1.81-.11-3.07-2.51-3.2-2-.11-2.2-1.22-1.37-3.06.61-1.38,2.45-1.73,2.69-3.4a10.58,10.58,0,0,1-2.82-2.8c-1.08-1.94-2.33-3.82-5.14-3.1-.49.13-1.12-.29-1.7-.44-4.55-1.18-7,1-6.5,5.84.12,1.1.29,2.06-.58,2.86a3.72,3.72,0,0,0-.86,4.83,2.93,2.93,0,0,1-.27,2.58,30.93,30.93,0,0,0-1.69,5.94c-4.35,0-6.31,1.19-6.81,4.54a8.38,8.38,0,0,0,.61,5.67,9,9,0,0,1,1.23,4.25,2,2,0,0,1-2.16,2.24c-4.31.21-7.39-2-7.69-6.19a27.25,27.25,0,0,0-1.94-8.19c-1.46-3.68-2.41-7.26-1-11.14a2.61,2.61,0,0,0,0-1.33c-1.42-7.53-1.47-15.22-3.77-22.69-1.29-4.18-.48-9-2.45-13.23a3.58,3.58,0,0,1,0-1.76,19,19,0,0,0-.1-5.78,4.65,4.65,0,0,1,.17-2.62c1.86-4,4.53-7.77,4.83-12.43,0-.22.41-.4.6-.62,2.32-2.63,2.09-4.32-.84-6.16a23.88,23.88,0,0,1-2.29-1.37c-2-1.56-1.73-2.92.65-3.84.55-.21,1.36,0,1.72-.37,1.51-1.43,4.56-1.75,4.44-4.22-.12-2.2.74-2.73,2.36-3.53,3.92-2,6.74-4.66,5.53-9.69a18.49,18.49,0,0,1,0-4,12.8,12.8,0,0,1,3.08-8.16,30.57,30.57,0,0,0,4.7-6.84c1.19-2.52,5.82-2.39,7,.13a11,11,0,0,1,1.41,4.67c0,1.66,1.08,2.75,2.13,3.78.69.68,1.57,1.81,2.6.74.85-.88-.24-1.56-.77-2.21a3,3,0,0,1-.66-2.07c.14-3-.06-6,.59-8.87a8.54,8.54,0,0,0-1-6.08c-.85,1.16-.45,2.92-2.13,3.49-2.49-2.46.4-6.45-2.57-9.32a31.74,31.74,0,0,1-1,7.86c-.24.87-.64,1.77-1.79,1.51-1-.22-.82-1.14-.84-1.84-.06-2.38,0-4.77-.1-7.15a1.13,1.13,0,0,0-1-1.22c-.65-.06-1.34.31-1.28.92.38,3.49-2.27,5.22-4.13,7.43-2.17,2.56-2.47,2.63-5.66,1.47a6.19,6.19,0,0,1-3.16-2.33c-.54-.79-1.17-1.38-2.22-.92a10,10,0,0,1-4,.42,2.87,2.87,0,0,0-2.92,1.62c-.74,1.62.4,2.49,1.33,3.43,4.31,4.32,4.5,5.09,2.3,10.47-.43,1-1,2-1.55,3.05,1.19.42,3.16-.23,3.18,1.17.06,2.84,1.44,5.81-.76,8.56-2.74,3.42-6.2,6.33-7.45,10.86-.48,1.75-2.37,2.28-4.11,1.75-2-.6-1.6-2.23-1.1-3.67.86-2.56.58-4.69-2-6.11-.91-.51-1.09-1.8-2.14-2.07-.83.06-.88.76-1.19,1.21a15.47,15.47,0,0,1-1.29,1.8c-2.29,2.49-2.4,2.57-.2,4.86,1.32,1.38,2.47,2.69,1.76,4.67-1.05,2.9-.43,5.91-.75,8.84-.4,3.69.43,6.43,4.31,7.7a2.51,2.51,0,0,1,1.61,3.62c-1.75,3.74-2.72,7.47-1.53,11.6.34,1.18-.39,2-1.79,1.8-.73-.09-1.47-.15-2.21-.22-1.46-1.46-2.9-2.06-4.23.15a4.81,4.81,0,0,0,.35,3.59,1.59,1.59,0,0,0,1.65,1.68l.07.06a9.8,9.8,0,0,0,3.33,3.07.55.55,0,0,0,.27.55,3.23,3.23,0,0,0,1.88,2.59,5.26,5.26,0,0,0,.77,3.69,1.14,1.14,0,0,0,.72,1.07l.6,1.59c-.14,2.05-1,4.22,1.09,5.86-.5,4,1.29,7.53,2.63,11.12l-2.25,11.66-.13.25-.37.14.36.16a16.38,16.38,0,0,1,1,5.49c.12,3-.34,6.09.42,9.08.1,2.26,2,4,2,6.25a6,6,0,0,0-.48,3.69c-.73.44-1.48.85-1.65,1.79l-.27.28c-1.16,1-1.79,2.88-3.94,2.15-.19-.06-.33.67-.11,1.08l-.51,1.83a5.44,5.44,0,0,0-2,2.52.83.83,0,0,0-.69.33,4.22,4.22,0,0,0-3.27,2.51l-2.38,2.3h0c-1.15-.49-2.24-.07-3.39.13-3.57.6-7.18,1.26-10.69-.36a.27.27,0,0,0-.27-.31c0-1.59-1.16-1.72-2.32-1.88h0c-.65-2.11-2.17-3.92-2.2-6.26a117.64,117.64,0,0,1,.44-15.59c.21-1.7,1.13-3,1.79-4.53a1.68,1.68,0,0,1,2.56-1c3.21,2.06,7.16,2.56,10.2,5a4.26,4.26,0,0,0,5.65-.28c1.4-1.3,1.38-2.43-.1-3.73a13.88,13.88,0,0,0-3.51-1.91c-4.17-2-8.45-3.87-8.71-9.48,0-.51-.6-1-.94-1.47-.47-.66-.71-1.28,0-1.94s1-1.49.29-2.31-1.62-.46-2.49-.18c-1.13.37-2.31.61-3.4,1.05a7.78,7.78,0,0,0-4.29,10.74,16.41,16.41,0,0,1,1.34,5.56c.39,3.19-1.11,5.72-2.25,8.42a1.24,1.24,0,0,0-.63,1.15,3.25,3.25,0,0,0-1.73,2.54l-1.17.58-.29-.07-.09.31a6.93,6.93,0,0,0-2.24,2.48,2.13,2.13,0,0,0-1.46,2.1l-.14.18c-1,.17-1.39,1.65-2.74,1.2-1.12-1.63.3-4.22-1.92-5.5-1.78-3.55.36-6.68,1.09-10a1.1,1.1,0,0,0,.57-1.12,6,6,0,0,0,0-3.62c-.34-2.8-3.6-3-4.64-5.15-.08,1.14-.17,2.28-.26,3.42-1.67.93-1.77,2.56-1.79,4.18,0,1.89,0,3.79,0,5.69-1.29,1-2.56.27-3.83,0l-1-1.85a1.54,1.54,0,0,0-1.65-1.66l-2.14-1-.15-.28-.17.31a2.78,2.78,0,0,0-3,2.4,2.14,2.14,0,0,0-1.5,2.06,9.84,9.84,0,0,0-3.76,3.68,1.08,1.08,0,0,0-1,.69l-.83.34a.88.88,0,0,0-.94.56l-.85.33-.94.56-.84.37a.52.52,0,0,0-.63.58c-2.4,1.21-2.87,3.42-3,5.8a2.48,2.48,0,0,0-1.35,2.23,3.24,3.24,0,0,0-.93,2.77,1.68,1.68,0,0,0-.89,1.7l-2.07,2a.94.94,0,0,0-.8.1l-1.46-.16c-1-1.35-2.7-1.13-4-1.85l1-2.57c2.55-1.49,1.42-3.58.91-5.57.34-2.08,1.79-4,1.14-6.21a1.43,1.43,0,0,0-.43-1.75,4.64,4.64,0,0,0-.15-2.71c-1.47-2.66-1.94-2.76-3.93-.88a13.27,13.27,0,0,0-2.76,8.69c0,3.86-.09,7.72-.13,11.57-1.31-.19-2.68-.53-3.22,1.25a.65.65,0,0,0-.49.42l-.36,0-.13.34a1.74,1.74,0,0,0-1.22,1.16l-.37.12v.38c-.73,1.52-.34,3.16-.49,4.74-1.08.48-1.22,1.55-1.66,2.47-1.35,2.88-2.37,3.38-5.58,2.79a44.68,44.68,0,0,0-5.17-1c-3-.18-5.88-2-9-.75a1.79,1.79,0,0,0-2,1.54,2,2,0,0,0-1.4,2,.89.89,0,0,0-.37.69,2.25,2.25,0,0,0-1.5,1.54l-2-.34c-.67-.93-1.76-.64-2.65-.92-.18-4.53,1-9.34-2.4-13.46-1.36,1-1.27,2.33-1.86,3.31-.46.78-1.34,1.2-1.75.53-1.71-2.72-3.83-.85-5.94-.42a40.24,40.24,0,0,1-1.61-8.86c1-2.74-.84-3.69-2.92-4.2-1-.24-2.14.26-2.51-1.13s.37-2.55,1.34-3.54,2.39-1,3.71-1.19c1.94-.2,3.34-1,3.7-3.16s1.79-3.28,3.8-3.87a6.35,6.35,0,0,0,2.37-1.17c1.47-1.32,2.7-3,2-5s-2.5-1.75-4.13-1.75A7.73,7.73,0,0,1,913,594.4c-2.42-1.66-3.69-1.39-5.27,1.07-1.1,1.74-1.92,3.65-2.91,5.46s-1.85,3.63-.73,5.84c.79,1.55.18,3.07-.67,4.61-1.2,2.18-3,4-3.63,6.54l-.11.14c-.35.25-.86.43-1,.77-.9,1.88-2.24,3.59.87,5.18a3.75,3.75,0,0,1,1.52,5.32,1.53,1.53,0,0,0,.55,1.94,3,3,0,0,0,.75,2.76,1.45,1.45,0,0,0,.82,1.15.62.62,0,0,0,.24.62,4,4,0,0,1,.51.06,4,4,0,0,0-.51-.06c.07,1.81,1.67,2.69,2.53,4,1.16,1.79,1.66,3.41-.1,5.12-.37.36-.43,1-.63,1.59a.61.61,0,0,0-.28.59c-1.77.88-2.87,2.53-4.33,3.76a1.76,1.76,0,0,0,.4.58,1.76,1.76,0,0,1-.4-.58l-1.16-.8a.63.63,0,0,0-.65-.74l-.79-1.08c-.21-.35-.53-1-.64-1-2.42.71-5.12-.13-7.4,1.29-1.57,0-3.17-.36-4.58.67l-1.67.38-2.18-.33a2,2,0,0,0-.68-1.83c0-1.72,1.18-3,1.89-4.38,1.85-1.22,4-1.19,6.08-1.32a5.91,5.91,0,0,0,3.87-.14c1,.35,2.08.57,2.64-.58s.54-2.52-1-3.17l-1.42-1.12c-1-1.3-2.18-1.12-3.35-.16a.52.52,0,0,0-.57.25c-1.3-.28-3.14,2.38-3.9-.67-.62-2.53.22-3.94,2.83-4.14,2.37-.19,3-1.55,3.27-3.46l.75-5.25a2.94,2.94,0,0,0,.14-2.69c0-.62,0-1.24,0-1.87a.37.37,0,0,0,.43-.22c3.06-1.15,3.12-1.33,1.74-5-.18-.6-.35-1.2-.53-1.8a4,4,0,0,0-.6-3.22c-.75-1.26-1.85-1.7-3-.26-2.7,1.29-2.3,4.45-3.88,6.42a1.84,1.84,0,0,0-1.7.87l-1.94-.09c-1.13-1.32-1.67-.37-2.21.57a.25.25,0,0,0-.4.08c-2.48.56-3.1,1.78-1.57,4a8.93,8.93,0,0,1,.84,2.41c-2.38,1.1-3.44,3.66-5.55,5.07a8.7,8.7,0,0,1-2.48-.8c-2.5-1.81-4.86-1.42-7.23.18l-2,.35a1.91,1.91,0,0,1-.36.29,1.91,1.91,0,0,0,.36-.29,1.51,1.51,0,0,0-1.65.51h-1c-1.22-.67-2.42-2.37-3.7-.08-1.29.87-1.76,2-1,3.43s2,1,3.19.92c1.61-.17,3.22-1.53,5.41.1-2.26,1.43-4.3,2.53-6.1,3.93a6.77,6.77,0,0,1-6.24,1.3c-2.56-.65-3.84.31-4.09,2.89a17.67,17.67,0,0,0,.1,1.77c0,1.29-.86,2.28-1.93,1.76-3.14-1.52-7.59-.85-9-5.35-.52-1.6-1.9-1.71-3.31-.93-.91.51-1.77,1.1-2.69,1.58-3.27,1.7-6.87,1.21-10.35,1.49-3-3-7.37-1.81-10.83-3.49-1.5-.73-3.15-1-3.94,1.3-.39,1.12-1.44.62-2.31.43s-1.71-1.4-2.83-.43c-.29,2,1.58,2.74,2.25,4.16.38.81.79,1.67,0,2.47a2,2,0,0,1-2.1.28c-4.28-1.43-8.35-3-10.34-7.69-1.09-2.55-3.41-2.55-5.17-.29-.45.58-.74,1.3-1.2,1.88-2.41,3-4.23,2.91-6-.43-.42-.78-.7-1.64-1.13-2.42s-1-1.31-1.77-1.08c-2.53.75-5-.56-7.52-.17-3.93.59-5.75,2.1-5.34,5.31.57,4.55.12,5.35-3.91,7.06-1.7.72-3.44,1.28-5-.07s-1.21-3.26-1-5a7.29,7.29,0,0,1,2.23-3.8c.91-1,2.08-1.68,3.08-2.56.71-.63,1.2-1.41.44-2.3-.58-.67-1.31-.47-2-.13C752,635.14,749,637,747,640.12c-.4.63-.88,1.73-1.46,1.47-2.64-1.22-4.49,1-6.74,1.31-3.73.57-5.36-1.16-4.66-5.11.19-1.08.45-2.13-.49-2.88-1.34-1.06-1.83-2.69-2.86-3.95-3.51-4.31-5.9-4-8.31.87-.06.14-.12.28-.19.41-1.38,2.7-3.09,3.27-5.77,1.84a23.37,23.37,0,0,1-2.15-1.59c-2.53-1.72-4.66-1.44-6.69.81a7.89,7.89,0,0,0-1.76,5.38c0,1.37-.2,2.76-1.8,3.24a3.89,3.89,0,0,1-4-1.26c-1.18-1.19-1.61-2.87-2.56-4.15-4.37-5.87-7.75-7.88-13-3a3.63,3.63,0,0,1-2.8,1.2c-3.54-.33-6,2.08-9.05,3.26.67,2,2.15,2.69,3.58,3.46,2.66,1.43,5.32,2.8,4.76,6.66-.16,1.12.77,2.21,1.5,3.17,1,1.3,2,2.58,3,3.89s1,3.13-.48,3.86c-2.78,1.35-3,3.6-3.39,6.22-.41,3.07-4.3,4.65-7,3.08a.94.94,0,0,1-.35-1.49c2-2.21.53-4.5.33-6.79-.14-1.54-.84-2.11-2.27-2a10.24,10.24,0,0,1-6.39-1.47,4.6,4.6,0,0,0-3.91-.11,10.3,10.3,0,0,1-3.48.68c-4-.15-8-1.93-12.16-.32-.48.19-1.39-.43-2-.84a29.06,29.06,0,0,1-3.9-3c-1.31-1.27-2.29-1.14-3.88-.29-4.07,2.17-8.29,3.91-13.17,3a4.69,4.69,0,0,0-4.56,1.35c-3.34,4.31-8.55,6.34-12.2,10.29-2.62,2.85-4.33,2.84-7.72.61a2.8,2.8,0,0,0-2.85-.44c-6.24,2.39-6.34,2.34-10.47-2.24-2.47-2.73-5.86-4.31-9.4-.06a14.68,14.68,0,0,1-1.79,2c-1.67,1.39-3.29.89-3.51-1.2s-.47-4.18.33-6.19c2.87-7.2,1.52-13.28-4.69-18.13a4.24,4.24,0,0,1-1.93-3.39c.13-2.83-2-4.91-2.27-7.6a1.09,1.09,0,0,0-1.23-1c-2.52.11-5,3.65-4.17,6.06.46,1.4,1.34,2.66,1.21,4.24-.44,5.54-1.46,10.8-6.46,14.27-3.23-2.84-4.49-6.68-2.49-9.72a9.11,9.11,0,0,0,1.49-4.88,27.89,27.89,0,0,1,4-13c.72-1.28,1-2.82,1.56-4.17,1.57-3.48,4-6.53,7.69-7.3,2.73-.56,3.59-1.51,3.29-4-.53-4.3.89-8.55,2.7-12,1.6-3,3.17-6.63,6.28-9,1.6-1.2,2.4-3.05.75-5.06a2.34,2.34,0,0,1,.38-3.55,4.64,4.64,0,0,0,1.61-3.53,1.32,1.32,0,0,1,1.47-1.33c2.31.07,4.13-.51,4.71-3.07.49-2.14,1.15-4-.06-6.42-1.59-3.11,1.52-6,1.54-9.15,0-.58,1.16-.84,1.93-.66s1.49.43,1.73-.64c.15-.68-.37-.95-.79-1.39-2.46-2.61-2.46-3.27-.2-6.48.36-.51.73-1,.34-1.59-1.93-2.87-.53-5.35.76-7.92a17.62,17.62,0,0,0,1-3.41c.85-3.26.76-6.76,3-9.65a3.73,3.73,0,0,0-.6-5c-2.32-1.77-1.67-3.88-1.66-6,0-3.4,1.46-6.67.84-10.16-.13-.71.56-1.68,1.09-2.36,1.55-2,3.19-3.89,3-6.69a2,2,0,0,1,1.12-1.83c2-.91,2.27-2.51,2.17-4.42a5.15,5.15,0,0,1,2.82-5.18c3.39-1.75,4.24-4.75,4.29-8.2a22.14,22.14,0,0,1,.18-4.9c.59-2.32.73-4.31-1.17-6.14-.85-.83-1-1.9.51-2.4,1-.33,1.58-.87,1-1.95-.46-.92-1.26-1-2.23-1-3.91-.22-5.34-2.29-3.7-5.78.84-1.77.53-3.45.68-5.18,0-.19-.33-.4-.5-.6-1.3-.26-1.93,1.41-3.29,1.1-.63-1-1.76-1.93-1.83-3-.2-3.21-2.54-4-4.87-5-2.89-1.18-4.32-.21-4,2.84a17,17,0,0,0,2.49,7.2c2.71,4.48,2.34,10,4.42,14.81,1.29,3,.39,4.8-2.32,6.66-3.36,2.32-5.94,5.41-4.25,10.17.42,1.21.51,2.59.83,3.89.9,3.68.2,5.32-3.2,7.21a1.84,1.84,0,0,0-1.17,2,3.72,3.72,0,0,1-.51,2.57c-2.3,3.2-3.16,6.95-4.32,10.62a21.34,21.34,0,0,1-4.7,8.46,10.3,10.3,0,0,0-2,11.21c1.34,3.22.85,5.49-1.68,7.44a7.61,7.61,0,0,0-2.68,5c-.36,2-1,3.7-2.79,4.78a2,2,0,0,0-1.11,2.25c.9,3.33-1.06,4.8-3.54,6.33-3.21,2-6.53,4.69-6,8.69.94,7.13-1.68,13.76-1.88,20.67,0,1.53-1.07,2.63-2,3.87a29.23,29.23,0,0,0-4.15,8.62c-1,3.17.55,5.75,2.61,8.1a1.87,1.87,0,0,1-.09,2.8,2.06,2.06,0,0,1-3.16-.2c-1.46-1.68-2.83-3.47-3-5.84-.36-4.09-.76-8.18-1.15-12.27a6.87,6.87,0,0,1,.29-2.62c.78-2.83.21-4.43-2.07-6.09a10.1,10.1,0,0,0-2.33-1.31,2.58,2.58,0,0,1-2-2.62,2.2,2.2,0,0,0-1.57-2.42c-1.4-.3-2,.79-2.74,1.82-2.35,3.45-2.38,3.43-5.58.82-2.35-1.91-3.06-1.93-5.33,0a12.28,12.28,0,0,1-5.31,3.12,5.6,5.6,0,0,0-4.32,5.11c-.46,3.65-1.51,7.22-1.06,11s.14,3.8-3.91,4.36c-1.51.2-3.37.4-3.24,2.32.41,6-.92,12.26,2.76,17.78,1.31,2,2.3,4.16,3.55,6.17.58.92,1.25,1.85.87,2.88-1.47,4-.64,7.58,1.31,11.13a5.16,5.16,0,0,1,.35,2.17,13.45,13.45,0,0,0,2.7,8.14c1.24,1.54.69,8.77-.57,10.18a3.4,3.4,0,0,1-2.35,1.15,6,6,0,0,0-4.64,3.15c-1.93,3.62-5.53,6.11-6.31,10.58-.55,3.17-2.72,3.78-5.86,2.64-1.9-.69-3.5-1.57-3.5-4,0-2.08-1.55-2.64-3.32-2.87-4.26-.55-8.77,2.27-10.58,6.65-2.1,5.11-3.44,5.76-8.37,4.05a9.59,9.59,0,0,1-3.17-2.39c-1.27-1.15-2.88-1.53-4.12-.72-2.65,1.74-6.26.87-8.57,3.36-.59.63-1.5.42-2.11.3-2.93-.57-3.73,1.17-4.72,3.46-2.75,6.41-5.52,12.84-9.8,18.45a21.15,21.15,0,0,1-1.66,2.09,1.84,1.84,0,0,1-2.44.28,1.7,1.7,0,0,1-.7-1.95c.34-1.45.74-2.88,1.06-4.34a1.89,1.89,0,0,0-.63-2,1.8,1.8,0,0,0-2.42.36c-1.33,1.2-2.62,2.44-3.85,3.73a9.46,9.46,0,0,1-6.34,2.91c-3.12.24-4-.45-4.06-3.71-.05-2.27-.23-4.34-1.85-6.19-2-2.24-2.75-2.36-5-.21-1.15,1.12-1.64,2.88-3.38,3.44-2.16.69-2.6,2.35-2.08,4.27a3.32,3.32,0,0,1-1.2,4C400,710,399,712.88,398.35,716c-.2,1.08-.31,2.24-1.43,2.54-2,.54-3.16,2.15-4.59,3.41-2.38,2.08-3.37,1.86-4.55-1-1.28-3.11-2.64-3.78-5.12-1.81-2,1.55-3.43,1.16-5.25.16-4.07-2.23-7.7-4.69-9.47-9.42-1.28-3.45-4.17-3.63-6.48-.77a30.4,30.4,0,0,0-2.27,3.83c-1.9,3.27-1.39,6.08,1.52,8.46s2.88,6.22-.29,8.49c-1.36,1-2.87,2-4.44,2-3.8,0-7.57-.14-11.4.1-2.53.15-4.13.39-5.49,2.43a44.26,44.26,0,0,1-6.38,7.43c-3.44,3.28-5.72,7.46-8.41,11.31-2.09,3-4.47,3.51-6.67.61-1.23-1.61-2.08-3.54-4-4.22-1.18.66-1,1.7-1.49,2.45-1.56,2.69-3.4,5.32-1.58,8.7.44.81-.1,1.64-.95,2.25-2.27,1.63-3.42,1.53-5.37-.68-.77-.87-2.33-2.13-2.74-1.27-1.38,2.92-4.65,3.77-6.15,6.79-2.5,5-7,8.18-12.65,9.63-3.51.9-6.54-.44-9.47-1.63s-4.66-.57-6.58,1.46a3.79,3.79,0,0,0-1.4,2.63,10.09,10.09,0,0,1-.33,2.63,2.18,2.18,0,0,1-1.91,1.66c-.91.08-1-.75-1.41-1.4-1.36-2.41-3.72-3.73-6.22-3-1.88.56-3.21.77-4.84-.69-1.12-1-2.74-1.17-3.31,1.12-.37,1.53-1.77,1.93-3.18,1.9a2.53,2.53,0,0,0-2.9,2.17c-.76,3.94-3.05,6.94-5.47,10-1.31,1.68-1.91,2.05-3.76.91-3.35-2.06-5.26-1.57-7.48,1.73a17.2,17.2,0,0,0-3,6.87,2.75,2.75,0,0,1-2.62,2.5c-3.66.67-4.46,1.19-4.43,4.76,0,4.21-3.16,6.58-4.74,9.83-.76,1.57-2.81,1.4-4.43,1.63s-1.52-1-1.77-2c-.36-1.4-1.34-1-2-.41a16.45,16.45,0,0,0-1.41,2.22c-2.26,3-5.17,5.28-9,4.57-3.59-.68-6.89.63-10.36.67-3.16,0-6,.78-9.41-.28-7-2.18-8-.83-6.48,6.44,1.06,4.88.44,6.13-4.22,8.39a11.29,11.29,0,0,1-3.23,1.45c-1.91.21-2.94.79-3.07,2.91-.17,2.8-3.44,2.37-4.82,4.13-.83,1-1.56-.83-2.47-1.18-2.72-1.05-4.45-.58-6.16,1.86a14.81,14.81,0,0,1-1.78,2.52c-2.89,2.65-6.67,4.3-8.71,7.89-4.88,1.84-6.67,6.09-8,10.57a3.13,3.13,0,0,1-2.32,2.34,13,13,0,0,1-4.42.44c-2.12,0-4.06.2-5.66,2-1.37,1.51-3.38,1.66-5.38,1.71s-4.15-.53-6.15.35c.79,5.13.11,6.47-4.23,9.7a17.68,17.68,0,0,1-7.39,3,76.54,76.54,0,0,0-9.34,2.9c-2.52.83-4.22,2.17-4.7,4.79-.83,4.5-4,7.06-7.59,9.29-1.64,1-3.33,1.94-5,2.87A8.41,8.41,0,0,0,57,914c-.33.48-.74,1-.46,1.63.41.88,1.21.71,1.92.56a24,24,0,0,0,8.4-4,6.93,6.93,0,0,1,4.56-1.41c1,.06,2.27-.07,2.53,1.26.3,1.52-.82,2.1-2.07,2.37-1.49.31-3.24.56-3.63,2.17-.75,3.12-3,3.68-5.64,4.12-1.75.29-3.44.94-5.18,1.33a13.63,13.63,0,0,0-8.28,5.65c-1.68,2.34-1,4.8-.19,7.27a1.9,1.9,0,0,1-.63,2.38,2.18,2.18,0,0,1-2.12-.3,7.63,7.63,0,0,1-4.42-6.74,2.59,2.59,0,0,0-1.91-2.68c-1.57-.48-2.53.43-3.4,1.51a5.38,5.38,0,0,0-1.06,3.79c.05,1.19.26,2.37.25,3.56,0,3.6-1.14,4.87-4.76,4.85a6.51,6.51,0,0,0-6.06,3A32.76,32.76,0,0,1,22.46,947c-1.78,2.13-1.88,4,.07,5.89A54.9,54.9,0,0,0,29,958.18a6.43,6.43,0,0,1,.73,10c-.73.65-1.63,1.12-2.38.4-2.34-2.21-3.3-.37-5,1.11-2.86,2.52-6.3,4.39-10.37,3.23a4.87,4.87,0,0,0-4.53,1,8.71,8.71,0,0,0-3.62,6C3.13,985.34.2,990.16,0,995.72c-.06,1.74.29,2.43,1.82,2.86,4,1.11,6.86-1.12,6.86-5.4a9.26,9.26,0,0,1,10.62-9.46c5,.77,7.47-.87,9.13-5.92.77-2.35,2.1-3.12,4.43-2.42a29,29,0,0,0,3.74,1.36,6.41,6.41,0,0,1,5.32,4.14c2.47,5.44,6.49,9.14,12.48,10.42,1.43.31,2.72,1.24,4.3,1,4.88-.85,7.51-3.77,8.09-9,.08-.73.31-1.45.42-2.18.75-4.87,2.69-9.45,3.68-14.22.69-3.28,1.78-5.39,5.06-6.51,2.68-.91,4.53-2.81,4.24-6a6.68,6.68,0,0,1,.3-2.2c.77-3,1.15-3.24,3.83-1.79a18.82,18.82,0,0,0,10.73,2.43c3.82-.34,7.38-1.3,9-5.44a5.21,5.21,0,0,1,4.36-3.41,21.64,21.64,0,0,0,6.2-2.4,56.2,56.2,0,0,1,6.15-2.62c2.69-.89,4.69-.27,6,2.22a6.12,6.12,0,0,0,5.33,3.45,53.22,53.22,0,0,1,7,1,10.24,10.24,0,0,0,8.71-2.3c4.78-3.7,6.81-3.25,9.78,1.79a8.48,8.48,0,0,0,11.58,3,3.07,3.07,0,0,0,1.59-3.76c-.65-1.67-.69-3.75-1.65-5-2.9-3.71-3.44-6.9.14-10.52.83-.84.37-2.89,1.66-3.95a21.41,21.41,0,0,0,6.43-10c1.16-3.37,4-4.18,7.29-2.74A6.87,6.87,0,0,1,188,915a5.54,5.54,0,0,0,2.89,2.67,6.94,6.94,0,0,1,4,3.92c1,2.17,2.82,2.87,5.16,2.61a11.67,11.67,0,0,0,3.87-1c1.79-.87,3-.17,3.35,1.59a9.69,9.69,0,0,0,4.25,6.09,12.32,12.32,0,0,1,5.93,8.47c.32,1.81,1.64,2.44,3.2,2.54a3.22,3.22,0,0,0,3.22-2c1.2-2.42,1.87-4.83-.83-7.24-3.4-3-4.13-6.51-1.68-10.74a118.68,118.68,0,0,0,5.31-11.29,16.07,16.07,0,0,1,6.58-7.57c2.37-1.43,4.29-1.69,6.55-.16a42.37,42.37,0,0,0,6.08,3.73c2.39,1.08,3.54,2.52,3,5.18-.2,1,0,2.1-.23,3.11a7.73,7.73,0,0,0,2.28,7.28c1.42,1.52,2.7,3.18,4.1,4.68,3.93,4.2,7.15,4.88,11.6,3.14a62.59,62.59,0,0,1,9.87-2.73c7-1.48,14-2.94,20.91.69a19.1,19.1,0,0,0,2.58.66c2,.69,4.14,1.11,5.77,2.29,3.44,2.47,7.33,3.85,11.14,5.5s7.75,3.37,11.19,6.24c4.1,3.42,8.59,3.92,13.18-.51a76.46,76.46,0,0,0,6.31-7.51c3.13-3.94,3.8-4.12,8.23-2.08a9.36,9.36,0,0,0,3.77,1.29c3.33,0,6.43,1.1,9.57,2,4.28,1.24,10.77-2.38,12-6.71,1-3.56,2-7.13,3-10.69.95-3.29.84-3.7-1.85-5.58a20.22,20.22,0,0,0-2.64-1.67c-1.79-.89-2.11-2.33-1.8-4.11.57-3.21,1.17-6.41,1.62-9.64a2,2,0,0,1,2.38-2A10.11,10.11,0,0,1,385,896c3.82,1.56,7.13.38,9.9-2.12,3.56-3.2,7.72-4.9,12.21-6.17,3-.86,5.63-1.5,7.5,2.18.82,1.62,3,2.38,4.73,3.2a11.45,11.45,0,0,1,3.17,1.57c1.94,1.86,4,1.58,6.22.88a36.19,36.19,0,0,1,7.32-1.85c7.21-.73,14.31-2,21.69-1,4.08.52,6.89,1.62,9.13,5.14,4,6.31,7.92,7,13.62,2.41,3.65-2.92,8-4.62,11.82-7.13a5.37,5.37,0,0,1,3.37-1c4.53.43,8.45-1.39,12.31-3.33a10.65,10.65,0,0,1,6.9-.8c3.73.61,6.91,2.7,10.6,3.39,2.16.41,3.84.53,5.85-.68a17.49,17.49,0,0,1,9.33-2.57,50.61,50.61,0,0,1,22.76,5.55,9.23,9.23,0,0,0,10.41-.68,17,17,0,0,1,11.06-2.62c3.27.22,6.54.26,9.8.41,5,.23,10.08.29,14.83,2.53a15.24,15.24,0,0,0,7.4,1.4,28.94,28.94,0,0,1,10.13,1.29c.85.26,1.69.72,2.59.35,2.58-1.07,5.28-.76,8-.74a11.33,11.33,0,0,0,5.53-1.31c7.39-3.84,15.21-6.58,23.06-9.38a58.43,58.43,0,0,1,23.57-3.62c1.93.12,3.87,0,5.81,0a16.27,16.27,0,0,0,8.07-2.23c1.29-.74,2.63-1.38,4-2,5.85-3,12.4-4.09,18.26-7.09a40.5,40.5,0,0,1,12.65-4.17,8,8,0,0,0,6.6-6c1.76-5.93,5.62-10.4,10-14.47a15.72,15.72,0,0,1,6.18-3.37c5.83-1.8,12.12-1.57,17.73-4.24a2.54,2.54,0,0,1,1.76,0c4.3,1.56,8.52-.35,12.79-.24a10,10,0,0,0,9.18-5.34,14.32,14.32,0,0,1,5.83-5.36,27.74,27.74,0,0,0,9.63-7.76c3.94-5.22,8-10.3,9.54-16.88a13.82,13.82,0,0,1,3.54-6.13c3.2-3.38,3.53-3.4,7.13-.24,4.42,3.88,9.54,4.9,15,2.84a32.64,32.64,0,0,0,17.41-14.61c3-5.33,7.18-9.54,11.45-13.6,3.44-3.29,5.77-6.58,6-11.41.08-2.27,1-2.76,3.3-2a4.44,4.44,0,0,0,3.34-.08A41.47,41.47,0,0,1,909.64,754a21,21,0,0,0,9.39-2.36c4.68-2.25,9-5.37,14.11-6.6,6.93-1.67,13.91-3.13,21.11-3.22,5.06-.05,9.68-1.29,13.11-5.47a66.09,66.09,0,0,1,5.48-5.87c3.72-3.55,6.64-8,11.85-9.9s9.87-5,15.73-4.19a7,7,0,0,0,3.41-.88,28.65,28.65,0,0,1,14.41-2,12.5,12.5,0,0,0,7.7-1.34,43.55,43.55,0,0,0,10.19-7.11c5-4.73,10.54-8,17.95-7.08,5.23.63,9.17-2.23,11.85-6.49,2.14-3.4,3.72-7.14,7-9.7a2.93,2.93,0,0,0,.82-1.53c.9-3.82,3-7.11,4.6-10.61a7.82,7.82,0,0,1,3.94-4,56.22,56.22,0,0,1,8.13-3.49c4.47-1.38,8.45-6.45,7.51-9.94-1.1-4.06,1.2-6.14,3.51-8.43,1.39-1.39,2.92-1.3,4.35,0,.86.82,1.65,1.72,2.56,2.49,4,3.38,7.27,3.08,10.24-1.11,2.11-3,4.65-4.28,8.38-3.74,4.16.59,5.45-.29,7.07-4.27a3.5,3.5,0,0,1,3.36-2.34c3.1-.34,6.56-.14,9.17-1.5a63.11,63.11,0,0,0,13.92-9.87c2.23-2.09,1.91-2.43,4-.05,2.78,3.23,5.6,3.47,8.75.77.65-.56,1-1.56,2-1.59,1.19.27,1.45,1.4,2.07,2.2a15.92,15.92,0,0,0,9.66,6c1.71.36,3.3.29,4.4-1.3a3.9,3.9,0,0,1,5.09-1.46c2.83,1.06,4.92-.08,6.6-2.28,3.52-4.63,3.28-10.25,4-15.6.13-.9-.88-1.49-1.31-2.26A13.21,13.21,0,0,1,1203.65,600.36ZM916.22,641.11c-.18-.1-.38-.18-.58-.27C915.84,640.93,916,641,916.22,641.11ZM904,635.86a3.35,3.35,0,0,1,2,1.29A3.35,3.35,0,0,0,904,635.86Zm2.91,2.77a3.63,3.63,0,0,0,2,1.5A3.63,3.63,0,0,1,906.89,638.63Z"/><path class="cls-2" d="M640.7,140.35c.14,2.86-.12,5.47-2,8-1.34,1.81-2.62,4-2.45,6.57.13,2,.66,2.34,2.5,1.59,1.42-.58,2.23-2.54,4.32-1.92.52,3,.58,5.89-1,8.65a4,4,0,0,0-.05,4.55c.94,1.5,1.14,3.36,2.23,5,1.28,2,2.75,4.67.52,7.3a1.33,1.33,0,0,0,.61,2.2c3,.62,4.43,3.39,7,4.44-.6,2.59-2.93,5.39,1.12,7.14a.91.91,0,0,1,.45.71c-.47,3.19,1.49,5.89,1.73,8.93a5.18,5.18,0,0,1-1.88,4.3,18.15,18.15,0,0,0-5.54,13.85,13.12,13.12,0,0,1-1.4,5.54,1.26,1.26,0,0,1-1.36.91,1.46,1.46,0,0,1-1.21-1.14c-.39-1.41.08-3-1.08-4.24s-.74-2.61,0-4.07c1.64-3.4.86-6.49-2.17-8.5a51.85,51.85,0,0,0-6.6-3.67c-2.16-1-3.54-.18-3.45,2.32.13,3.79-.11,7.7,2.11,11.16,2.55,4,2.77,8.14,1.5,12.74a16,16,0,0,0,1.75,12c3.85,6.67,4.2,13.56,2.73,20.61-.86,4.14-1.68,7.8,2,10.89.07.06,0,.27,0,.79-3.57.35-3.83,3.18-4,6-.08,1,0,2.09,0,3.13-.14,4.16-1.53,6.07-5.4,7.33a6.19,6.19,0,0,0-2.35,1.21c-1.78,1.64-1.65,3,.46,4.15,4.05,2.3,4.4,3,1.82,6.65-1.87,2.64-2.85,5.13-1.49,8.22.24.53.58,1.48.37,1.66-2,1.8-.25,3.71,0,5.23-1.35,1.16-3.46-.24-4,2-.34,1.48.19,3.44-2.42,3.43-1.69,0-3,2-5,1a4.23,4.23,0,0,0-2.61,0c-1.14.26-2.53.57-2.63,2a3.64,3.64,0,0,0,2.19,3.59,5.06,5.06,0,0,0,2.18.24c.77,0,1.54,0,1.79.91,1.12,4,3.94,7.62,2.88,12.2-.29,1.28,0,2.68-.1,4-.16,1.53.06,2.39,1.85,2.82s2.79,2.24,2.63,4.18a8.54,8.54,0,0,0,1.88,5.79,7,7,0,0,1,1.39,2.77c.69,5.41,4.33,8.07,8.76,10.39,1.92,1,2.67.44,3.57-.94.73-1.12,1.35-2.32,2.18-3.36,1.28-1.61,1.75-1.49,2.92.51.23.39.44.76.95.74a1.75,1.75,0,0,0,1.18-1.73c-.34-3.49,2.32-5.34,4.14-7.57s6.28-1.74,8,.31c.52.62.88,1.46.34,2-1.88,1.89-1.78,5.08-3.54,6.56-3,2.55-2.76,5.65-2.17,8.52a14.32,14.32,0,0,1-1,8.56,10,10,0,0,0-.85,3.9,4.66,4.66,0,0,0,2.84,4.21c1.62.83,2.29-.89,3.28-1.65s1.47-2,2.69-2.28c3-.72,3.92-3,4.43-5.56a11.45,11.45,0,0,1,2.17-4.34c1.42-2,3.44-2.21,5.58-1.92s3.18,2.08,3.77,3.93a12.24,12.24,0,0,1,.29,3.54c0,4.15,0,8.28.79,12.42.54,2.68,1.65,5.46.27,8.3-.32.66.31,1.4.74,2,1.45,2,.82,4.31.81,6.5,0,1.87-1.7,1.7-2.86,2.22-.77.34-.58,1.27-.8,2-.72,2.26-1,5.13-4.7,3.62-.47-.19-1.43.39-1.95.86a37.57,37.57,0,0,0-3.39,3.52c-1.19,1.39-2.17,2.88-1.13,4.85,1,1.8,0,3.22-1.21,4.36a5.3,5.3,0,0,0-1.88,4.73c.25,2.32-.25,3.53-3.16,3.2-2.71-.3-3.43.93-2.72,3.55a17.36,17.36,0,0,1,.55,3c.55,6.34.76,12.73,2.84,18.84a9,9,0,0,1,.53,1.7,2.68,2.68,0,0,1-2.75,3.23,15.1,15.1,0,0,1-2.6-.56,1.92,1.92,0,0,0-2.06.46,1.86,1.86,0,0,0,.29,2.44,21.1,21.1,0,0,0,1.91,1.87c3.48,3.11,3.48,3.1,1.45,7.44-.25.54-.53,1.07-.8,1.6-.63,1.26-.36,2.08.84,3,1.71,1.32,3.08,2.73,5,.2a2.39,2.39,0,0,1,3.57-.59c1.46,1.25.76,2.69-.24,3.93a15.87,15.87,0,0,0-3.07,5.91c-.77,3.1-.94,6.37-4.93,8.28,3,.57,4.62-.16,6-1.71,2.87-3.25,6.5-5.61,9.78-8.36a7.45,7.45,0,0,1,1.81-1.28,2.84,2.84,0,0,1,3.51,1.19c.7.93.92,2.15,0,2.81-2.24,1.51-1.76,3.8-2.28,5.91-.91,3.69-.87,7.73-3.52,10.87-.47.56-.9,1.4-.46,2.06,1.78,2.71,2.12,5.8,2.59,8.89.45,2.93,3,1.85,4.67,2.09s2.21-1,2.2-2.57c0-3.06,2.06-6.35-1.19-9.07-.41-.35.12-1.71,0-2.58-.26-3.51,1.84-6.65,1.71-10-.14-3.59,1.33-6.33,3.48-8.88,1-1.15,2.07-2.17,2.24-3.75.32-3.09,3.79-4.51,4-7.67,0-.35.88-.72,1.41-.94,2.08-.84,2.23-1.52.23-2.89s-1.78-2.4.29-3.37a8,8,0,0,0,2.86-2.64c2.51-3.18,3.56-7.16,5.89-10.42.53-.75.65-2.07-.25-2.37-1.78-.57-2.62-2.55-4-2.92-1.68-.44-3.1,1.41-4.54,2.43-.48.34-.84.85-1.31,1.22-2,1.62-4.61,3.37-6.79,1.45s-5.74-3.46-4.43-7.83c.9-3-.62-4.09-3.6-3-4.21,1.5-5.65.54-6-4a18.43,18.43,0,0,1-.06-3.56c.32-2.45,2-3.3,5.83-3.52,2.34-.14,3.15.95,3.36,3.1.22,2.31,1.05,4.3,4,4.8.33-3.2,1.69-6.11.52-9.29-.41-1.09.17-1.91,1.2-2.92,2.63-2.54,6.4-2.62,9.13-4.93,1.47-1.25,3.56,0,4.82,1.84.83,1.24.33,3,1.6,4.07,1-.37,2-.76,2.93-1.06,3.16-1,3.28-.88,3.45,2.32.08,1.49,0,2.93,1.09,4.2,2.18,2.61,3.81,2.44,5.17-.67.7-1.61,1.07-3.28,2.38-4.7,3-3.2,5.11-6.85,4-11.53a3.61,3.61,0,0,1,1-3.29,12.94,12.94,0,0,0,2.18-3.86c1.6-4.06,4.34-7.68,4.56-12.27a4.87,4.87,0,0,1,1.62-3.12,6.59,6.59,0,0,0,1.78-7c-1.63-5,1.34-8.42,3.7-11.85,2.16-3.15,3.86-6.05,3.77-10.09-.08-3.44-.87-6.77-.93-10.16-.07-3.77-1.13-7.26-1.94-10.88-1-4.52-4-8.8-2.35-13.79a1,1,0,0,0-.3-1.17c-3-2.19-1.8-5-1-7.62a13.14,13.14,0,0,0,.67-5.26,1.45,1.45,0,0,0-1-1.35c-.77-.25-1.67-.16-1.92.61-.68,2.12-3.68,2.58-3.57,5.28,0,1.07-.8,1.77-1.94,2.15-2.25.76-4.39,1.94-6.68,2.45a4.37,4.37,0,0,0-3.35,2.44c-.86,1.62-7.35,3.33-8.92,2.61a2.12,2.12,0,0,1-1.42-1.62c-.06-2.05-1.58-3.46-2.11-5.31-.91-3.22-1.88-3.95-5.07-3.27a28.52,28.52,0,0,1-7.52.67,5.1,5.1,0,0,0-5.17,2.75c-2.81,5-7.23,8.86-9.41,14.3-1,2.6-2,2.56-4.4.67-4.76-3.74-4.76-3.74-1.59-8.86a5.41,5.41,0,0,0,.42-.79,6.29,6.29,0,0,1,4.62-4.35c5.59-1.32,8.78-5,9.89-10.94-1.83.24-3.54-.48-4.63,2.06-.75,1.76-2.83,2.62-4.92,2.52a6.14,6.14,0,0,0-5.1,2.26,9.29,9.29,0,0,1-2.11,1.61,1.59,1.59,0,0,1-2.05-.06,1.87,1.87,0,0,1-.29-2.44c.28-.52.72-.95,1-1.44.74-1.15,3-1.86,1.86-3.54-.9-1.33-2.44.16-3.7.32-1.07.14-2.19.27-2.87-.69a2.63,2.63,0,0,1,.23-2.94,5.8,5.8,0,0,0,.72-1.13c.66-2.22,1.26-4.45,1.88-6.68-2.29-1.51-.43-2.8,0-4.42.84-3.54,3.06-6.37,4.27-9.7.59-1.6.73-3.06-.4-4.12-1.9-1.77-2.13-4.15-3-6.33-1.24-3.14-1.51-5.88,1.09-8.61a5.56,5.56,0,0,0,1-5.91c-1-2.65-1.36-8.36-.56-10.88.18-.56.35-1.13.54-1.7.75-2.25,1.41-4.53,3.27-6.25a4.17,4.17,0,0,0,1.29-2.29c.61-4.46,3.58-8.05,4.36-12.5.6-3.5,1.8-4,6.13-4.22,1.58-.09,3.37,1.6,4,4.15.36,1.43.37,2.88,1.68,4,1.67,1.38,1.27,2.94-.18,4.18-1.76,1.51-2,3.38-2.17,5.57-.24,3.57-.87,7.17-4.27,9.34a2.44,2.44,0,0,0-1,2.71,73.37,73.37,0,0,0,2.73,13c.58,1.89,2,3.28,3.36,4.67a3.15,3.15,0,0,0,2.4,1c1,0,2-.44,1.54-1.53-1.87-4.42-1.15-9.44-3.36-13.75a7.45,7.45,0,0,1-.43-4.81c.33-1.88,1.82-2.11,3.4-2.16s1.86,1,2,2.33a45,45,0,0,0,3.12,12c1.65,4.47,1.86,9.67,6.17,12.94.89.68,1.07,2.08,1.28,3.27.65,3.68,1.05,7.49,5.34,9.08a4.36,4.36,0,0,1,1.58,1.56,56.78,56.78,0,0,1,5.86,8.39c.5,1,.92,2.2,2.63,1.62,5-1.7,9.54.19,13.95,2.12,3,1.32,3.72,1.29,4.44-1.94.36-1.61.46-3.23,1.8-4.42,3.89-3.43,6.33-8.28,10.93-11.07,2.59-1.57,3.17-4.15,2.54-7-.47-2.16-2.51-2.69-4.16-3.75a33.37,33.37,0,0,0,2.35-3.48c1-2,2.12-4.49,1-6.27-1.7-2.59-1.48-4.85-1-7.56.41-2.06,1-3.39,3.25-3.36s2.31-1.3,1.73-3a21.35,21.35,0,0,1-.95-3c-.47-2.48-1.09-5.07.49-7.35,2.23-3.24,2.54-6.9,2.72-10.62.23-4.92.86-5.55,5.88-5.6,1,0,2.09,0,3.13,0,1.56.07,3,.43,3.54,2.14.38,1.25,1,1.78,2.27,1.27a4.12,4.12,0,0,1,2.18-.1c2.89.4,5.87,1.24,7.24-2.81.43-1.29,2.2-.84,2.58.61a8.58,8.58,0,0,1,.14,1.77c.24,4.26.23,4.26,4.68,4.28.74,0,1.49.07,2.23.07a3.84,3.84,0,0,0,3.76-2.39c1.7-3.07,4.32-5.65,2.9-9.64-.16-.45.32-1.12.48-1.69a13.18,13.18,0,0,1,2.91-5c1.77-2,1.4-4.65-.52-5.3-3.52-1.21-3.67-1.38-3-4.89.24-1.16.63-2.12-.18-3.34-2.17-3.25-2.24-3.7.61-6.21s3.53-4.88,2.09-8.24a16.15,16.15,0,0,1-1.22-4.74c-.27-2.59-.68-5.4,2.48-6.76a2.08,2.08,0,0,0,1.43-1.54c.48-2.68,2.37-3.16,4.66-3s3.65-.9,4.91-2.53c3.05-3.92,4.44-8.15,2.75-13.07-.44-1.29-1.21-2.14-2.61-1.78s-2.72.81-2.07,2.71a3.75,3.75,0,0,1-.43,3,3,3,0,0,0,0,3.26c1.14,1.87,0,3.34-2.14,3.53a3.69,3.69,0,0,1-3.41-1.71c-.45-.59-1-1.28-1.81-.85a1.38,1.38,0,0,0-.56,1.92c1,2.3-.26,3.67-1.91,4.89a15.9,15.9,0,0,0-4.7,4.72c-1.73,3.07-3.09,6.42-7.31,6.75a1,1,0,0,0-.67.56c-.71,2.23-3,2.94-4.55,3-4.81.12-7.13,3.62-10,6.39a11.91,11.91,0,0,1-1,.92c-2.54,1.89-5,1.16-6.22-1.79-.38-1-.79-1.92-1.22-2.87-1.15-2.55-1.15-2.54,1.15-4.5-4.22-2.14-4.74-3.44-3.05-8,.46-1.25,1.1-2.44,1.68-3.65a5.43,5.43,0,0,0,.73-3.42c-.69-3.82-1.36-7.65-2-11.35-.74-.26-.46,1.81-1.28.44-.6-1,.36-2.6-1.31-3.45-5.09-2.61-3.22-7.63-3.84-11.76a1.8,1.8,0,0,1,1-1.38c3.67-1.5,4-5.18,4.53-8.09,1-5,1.5-10,4.25-14.37a4.28,4.28,0,0,0,.59-3c-.33-1.9.39-3,2-4,1.11-.63,2.22-1.46,2.21-3.09,0-2.66.53-3.26,2.77-3.13,1.25.08,2.57,1.17,3.64-.37,2.3.78,2.3.78,2.43-2.44a3.9,3.9,0,0,0-1.19-.28,4,4,0,0,1,1.2.28,7.39,7.39,0,0,0,.7-1c-2.17-2.11-.82-3.92.43-5.75,3.41-5,5-11.35,10.57-14.83.23-.14.31-.5.51-.72,4.71-5.33,2.73-11.82,3.12-17.9-2.72-3.22-.46-5.82,1.18-8.4,1.27-2,2.74-4.19,5.41-4.09S807,70.22,807.94,72c1.59,3.06,3.47,5.69,7.63,5.69,3,0,6.37.3,7.33,4.27.05.24.43.39.65.59,3.74,3.52,4,4.68,1.41,9.14-2.34,4.11-5.23,7.89-7.43,12.1-.58,1.1-1.36,2.49-3,2.31s-2.79.52-4.15,1.22c-2,1.06-3.29.43-4.22-1.67a25.5,25.5,0,0,0-1.38-3.26c-1.38-2.19-4-2.51-6.17-.88-2.36,1.81-3.15,4.81-1.36,6.47,1.11,1,1.76,1.93,1.6,3.37-.26,2.37.48,3.71,3.16,3.45,1.81-.18,2.32.87,2.07,2.52a4.58,4.58,0,0,0,0,1.77c.58,2.31,2.41,2.91,4.3,1.26,1.07-.93,1.71-.79,2.64,0,2.15,1.9,2.38,4.18,2,6.89-.67,4.37-3.43,8.3-2.58,13a2.29,2.29,0,0,1-1.26,2.24c-4.16,2.23-3,5.6-2,8.94a3,3,0,0,0,3.33,2.38c1.7-.11,1.92-1.52,2-3,.19-3.16.23-3.15,3.73-3.3,2.19-.09,5.69-2.43,5.26-4-.79-2.82.76-4.82,1.49-7.15a17,17,0,0,0,.42-7.44c-.66-5.28-.53-10.42,3.14-15.15a18.56,18.56,0,0,0,3.82-11.29c.1-5.89-2.53-11.61-.4-17.7,1.11-3.18.35-3.45,3.84-3.91,1-.13,2.42.09,2.72-1.07.65-2.56,2-5,1.61-7.79a2.7,2.7,0,0,0-2.19-2.41c-2.7-.89-2.89-1.37-2.18-4.08.25-1,1.16-2,.68-3-1.77-3.41.52-5.21,2.58-7.17,1.18-1.13,2.32-2.31,3.47-3.48.62-.65,1.43-1.37,1.22-2.28-.93-4.07,0-8.4-1.26-12.27A29.41,29.41,0,0,1,838.92,27a8.8,8.8,0,0,0-.41-2.63c-.81-2.77-2.9-5.26-1.8-8.45a1.09,1.09,0,0,0-.26-.76c-2,.19-3.07-2.91-5.05-1.92a5.21,5.21,0,0,0-3,5.12,8,8,0,0,0,.31,1.75,16.26,16.26,0,0,1-.52,10.49,23.9,23.9,0,0,0-1.65,8.71c0,3.51-2.42,6.56-2.26,10.19,0,.44-.65,1-1.07,1.37a15.72,15.72,0,0,1-4.54,3.49c-4.18,1.93-4.67,3.21-4.1,8a15.07,15.07,0,0,1,.07,2.23c0,.9,0,1.88-1.14,2.15a2.19,2.19,0,0,1-2.26-1.12,15,15,0,0,1-2.54-4.69,1.75,1.75,0,0,0-2-1.3c-1.69,0-2.23,2-3.73,2.23-2.33.28-.78-3.14-2.89-3.22a4.43,4.43,0,0,1-.87-.16,3.42,3.42,0,0,1-2.66-2.16,5.92,5.92,0,0,0-3.8-3.51,4.47,4.47,0,0,1-3-4.94c.11-1.48.06-3,0-4.46-.07-4.28.47-8.58-1.47-12.72-.86-1.83-.45-4.12-.11-6.18.37-2.34.83-4.67,1.34-7,.44-2-.33-2.8-2.28-2.72a12.78,12.78,0,0,1-2.23,0c-3.78-.5-7.88,2.46-11.41-1.09-.24-.24-1.12.18-1.71.25-1.18.15-2.35.33-3.54.39-3.09.14-6.23.08-8.38,2.95a1.81,1.81,0,0,1-1.17.61,11.08,11.08,0,0,0-7.7,3.89c-.74.86-2.31,1.55-3.26.72-3-2.59-6.36-1.52-9.7-1.73s-7.46.3-8.45-4.58c-.13-.65-.82-.77-1.39-.94-2.13-.65-4.16-1.49-6.49-1.4a90.21,90.21,0,0,1-10.27-.13c-3.89-.3-7.71-.42-11.3,1.4-1.17.59-2.27.17-3.45.07-6.08-.52-11.67-3.4-17.83-3.6-2.92-.1-4.31.15-5.12,3-1.38,4.82-3,9.63-2.89,14.77.11,4.11-.85,8.32-3.21,11.36a23.11,23.11,0,0,0-4,9.12c-1,4.22-.64,8.53-1.41,12.79-.83,4.6-1.74,8.87-4.79,12.62s-2.08,7.4,2,10.14a3,3,0,0,1,1.57,2c1.25,5.43,1.08,10.93.81,16.43-.08,1.78-1,2.87-3,1.83a2.58,2.58,0,0,0-3.28.24c-3,2.75-6,5.58-6.93,9.66-1.21,5.53-4.28,10.28-6.22,15.5A23.43,23.43,0,0,0,640.7,140.35Z"/><path class="cls-2" d="M532.79,429.73c1.14-1,2.15-1.53,3.57-1,2.84,1,4.45-.68,5.91-2.64,2-2.71,2.17-2.75,5-1.42.87.41,1.49,1.52,2.93,1,0-.65,0-1.38.13-2.1.38-3,.47-3.17,3.61-2.6a2.26,2.26,0,0,0,2.67-.86,1.32,1.32,0,0,1,1.95-.35,1.8,1.8,0,0,1,.69,2,24.22,24.22,0,0,1-3.62,6.57c-1.27,1.73-3.09-.2-4.6.34-.23.08-.38.38-.69.72,1.06,2.68,2,5.5,3.28,8.17s1.55,2.54,3.16.24c.94-1.34,2.16-1.42,3.5-1.46,3.68-.11,7.3.65,11,.48,3-.14,3.92-.63,2.71-3.3a27,27,0,0,1-1.62-6.34c-4.22,0-4.23,0-4.2-4.07,0-1.33-.2-2.72.63-3.9a3.05,3.05,0,0,0,.18-2.93,25.69,25.69,0,0,1-.91-10.88c.84-6.27,4.55-10.75,8.58-14.95,2.4-2.51,6-3.82,8.51-6.32,1.93-1.88,1.94-3.05-.32-4.58-1.38-.93-2.84-1.61-2.73-3.66,0-.66-.61-1-1.23-1-1.79-.07-2.45-2.11-4-2.41a40,40,0,0,1-3.07,2.76,3.21,3.21,0,0,1-3.37.55c-1.37-.69-1-2.1-.78-3.19.41-2,1.09-4,1.65-6,.35-1.28.86-2.56-.19-3.77a3.48,3.48,0,0,0-.89.12c-1.28.54-2.63,1.08-3.66-.25s-.63-2.51.49-3.58a1.68,1.68,0,0,0,.43-2c-2-4.21.37-8.44,0-12.67-.15-1.65.93-2.86,2.89-2.41a4,4,0,0,0,4.23-1.85,4.41,4.41,0,0,1,4-2.22,2.83,2.83,0,0,0,2.75-2.51c.37-1.58,1-3.39.6-4.8-1.57-5.12,1.78-9.91.69-14.93a2,2,0,0,1,.72-1.57c2.11-1.62,1.81-3.91,1.82-6.1,0-2.52-.56-5.18.05-7.54a25.07,25.07,0,0,0,.57-7.9c-.14-2.64-.22-5.51,1.15-7.86a62.72,62.72,0,0,0,3.36-7.73c1.11-2.64,2-5.53,5.6-6.27,1.43-.29,2.21-2.43,2.51-4,.46-2.46,1.31-4.89,1.06-7.48-.28-2.85.52-5.57,1.06-8.36.72-3.74,2.32-7.49,1.32-11.37-.69-2.67-.45-5.31-.62-8-.15-2.43.76-4.67,1-7,.62-6-1.62-12.34,2.34-17.93.51-.72.23-2,.24-3.07,0-4.88-.6-9.87,3-14a1.59,1.59,0,0,0-.52-2.34c-.71-.53-1.39-.19-2,.31a6.48,6.48,0,0,0-2.4,6.77c.61,2.28-.25,3.33-1.77,4.46a36.28,36.28,0,0,1-3.88,3c-3.37,1.85-6.52,5.08-10.85,1.69-1.77-1.38-2.79.27-3.21,1.73a11.22,11.22,0,0,1-4.14,6.64c5.33,1,7,3.73,6.26,7.95-.1.58,0,1.19,0,1.78-.31,4.18-2.08,7.4-6.21,8.82a5.93,5.93,0,0,0-4.06,4.3c-.45,1.5-.48,3.54-2,4.32s-.88.52,0,1.29a4.36,4.36,0,0,1-.4,6.65c-1.4,1.13-2.9,1.5-4.82-1.17-1.18-1.65-2.59-3.26-5.14-2.84a2,2,0,0,1-2.43-2.42c1-5.27-1.45-9.78-2.83-14.52-.18-.61-.43-1.13-1.14-1.17-1-.07-1.34.57-1.37,1.37-.07,2.23-.21,4.47-.07,6.69.25,4.09.38,8.08-3.12,11.11a2.72,2.72,0,0,0-.59,1.19c-.78,2.48.63,4.2,3.12,3.47,1.65-.49,2.84-.42,4,.77a5.2,5.2,0,0,0,2.75,1.41,6.15,6.15,0,0,1,5.31,5.24c.51,2.48,1.82,3.93,4.7,3.5,2.2-.32,3.26,1.06,3.48,3.14.29,2.74.21,5.3-2.32,7.21-.86.64-2.42,1.69-1.54,2.84,1.92,2.51,0,3.64-1.23,5.28-2.19,2.95-4,6.43-2.51,9.94a25.06,25.06,0,0,1,1.92,8.16c.18,2.45-.35,2.88-2.34,2.94a3.38,3.38,0,0,0-2.66,1.46c-1.86,2.41-4.5,3.86-6.94,5.53-1,.71-2,1.24-1.89,2.69.15,2.15-1.15,2.81-3,3-1.57.15-2.48.94-1.94,2.72.73,2.43,1.15,5.12,4.66,4.93,1.25-.06,1.84.59,2.1,1.8a15.06,15.06,0,0,1,.61,3.92c-.19,4.35,2,8.65.35,13.05a.49.49,0,0,0,.1.42c2.19,2.41.83,4.67-.23,7a9.21,9.21,0,0,0-.83,2.52c-.25,1.76-.67,3.3,2.15,3.86a4.76,4.76,0,0,1,3.81,5.27c-.52,3.88-1.72,7.57-4.66,10.25a4.12,4.12,0,0,0-1.41,3.93c.4,3.25-.7,6.15-1.81,9.07a2.93,2.93,0,0,1-4.62,1.27c-1.36-1-2.51-5.27-1.33-6.42,1.83-1.79,1.26-3.51.46-5.28-1.19-2.64-2.16-5.09-.47-8,.89-1.54-.49-3-2.25-2.55s-3.41,1.19-3.35,3.53c0,.94.64,2.07-.89,2.89a16.44,16.44,0,0,1-4.8-5c-1.25-2-.24-4.55-1.17-7.16a12.08,12.08,0,0,0-4,9.1c0,2.22.24,4.46-.35,6.66-1,3.9-1.08,7.93-1.53,11.91-.51,4.46.86,8.64,1.42,12.88,1.15,8.68,0,17.15-.9,25.68a21.49,21.49,0,0,1-1.19,6.12,5.19,5.19,0,0,0-.26,2.19C529.7,430.23,531.27,431.05,532.79,429.73Z"/><path class="cls-2" d="M1227,424.19c-2.11-.75-1.86-2.4-1.92-4-.18-5,.72-9.94,0-14.91-.21-1.4.72-3.28-.8-4.08-1.94-1-2.76,1.06-3.91,2.1-.17.15-.53.08-1.06.15-.74-2.69-3.14-4.51-4.11-7.12s-3.25-3.42-5.59-3.63a28,28,0,0,0-6.16.52,5,5,0,0,0-2,.83,4.23,4.23,0,0,0-2.1,4.15c.17,1.74,1.64,1.31,2.68,1.68a3.67,3.67,0,0,1,1.89,5.74,15,15,0,0,1-2.52,2.51c-2.42,2.14-4.13,1.74-5.29-1.26-.82-2.15-.45-4.41-.55-6.63-.16-4-.48-4.18-3.87-2.28a7.15,7.15,0,0,1-2,.9c-1.93.39-2.24,1.38-1.83,3.23.55,2.5-.25,3.5-2.58,4.13a3.87,3.87,0,0,1-4.58-1.88,14.46,14.46,0,0,1-2.09-7.19c-.29-4.63-2.43-8.77-4.06-13.59-.85.68-1.51,1.25-2.23,1.75a1.11,1.11,0,0,1-1.58-.11,3.78,3.78,0,0,1,.73-5.4c3.7-2.34,4.41-4.95,1.84-8.22a13.25,13.25,0,0,1-3.18-7.67c-.13-2.47-1.57-4.48-2.73-6.52-1-1.83-3.3-1.66-4.3.22a10.27,10.27,0,0,0-1.31,5.14c0,1.53-.58,2.76-2.14,2.9-1.77.16-4.6-.17-4.58-1.68,0-3.13-2.22-2.69-3.74-3.37-3-1.32-3.42-1.86-3-5a7.22,7.22,0,0,1,1.82-4.45,5.64,5.64,0,0,0,1.59-2.11c2.16-6.18,3.09-12.66,6.57-18.56a73.58,73.58,0,0,1,8.48-12.2c1-1.1,2.14-2.08,3.08-3.22s1.17-2.18-.56-2.76c-1-.34-2.32-.76-2.28-1.84.11-2.68-1.06-5.25-.59-7.92.43-2.45,2.37-4.78,1.3-7.31s-3.84-2.88-6.27-3.49c-.33-.09-.52-.68-.79-1-1-1.26-2.07-.58-3.19-.14s-.79,2-2.07,2.07c-2.15-3.09-2.49-3.1-5.08-.44a6.52,6.52,0,0,0-2.07,3.83,3.22,3.22,0,0,1-1.71,2.75c-1.9-1.38-3.73-3.14-6.34-3.63-1.24-.23-2.17-.53-3.16.62a2.29,2.29,0,0,0-.31,3.17,4.56,4.56,0,0,1,.87,2.95c-.07,1.09-.32,2.13-1.59,2.34a1.88,1.88,0,0,1-2.07-1.34c-.42-.95-.72-1.95-1.13-2.91s-.94-1.91-2.26-1.74-2.44.75-2.54,2.09c-.18,2.49-.73,5.06.66,7.42,1,1.76,2.6,3.35,1.23,5.68-1.68,2.83,3,3,2.4,5.51-.21,1-.3,2-.6,3a7.46,7.46,0,0,0-.33,4.39c.58,1.78,1.09,3.26-.67,4.8-1.33,1.17-1.07,3.61-3.67,4a3.71,3.71,0,0,0-3,4.4c.49,3.32-2,6.63.07,9.92a1.53,1.53,0,0,1-.07,1.3c-2,3.53-2.34,7.6-3.55,11.39a2.51,2.51,0,0,1-2.46,2c-3.25.47-4.26,4-2,6.41s4.66,5.08,2.79,9c-.29.6,0,1.47,0,2.21,0,3.85.45,7.67-.63,11.51-.66,2.33.48,4.7,1.41,6.86.66,1.53,2,1.45,3,0a6.06,6.06,0,0,0,1.13-1.91c1.17-5.34,2.87-10.61,1.78-16.21-.64-3.24-1.58-6.69,3.29-7.6a.88.88,0,0,0,.54-.64c.2-2.84,3.28-2.74,4.55-4.5a1.83,1.83,0,0,1,2.43-.51c2.83,2.15,5.77,1.64,8.87.87,1.75-.44,2.76.92,2.32,2.66-.23.93-1,1.42-1.56,2.12-1.4,1.86-1.27,2.39,1,2.95,1.38.34,3.17.65,2.83,2.16-.64,2.82.85,5.11,1.1,7.65.27,2.78,1.08,4.15,4.09,4.74,3.44.67,4.08,3,2.29,6.07-2,3.32-.91,5.35,3.06,5.3,3.1,0,5.16,1.16,6.4,3.84a7.44,7.44,0,0,1,0,5.24,9.91,9.91,0,0,0,0,6.71,3.2,3.2,0,0,0,2.17-1.91c1.17-1.87,3.88-.64,5-2.51,1-1.62-.58-3.9,2-5.9-.29,5.34,1.68,8.87,6.43,10.39.84-.88.52-1.72.33-2.6-1.11-5.15,1.87-7.94,7-6.67,5.36,1.33,7.34,6.27,10.52,9.87,1,1.14,1.52,2.87,2.5,4.18a18.32,18.32,0,0,1,3.83,9.34,7.6,7.6,0,0,0,3.26,5.62,5.42,5.42,0,0,1,2.82,4.82,11.62,11.62,0,0,1,5.17-1c1.56.18,1.94-.82,2-2.22.33-4.47-.91-8.74-4.22-11.38-3.95-3.15-3.66-7.06-3.85-11.12,0-.73,0-1.64.89-1.76a2.45,2.45,0,0,1,1.55.66,5.59,5.59,0,0,1,1.17,1.34c1.34,1.94,2.3,5,4.07,5.58,2.58.81,4.25,2.46,6.29,3.81,1.22.81,2,.4,2-1.05C1227.82,425.7,1228,424.52,1227,424.19Z"/><path class="cls-2" d="M188.22,542.85c3.52-1,4.6,1.26,5.75,3.8a13.09,13.09,0,0,0,3.22,3.68c2.36,2.26,4.49,4.72,6.62,7.19s3.38,5.28,5.68,7.32,4.69,3.39,6.26,6.1c.9,1.57,2.86,2.53,4.37,3.74a1.53,1.53,0,0,0,2.06.05c1.45-1.47,3.27-3,3-5.24a17.82,17.82,0,0,1,.32-4.75,19.8,19.8,0,0,0-1.44-10,13.83,13.83,0,0,0-8.16-7.15c-2.93-1-5.29-2.48-5.61-6.11a4.12,4.12,0,0,0-4.43-4.11,2.08,2.08,0,0,1-2.32-2.13c-.22-1.83-1.59-3.16-2.3-4.79-.4-1-1.18-2,0-2.73.94-.55,1.59.5,2.08,1.21,1.56,2.24,3.81,3.57,5.94,5.17s6,1.75,6.41,5.58c.05.5,1,.52,1.59.43,4.65-.76,6.87,2.26,8.4,5.8,1.26,2.91,3.73,5.41,3.35,9,0,.38.32.82.53,1.21.76,1.37,1.66,2.14,3.12.77.74-.68,1.75-2,2.59-1.18,2.89,2.71,3.48.9,4.23-1.68.81-2.78,1.66-3,3.5-.88,2.68,3.1,5.36,6.29,5.31,10.78,0,.73.07,1.52,1.11,1.5.12-.11.25-.18.31-.3.52-1.13.21-2.34.3-3.51.21-2.76.53-3,3.28-2.44.28.06.53.32.81.36a5.34,5.34,0,0,0,4.72-1.7c1.24-1.39-.22-2.58-1-3.89a38.14,38.14,0,0,1-2.68-6.58c-.78-2.4-1.22-4.91-2.92-7.06a16.34,16.34,0,0,1-1.65,1.19c-2.73,1.47-2.89,1.55-1.39,4.1,1,1.71.85,3.42.89,5.18,0,.7.16,1.55-.78,1.85s-1.38-.35-1.82-.94c-2.15-3-2.41-6.33-2.07-9.81.26-2.62,2.22-3.68,4.31-4.6a1.39,1.39,0,0,0,.4-.21c.9-.87,1.22-2-.2-2.36-2-.51-2.57-1.67-2.79-3.48A20.51,20.51,0,0,0,240,517.94c-1.4-1.21-1.89-2.38-1.55-3.75,1.1-4.45-.12-8.83-.07-13.24,0-3.27.41-6.61-.11-9.81-.7-4.38-.7-9.05-4.71-12.43-2.07-1.74-4.11-4.14-4-7.2.14-4.57-2-9.07-.38-13.68.23-.65-.13-1.48,0-2.21.48-3.91-2-7.35-1.62-11.32a28.24,28.24,0,0,0-.05-7.06c-.95-5.32-1-10.3,2-15a2.11,2.11,0,0,0,0-2.52c-2.47-3.3-2.7-7.15-2.64-11.05,0-2.18-1-4-1.72-6s-2.77-2.13-4.26-2.95-2.23,1-3.23,1.7a11.27,11.27,0,0,0-1.77,1.34c-2.15,2.38-4.15,4.82-2.06,8.28a3.85,3.85,0,0,1,.07,3.44,4.12,4.12,0,0,0-.06,3.48c2.27,3.92,1.62,8,.86,12.11a6.29,6.29,0,0,0,.77,5.13c1.94,2.71,2.22,6.09,3.07,9.07,1.09,3.85.58,8.18,1.08,12.31.28,2.39,1.09,4.63,1.26,7.1.33,4.69.26,9.5,1.56,14.1a21.44,21.44,0,0,1,1,7,6.26,6.26,0,0,0,2.45,5.47c1.15.92,2.63,1.87,2.68,3.42.11,3,1.29,5.81,1.1,8.82-.11,1.75.36,3.75-2.42,3.8a1.09,1.09,0,0,0-1,1.22c.17,2.7-2.36,4.11-3,6.07-1,3-2.25,3.88-5.07,3.23-.1,0-.26.14-.36.25-1.07,1.23-2.09,2.72-3.92,2.63-2.49-.12-2-2.53-2.8-4-.85-1.65-2.54-1.62-3.85-.28-2,2.08-4.08,4.29-7.27,4.63-.89.09-2.08.11-2.17,1.15-.32,3.68-4,7.26-.25,11.15a3.6,3.6,0,0,1,.42,4.22c-.82,1.44-3.67,1-3.31,3.6-1.51-.45-3.07-.81-4.53-1.4-1.05-.43-1.83-1.56-3.39-1.16,0,1.14,0,2.32,0,3.49C186.64,542.13,187.29,543.11,188.22,542.85Z"/><path class="cls-2" d="M252.77,53.56c.33,3.41.59,6.77,3.74,9.1,2.21,1.62,2,3.7.28,5.85a10.92,10.92,0,0,0,3.06.63c5.08-.43,7.84,3,10.6,6.31,1,1.17,1.65,2.65-.58,3.51-.6.23-1,1.24-.49,1.35,3,.67,1.76,3.41,2.63,5.09,1.07,2,1.93,2.22,3.51.32a3,3,0,0,1,2.19-1.3c1.77-.13,3.55-.27,5.32-.44s2.8.63,2.83,2.51a3.31,3.31,0,0,0,.73,2.46c.54-.43.9-.66,1.2-1,.71-.71.34-2.2,1.65-2.45s2.07,1,3.09,1.49c2.48,1.3,3.59,4,5.63,5.58,4.32,3.41,7.9,7.63,12.43,10.81,2.64,1.86,4,4.31,3.21,8-1.08,4.86-3.53,9.14-5.61,13.43a62.71,62.71,0,0,0-4.42,12c-1,3.72-1.28,7.6-2.75,11.21-.55,1.33-1.65,3,.32,3.8s2.93-1,3.7-2.43a4.19,4.19,0,0,0,.35-2.17c-.21-3.08.84-5.84,2-8.6a13.73,13.73,0,0,0,1.56-4.62c.13-2.68,1.44-4.73,3.14-6.7,3.29-3.82,3.46-4.32,4.91-9.46.08-.28.25-.54.32-.83.77-3.19,1.35-6.37.45-9.65a13.42,13.42,0,0,1-.27-7.91,3.24,3.24,0,0,0-.37-2.58A43.31,43.31,0,0,0,314,91.06c-1.91-2.58-3.28-5.74-6.55-7.1a16.77,16.77,0,0,1-10.11-11c-.62-2-2.05-3.67-4.62-3.44-2.24.2-4-1-5.77-2.06s-3.77-2.37-5.65-3.58S277,61.68,276.44,59c-.78-3.67-1.48-7.72.07-11s3.17-7,6.58-8.62c-2.23-4.17-4.88-7.83-4.4-12.6.18-1.84,1.19-3.11,3.27-2.72,1.28.24,2.33.35,3-1.05s.11-2.49-.74-3.66c-1.88-2.58-2-7,.42-8.81,2.84-2.15,2.3-4.85,2.58-7.56.23-2.17-.84-3-2.83-3-4.31,0-8.63-.1-12.94,0-2.69.06-3.68,1.46-2.11,3.72,2.47,3.51,1,6.15-1,8.87-1.37,1.83-2.55,3.67-2.19,6.08.5,3.42-.73,5.77-4.09,6.92A4.58,4.58,0,0,0,258.78,29c-.61,3.29-1.42,6.33-4.49,8.27a2,2,0,0,0-.56,1.59C254,43.83,252.3,48.62,252.77,53.56Z"/><path class="cls-2" d="M598.3,91.84c-1,1.8-.14,2.88,1.23,3.67,1.55.9,2.33,0,3-1.48a49.61,49.61,0,0,1,4.84-9,1.89,1.89,0,0,1,2.25-1c.83.33.69,1.22.7,1.93a8.75,8.75,0,0,0,5.32,8.42,3.47,3.47,0,0,1,1.69,2,7.75,7.75,0,0,1,.12,6.43c-1,2.49-2.51,5.35-1,8,2.67,4.56,1.12,9.51,1.8,14.23.15,1.08-.73,1.9-1.45,2.67s-1.23,1.75-.41,2.77c1.23,1.55,1.17,3.37,1,5.13-.26,2.86,1.58,5.05,2.21,7.62a1.22,1.22,0,0,0,2.11.63c1.94-2.21,5.44-3.49,4.64-7.45-.11-.53.36-1.15.34-1.73-.13-4.24,2.48-8.06,1.59-12.54-.44-2.18.85-4.62,2.71-6.35,1.51-1.41,3-.67,4.55-.08,1.2.46,2-.27,2.46-1.31s1.22-2.25.09-2.78c-2.84-1.32-2.24-4.3-3.43-6.39a4.93,4.93,0,0,1,.22-5.15c1.93-2.58,4.3-4.81,2.71-8.52-.2-.45.45-1.38.88-2,1.1-1.41,1.58-2.88.63-4.53s-.45-2.74,1-3.72a3.56,3.56,0,0,0,2-2.82c.09-4,.13-8,.17-12,0-.6-.16-1.22-.92-1.22s-1,.53-1.23,1.09c-.63,1.73-.33,3.54-.35,5.31,0,2.88-.89,5.26-3.57,6.68a4.29,4.29,0,0,0-2.67,4.24c.17,3.1-2.83,3.75-4.42,5.39-1.17,1.2-2.76.14-2.82-1.78-.1-3.38-.94-6.66-1-10.06-.1-4.36-1.39-8.7-.29-13.08.56-2.24,0-4.42-.1-6.63-3.7-2-1.21-4.64-.6-6.91s1.67-4.37,1.78-6.93A151.11,151.11,0,0,0,608.9,45c-2.13.42-4.5-.07-5.77,2.46-.36.72-1.32.49-2,.15-.46-.23-1.08-.21-1.13.19-.22,1.84-1.58,3.18-2,4.88-.34,1.36,1,2,1.63,3,1.54,2.32,2.6,4.62.62,7.36a5.44,5.44,0,0,0-.28,5.94c1.85,2.76.85,6.21,2.75,8.83a1.86,1.86,0,0,1,.09,1.7C600.41,83.29,600.48,88,598.3,91.84Z"/><path class="cls-2" d="M467.44,324.08c1.39-.29.55-2.06,2.11-2.45.19,1.38,1.09,1.76,2.5,2.18,2.57.75,5.18.17,7.72.82,1.4.36,3-.08,4.45.06,2.31.21,1-2.91,2.57-3.11,1.27.6.59,1.83,1.58,2.49.67-1.81,1.93-2.52,3.91-3a36.15,36.15,0,0,1,8.82-.85,28.8,28.8,0,0,0,7-1.25c1.51-.36,3.06-1.15,3.28-2.71.39-2.87,1-5.4,4-6.59.27-.11.3-.8.47-1.21,2.07-5.07,4.15-10.13,6.37-15.55-1.82-.68-3-2.67-4.92-3.36-2.57-.93-2.8-2.6-1.74-4.52a9.28,9.28,0,0,0,.57-8.11c-.38-1-.41-2.37.71-2.74,2.35-.79,3-3.38,4.92-4.38,3.85-2,1.54-5.62,2.45-8.36.07-.24-.41-.76-.74-1-2.74-2-5.34-4.65-8.72-5.19-3.72-.6-6-2.92-8.66-5.05-1.35-1.09-1.62-2.84-2.85-3.94-.78-.7-1.56-1.59-2.7-1.16s-1.11,1.68-1,2.7c.2,2.63.78,5.21,0,7.9-.4,1.39-.4,2.68-2.33,2.4-1.19-.18-2.08.12-2.14,1.54-.07,1.64-.25,3.33,1.34,4.47,1.41,1,2.12-.25,3-1a10.59,10.59,0,0,1,1.4-1.1c1.49-.89,2.82-.56,2.95,1.2.17,2.19,1.63,3.31,2.82,4.83,2.44,3.13,5.18,6.43,1.6,10.58,3.87,1,3.9,1,2.71,4.54a13.08,13.08,0,0,1-2.14,4.37c-3,3.7-5.6,7.66-5.8,12.69a2.88,2.88,0,0,1-1,1.93c-2.84,2.7-6.27,2.84-9.47.36-.93-.72-1.79-1.79-3.13-1.13-2.27,1.1-4.74,2.17-5.78,4.61a9.66,9.66,0,0,1-2.65,4c-1.23,1-1.09,2,0,3a13,13,0,0,0,2,1.69c.84.49,2.2.35,2.08,1.85a2.5,2.5,0,0,1-2.35,2.31c-2.22.41-3,2.07-3.36,4.26-1.86-3.18-3.81-4.49-6-3.25-1.75,1-2.64.57-4.14-.12-1.77-.81-2.53.09-2.23,2.23C467.05,322.69,467.28,323.38,467.44,324.08Z"/><path class="cls-2" d="M306,13.89c4.44,2.3,5.3,7.72,2.17,11.66a22.46,22.46,0,0,0-2.07,2.32c-.81,1.39-1.68,2.91-.45,4.55,1.07,1.43,2.37,2.15,4.25,1.48,4-1.44,7.85,1,11.83.52.45-.05,1,.59,1.48.91,1.5,1,3.1,1.79,4.49,2.89,3.76,3,7.84,3,11.43.36,3.14-2.33,5.27-.66,7.58.77a25.62,25.62,0,0,1,4,3.49c1.56,1.48,1.45,2.2-.46,3.33s-4.11,1.61-4.42,4c-.34,2.58-1.72,4.73-2.48,7.12-1.27,4-.49,5.71,3.65,6.49,1,.2,2.58.18,2.66,1.21.31,4.22,2.15,6.85,6.5,7.54.33,0,.4,1.12.81,1.49a2,2,0,0,0,2.82-.16,1.56,1.56,0,0,0,0-2.67c-3.11-1.88-3.12-4-.84-6.48a1.55,1.55,0,0,0,.38-1.24c-1.21-3.12,1.95-5.57,1.27-8.61a1.76,1.76,0,0,1,.7-1.53c4.14-1.24,2.43-4.27,2.23-6.87-.16-2.22-.25-4.45-.34-6.19.15-1.37.25-2.25.34-3.14.18-1.91-.92-3-2.4-3.94a1.83,1.83,0,0,0-2.09-.11,1.37,1.37,0,0,0-.42,1.61,5,5,0,0,1,.24.86c.44,3.91-1.51,5.66-5.2,4.37a20.43,20.43,0,0,1-5.81-3.18c-3.08-2.37-7.24-2.06-10.82-3.31-.32-.12-.87.2-1.23.45-2.78,1.93-5.15.39-7.42-1s-4.27-6-3.67-8c1.71-5.54,1.48-11.41,2.95-17,.44-1.68-.42-2.52-2.2-2.38-4.4.35-6.36,2.86-5.61,7.24.1.58.47,1.12.52,1.7.13,1.59-1,2.41-2.18,3-1,.52-2.35.54-2.78-.51-1.46-3.66-5.42-5-7.28-8.3-2.63-4.68-8.2-4.92-12.22-7.53a2.06,2.06,0,0,0-1.31-.06c-1.41.23-2.05,1.76-.94,2.61C297.87,7,301.1,11.36,306,13.89Z"/><path class="cls-2" d="M360.75,417.21c1.38-.6,2.63-1.4,4.19-1.3a7.08,7.08,0,0,0,4.58-1.49c2.17-1.48,2.37-3.12.7-5.16-1.22-1.48-2.38-3-3.51-4.57-2-2.8-3.57-2.71-5.14.41-1.09,2.17-2.3,3-4.5,1.82a2.9,2.9,0,0,0-4,.61c-3.17,3.49-6.81,6.56-8.48,11.25-1.39,3.88-1.6,4,2.26,5.9a3.12,3.12,0,0,1,1.82,1.72c1.19,3.08,4,5.71,2.51,9.54a2.87,2.87,0,0,0,.46,2.11c2.25,3.75,0,7.13-.82,10.62a2.07,2.07,0,0,1-2,1.62c-3.65-.09-5.35,2.85-7.73,4.75-2.56,2-3.1,4.51-2.15,7.55s1.87,6.25.47,9.57a4.07,4.07,0,0,0,.2,3c1.93,3.71-1.32,6.47-1.63,9.75-.07.71-.91,1-1.79.9-2.08-.26-4-.67-5.42-2.5-.68-.89-1.68-2.17-2.94-1.32a5.75,5.75,0,0,0-2.51,4c-.16,1.72,1.58,1.27,2.68,1.45,2.87.45,3.34,3.13,4.57,5.07s-.34,2.83-1.71,3.76a1.26,1.26,0,0,0-.15,1.18c.16.32.78.71,1,.62,2.28-.8,5.13-.63,6.14-3.67,1.12-3.35,4.11-4.51,7.08-5.23,4.06-1,5-2.32,3.89-6.39-.7-2.44-.43-3,1.77-3.48,3.54-.83,4.21-2,2.94-5.36a9.24,9.24,0,0,1-.82-3.88c.32-5-1.17-10.25,2.43-14.95.94-1.23,1.4-2.66,3.26-3-2.6-2.29-2.8-2.35-2.07-4.89,1-3.29,1.07-6.75,2.28-10,.56-1.47,1.09-3.55-.53-4.51-3.19-1.9-3.89-4.08-1.89-7.2.21-.32.08-.87.08-1.32C356.38,421,357.61,418.59,360.75,417.21Z"/><path class="cls-2" d="M306.82,576.3c2.54-.09,5.08,1.18,7.68.24,1.51-.55,2.81-1.81,4.54-1.65,2.55.24,1.64,2.83,2.63,4.16,1.61,2.17,3,2.35,4.2,0,1-1.9,1.92-2.87,4.12-1.86a1.4,1.4,0,0,0,1.76-1c.59-1.79.74-3.74,2.63-4.9.57-.35.05-1.1-.41-1.48a20.75,20.75,0,0,1-2.75-2.23,3.18,3.18,0,0,0-4.76-.56c-2.27,1.7-3.85,1.85-5-1.09a2.64,2.64,0,0,0-1.3-1.18c-2.86-1.26-3.14-3.84-3-6.36.2-4.23,2.09-8,3.91-11.73a6.43,6.43,0,0,1,2.55-2.34c.77-.47.3,2,1.67,1,.62-.48-.05-1.9,1.3-1.9.84.63-.1,2.22,1.87,2.56.07-2.64.08-5.22.22-7.8a4.59,4.59,0,0,0-1.84-4.27c-1.57-1.21-2.75-2.66-2.67-4.87.07-1.84-1.28-2.18-2.74-2a18.22,18.22,0,0,0-2.11.64c-2.25.51-3.94-.9-2.9-2.8,1.92-3.51.39-7.23,1.38-10.79.74-2.69-.73-3.5-3.26-2.21-3.78,1.91-5.58,5.44-7.21,9.06-.61,1.34-.57,3.24-1.53,4.11-3.18,2.86-1.23,6.9-2.73,10.09-.23.5.24,1.11.9,1.34a8.81,8.81,0,0,1,2.05.83c1.69,1.17,5.25,1.3,2.86,4.91-.37.57.41,1,.72,1.49a40.81,40.81,0,0,0,3.72,5,2.06,2.06,0,0,1-.39,3.16c-.82.62-1.64.06-2.29-.68a10.37,10.37,0,0,0-1.94-1.81,2.11,2.11,0,0,0-2.52-.05c-.92.68-.66,1.58-.25,2.39,1,1.94,2,3.86,3.11,6-2,.56-3.45,1.71-5.3,1.86-.71.06-1.54.21-1.6,1.18a1.43,1.43,0,0,0,1,1.37c4.77,1.81,3.61,6.15,4.21,9.73C307.54,573.15,306.34,574.5,306.82,576.3Z"/><path class="cls-2" d="M470.13,178.44c2.63,1.52,5.28,3,7.77,4.77a6,6,0,0,1,2.82,5.71c-.06.77-.4,1.85,1.09,2.3,1.14-2.53,3.74-2.47,6-2.94s4.2-1.15,5.09-3.64c.68-1.92,2.26-2.09,4.05-1.43a3.87,3.87,0,0,1,2.71,3.2c.42,2.37,1.66,3.72,4.34,3.22.8-.15,1.81-.12,2,1.07-.54,1.58-2.27,1.21-3.27,2-.82.68-1.66,1.37-1.4,2.57s1.31,1.43,2.38,1.61c5,.84,6.11,2.55,5,7.67a11.65,11.65,0,0,1,7.56,4.69c1.35,1.72,2.51,3.24,5,2.81,2-.35,4.17.18,6.06-1.06.87-.58,1.93-1,1.85-2.27a3.08,3.08,0,0,0-2.07-2.62c-5.07-2.39-6-5.16-3.41-10.09a36.15,36.15,0,0,0,2-4c.42-1.13,2.53-1.86,1.28-3.31-.81-.93-2.27-1.33-3.5-1.85s-2.34-.07-3.5.17c-2.14.45-4-.18-4.91-2.12s-2-2.81-4.05-2.76a2.84,2.84,0,0,1-2.88-2.31,6.15,6.15,0,0,0-1.57-3.15,34.67,34.67,0,0,1-2.76,3.22c-2,1.8-3.94,1.33-4.57-1.29-.6-2.47-2.23-4.13-3.57-6.07-.88-1.27-1.84-2-3.32-1.52s-.75,1.75-.9,2.69c-.45,2.95-3,5.66-5.72,5.94-2.48.25-3.64-.84-5-4.7a2.3,2.3,0,0,1-.14-.42c-.56-3.79-3.7-6.72-3.55-10.75,0-.21-.36-.44-.64-.77a24.74,24.74,0,0,0-3.7,1.24c-2.28,1.16-4.57,2.63-5.16,5.23-.63,2.78.94,5.49,1.08,8.3C468.67,178.38,469.67,178.18,470.13,178.44Z"/><path class="cls-2" d="M360.52,258.84c-1.88,1.4-2.61-.13-3.21-1.51-.4-.93-.14-2.15-1.07-2.85-1.6-1.22-1.36,1-2.14,1.2a2.11,2.11,0,0,1-1.19-.29c-2-.86-3.56-2.18-3.83-4.51a8.83,8.83,0,0,0-.95-3.42,1.47,1.47,0,0,0-1.42-.87,1.3,1.3,0,0,0-1.13,1.2,8.72,8.72,0,0,0-.29,2.62c.62,5,.66,5-1.6,9.89a1.62,1.62,0,0,0,.28,1.64c.69,1.14,1.35,2.31,2.07,3.43,1.9,3,1.91,4.06-.76,6.38-1.1.95-1.63,1.94-1.12,3,1.24,2.59.15,5.25.52,7.88.42,3.09-1.54,4.12-5,3.11a5.77,5.77,0,0,1,.57,6,4.8,4.8,0,0,0-.34,3.87c.8,1.95,0,3.07-2.07,3.5-1.9.4-2.19,1.93-1.79,3.49a2.69,2.69,0,0,0,3.33,2.21,16.62,16.62,0,0,0,3.46-.82c2-.85,3.89-2,6.29-1.57,1.41.26,2.17-.73,2.25-2.14s.13-3-1-4.19a3,3,0,0,1-.79-3.67c1-1.72.66-3.41.55-5.18-.09-1.29-.27-3.09,1.37-3.37,1.87-.32,1.1,1.65,1.53,2.59.53,1.13,1.73,1.89,2.3.67,1-2.13,3.59-3.79,2.32-6.8-.58-1.38-.82-3.35,1.16-3.57s2.24,1.71,2.11,3.26c-.2,2.36,1,2.92,3,2.49,2.75-.62,5.43-1.54,8.27-1.7a1.51,1.51,0,0,0,1.57-1.29c.1-.79-.29-1.73-.95-1.87-4-.83-3.11-3.39-2.37-6.06a15.45,15.45,0,0,0,.23-3.55c0-1.24-.5-2-1.86-1.87-2.23.25-3.21-1-3.77-2.92a9,9,0,0,0-2.64-4.08C361.83,258.73,361.43,258.16,360.52,258.84Z"/><path class="cls-2" d="M878.69,391.33c2.65,1.42,4.43,4.16,8,4.32,2.2.09,4.39,1.68,6.48,2.78,1.76.93,2.53,2,1.18,4.26-1.83,3-.68,6.11,2.3,7.8s3.54,2.72,2.93,6c-.86,4.61-.74,4.81,4,6.83,1.09-.95,1.49-2.42,2.7-3.4,2-1.62,3.39-3.69,2.85-6.58-.28-1.47.43-2.5,2-3,1.82-.55,1.74-1.68.76-3.07a5.89,5.89,0,0,0-3.14-2.32,4.34,4.34,0,0,1-3-2.46c-1-2.43-3.09-4-4.68-5.91-.56-.69-1.21-1.69-2.13-1.28-2.15,1-3.32-.74-4.8-1.53-4.43-2.36-5.44-10.44-1.13-12.57,3.07-1.51,4.69-4.11,7.33-5.78-3.36-3.61-3.33-3.6-1.83-8.57a13.1,13.1,0,0,0,.32-3.08c.11-2.66.34-5.34.22-8a33.08,33.08,0,0,0-1.23-8.31c-.24-.8-.67-1.4-1.51-1.29s-1.17.81-1.16,1.64c0,1.92.1,3.85.09,5.78,0,1.52-.21,2.69-2,3.48-2.66,1.15-2.8,2.24-1.59,4.92,1.7,3.74.67,7-2.77,8.69-4.81,2.4-5,2.92-2.44,7.67,1.71,3.23,1.18,5.39-1.61,7.83-1.6,1.39-3.47,1.52-5.37,1.81-.89.14-1.82.49-2,1.55A1.84,1.84,0,0,0,878.69,391.33Z"/><path class="cls-2" d="M421.17,175c3.15,1.42,3,1.33,5.26-1.25a8.66,8.66,0,0,0,1.86-4.44,16,16,0,0,1,2.48-5.64C437.3,153,442.88,142,445,129.44c.93-5.58,1.86-11.4,5.89-15.94a3.44,3.44,0,0,0,.8-3.32c-2.06-7.81,1.15-14.6,4.29-21.34C458.6,83.14,460.88,77.4,461,71c0-1.37.46-2.85-1.43-3.17a3.27,3.27,0,0,0-3.58,2.1,5.2,5.2,0,0,0-.32,2.61c.4,4.35-1.2,8.1-3,11.94-2.6,5.61-5.83,11.05-6.14,17.5a2.16,2.16,0,0,1-1.69,2.3c-3.11.73-4.46,0-5.69-3.08A30,30,0,0,0,438,98.35a1.28,1.28,0,0,0-1.46-.77,1.65,1.65,0,0,0-1.21,1.66c-.27,4.51,1.53,7.06,6,8.54.71.23,1.4.52,2.12.68,2.19.47,2.5,1.79,1.74,3.66a9.57,9.57,0,0,1-.75,2.09c-2.11,2.85-2.75,6.23-3.37,9.57-.88,4.8-1.34,9.69-3.79,14.08-.39.7-.12,1.74-.22,2.62a14.4,14.4,0,0,1-4.44,9.37c-2.47,2.38-6.28,3.53-7.17,7.48-.17.72-1.15.89-1.91.9-1.21,0-2.42,0-3.63,0v.11c1.46,0,2.94-.09,4.39,0s2.71,1.17,1.88,2.29c-2.26,3.1-2.13,7.42-5.55,9.92C418.11,172.4,418.41,173.71,421.17,175Z"/><path class="cls-2" d="M779.67,308.63c4.35-.17,5.87-3.24,8-6a4.89,4.89,0,0,0,1.42-2.83c.24-2.45.47-5,1.92-7.21,2.19-3.33,3.32-3.51,6.08-.72.74.74,1.4,1.83,2.55,1.33a2.53,2.53,0,0,0,1.28-3.41c-1.63-3.38-1.18-7-1.43-11.46-4,4.14-9.74,4.33-11.94,9.37a1,1,0,0,1-.78.38c-1.94.07-2.31,1.54-2.69,3-.58,2.21-1.16,4.37-4,4.7-1,.12-.8,1-1,1.7-1.27,3.49-1.66,3.78-5.53,3.33-1.49-.18-2.66-.25-3.12,1.5-.88,3.38-3.11,5.15-6.52,5.79-2,.39-4.3,1.17-5,3.35-1.53,5.05-5.83,5.63-9.9,6.3-1.68.28-2.76.28-3,2.24a13.62,13.62,0,0,1-1.23,3.32c-.74,1.73,0,2.85,1.44,3.71,2.06,1.26,3.75,1.12,5.64-.6,1.1-1,2-2.24,3.09-3.22,4.2-3.66,8.47-7.18,14.65-4.52a3.65,3.65,0,0,0,1.31.23,10.58,10.58,0,0,0,5.87-1.79c1.52-1,.73-2.68.53-4.12C777,310.91,778.16,308.69,779.67,308.63Z"/><path class="cls-2" d="M1136.4,224.34a54.32,54.32,0,0,0,2.52,7.58c1,3,1.71,5.85.74,9.12a8.82,8.82,0,0,0,2.16,8.69,6.15,6.15,0,0,1,2.2,4c.19,1.65.06,4.17,2.11,4.49s3.39-1.88,4.18-3.49a33.65,33.65,0,0,0,2.9-19.07c-.44-3.55-1-7.65-3.46-10.89-1.16-1.54-.64-3.79.74-4.35,2.11-.86,3-2.63,4.18-4.1,1.14.59.29,1.86,1.37,2.22.3-1.45.31-3.06-1.27-3.38-3-.61-6.07-.06-9.18-1.1-2-.68-4.67.56-7,.77-1,.09-1.89.25-2.23,1.12-1,2.54-3,2.81-5.56,2.79C1133.88,219.51,1135.85,221.44,1136.4,224.34Z"/><path class="cls-2" d="M243.11,104.46c4.26-1,9-.6,12.29-4.36a2.45,2.45,0,0,1,1.21-.54c.95-.24,2-1.15,2.88-.24s.45,2,.3,3c-.34,2.12-2.68,3.45-2.74,5.37-.07,2.12,2,3.92,2,6.27a6.65,6.65,0,0,0,0,1.34c.25,1.46.5,2.92.84,4.36.24,1,.64,2.21,1.95,1.92a1.62,1.62,0,0,0,1-2.22c-1.34-3,1.64-6.46-.91-9.34a1.09,1.09,0,0,1,0-.81c3.26-.62,1.76-3.66,2.79-5.39,2.06-3.45.77-6-1.54-8.81-1.88-2.25-3.35-4.95-2.59-8.19.58-4.5-1.19-8.12-4.21-11.27-.44-.46-1.29-1.49-1.66-.45-.76,2.11-1.92,1.2-3.15.84-1-.3-2.15-.38-2.74.76s.33,2,1,2.67c1.07,1,2.32,1.84,3.45,2.8,1.67,1.41,1.33,3,.64,4.86s-.91,4.22-3.39,4c-3.76-.27-6,2.4-8.63,4.06s-2.77,6.49-.81,8.81A1.7,1.7,0,0,0,243.11,104.46Z"/><path class="cls-2" d="M148,549.92c2.5-.13,5.05.17,7.51-.66a4.32,4.32,0,0,1,4.93,1.09,29.2,29.2,0,0,0,9.27,6.75c3.71,1.9,4.13,3.33,3.54,7.44-.22,1.52-1.05,2.72-1.56,4.67,4.87.68,9.5-.37,14.14,1.2.52-2,.2-4,1.77-5.49,1-.92.7-2.27-.07-3.27-1.75-2.29-.46-3.66,1.54-4.69-1-1.66-2.38-2.63-2.68-4.38-.25-1.44-1.42-2.18-2.59-1.08-2,1.92-3.89,1.53-6.05.33a6.74,6.74,0,0,0-3.4-.88,6.26,6.26,0,0,1-4.79-1.83c-6.19-5.38-14-5-21.46-5.81-1.72-.18-3.26,1.87-3.36,3.94C144.66,549,145.73,550.05,148,549.92Z"/><path class="cls-2" d="M835.05,586.77a6.59,6.59,0,0,0-4.46,5.9,1.78,1.78,0,0,0,1.09,1.77,1.65,1.65,0,0,0,2-.52,6.69,6.69,0,0,0,1.27-2.82c.23-.72.47-1.51,1.32-1.6,3.1-.32,6.06-2,9.14-1.56,2.2.31,4.06.91,6.27-.31,1.62-.89,2.53.16,2.64,2.28a9.51,9.51,0,0,1-1.28,4.66,4.09,4.09,0,0,0,.88,5.26c2,1.86,3.22,2.15,5.91.81a7.09,7.09,0,0,1,3-.78c2.3-.07,3-1.46,3-3.54a12.62,12.62,0,0,0-.94-4.79c-.52-1.26-1.06-2.56-.23-3.83,1.31-2,.28-3.33-1.21-4.54-1.2-1-2.24-1.95-1.58-3.75.52-1.4-.27-2.26-1.51-2.78a2,2,0,0,0-2.65,1c-1.06,2.22-3.4,2.22-5.12,3.27-1.88,1.14-3.32-1.15-5.18-.53a2.83,2.83,0,0,0-3.47,1.93c-.68,1.69-2.22,2.32-3.8,2.83S836.74,586.22,835.05,586.77Z"/><path class="cls-2" d="M789.36,261.09c.5-.53,1.06-1.15.61-2a1.75,1.75,0,0,0-2-.72,38.5,38.5,0,0,0-11.07,3.16c-3.39,1.66-5.78,3.72-6.1,7.84-.16,1.95-.94,4.08-3.31,4.85-3.51,1.15-3.5,1.16-3.51,5.68a7,7,0,0,0,.32,2.1c.48,1.31,1.84,2.06,2.82,1.07,2.23-2.25,5.25-2.58,7.82-3.91s5.64-1.85,8.13-3.54c2.33-1.58,2.73-2.31,1.15-4.63s-.92-3.81.76-5.46C786.5,264.12,787.94,262.61,789.36,261.09Z"/><path class="cls-2" d="M281.94,160.59a2.22,2.22,0,0,0-1.18-2.23c-1-.39-1.73.36-2.2,1.12a62.44,62.44,0,0,0-3.29,5.79c-1.1,2.28-2.8,3.64-5.26,3.26-3.19-.51-5.73.82-8.35,2.19-2,1.06-2.22,2-.62,3.63,1.93,1.92,4.47,2.17,7,2.58,2,.32,2.38-1.43,3.35-2.43s1.78-1.71,3.1-1.29,1.6,1.69,1.54,2.91c-.12,2.66.15,5.31-.46,8-.85,3.75-1.33,7.59-2,11.46a53.24,53.24,0,0,0,1.25,6.5,2.28,2.28,0,0,0,3.2,1.58c1.8-.86,1.09-2.07.22-3.27-1.49-2-1.48-4.13-1-6.7a53.08,53.08,0,0,1,2.7-10.22,16.6,16.6,0,0,0,1-6.57c-.2-5-.35-10,.86-15A5,5,0,0,0,281.94,160.59Z"/><path class="cls-2" d="M827.19,597.43c-3.27.52-6.51,1-8.91-2.12a2,2,0,0,0-.75-.46c-.69-.3-1.38-.56-2,.1a2,2,0,0,0-.47,2,3.54,3.54,0,0,0,2.45,2.39,6.25,6.25,0,0,1,4.18,4.82c.63,2.87,2.41,2.94,4,2.88,5.06,0,6.53-1.88,5.7-6.49C830.75,597,830.67,596.88,827.19,597.43Z"/><path class="cls-2" d="M1230.36,383.25c-2.14,1.85-4.13,2.09-6.17-.09-.16-.17-.57-.11-1-.19-1,.22-1.79.84-1.47,2.12.25,1,1,1.89,1.12,2.89.36,3.19,3.09,2.79,5,3.28s2.68-1.23,3.3-2.81c.38-1,1-1.8,1.46-2.74a1.85,1.85,0,0,0-.23-2.09A1.47,1.47,0,0,0,1230.36,383.25Z"/><path class="cls-2" d="M981.82,609l.94-.56A.89.89,0,0,0,981.82,609Z"/></g></g></svg>