<svg xmlns="http://www.w3.org/2000/svg" viewBox="0 0 404.82 1010.52"><defs><style>.cls-1,.cls-2{fill:none;}.cls-2{stroke:#ebabfd;stroke-linecap:round;stroke-linejoin:round;stroke-width:0;}.cls-3{fill:#ebabfd;}.cls-4{fill:#a997cc;}.cls-5{fill:#fefefe;}</style></defs><g id="Layer_2"><g id="Layer_1-2"><path class="cls-1" d="M249.29,655.15c-1.81.11-2.42-.92-1.77-2.3,1.29-2.77-.6-1.63-1.69-1.54a1.07,1.07,0,0,1-1.12,1,1,1,0,0,1,.66-1,1,1,0,0,0-.66,1,3.17,3.17,0,0,0-1.61,2.11c4,.89,2.4,4.19,2.75,6.7,1.59-1.24,2.19-2.6.71-4.46,1.14,0,1.94.06,2.73,0s1.69.36,1.78-.63C251.19,654.75,250,655.11,249.29,655.15Z"/><path class="cls-1" d="M253.13,693.6c-1.78-1.51-1.58-3.38-.78-5.49-1.24.37-1.28,2.26-2.77,1.75C249.69,693.63,249.69,693.63,253.13,693.6Z"/><path class="cls-1" d="M240.42,674.16a.66.66,0,0,1,0-.15A.66.66,0,0,0,240.42,674.16Z"/><path class="cls-1" d="M239.93,667.12c0,.06.12.08.26.06C240.05,667.2,240,667.18,239.93,667.12Z"/><path class="cls-1" d="M254.38,639.35c-1.9,1.78-1.07,4.6-2.71,6.72-1.12,1.46-3.06,1.84-3.73,3.58,1-.16.75,1.33,1.38,1.35,2.11-2,4-3.94,6-5.78.72-.68,1.31-1.92.57-2.25C254,642.14,254.71,640.6,254.38,639.35Z"/><path class="cls-1" d="M241.5,540.32l0,2.45,0-2.45c3.81-2.86,4.42-4.17,3.21-6.94C243.33,535.55,240.37,537,241.5,540.32Z"/><path class="cls-1" d="M218.72,700.71l.1-.6c-.07-.29-.13-.59-.19-.88h0l-1.52-.07h0c-.09.24-.11.56-.28.71-.65.59-1.17,1.39-.46,2s1.12-.47,1.67-.79l.68-.4c2.39.67,4.74-.63,6.11-3.12C223.46,700.08,221.11,701.38,218.72,700.71Z"/><path class="cls-1" d="M248.73,630.71h0c-1.34-2.38-1.78,0-2.58.49.11,1.49.21,3,.33,4.67C248.22,634.4,248.1,632.39,248.73,630.71Z"/><path class="cls-1" d="M231.14,725.56a6.17,6.17,0,0,1-2.58-3.73c-1-2.63-3.62-4.46-3.81-7.52-2.22-2.18-1.64-4.34.06-6.48h0c-.69-2.1-2.33-3.57-3.54-5.32-.83-1.22-1.75-.15-2.45.43-1.43,1.19-1.95,2.87-.76,4.28,2.78,3.31,2.88,8.56,4.88,12.56l6.24,10.71c1-.1,1.58,1.78,2.46,1,1.23-1,.67-2.59.14-4C231.52,726.91,231.35,726.22,231.14,725.56Z"/><path class="cls-1" d="M270.46,100.21h0l-.06-.1Z"/><path class="cls-1" d="M246.88,470.82c0-.24,0-.47,0-.7C246.91,470.35,246.9,470.58,246.88,470.82Z"/><path class="cls-1" d="M246.4,467.36h0a5.45,5.45,0,0,1,.52,2.75A5.45,5.45,0,0,0,246.4,467.36Z"/><path class="cls-1" d="M238.49,679.66a4.63,4.63,0,0,1-1.3,1.31A4.63,4.63,0,0,0,238.49,679.66Z"/><path class="cls-1" d="M221.32,682.7a3.23,3.23,0,0,0-.25-.65A3.23,3.23,0,0,1,221.32,682.7Z"/><path class="cls-1" d="M245.45,70.59a5.58,5.58,0,0,1-1.3-.87l-.59-.67c0-1.22,0-2.44.05-3.66,0,1.22,0,2.44-.05,3.66l-.75-.56,0-1.89,0,1.89a1.11,1.11,0,0,1-1.32,1.19c-2.14-.18-3.33-.59-3.85-1.56.52,1,1.71,1.38,3.85,1.56-.7,4.43,4.1,2.8,5.45,5C248.23,72.12,247.92,71.33,245.45,70.59Z"/><path class="cls-1" d="M245.38,66.38a2.2,2.2,0,0,1,.07-.58A2.2,2.2,0,0,0,245.38,66.38Z"/><path class="cls-1" d="M247.63,473.4c.22.44.76.41,1.36.05h0C248.39,473.81,247.85,473.84,247.63,473.4Z"/><path class="cls-1" d="M250.53,58c-.33-1.2-.89-2.58-2.85-2.63A3.58,3.58,0,0,0,244,57.58c-.65,1.85-1,4.07.74,5.81.76.22,1.69.24,1.62,1.41a1.38,1.38,0,0,0-.9.84,1.38,1.38,0,0,1,.9-.84c.84,1.53,2.8,1.91,3.59,3.58.33.69,1,1.89,2,1.39.67-.35.77-1.52.57-2.47C251.86,64.21,251.39,61.06,250.53,58Z"/><path class="cls-1" d="M253.58,19.75a1.71,1.71,0,0,0-1.74,1.41c-.45,2,.68,3.13,2.64,4.46,0-1.77,0-3,0-4.27C254.45,20.68,254.68,19.73,253.58,19.75Z"/><path class="cls-1" d="M246.36,45.74c.07,1.2-.41,3,1.06,3.23,1,.17,1.61-1.5,2.35-2.47,2.33-3.11-1-5.8-.26-8.69.09-.35-.3-.64-.69-.65a.7.7,0,0,0-.76.61c-.4,2.42-2.3,4.49-1.7,6.8C246.36,45.2,246.34,45.47,246.36,45.74Z"/><path class="cls-1" d="M240.8,79.57c0-.49-.44-.74-1-.73-.67,0-.92.39-1,1-.74,5,.72,9.3,3.52,13.61a2.39,2.39,0,0,0,.72-2.48C242.25,87.19,240.39,83.62,240.8,79.57Z"/><path class="cls-1" d="M291.88,92.86h0c.19.51.61.58,1.07.56v0h0c-.24-.42-.53-.72-1.07-.55h0Z"/><path class="cls-1" d="M293,93.43h0a8.79,8.79,0,0,0,2.77,6.59c1-1-.37-1.89-.13-2.86-1.3-.93,1-2.37-.46-3.28h0L293,93.41v0Z"/><path class="cls-1" d="M358.61,43.3a3.93,3.93,0,0,0-.22.85A3.93,3.93,0,0,1,358.61,43.3Z"/><path class="cls-1" d="M324.16,213.25a1.51,1.51,0,0,0-.09.73A1.51,1.51,0,0,1,324.16,213.25Z"/><path class="cls-1" d="M264.62,77.54c1.54,1.71,4.33,1,6.06,3a26.84,26.84,0,0,1,5,8.38,3.53,3.53,0,0,0,2.77,2.51,56.56,56.56,0,0,0,13.46,1.48h0c.25-1.32-1.23-1.32-1.63-2.14h0c-1.25.22-2.16-.7-3.28-.95-.82-.19-1.56-1-2.47-.2-1.7,1.56-3.15.25-4.66-.41-2-.21-2.74-.79-1.22-2.74,1.65-2.11,1.11-3.52-1.13-5.27-1.35-1.06-2.87-2.13-3.34-4h0c-.06-.53-.12-1.06-.17-1.6l-1-.1c-.82-.39-.84-1.79-2.23-1.54-2.1.38-3.35-.77-4.13-2.65-1.64-3.92-5.19-7.08-4.62-11.86.13-1.16-1-1.07-1.55-1.56a11.37,11.37,0,0,1-2.74-2.92c-2.54,1.75-.12,3.42.6,4.29A6.66,6.66,0,0,1,259.56,66c-.93,3.13-2.46,6.13-1.84,9.55h0C260.26,75.39,262.66,75.38,264.62,77.54Z"/><path class="cls-1" d="M235,57.17a.89.89,0,0,0-1,1,1.38,1.38,0,0,0,1.35,1.38c.71.07.66-.67.66-1.18C236,57.67,235.77,57.15,235,57.17Z"/><path class="cls-1" d="M219.17,699.58a.08.08,0,0,1,0,0A.08.08,0,0,0,219.17,699.58Z"/><path class="cls-1" d="M197.58,399.47a1.68,1.68,0,0,0,0-.5c-1.56.4-.91,1.89-1.38,2.83.23.1.53.35.68.28C198.13,401.5,197.38,400.35,197.58,399.47Z"/><path class="cls-1" d="M198.59,397.93a6.81,6.81,0,0,0,2-.17,6.81,6.81,0,0,1-2,.17l-1,0v1C198.28,398.94,198.6,398.61,198.59,397.93Z"/><path class="cls-1" d="M202.93,396.73c-2,4.29-4.36,8.49-4.85,13.37,4.68-6.21,7.37-13.37,10-20.57-2.23,1.52-2.71,4.19-4.13,6.22l-1,1Z"/><path class="cls-1" d="M214.7,334.38a3.58,3.58,0,0,0-.45-.09C214.4,334.32,214.55,334.34,214.7,334.38Z"/><path class="cls-1" d="M180.11,405.27c2.67.87,2.58,2.72,2.16,4.69a10,10,0,0,0-.25,3.44h0l.4.18c.76,0,1.4,0,1.64-1,.38-1.49,1.75-2.24,2.73-3.25.66-.67,1.86-1.23,2.54,0,1.11,1.94,1.3.76,2-.29a6,6,0,0,0,.82-3.6c0-3.84,0-7.62,1.81-11.24a5.88,5.88,0,0,0-.43-6,10.26,10.26,0,0,1-1-2.74c-.15-.44-.32-.93.31-1.07a1.15,1.15,0,0,1,1,.23c1.28,2,3.22,4.07,2,6.49-1,2-.76,3.74-.42,5.66,1.51.88,1.29-1.18,2.31-1.32-.15,1.12-.12,2.17,1.49,1.74,1.67.47,2.53-1.75,4.09-1.65-1.56-.1-2.42,2.12-4.09,1.65.14-4.18-.09-8.28-2-12.17-.85-1.75-2.44-3.07-2.88-5l0,0,0,0a2.7,2.7,0,0,1-1.05-.14c-.89-.59-1.54-2.31-2.81-1.18-.91.8-.55,2.09.3,3.15.7.88.06,1.27-.83,1.35-1.57.14-2-.7-2.09-2.12-.24-2.84.66-5.34,1.5-8,.7-2.21,1-4.73,2.53-6.35,4.15-4.33,3.35-9.83,4.11-15a2.05,2.05,0,0,0-1.66-2.44c-1.33-.34-1.2,1-1.63,1.67-3.32,5.34-5.61,11.18-8.11,16.91-.23.53-.47,1.15-1.07,1-3.9-.84-3.34,2.25-3.74,4.31-.46,2.32,1.09,4.33,1.39,6.45.77,5.32,2.82,10.46,2.37,16,0,.48-.21,1.12.56,1.46.14-.17.37-.32.43-.52.59-2.06,2.1-3.73,4-3.83,1.57-.08,1.51,2.3,2.12,3.62.15.32.29.66.43,1,.31.89-.24,1.13-1,1.25-.51,2.4-2.93,1.52-4.34,2.42-.87.56-1.14-.65-1.15-1.48l0,0c-.74-.07-1-.7-1.34-1.18-2.91-3.65-3.78-3.54-5.58.64l-.15,1.68A3.77,3.77,0,0,0,180.11,405.27Z"/><path class="cls-1" d="M192.75,409a.91.91,0,0,0,.5,1.13c.35.13.91,0,.88-.31-.18-2.32,1-4.46,1.26-7.39C193.11,404.65,193.22,407,192.75,409Z"/><path class="cls-1" d="M187.6,785.3a2,2,0,0,0-.59,0c-1.66-.86-.95-2.84-1.49-3.7-3.31-.08-5.23,1.85-7.23,3.66a2.23,2.23,0,0,0-.72,0,2.23,2.23,0,0,1,.72,0c-.87,1.13,0,2.29-.1,3.44a.61.61,0,0,0,.2.28c.16-.54-.17-1.42.75-1.43.69,0,.68.71.7,1.22.06,1.16.07,2.31.1,3.46-.06.2-.08.43-.13.63.05-.2.07-.43.13-.63l.54-.53c-.67-1.48.09-2.67.78-3.88h0c0-.18,0-.36.07-.53.21-1.21-.53-3.06,1.66-3s1.37,1.91,1.67,3.09l1.7,2.23c-.24,1.08-.8,1.34-1.46,1.36.66,0,1.22-.28,1.47-1.36h.27c.12-1.42.25-2.84.37-4.26A2,2,0,0,1,187.6,785.3Z"/><path class="cls-1" d="M180.24,465.92c.79.09,1-.63,1-1.27.05-1.87,0-3.74,0-5.6l-.7-.06c-.69,1.8,0,3.84-.84,5.63C179.59,465,179.52,465.83,180.24,465.92Z"/><path class="cls-1" d="M291.86,218.24h0c0,.59-.2.87-.51,1C291.66,219.11,291.86,218.83,291.86,218.24Z"/><path class="cls-1" d="M179.47,472.39c-1.66,1.13-1.56,2.43-1,4.17C180,475.24,179.81,474,179.47,472.39Z"/><path class="cls-1" d="M290.22,219.34h0c-.42.84-.89,1.17-1.39,1.21C289.33,220.51,289.8,220.18,290.22,219.34Z"/><path class="cls-1" d="M175.47,494.2c1.07-1.12,3.74.09,3.68-2.59,0-1.05.21-2.76,1.33-2.48,2.18.54,1.93-.8,1.87-1.88-.28-4.85,1-9.86-1.49-15-1,2.07-.55,3.89-.52,5.62,0,1.57-.8,2.4-2,2.13-2-.44-1.91.69-1.83,1.92a15.31,15.31,0,0,1-1.15,7.6,7.42,7.42,0,0,0-.48,3.45C174.86,493.51,175.23,494.45,175.47,494.2Z"/><path class="cls-1" d="M197.47,350.67a3.27,3.27,0,0,0,4.39-.53,5,5,0,0,1,2.42-1.08c3.11-.77,4.61-2.48,4.06-5.45-.41-2.18.36-3.81,1.39-5.49.79-1.28,1.63-2.52,2.45-3.78a15,15,0,0,1-.1,2.75,15,15,0,0,0,.1-2.75h0c.31-3.63,3-6.41,3.59-10,.13-.76,1.34-1.64.19-2.17-.91-.41-1.31.77-1.75,1.59-1.06,2-1.95,4.11-3,6.13-1.41,2.77-3.57,4.85-5.43,7.22-.32.41-.4,1.07-1.1.88s-.69-1-.58-1.57a9.66,9.66,0,0,1,.6-1.47c.46-1.26,1.06-3-.26-3.61-2-.88-1.8,1.27-2.23,2.42a2.45,2.45,0,0,1-.29.45c-.68,2.13-1.25,4.31-2.75,6.07-.06-2-.17-4.07-.15-6.11,0,2,.09,4.08.15,6.11a51,51,0,0,0-2.53,6.15C196.29,347.82,195.94,349.62,197.47,350.67Z"/><path class="cls-1" d="M215.7,471.23c-1.16-.27-.79-2.05-2.81-2.08,1.63,1.69,1.2,4.18,3.72,4.65v-8.62C215.13,467,216.59,469.29,215.7,471.23Z"/><path class="cls-1" d="M255.58,388.62h0a.93.93,0,0,1-.1-.39A.93.93,0,0,0,255.58,388.62Z"/><path class="cls-1" d="M217.13,470.57a17.83,17.83,0,0,1-.28,2.15A17.83,17.83,0,0,0,217.13,470.57Z"/><path class="cls-1" d="M216.61,465.18a17.3,17.3,0,0,1,.52,5.39,17.3,17.3,0,0,0-.52-5.39Z"/><path class="cls-1" d="M153.86,694h0a3,3,0,0,0-.31.31Z"/><path class="cls-1" d="M265.38,372.34c.59-.41.52-1,.47-1.62h0C265.06,371.08,265.39,371.76,265.38,372.34Z"/><path class="cls-1" d="M187.13,398.17h0l.13.18Z"/><path class="cls-1" d="M174.64,400.41c.11-1.36.79-1.55,1.57-1.53-.78,0-1.46.17-1.57,1.53a2.72,2.72,0,0,0-2.35.73A2.72,2.72,0,0,1,174.64,400.41Z"/><path class="cls-1" d="M181.77,413.43h0Z"/><path class="cls-1" d="M169.06,391.58a1.37,1.37,0,0,0-.12-1.94c-.74-.77-1.24-.05-1.76.41-.33.29-.7.54-1,.81a5.44,5.44,0,0,1-1.14,2.68c-.74,1.31-.78,2.45,1.13,2.72C167.26,394.8,167.68,392.91,169.06,391.58Z"/><path class="cls-1" d="M167.83,480.77c-.89.68-.59,1.76-.27,2.74.76,2.34,2.4,4.32,2.52,6.93,0,1.06,1.55,1.74,1.89,1.08.74-1.42,2.54-2.32,2.28-4.25a7.31,7.31,0,0,0-.44-2c-.7-1.91-2.66-2.23-3.85-3.48C169.42,481.18,168.88,480,167.83,480.77Z"/><path class="cls-1" d="M188.25,424.8a19.63,19.63,0,0,0,4.38-5.56c.38-.66,1.85-1.77.56-2.43a3.1,3.1,0,0,0-3.36.48,6.55,6.55,0,0,0-1.91,2.86,2.26,2.26,0,0,1-1.21,1.66c.12,1.11.52,2.27-.47,3.22C187,426,187.6,425.34,188.25,424.8Z"/><path class="cls-1" d="M181.53,413.39c-.12.12-.24.24-.37.35h0c.13-.11.25-.23.37-.35Z"/><path class="cls-1" d="M232.49,552.69a5.74,5.74,0,0,0,.47-.41A5.74,5.74,0,0,1,232.49,552.69Z"/><path class="cls-1" d="M274,54.16c0-1.09,0-2.17,0-3.25,0-1.46.63-2.41,2.22-2.48-.65,3.28-.65,6.71-1.68,9.9,1-3.19,1-6.62,1.68-9.9a4.13,4.13,0,0,1,.5-.15c.46-1.72.92-3.44,3.12-3.66.43-3.06.87-6.13,1.3-9.19a4.86,4.86,0,0,1-.92-5,2.08,2.08,0,0,0-.07-2.05c-2.08-2.9-4.28-5.73-5.78-9.34-1.05,2.86.83,4.82,1.27,7.06a2.35,2.35,0,0,1,1.48,1.76c-1.32.09-1.6-.65-1.53-1.71h0a1.69,1.69,0,0,1-1.81-.87c-.36-.59-.86-.87-1.56-.32a37.46,37.46,0,0,0-3.77,2.92c-1.37,1.43-2.72,3.35-1.82,5.27,1.58,3.34.47,6.73.86,10.07a1.64,1.64,0,0,1-3.21.54c-.34-1.55-1.5-2.61-2.19-4-.3-.58-.6-1.22-1.38-.94a1.2,1.2,0,0,0-.71,1.58c.82,2,.71,4.2,1.86,6,1.41,2.27.81,4.08-1.75,5.17a3.27,3.27,0,0,0-2.36,3.21,25,25,0,0,1,2.89-.1c2,.3,3.73-.22,3.81-2.92,1.88.93,2.27,2.85,3.36,4.19s2.09,4,4.24,3.41C274.5,58.84,274,56.2,274,54.16Z"/><path class="cls-1" d="M318.85,212.81c-.31,0-.77-.09-.76.42s.39.51,1.36.47c0,.13.17-.21.16-.54C319.61,212.67,319.13,212.83,318.85,212.81Z"/><path class="cls-1" d="M259.89,22.34c1.1,1,2.61.65,2.56-.8a20.54,20.54,0,0,0-2.76-8.89c-.29-.55-1.1-.84-1.7-1.23-1.16-.74-1.85-.53-1.9,1.62.55,2,1.94,4.42,2,7.23C258.13,20.69,259.22,21.73,259.89,22.34Z"/><path class="cls-1" d="M264.64,16.23c.74,1.86,2.22,3.23,3.28,4.88.56.88,1,2,2.09,1.39a1.83,1.83,0,0,0,.37-2.84c-1.16-1.36-1.36-3.21-2.74-4.49a2.57,2.57,0,0,0-2.07-1,1.9,1.9,0,0,0-2,.86C263.09,16,264.42,15.68,264.64,16.23Z"/><path class="cls-1" d="M310.72,32.88h0a3.3,3.3,0,0,1-.51-.55c-.5-.81.78-2.27-.52-2.47-.61-.1-1.49,1.33-2.17,2.13a4.11,4.11,0,0,0-.5,1.21c.46,1.24.37,2.68,1.33,3.73.48.52,1,1.22,1.77,1s.64-1.17.65-1.84C310.8,35,310.74,34,310.72,32.88Z"/><path class="cls-1" d="M295.52,92.94a2.45,2.45,0,0,1,1.44-.62A2.45,2.45,0,0,0,295.52,92.94Z"/><path class="cls-1" d="M296.93,95.32a.33.33,0,0,0-.53.27c0,.13.16.27.25.4.15-.08.38-.12.42-.23A.51.51,0,0,0,296.93,95.32Z"/><path class="cls-1" d="M308.11,24.52h0a10,10,0,0,1,1.75.24A10,10,0,0,0,308.11,24.52Z"/><path class="cls-1" d="M310.83,18c0-.45-.06-.91-.06-1.35C310.77,17.08,310.82,17.54,310.83,18Z"/><path class="cls-1" d="M283.75,75.35a10.27,10.27,0,0,1,0-2h0A10.27,10.27,0,0,0,283.75,75.35Z"/><path class="cls-1" d="M279.83,44.62h0c1.26-2.63,2.21-5.43,4.37-7.5C282.05,39.19,281.1,42,279.83,44.62Z"/><path class="cls-1" d="M283.73,73.35h0a.73.73,0,0,1-.48-.44A.73.73,0,0,0,283.73,73.35Z"/><path class="cls-1" d="M312.38,31.82a1.26,1.26,0,0,1,.59-.29h0A1.26,1.26,0,0,0,312.38,31.82Z"/><path class="cls-1" d="M310.79,16.21a3,3,0,0,1,.12-.61A3,3,0,0,0,310.79,16.21Z"/><path class="cls-1" d="M362.87,48.4c.39.05.79.14,1.18.2-.39-.06-.79-.15-1.18-.2Z"/><path class="cls-1" d="M313,31.58l0,0,0,0a2.16,2.16,0,0,0,.68-1A2.16,2.16,0,0,1,313,31.58Z"/><polygon class="cls-1" points="359.61 46.74 359.58 46.77 359.61 46.74 359.61 46.74"/><path class="cls-1" d="M353.09,44.6c-.51-.06-1-.11-1.54-.18.51.07,1,.12,1.54.18Z"/><path class="cls-1" d="M387.12,66.63a11.42,11.42,0,0,0,.09-2.33A11.42,11.42,0,0,1,387.12,66.63Z"/><path class="cls-1" d="M365.22,48.67a4.69,4.69,0,0,1-1.17-.07A4.69,4.69,0,0,0,365.22,48.67Z"/><path class="cls-1" d="M319.28,30.52a3.52,3.52,0,0,1-.15-1.17l1.27-.66c.06.9.11,1.79.17,2.69-.06-.9-.11-1.79-.17-2.69.21-1.62.41-3.25.62-4.87-1-.8-1.25.44-1.86.71C318.67,25,319,26,318,26.1a2.94,2.94,0,0,1-.17-1.06A2.94,2.94,0,0,0,318,26.1l-.08.11c.74,1.32-.44,1-1,1.22-1.35.16-1.63.78-1.62,1.51,0-.73.27-1.35,1.62-1.51-.31.91-.68,1.85.86,1.94l1.39,0A3.52,3.52,0,0,0,319.28,30.52Z"/><path class="cls-1" d="M315.26,28.94a3.88,3.88,0,0,0,.05.57A3.88,3.88,0,0,1,315.26,28.94Z"/><path class="cls-1" d="M335.26,30c-.8-2.47-1-2.51-3.38-.57.24.91.42,1.78-1,1.83a6.26,6.26,0,0,1-.4-.77,6.26,6.26,0,0,0,.4.77c-1.39,1.75-3.36,1.43-5.23,1.48l-1.27.12h0a14.82,14.82,0,0,1-3.5,1.91c-2.51.61-.76,2.2-.32,2.32,1.37.4,2.52,1.31,4.18,1.25,3.62-.12,6.65-1.8,9.86-3h0A13.61,13.61,0,0,0,335.26,30Z"/><path class="cls-1" d="M346.78,43.76a1.21,1.21,0,0,1-.36.29A1.21,1.21,0,0,0,346.78,43.76Z"/><path class="cls-1" d="M351.55,44.42a13.38,13.38,0,0,1-1.54-.26A13.38,13.38,0,0,0,351.55,44.42Z"/><path class="cls-1" d="M347.14,43a1.76,1.76,0,0,1-.36.79,1.76,1.76,0,0,0,.36-.79Z"/><path class="cls-1" d="M274.82,77.49l.05,0Z"/><path class="cls-1" d="M313.11,29.8v0Z"/><path class="cls-1" d="M330.05,28.34c0,.23,0,.47.07.7C330.09,28.81,330.06,28.57,330.05,28.34Z"/><path class="cls-1" d="M311.65,11.75c-.64,1,.64,1.39,1.11,2a2.35,2.35,0,0,1,.22.45h0a7.35,7.35,0,0,1,1.77,5c1.19-.41,1.35-1.19,1.54-2.13.45-2.29-1-3.62-2.25-5.1C313.23,11.94,312.45,10.5,311.65,11.75Z"/><path class="cls-1" d="M294.23,46.3l.53-.57Z"/><path class="cls-1" d="M301.5,19.08c-1.19,1.41-2.39,2.74-1.49,4.91h0C299.11,21.82,300.31,20.49,301.5,19.08Z"/><path class="cls-1" d="M292.74,52.36a12.25,12.25,0,0,0,.09,1.48A12.25,12.25,0,0,1,292.74,52.36Z"/><path class="cls-1" d="M337.76,38.11a3.47,3.47,0,0,0-.29-.65A3.47,3.47,0,0,1,337.76,38.11Z"/><path class="cls-1" d="M301.63,78.76h0l.05-.07Z"/><path class="cls-1" d="M293.49,50a3.24,3.24,0,0,1,.74-3.72,3.23,3.23,0,0,0-.74,3.71,3.7,3.7,0,0,0-.76,2.34,3.66,3.66,0,0,1,.76-2.33Z"/><path class="cls-1" d="M337.93,39.68h0a4.08,4.08,0,0,0-.17-1.57A4.08,4.08,0,0,1,337.93,39.68Z"/><path class="cls-1" d="M346.21,23.73a5,5,0,0,1-.63.43A5,5,0,0,0,346.21,23.73Z"/><path class="cls-1" d="M347.25,22a2.76,2.76,0,0,1-.48,1.06A2.76,2.76,0,0,0,347.25,22Z"/><path class="cls-1" d="M302.57,77.58a2,2,0,0,1-.22.31A2,2,0,0,0,302.57,77.58Z"/><path class="cls-1" d="M292.92,55.33a8.19,8.19,0,0,0,0-1A8.19,8.19,0,0,1,292.92,55.33Z"/><path class="cls-1" d="M305.81,34.35a1.59,1.59,0,0,0,.07.48A1.59,1.59,0,0,1,305.81,34.35Z"/><path class="cls-1" d="M309.24,21.71a3.45,3.45,0,0,1-.11.87A3.45,3.45,0,0,0,309.24,21.71Z"/><path class="cls-1" d="M306.64,48.21a1.24,1.24,0,0,1,.81,1.28h0A1.24,1.24,0,0,0,306.64,48.21Z"/><path class="cls-1" d="M302.57,77.58a1.41,1.41,0,0,0,.14-.31A1.41,1.41,0,0,1,302.57,77.58Z"/><path class="cls-1" d="M309.2,21.27c0,.15,0,.3,0,.44,0-.14,0-.29,0-.44Z"/><path class="cls-1" d="M301.74,78.61l.2-.25Z"/><path class="cls-2" d="M234.73,136.78h-.79"/><path class="cls-3" d="M257.72,75.51v0h0Z"/><path class="cls-3" d="M190.88,768.86c0-.43-.52-.71-1.13-.64-.36,1.23-.91,2.42-.32,3.82.26.6,1,1.37.35,2-.85.79-1.36-.43-2-.69a11.24,11.24,0,0,0-2.61-.55c-2.19-.31-3.69-2.95-2.26-4s1-1.5.39-2.56a4.7,4.7,0,0,1-.82-2.54c.3-5.13-.74-10.09-1.58-15.1-.4-2.4-1.47-3.49-3.9-2.74-2.65.82-5.16.31-7.7-.21-.66-.13-1.4-1-1.85-.81-3.55,1.36-7.5,1.15-10.94,3-2.81,1.49-3.82,4.73-1.53,6.31a5.09,5.09,0,0,0,5.72-.26c2.78-2.48,6.52-2.26,9.4-4.21a2.24,2.24,0,0,1,2.07.21c3.22,1.54,5.26,6.91,3.82,10.22a4.93,4.93,0,0,0,.29,5.06c1.2,1.86,2.75,4.07,1.72,6.24-1.1,2.34-1,4.75-1.12,7-.15,2.53-2.43,4.77-1,7.46a4.61,4.61,0,0,1,.86-.43,4.61,4.61,0,0,0-.86.43c-.05.34-.1.68-.14,1l-.4.45-.55.65-.68.33a5.68,5.68,0,0,0-2.49-1.05l-.54.06.54-.06c0-3.33-.63-6.87.26-10,1.06-3.68,1.06-6.37-1.83-9.14-2.47-2.36-2.31-3.22.12-5.53a5.57,5.57,0,0,0,1.68-4.19.93.93,0,0,0-1.18.64c-.92,3.89-3.69,4.39-7,4-1.07-.12-2.18.09-3.24,0-1.59-.19-3.79,0-4.61-.93-2.38-2.75-5.81-3.9-8.38-6.32-2-1.9-4.21-3.81-7.35-3.54a27.94,27.94,0,0,1,.9-10.61c-3.59.81-3.82,1.14-3.33,4.51a6.72,6.72,0,0,1,.27,1.84c-.66,4.2-.07,8.44-.39,12.64-.05.58-.09,1.47,1,.77,3.59,1.79,6.07,5,8.59,7.81,3.14,3.52,6.56,6.72,9.78,10.13,2.19,2.32,4.8,4.44,5.58,7.81a1.08,1.08,0,0,0,.93.85c-.26.73-.85,1.39-.48,2.25-.91.89.79,1,.52,1.69-.12,1.22.64,1.59,1.67,1.7l.06.76a1.67,1.67,0,0,0,.39,0,1.67,1.67,0,0,1-.39,0l-.65.07c-.19-.12-.52-.35-.53-.34-.39.55.14.62.43.83l1.28,1.29c-4.11.14-6.22,2.61-7.71,6.18-1.06,2.56-1.13,5.41-2.59,7.84-1,1.65-.69,3.84-1.92,5.37a6.06,6.06,0,0,0-1.36,4.49c-2,3.81-.49,6.94,1.86,10,.71.92,1.13,2.16,2.59,1.79s1.28-1.53,1.37-2.59c1.14-1.79,2.76-3.16,3.84-5.05,1.32-2.33,2.09-5,3.4-7.09,1.75-2.86,2.43-5.88,3.62-8.83,1.33-3.32,1.86-4.33,5.16-1,2,2.06,4,4.42,7.49,3.47.6-.17,1.14.29,1.71.58a9.24,9.24,0,0,0,4.12,1c1.94,0,2.54-.9,1.6-2.52-2.17-3.74-.69-7.74-.87-11.6-.07-1.46.6-3.63,1.68-4.32,2.88-1.85,2.55-4.93,3.62-7.45.16-.39.19-1.22.58-1,2,1.24,1.37-.61,1.63-1.35.81-2.31-.85-4.78.43-7.08.1-.18-.16-.69-.39-.91C193.38,774.16,191,772.24,190.88,768.86Zm-4.51,20.74c-.25,1.08-.81,1.34-1.47,1.36.66,0,1.22-.28,1.46-1.36l-1.7-2.23c-.3-1.18.48-3.06-1.67-3.09s-1.45,1.83-1.66,3c0,.17-.05.35-.07.53h0c-.69,1.21-1.45,2.4-.78,3.88l-.54.53c-.06.2-.08.43-.13.63.05-.2.07-.43.13-.63,0-1.15,0-2.3-.1-3.46,0-.51,0-1.22-.7-1.22-.92,0-.59.89-.75,1.43a.61.61,0,0,1-.2-.28c.06-1.15-.77-2.31.1-3.44a2.23,2.23,0,0,0-.72,0,2.23,2.23,0,0,1,.72,0c2-1.81,3.92-3.74,7.23-3.66.54.86-.17,2.84,1.49,3.7a2,2,0,0,1,.59,0,2,2,0,0,0-.59,0c-.12,1.42-.25,2.84-.37,4.26Z"/><path class="cls-3" d="M171.94,478.55c-1.07.36-2.45.19-2.37-.92.16-2.06-1.36-3.26-1.94-4.91-.83-2.39-1.53-4.94-3.31-6.9-.38-.42-.72-1.2-1.48-.88s-.43.94-.4,1.45a82.88,82.88,0,0,0,.79,8.71A103.31,103.31,0,0,0,167.34,491a25.85,25.85,0,0,0,4.8,8.57c1.83,2.22,3.34,1.9,4.4-.74.54-1.34,1.38-2.25,2.78-.7.3.34.36,1.12,1.18.82,1.05-1.85-1.75-3.19-.6-5.07.42-.08,1.2,2.12,1.45-.18.05-.44-.52-1.21.47-1.36-.11,1.27,2.25-.22,1.85,1.87a10,10,0,0,0,.34,6c1-.74.12-1.92,1.18-2.72a12.09,12.09,0,0,0,1.63,7.71c1-2.35-.41-4.26-.48-6.23a33,33,0,0,0-1.81-10.73c-1-2.55.11-5.32-.72-7.74a29.17,29.17,0,0,1-1.28-11.06c.16-3.31.35-6.63.44-10,0-.53-.08-1.3.22-1.56,1.59-1.36.25-2.76.19-4.14a1.26,1.26,0,0,0-.94-1.2c-.72-.19-.76.61-1,1a25.68,25.68,0,0,1-1.54,3.41c-1.1,1.58-2.71,2.95-4.68,2.55-1.53-.32-2.07-2-2.08-3.6,0-.35-.2-.7-.23-1.05-.65-6.95-1.15-13.79,3.85-19.75,1.11-1.32,1.94-2.41,3.59-2.24,1.38.14.55-1.38,1.52-1.52-.43,2.07,1.45,3.59,1.15,5.69-.14,1,.92,1,1.62.87a4.53,4.53,0,0,0,3.24-2c0,2.82-1.43,4.87-1.18,7.27s.66,5.3-2,7.13c-.15.1,0,.64,0,1.16,2.23-1,2.7-3,3.6-4.8,2.65-5.25,3.75-11,5.69-16.52,1.29-3.63,1.42-7.62,3.44-11.2,4.27-7.56,6.24-16.34,12.34-22.85-.81-.86-1.87-.07-2.74-1.09,2.62.6,3.86-.63,4.61-2.72a42.62,42.62,0,0,1,2.31-5.69c1.17-2.17,1.28-4.61,2-6.88,1.5-4.72,5.43-6.83,9-9.42.43-.31.77-.57,1.07-.12,1,1.49,3.42,2.54,1.69,5a.93.93,0,0,0-.07,1.23c1.48,1.86-.19,2.75-1.28,3.5-4.2,2.88-5.46,7.63-7.67,11.77-.29.55,0,1.4,0,2.79,1.41-2.47,2.26-4.54,3.89-5.88a30.24,30.24,0,0,0,8.18-9.65c1.51-3,.39-5.63-.23-8.28-.28-1.22-1.13-3-2.66-3.54-2.53-.85-5.24-.63-7.87-.64-1.67,0-1.28,2.2-2.34,3-.27.22-.5.5-.76.74-2.63,2.38-4.31,5.27-4.1,8.89.12,2.25-1.2,3.13-2.69,2.3-2.81-1.56-3.44.29-4.52,2a13.79,13.79,0,0,0-1.5,2.54c-.6,1.68-2,1.48-3.37,1.56s-1.22-1-1.67-1.86c-1.16-2.23-2.12-4.74-4.75-5.8-1.18-4.34-.92-8.65,1.62-12.33,1.72-2.47,1.79-5,1.57-7.58-.43-5,2.23-6.25,6.11-5.42,1.53.33,2.14-.15,2-1.5-.16-1.8,1.15-2.68,2.24-3.36a13.55,13.55,0,0,0,2.91-2.95c1.69-1.9.79-4.37,2-6.25h0c1.12-.38.95-1.4,1.06-2.25l1.6-3.59c0-.27-.12-.62,0-.8,4.16-5.68,4.2-13.16,9.08-18.85,3.4-4,6.74-8.09,10.27-12a17.83,17.83,0,0,0,3-3.8c1.35-2.9,3.37-5.28,4.93-8s4.33-4.52,4.67-7.84c-1.77,0-3.54,0-5.31,0,1.77-.06,3.54,0,5.31,0l.24-.61c2-.58,2.47-2.61,3.44-4,2.39-3.41,4.27-7.17,6.5-10.69a18.25,18.25,0,0,1,4.08-4.94c2.64-2,5.56-3.7,7.54-6.51a4.91,4.91,0,0,1,2.16-2c4.29-1.28,5.42-5.73,8.47-8.22a1.9,1.9,0,0,0,.55-1.22c.11-1.65,1.2-2.41,2.45-3.26a22.54,22.54,0,0,0,5.94-6c2.25-3.27,3.63-7,6.08-10.19s5.59-4.07,7.51-1.58c.36,5.19-1.45,10.1-2.1,15.16a42,42,0,0,0,.14,9.89c.71-2.47,3.27-4.15,3-6.85s.94-4.52,2-6.75c1.37-3,.89-6.35.3-9.57a1.77,1.77,0,0,0,.78-1.91c.37-3.07.67-6.16,1.14-9.22.57-3.67-.3-5.84-2.68-6.18-.76-2-2.57-1.72-3.8-1.16a36.61,36.61,0,0,1-4,1.17,5.91,5.91,0,0,0-4.75,1.33c-1.61,1.46-3.23,2.9-4.8,4.39-.94.89-2.05,1.71-2.12,3.2-2.09.09-2.28,1.78-2.72,3.26-1,1.06-2.55,1.36-3.4,2.78-1.6,2.65-4.08,4.84-3.78,8.36,0,.26-.34.6-.59.83a4.1,4.1,0,0,0-.74,4.69c1,2.56-.13,4.95-.56,7.22-.34,1.78-2.27,4.2-3.89,4.56-2.24.5-2.95,1.93-4,3.31a3.21,3.21,0,0,1-.87.78c-2.53,1.66-5.62,2.31-7.53,5.15a44.88,44.88,0,0,1-3.76,5.31c-2.47,2.69-4.14,6.12-7.34,8.16a2.29,2.29,0,0,0-.93,1.89c0,3.39-2.29,5.43-4.47,7.53a3.25,3.25,0,0,1-.43.18,47.33,47.33,0,0,0-5.82,4.47c-2.25,2-5,3-7.06,5-2.64,2.57-6.5,3.63-8.34,7.17-1,1.87-1.73,3.85-2.75,5.65-2,3.65-5.07,6.6-7.88,9.68-1.16,1.27-2.64,2.43-3.29,3.94-1.79,4.13-5.88,6.43-7.81,10.36-1.05,2.14-3.43,3.25-4.42,5.09-2.66,4.89-5.34,9.81-6.4,15.48a14.81,14.81,0,0,1-3.5,7.65c-2.08,2.2-4,4.32-5.14,7.4-1.66,4.49-2.15,9.29-4.56,13.62-2.23,4-4.19,8.12-7.34,11.51-1,.19-1.08,1.64-2.18,1.62-1.34,0-1.37.82-1.38,1.78q0,5.68-.08,11.37c0,1.26.66,2.06,1.81,1.7,3.23-1,5.31.16,7,2.89a3.39,3.39,0,0,0,2,1.76c-.23,1.94,0,3.75,2,4.66,2.31,1,3,2.91,2.88,5.21a4.73,4.73,0,0,0,1.74,4.09c1.08-1.49,1.73-3.2,3.78-3.26l1,.14h0a13.07,13.07,0,0,1,.43,5.42,1.44,1.44,0,0,0-.48.24l0,.11c-.39.93-1.73,1.11-1.91.77-1.13-2.12-2,0-2.26.32a5.83,5.83,0,0,0-1.74,3.17c-.08.78.13,1.7-1,1.86a2.56,2.56,0,0,1-2.55-1.14c-1.12-1.43-2.31-2.81-3.47-4.21,0,.79,0,1.59,0,2.38-.1,4.08.24,8.11-1.36,12.16-1.29,3.22-2.4,6.68-1.93,10.41.78,6.11.89,12.31,3.18,18.18.66,1.7.75,3.6,1.59,5.33A1.93,1.93,0,0,1,171.94,478.55Zm7.83-13.93c.84-1.79.15-3.83.84-5.63l.7.06c0,1.86,0,3.73,0,5.6,0,.64-.26,1.36-1,1.27S179.59,465,179.77,464.62Zm-.3,7.77c.34,1.58.5,2.85-1,4.17C177.91,474.82,177.81,473.52,179.47,472.39Zm-4.15,17.13a15.31,15.31,0,0,0,1.15-7.6c-.08-1.23-.18-2.36,1.83-1.92,1.24.27,2.06-.56,2-2.13,0-1.73-.44-3.55.52-5.62,2.5,5.14,1.21,10.15,1.49,15,.06,1.08.31,2.42-1.87,1.88-1.12-.28-1.35,1.43-1.33,2.48.06,2.68-2.61,1.47-3.68,2.59-.24.25-.61-.69-.63-1.23A7.42,7.42,0,0,1,175.32,489.52Zm114.9-270.18h0c-.42.84-.89,1.17-1.39,1.21C289.33,220.51,289.8,220.18,290.22,219.34Zm1.64-1.1h0c0,.59-.2.87-.51,1C291.66,219.11,291.86,218.83,291.86,218.24Zm.29-.25c0,.06,0,.15-.06.17a.39.39,0,0,1-.19.06l0,0h0Zm-98,191.86c0,.36-.53.44-.88.31a.91.91,0,0,1-.5-1.13c.47-2.07.36-4.38,2.64-6.57C195.15,405.39,194,407.53,194.13,409.85Zm3.47-10.92v-1l1,0a6.81,6.81,0,0,0,2-.17,6.81,6.81,0,0,1-2,.17C198.6,398.61,198.28,398.94,197.6,398.93Zm-.72,3.15c-.15.07-.45-.18-.68-.28.47-.94-.18-2.43,1.38-2.83a1.68,1.68,0,0,1,0,.5C197.38,400.35,198.13,401.5,196.88,402.08Zm11.21-12.55c-2.64,7.2-5.33,14.36-10,20.57.49-4.88,2.81-9.08,4.85-13.37h0l1-1C205.38,393.72,205.86,391.05,208.09,389.53Zm6.16-55.24a3.58,3.58,0,0,1,.45.09C214.55,334.34,214.4,334.32,214.25,334.29Zm-17.58,12.16a51,51,0,0,1,2.53-6.15c-.06-2-.17-4.07-.15-6.11,0,2,.09,4.08.15,6.11,1.5-1.76,2.07-3.94,2.75-6.07a2.45,2.45,0,0,0,.29-.45c.43-1.15.23-3.3,2.23-2.42,1.32.59.72,2.35.26,3.61a9.66,9.66,0,0,0-.6,1.47c-.11.59-.26,1.34.58,1.57s.78-.47,1.1-.88c1.86-2.37,4-4.45,5.43-7.22,1-2,1.92-4.12,3-6.13.44-.82.84-2,1.75-1.59,1.15.53-.06,1.41-.19,2.17-.59,3.56-3.28,6.34-3.59,10h0a15,15,0,0,1-.1,2.75,15,15,0,0,0,.1-2.75c-.82,1.26-1.66,2.5-2.45,3.78-1,1.68-1.8,3.31-1.39,5.49.55,3-1,4.68-4.06,5.45a5,5,0,0,0-2.42,1.08,3.27,3.27,0,0,1-4.39.53C195.94,349.62,196.29,347.82,196.67,346.45Zm-13.45,51.86c.38.48.6,1.11,1.34,1.18l0,0c0,.83.28,2,1.15,1.48,1.41-.9,3.83,0,4.34-2.42.71-.12,1.26-.36,1-1.25-.14-.33-.28-.67-.43-1-.61-1.32-.55-3.7-2.12-3.62-1.87.1-3.38,1.77-4,3.83-.06.2-.29.35-.43.52-.77-.34-.6-1-.56-1.46.45-5.49-1.6-10.63-2.37-16-.3-2.12-1.85-4.13-1.39-6.45.4-2.06-.16-5.15,3.74-4.31.6.13.84-.49,1.07-1,2.5-5.73,4.79-11.57,8.11-16.91.43-.69.3-2,1.63-1.67a2.05,2.05,0,0,1,1.66,2.44c-.76,5.15,0,10.65-4.11,15-1.55,1.62-1.83,4.14-2.53,6.35-.84,2.65-1.74,5.15-1.5,8,.12,1.42.52,2.26,2.09,2.12.89-.08,1.53-.47.83-1.35-.85-1.06-1.21-2.35-.3-3.15,1.27-1.13,1.92.59,2.81,1.18a2.7,2.7,0,0,0,1.05.14l0,0,0,0c.44,2,2,3.29,2.88,5,1.88,3.89,2.11,8,2,12.17,1.67.47,2.53-1.75,4.09-1.65-1.56-.1-2.42,2.12-4.09,1.65-1.61.43-1.64-.62-1.49-1.74-1,.14-.8,2.2-2.31,1.32-.34-1.92-.59-3.65.42-5.66,1.23-2.42-.71-4.51-2-6.49a1.15,1.15,0,0,0-1-.23c-.63.14-.46.63-.31,1.07a10.26,10.26,0,0,0,1,2.74,5.88,5.88,0,0,1,.43,6c-1.77,3.62-1.83,7.4-1.81,11.24a6,6,0,0,1-.82,3.6c-.69,1.05-.88,2.23-2,.29-.68-1.18-1.88-.62-2.54,0-1,1-2.35,1.76-2.73,3.25-.24,1-.88,1-1.64,1l-.4-.18h0a10,10,0,0,1,.25-3.44c.42-2,.51-3.82-2.16-4.69a3.77,3.77,0,0,1-2.62-4.64l.15-1.68C179.44,394.77,180.31,394.66,183.22,398.31Zm3.91-.14.13.18-.13-.18Zm-5.3,15.25h0Zm-7.19-13c.11-1.36.79-1.55,1.57-1.53-.78,0-1.46.17-1.57,1.53a2.72,2.72,0,0,0-2.35.73A2.72,2.72,0,0,1,174.64,400.41ZM165,393.54a5.44,5.44,0,0,0,1.14-2.68c.34-.27.71-.52,1-.81.52-.46,1-1.18,1.76-.41a1.37,1.37,0,0,1,.12,1.94c-1.38,1.33-1.8,3.22-2.93,4.68C164.22,396,164.26,394.85,165,393.54Zm16.16,20.2c.13-.11.25-.23.37-.35h0c-.12.12-.24.24-.37.35Zm5.55,8.07a2.26,2.26,0,0,0,1.21-1.66,6.55,6.55,0,0,1,1.91-2.86,3.1,3.1,0,0,1,3.36-.48c1.29.66-.18,1.77-.56,2.43a19.63,19.63,0,0,1-4.38,5.56c-.65.54-1.23,1.15-2,.23C187.23,424.08,186.83,422.92,186.71,421.81Zm-12.9,63.43a7.31,7.31,0,0,1,.44,2c.26,1.93-1.54,2.83-2.28,4.25-.34.66-1.85,0-1.89-1.08-.12-2.61-1.76-4.59-2.52-6.93-.32-1-.62-2.06.27-2.74,1-.81,1.59.41,2.13,1C171.15,483,173.11,483.33,173.81,485.24Z"/><polygon class="cls-3" points="291.88 92.86 291.88 92.87 291.89 92.87 291.88 92.86"/><path class="cls-3" d="M293,93.43h0v0h0Z"/><path class="cls-3" d="M241.61,438.09a3.19,3.19,0,0,0,1.54-1.65c1.42-3,.64-6.5,2.39-9.48.71-1.19-.74-2.21-2.1-2.45-2-.35-4.16,1.29-5.21,3.43-2.37,4.84-2.43,10.29-4.24,15.27-.33.91-.46,1.79-1.57,1.84a2.26,2.26,0,0,1-2.35-1.41c-3.48-7.12-2.85-14.7-1.21-21.85a60.1,60.1,0,0,1,5.73-15.62,18.74,18.74,0,0,0,1.38-4,1.17,1.17,0,0,0-.48-1.43.9.9,0,0,0-1.23.14c-1.78,2.8-4.76,4.63-6,8-1,2.87-.92,6.36-3.58,8.45A11.53,11.53,0,0,0,221,423.5c-.21.73-1.46,1.87.13,2.5,1.41.55,1.81-.6,2.27-1.63a108.64,108.64,0,0,1,6.89-12.91,2.33,2.33,0,0,1,.09,2.2c-.93,3.24-2.74,6.17-3.36,9.52-.32,1.68,0,3.37-1.45,5a6,6,0,0,0-.9,4.74c.69,2.71,1,5.18-.32,7.75a2.32,2.32,0,0,0,.08,2.36c2.35,2.87.51,5.6.08,8.49a24.1,24.1,0,0,0,.29,10.06c.94,3.51,4,5.79,4.66,10.09.83-2.3,2.16-3.44,3-4.6,1.93-2.67,3.86-6,3.48-9.54-.55-5.14,1.69-9.78,2.08-14.72C238.2,440.47,239.75,439.1,241.61,438.09Z"/><path class="cls-3" d="M205.66,585.57c.82,1,1.75,1.44,2.81.92a3.09,3.09,0,0,0,1.59-2.61c.27-2.25-1.42-3.93-1.53-5.9-.25-4.63-2.79-8.52-3.72-13-1.21-5.75-3.86-11.18-4.52-17.11-.25-2.2.45-4.64-.26-6.62-1.25-3.46-1.35-7.11-2.46-10.55-1.24-3.84-1.89-7.3-3.63-11-2-6-4.49-11.22-6.69-13.75-.43,1.69,3.18,11.85,4.46,14.77.67,2.21,1.33,4.42,2,6.63,1.35,4.33,2.91,8.65,2.2,13.29-.85,5.59.61,11.08,2.81,15.78,2.71,5.82,3.69,11.92,5.32,17.93.12.46.4,1.26-.61,1.66-2.9-3-5.23-6.54-8.44-9.37-1.51-1.33-3.39-3-4.15-5.06-1.55-4.08-3.53-9.2-3.08-14.52a94.87,94.87,0,0,0,0-12.73c-.14-2.76-.3-5.71-3.1-7.49-.31-.2-.3-.85-.9-.32-3.12,2.79-6.8,5.15-8.35,9.26-.91,2.41-2.8,4.09-4,6.29a24.94,24.94,0,0,1-6.18,7.6c-2.63,2.07-2.2,5.52-4.9,7.77-2.21,1.83-4,4.35-6.75,5.76-.43.23-.38.57-.37.9,0,1.22-.38,2.47.33,4.18,2.45-4.18,7.3-5.7,9.29-9.55,1.08-2.1,3.17-3.49,3.65-5.87a4.19,4.19,0,0,1,1.3-2,44.77,44.77,0,0,0,8.91-12.79c1.35-3.14,3.84-5.45,5.92-8.06,1.14-1.43,1.79-1,2.56.34,1.66,3,1.34,6.08.56,9.1-.58,2.29-1,8.44-.11,10.87.16.45-.16.43-.35.5-1,.35-.73,1.18-.68,1.84.38,5.31,1,10.46,6.23,13.66,1.71,1,3.65,2.14,4.66,4.08s3.55,2.63,4.12,5C200.55,579.52,203.16,582.51,205.66,585.57Z"/><path class="cls-3" d="M237.34,755.76c-3-2.13-5.86,0-8.73-.25-2-.14-4.38,1.2-6,3.28a14.51,14.51,0,0,0-2.48,5c-.76,2.37-2.75,4.35-3.47,6.72-1.06,3.44-3.73,5.78-5.83,8.15a4.76,4.76,0,0,0-1.06,5.05,17.66,17.66,0,0,1,.89,5.18,1.21,1.21,0,0,0,.32.94c.46.32.81-.1,1.12-.43.95-1,1.45-2.36,3-2.85,4.22-1.31,5.72-5,4-9-.52-1.24-1.19-3.45-.26-3.86,2.51-1.1,3.4-3.32,4.67-5.51a13.58,13.58,0,0,1,1.25,2c.65,1.76,1.84,1.76,3.11.91a14.43,14.43,0,0,0,5.6-5.92c1.27-2.67,2.28-5.72,5.47-7.32a5.55,5.55,0,0,0,2.54-4.76C239.92,754.11,239,756.9,237.34,755.76Z"/><path class="cls-3" d="M220.48,507.13c2.19-2.24,2.61-5.51,2.86-8.11a98.38,98.38,0,0,0-.44-22.09c-.15-1.12-.43-2.71-2.07-3.1a3.35,3.35,0,0,1-.53-6.4c1.25-.53,1.23-1.15.54-2a2.64,2.64,0,0,1-.48-2.05c.25-2-1.13-3.33-1.81-4.94a1,1,0,0,0-1.29-.64c-.49.2-1.07.44-1.12,1.07-.34,3.93-3,7-4.07,10.59-.65,2.18-1.56,4.91-.43,6.75a29.58,29.58,0,0,1,3.37,7.62,75.62,75.62,0,0,1,2.15,9.27c.47,3.31-1.62,6.23-1.09,9.3,0,1.17,0,2.17,0,3.16a3.57,3.57,0,0,0,1.68,2.84C218.92,509.05,219.75,507.87,220.48,507.13Zm-7.59-38c2,0,1.65,1.81,2.81,2.08.89-1.94-.57-4.25.91-6.05v8.62C214.09,473.33,214.52,470.84,212.89,469.15Zm4.24,1.42a17.83,17.83,0,0,1-.28,2.15,17.83,17.83,0,0,0,.28-2.15,17.3,17.3,0,0,0-.52-5.39h0A17.3,17.3,0,0,1,217.13,470.57Z"/><path class="cls-3" d="M318.66,1.52a2.7,2.7,0,0,0-.92-.52C318,1.19,318.35,1.36,318.66,1.52Z"/><path class="cls-3" d="M291.89,92.87h0Z"/><path class="cls-3" d="M173.2,717.49h0v0Z"/><path class="cls-3" d="M185.12,110.65c.69.23.89-.25,1.12-.81.94-2.25,1.94-1.3,2.59.12.91,2,1.84,1.49,3,.36a4.56,4.56,0,0,0,1.47-3.31c.21-3.08-1.42-6.38,1-9.25.18-.22.08-.71,0-1.06-.69-5-4.08-8.14-8-11.88-.1,1.45-.15,2.07-.18,2.68-.18,4.31.12,8.71-.71,12.88a44.16,44.16,0,0,0-.9,8.91C184.57,109.8,184.46,110.44,185.12,110.65Z"/><path class="cls-3" d="M213.77,429.16c.73-.13.6-.81.36-1.31-.42-.91-.08-1.44.63-2.06a38.45,38.45,0,0,0,8.27-10.9c.88-1.65,1.9-3.93-.44-5.14-2.5-1.28-2.26-3.25-2.26-5.37a8.79,8.79,0,0,0-.48-4.09c-1,2.72-1.8,5.3-3.19,6.86-2,2.25-2.3,4.46-2.2,7s.27,5.22-.83,7.43-.61,4.19-.79,6.28C212.78,428.53,212.85,429.32,213.77,429.16Z"/><path class="cls-3" d="M145.27,697.26c2.71-1.29,5.74-.92,8.43-2l.66-.49,4.2-.13c0-.63.09-1.41.59-1.52-.5.11-.57.89-.59,1.52a5.68,5.68,0,0,1,3.37,2.8.89.89,0,0,0,1,1.07c.46.9,1,1.75,2.17,1.67h0c2.41,1.8,4.45,4.06,7.54,4.94,2.35.67,4.08,2.62,5.57,4.42.85,1-.43,2.62-1,3.92a3.65,3.65,0,0,0,0,1.86c.16,1.3-.33,2-1.46,2.78-1.32.93-1.7-.33-2.5-.54.57,2.48,1.84,3.53,4.65,3.32,4-.32,8.18-1,12.08.91a2.13,2.13,0,0,0,1,.23c.7-.06,1.58,0,2-.63a1.38,1.38,0,0,0-.71-1.83c-1.4-.63-.44-1-.07-1.63a7.35,7.35,0,0,1,2-2.4,3,3,0,0,0,1.14-3.24c-.35-2.1-2.18-2.94-3.1-4.52-.17-.28-.33.43-.45.71-1.62-1.72-2.48-4-4.46-5.47-1.09-.76-2.29-.45-3.46-.34-2.77-1.12-5.06-3.17-8-4-1.51-.08-1.39-2.06-2.72-2.36-1.13-2.58-3.63-3-5.92-3.68-1.72-2-4.14-2.46-6.51-3-.19-.47-.53-.82-1-.73-3.73.69-7.47-.3-11.2,0a4.56,4.56,0,0,0-3.34,1.54c-.85-8.21.27-16,1.12-23.85-.29,1.5-.89,2.94-1.08,4.41-.68,5.11-1.78,10.21-1.22,15.44a4.39,4.39,0,0,1-1.51,4.07c-1.36,1.25-1,3.31-.33,4.78C142.63,696.27,143.76,698,145.27,697.26Zm8.59-3.25-.31.31a3,3,0,0,1,.31-.31Z"/><path class="cls-3" d="M146.31,666.57a8,8,0,0,0,.17-1.55C146.43,665.53,146.37,666.05,146.31,666.57Z"/><path class="cls-3" d="M329,364.9c-3,1.25-6,2.2-8.43,4.58-1.54,1.53-3.21,3.45-5.15,3.95-4,1.05-7.28,3.31-10.61,5.42-5.29,3.33-9.93,7.37-11.11,14-2.1.84-3.75,2.37-5.6,3.6-2.94,1.95-4.74,5.22-8.12,6.71-1.36.6-3,1.39-3.22,3.29l.21.29-.29-.2-5.92,7c-1.09,0-1,.9-1.08,1.61-1.89,1.21-3.05,3.07-4.27,4.88l.19.32-.32-.19a19,19,0,0,1-1.06,3c-2.34,4.21-3.7,8.84-5.72,13.2-1.41,3-3.88,5.09-5.52,7.85-.41.68-1.21,1.26-1.15,2.14a6.19,6.19,0,0,1-2.13,4.94c-.75.72-.35,1.25-.44,1.87-1.05-.54-1.32.08-1.69.94-1,2.27-1.43,4.72-2.66,6.95-.92,1.66-1.87,3.46-1.35,5.85a17.8,17.8,0,0,1,.53,2.62v.41a2.84,2.84,0,0,1-1.47,2.48v-4.5c-1.43,1.57-.92,3.18-1.67,4.36-1.12-.13-1.57,1.17-2.58,1.23-2.45.14-3.1,2-3.27,3.87-.15,1.56-.27,3-1.37,4.2-.55.61-.22,2-1.42,2-1.44.09-.86-1.57-1.61-2.13a21.24,21.24,0,0,1-.59-5.84c.07-1.05.18-2.44-1.25-2.36-.82,0-1.31,1.25-1.39,2.27a31.49,31.49,0,0,0,1.82,13.08c-.76,2.85,1.35,5.2,1.35,8,0,2.37-.5,4.89.77,7.18.62-.44,0-1.53.94-1.77,0,.58-.12,1.18.36,1.65a5.92,5.92,0,0,0,.78-.22,5.92,5.92,0,0,1-.78.22c-.05.54-.11,1.07-.16,1.6-1.05.5-2.42,1.05-1.56,2.47a5.44,5.44,0,0,1-.21,5.47c-1.41,2.62-.68,4.35,1,6.2-.51,2.07-2.29,1.92-3.82,2.14-.53.08-1.21-.53-1.44.54-.47,2.13-1.29,4.16-1.1,6.45.25,3,1,3.61,4.12,2.65.95.13,1.66.36,1.75,1.59a16.61,16.61,0,0,0,.82,3.09c0,2.51-2.7,3-3.64,4.77a4.4,4.4,0,0,1-1.12.61c-2.13.4-3.89,3.31-2.76,5,1.52,2.21,3.34,4.2,5,6.29a2.1,2.1,0,0,0,2.67.35,2.1,2.1,0,0,1-2.67-.35c.73,1.19.47,2.54.65,3.82a4.33,4.33,0,0,0,0,1.57c1.09,2.52,2.58,4.92,1.61,7.88-.14.45.37.74.84.84,0,1.08-.11,2.16-.16,3.24-1,.58-1,1.14,0,1.69l.15,1.13c-.37,1-1.05,2,.57,2.54.48,1.82,1.17,3.69-1,4.76.71,1.51,1.68-1.9,2.15.36,1,5,0,10.13,1.12,15.12-.75.61-.34.85.33,1l.06,5c.28,2.76.34,5.57,2.27,7.85.18,3.08-.8,6.22.53,9.24,1.78,2,3.44,4.08,5.72,5.56.75,2-.44,4.1.32,6.1-.07.66-.08,1.28.74,1.49,0,2.7-.07,5.39-.12,8.09,0,1.36,0,2.66-2,1.46-.63-.38-2.59-.62-2.17.76,1.28,4.11-3.56,6-2.49,9.93-1.5-.67-.51-2.12-1.71-2.4a1.38,1.38,0,0,0-.39,1.5c.74,4,.42,4.39-3.31,4.32-.78,0-2.15.07-1.65,1.07,1.65,3.28.06,6.19-.59,9.23.39-.22,1.09-.39,1.13-.66,0,.27-.74.44-1.13.67l-8.87,10.65-.09,1.53c-.6,1-1.19,2.08-1.79,3.11-3-1.08-6.38-.71-9.09-2.7-.05,0-.17,0-.26,0-2.63.48-5.43.63-7.71,2.09-1.63,1-4.6,1.34-3.77,4.56-1.44,3.3-.91,5.19,1.48,7.45,2.61,2.45,5.48,4.61,7.72,7.51,1.52,2,3.1,4.24,5.74,5.11-.56,2.77,2,3.36,3.34,4.86.51,3.14,8,16.55,11.29,20.9a4.38,4.38,0,0,0,.75,2.26c1,1.52,2.44,3.1,2.42,5,0,4.31.65,8.62.08,12.93-.1.79-.42,1.55-.52,2.34s.69,1.5,1,1c1.16-1.82,4.1-2.93,3.93-4.81-.4-4.54.47-8.77,1.17-13.15.49-3.08-.46-6.39-.77-9.6h0c.2-3.08,4.41-5.24,2.06-8.93-.08-.14-.14-.7-.24-.94l-.7-4.07c.45-2.35-1.22-3.91-2.15-5.75l-.5-.5-.48-2.11a29.82,29.82,0,0,0-5.15,4.27,29.82,29.82,0,0,1,5.15-4.27c0-1.41,1.47-3.52-1.67-3.33-1.93-2.83-3.76-5.77-7.61-6.28l-.11-.11c-1.74-1.76-3.89-.91-5.91-1h-1.08a3.67,3.67,0,0,0-3.25-1.13c-1.58-.52-3-1.92-4.85-1-1-.82-2-1.61,0-2.4a1.76,1.76,0,0,0,1-1.75l.66-.3c2.57-.1,5.23.26,7.49-1.44h1.06c3.54,1.55,7.44-1.54,7.24-5.74.74-2.9,1.76-5.61,4.73-7,4,1.47,4.48,4.62,3.9,8.27a2.26,2.26,0,0,0,.44-.22,4.63,4.63,0,0,0,1.3-1.31,4.63,4.63,0,0,1-1.3,1.31,2.26,2.26,0,0,1-.44.22l-.06,3.74h0c1.2,2,1.7,4.46,4.19,5.41.29,1.39.11,3.33,1,4.07,3.69,3.21,2.48,8.08,4.33,11.94,1.29,2.71,1.77.43,3.77-.57,1-1,1.55-.14,1.61-3.34.63.82,1.45,1.5,1.39,2.75,0,.66.38,1.5,1.33,1,2.63-1.4,4.5-6.23,3.9-9.91.73-2.58-.9-2.71-2.74-2.64h-.31l-.06.05c-.16,2.35-1.84,3.71-3.28,5.21,1.44-1.5,3.12-2.86,3.28-5.22l-.83-.11c-.15-1.64-1.24-3.09-.57-5a1.46,1.46,0,0,0-1.78-1.76c-3.12,1.2-3.13-.41-2.68-2.63.14-.7-.45-.94-.81-1.26a5.5,5.5,0,0,1-2.16-4.4c0-.83-.77-1.65-1.31-2.45-1-1.55-3.51-1.19-4-3.28h0c-.3-1.9.46-3.9-.52-5.75h0l-.57-.63q0-3.24,0-6.48c1.59-.23.63-1.87,1.41-2.58s.91-1.63,2.29-1.28,1,1.26,1,2.06q0,5,0,10a9.08,9.08,0,0,0,1.27,4.72c2-2-2.2-5,1.66-6.55,2-.79.76-5.67,4.95-4.08-.16-1.36-1.66-1.35-1.85-2.45a7.79,7.79,0,0,1,3.61-1.24c-3-.76-1-4.11-3.18-5.13.87-1.7,2.43-2.68,3.87-4.07,0,2,0,3.7,0,5.41,0,1.39.48,3,1.86,2.75,2.41-.41,1.37,1.09,1.25,2.41,1.76-3.07,1.74-3.28-.83-4.1-.86-.28-1.34-.72-1.15-1.5.78-3.07-1.34-6.36.8-9.39a3.1,3.1,0,0,0-.12-2.85c-.9-1.27-.74-2.51-.74-3.85,0-3.79,0-7.58-.07-11.37h0c-.08-1.29-.09-2.61-.1-3.88,0-2.16,1.11-4.8-1.32-6.54-.33-1.65-.65-3.3-1-5a2,2,0,0,0-1-3.07,19.14,19.14,0,0,1-3-2.14c-.57-1.24-.35-3.2-2.62-2.88-1.93,2.23-3.4,5.12-6.37,5.77,3-.65,4.44-3.54,6.37-5.77-.52-1.67-.47-3.59-2.08-4.78-.28-5.37-.47-10.75-.61-16.11-.07-2.55-.29-5-.54-7.56-.09-.9-.25-1.37-1.19-1.36,0-1-.07-1.94-.11-2.91l.7.21c.52-5.61-1.25-11.2-.1-16.81a3.76,3.76,0,0,0-.16-2.13c-1.3-3-.69-6.2-1.34-9.25,2-.82,2.09-3,3.14-4.43,1.59-2.25,2.22-4.46.28-6.81,2.27-3.76,1.92-8.16,2.28-12.18.72-8.26-.45-16.68,1.85-24.84.47-1.68,0-3.61.7-5,1.66-3.53,2.13-7.42,3.7-11,.81-1.85,1.92-4.26.53-6.16a6,6,0,0,1-1.11-3.94c1.65-1.27,4.12-1.11,5.23-3.58a18.86,18.86,0,0,0,.84-3.26c1.81-6.93,5-13.48,5.52-20.8a7.39,7.39,0,0,1,1.51-4.47c1.88-2,2.15-4.69,2.88-6.94,1.29-4,3.84-7.18,5.15-11h0c.68-.32.54-.88.42-1.43,2.78-3.68,5.11-7.66,8.08-11.2,2.79-3.33,5.06-7.08,8.93-9.41,1.39-.84,3.08-1.52,3.7-3.3h0c.86,0,1.57-.1,1.6-1.17a1,1,0,0,1,.39-.08c1.43.4,1.93-1.09,3-1.5,5.12-1.92,9.12-5.51,13.07-9.15,2.7-2.49,5.31-5.19,8.37-7.15,2.7-1.75,4.51-4.49,7.4-6a2.08,2.08,0,0,0,.85-2.16C330.32,364.79,329.6,364.64,329,364.9ZM231.64,731.51c-.88.76-1.41-1.12-2.46-1l-6.24-10.71c-2-4-2.1-9.25-4.88-12.56-1.19-1.41-.67-3.09.76-4.28.7-.58,1.62-1.65,2.45-.43,1.21,1.75,2.85,3.22,3.54,5.32h0c-1.7,2.14-2.28,4.3-.06,6.48.19,3.06,2.77,4.89,3.81,7.52a6.17,6.17,0,0,0,2.58,3.73c.21.66.38,1.35.64,2C232.31,728.92,232.87,730.46,231.64,731.51Zm-12.92-30.8-.68.4c-.55.32-1,1.43-1.67.79s-.19-1.44.46-2c.17-.15.19-.47.28-.71h0l1.52.07h0c.06.29.12.59.19.88l-.1.6c2.39.67,4.74-.63,6.11-3.12C223.46,700.08,221.11,701.38,218.72,700.71Zm.44-1.09a.08.08,0,0,0,0,0A.08.08,0,0,1,219.16,699.62Zm1.91-17.57a3.23,3.23,0,0,1,.25.65A3.23,3.23,0,0,0,221.07,682.05ZM246.4,467.36h0a5.45,5.45,0,0,1,.52,2.75A5.45,5.45,0,0,0,246.4,467.36ZM233,552.28a5.74,5.74,0,0,1-.47.41A5.74,5.74,0,0,0,233,552.28Zm15.77,78.43h0c-.63,1.68-.51,3.69-2.25,5.16-.12-1.69-.22-3.18-.33-4.67C247,630.72,247.39,628.33,248.73,630.71Zm3.62,57.4c-.8,2.11-1,4,.78,5.49-3.44,0-3.44,0-3.55-3.74C251.07,690.37,251.11,688.48,252.35,688.11Zm-11.93-14a.66.66,0,0,1,0-.15A.66.66,0,0,0,240.42,674.16Zm-.23-7c-.14,0-.22,0-.26-.06S240.05,667.2,240.19,667.18Zm9.1-10.5c-.79.08-1.59,0-2.73,0,1.48,1.86.88,3.22-.71,4.46-.35-2.51,1.25-5.81-2.75-6.7a3.17,3.17,0,0,1,1.61-2.11,1,1,0,0,1,.66-1,1,1,0,0,0-.66,1,1.07,1.07,0,0,0,1.12-1c1.09-.09,3-1.23,1.69,1.54-.65,1.38,0,2.41,1.77,2.3.68,0,1.9-.4,1.78.9C251,657,249.93,656.61,249.29,656.68Zm6-11.46c-1.95,1.84-3.86,3.73-6,5.78-.63,0-.39-1.51-1.38-1.35.67-1.74,2.61-2.12,3.73-3.58,1.64-2.12.81-4.94,2.71-6.72.33,1.25-.41,2.79,1.48,3.62C256.6,643.3,256,644.54,255.29,645.22ZM241.5,540.32l0,2.45,0-2.45c-1.13-3.33,1.83-4.77,3.21-6.94C245.92,536.15,245.31,537.46,241.5,540.32Zm5.38-69.5c0-.24,0-.47,0-.7C246.91,470.35,246.9,470.58,246.88,470.82Zm.75,2.58c.22.44.76.41,1.36.05h0C248.39,473.81,247.85,473.84,247.63,473.4Z"/><path class="cls-3" d="M243.11,571h0v0Z"/><path class="cls-3" d="M145,809.19a17,17,0,0,0-7.7-12.7c-.83-.57-.64-2-1.72-1.93s-1.62.38-1.55,1.3a5.05,5.05,0,0,0,1.05,2.14c2.17,3.64,5.33,6.78,4.9,11.68-.18,2,2.06,3.23,3.72,4.3.8.52,1.55-.29,2.21-.66.94-.53.07-1.3,0-1.91C145.69,810.64,145.05,810,145,809.19Z"/><path class="cls-3" d="M172.92,423.43c-.22-3.16-2.84-4.34-4-6.62-.23-.46-.73-.3-1.19-.1-4,1.79-5.36,4.39-4.54,9.07.64-.2,1.14-.46,1.31-1.18.39-1.67,1.2-2.77,3.17-2.37a3.18,3.18,0,0,1,2.87,3.34c0,.75,0,1.47,1,1.57C170.93,425.6,173.05,425.23,172.92,423.43Z"/><path class="cls-3" d="M171.56,427.14a.08.08,0,0,0,0,0h0l0,0v-.06Z"/><path class="cls-3" d="M404,71.56c-.55-1.92,1.64-3.54.54-5.57a4.08,4.08,0,0,1-.31-3.08c.5-2-.63-1.59-1.75-.95h-1.66c-.3-.16-.63-.49-.89-.44-2.78.53-5.41.76-8.24-.41a3.94,3.94,0,0,0-5,1.94h0l-.56.5c-2.18,1.36-3,4.55-2.11,8.16l.09,2.14c-1.12,1.41.91,1.49,1.08,2.53.47,3,2.72,4.48,5.73,3.82a10.05,10.05,0,0,1,5.25.09,3,3,0,0,1,1.34,4.59,5.8,5.8,0,0,0-3.12.51c-1.16.56-2.47.79-2.7,2.53s.78,2.69,2,3.61c1.68,1.23,3.63.4,5.4.84.09,1.64.18,3.34,2.4,3.42,2,.06,2.4-1.3,2.43-2.93-.5-2.12-2.35-2.56-4-3.26-.24-1.08-.49-2.17-.74-3.26,1.39-.38,1.51-1.5,1.55-2.67,1.78.08,1.57-1.18,1.66-2.35.13-1.53-.79-3.37.59-4.53C404.88,75.2,404.75,73.5,404,71.56Zm-16.85-4.93a11.42,11.42,0,0,0,.09-2.33A11.42,11.42,0,0,1,387.12,66.63Z"/><path class="cls-3" d="M379.23,44.61c-2.68-1.89-7.12-1-9.89,2.09-1.6-1.52-4.07-1.63-5.43-3.67-.85-1.27-.71-3.23-2.53-3.84-.69,1.49-2.18,2.51-2.77,4.11a3.93,3.93,0,0,0-.22.85,3.93,3.93,0,0,1,.22-.85c.59-1.6,2.08-2.62,2.77-4.11-.37-1.76-1.54-.39-2.3-.59-2.28-1.72-4.25-3.89-7.06-4.82-.19-1.66-.39-3.31-.59-5a4.7,4.7,0,0,0-1.4-4.53c-1.47-1.26-.76-3.84-3-4.53h0l-.06-.07a.89.89,0,0,0-.85-1.14c-.33-2.42-2.17-4.09-3.05-6.23-.82-2-.47-3.48,1.73-4.29,1.26-.46,2.47-1.06,3.7-1.6.76-.33,1.57-.75,1.56-1.66a2.21,2.21,0,0,0-1.5-2,12.55,12.55,0,0,0-5.12-1.38,94.41,94.41,0,0,0-14.42,1c-3.29.56-6.93,1-10.4-.77,1.25,1.07.91,2.89,1.87,4a22.57,22.57,0,0,0,7.05,9.28,2.13,2.13,0,0,1,.13.43c.14.56.56.61,1,.58l.05,0c-.18.79-.42,1.57-.54,2.37-.37,2.68-1.58,3.32-3.92,2a11.55,11.55,0,0,1-2.93-2.27c-1.84-2-4-3.67-6-5.47-1-3.16-.74-6.45-1-9.67.17-.14.49-.28.5-.43,0-.42-.34-.49-.68-.52A1.23,1.23,0,0,0,313,1.38l-9.63-.16c-.63,0-1.26-.11-1.89-.13-4.79-.14-7.38,3.42-5.77,8,.2.54.35,1.17,0,1.55-2.4,2.59-2.59,6.44-5.19,9-1,1-1.54,3.32-.83,3.85,2.29,1.7-.23,1.5-.59,2.11-.8,3.16-4.2,4-5.76,6.76-.68-1.79-1.16-3.34.3-4.87.93-1,.66-2-.3-2.81-.48-.41-1.27-.79-1-1.45.64-1.33-.18-1.54-1-2.2-1.16-.9-2.43-1.78-1.17-4a4.84,4.84,0,0,0-.71-5.79c-.66-.66-.93-1.42.27-1.86.87-.32,1.19-1.27,2.73,0,2.35,1.91,1.29-3.66,4.08-2.88.38.11.66-1.11.32-1.34-1.43-.95-1.7-3-4.32-3-11,.05-22,.61-32.93-1.36C244.42-.21,239,1,233.71.08c-.81-.14-1.85-.27-2,1.15-.26,2.82-1.14,5.55-1.53,8.32A97.87,97.87,0,0,0,229.56,22a7,7,0,0,1-1.91,4.54,8.28,8.28,0,0,1-2.4,1.68c-1.93,1.05-1.16,3.49-2.52,4.77s-.7,1.62.57,1.93c2.54.62,3.19,2.63,3.52,4.84.12.79.27,1.56.46,2.33.82,3.47,3.59,6.75,1.25,10.62a1.88,1.88,0,0,0,0,1.59c1.06,1.86,1,4,1.33,6a6.18,6.18,0,0,0,.26-1.88c0-.66-.29-1.58.7-1.8.83-.18,1.32.51,1.71,1.1a3.83,3.83,0,0,1,.49,3.84c-.28.69-.74,2.08.49,2.06,1.61,0,2.68.29,3,1.88a3.83,3.83,0,0,1-1.37,4.11c-4,3.25-6.87,7.46-10.25,11.24-1.4,1.57-3.1,3.59-5.45,4.2a11.26,11.26,0,0,0-6.17,4.15,26.13,26.13,0,0,1-4.63,4.53c-2.53,1.93-4.47,4.59-4.4,7.44.14,5-3.71,8.77-3.56,13.67,0,1.12-1.2.81-2,.72-3.06-.35-3.75.26-3.32,3.27a8.34,8.34,0,0,0,1.07,3,3.39,3.39,0,0,1,.34,3.35c-1.27,1.91-.72,4.34-2.27,6.22l-.67,4.35c-.76,1.88.06,4.07.82,6,.07.16.31.3.3.44-.13,2.2,2,4.76-1.05,6.54-.23.14-.31.89-.18,1.26,1,3.13-1.58,5.23-2.18,7.9a5.92,5.92,0,0,1-3.23,4,5.91,5.91,0,0,0-2.28,2.53,8.29,8.29,0,0,1-2.8,3.11c-1.74,1.19-1.23-.25-1.43-1-1-.77-1,0-1,.66a68.58,68.58,0,0,1-.91,10.85c-.8,4.32-.46,8.9-.55,13.34-.12,5.72-2,11.28-1.28,17a2.45,2.45,0,0,1,0,.27c-.34,5.94-1.62,11.77-1.66,17.76,0,4.1,1.18,8.43-1.49,12.26a1.66,1.66,0,0,0,0,1.56c.48.58.49-.44.88-.47l.61-.52,0,0a7.29,7.29,0,0,0,1.29-.92c3.74-4.36,6.38-9.46,9.09-14.43,3-5.52,6.09-11,9.1-16.5,1.66-3,3.62-6,4.68-9.27a74.42,74.42,0,0,1,3.18-7.77c1.8-3.93,3.41-8,4.92-12,1.7-4.5,2.67-9.2,5.64-13.21,2.25-3,3.74-6.59,6-9.66a96.63,96.63,0,0,0,6.36-9.47c1.77-3.09,3.6-6,6.48-8.19.38-.29.22-.65.64-1l.16-.14c1-1,0,0,.9-1a3,3,0,0,0,2.32-1.12c2.38-2.35,3.6-5.66,6.19-7.67,3.76-2.92,7.67-5.6,10.34-9.68,1.05-1.58,2.56-1.45,3.91-.4,1.64,1.28,2.63,1.1,3.18-.88a8,8,0,0,0,.19-2.68c-.16-2.23-.07-4.16,2.44-5.26,1.34-.59,1.18-1.41-.24-2.25-2.71-1.61-4.82-3.61-5.17-7.22-.17-1.79.24-3.74-.81-5.52-3.08-5.25-4.27-11.48-8.35-16.23a1.51,1.51,0,0,1,0-1.79c.14-.25,0-.87.82-.32,2.49,1.77,5.26,1.7,8.07.79-.62-3.42.91-6.42,1.84-9.55a6.66,6.66,0,0,0-1.23-6.76c-.72-.87-3.14-2.54-.6-4.29a11.37,11.37,0,0,0,2.74,2.92c.56.49,1.68.4,1.55,1.56-.57,4.78,3,7.94,4.62,11.86.78,1.88,2,3,4.13,2.65,1.39-.25,1.41,1.15,2.23,1.54l1,.1c0,.54.11,1.07.17,1.6h0c.47,1.87,2,2.94,3.34,4,2.24,1.75,2.78,3.16,1.13,5.27-1.52,2-.75,2.53,1.22,2.74,1.51.66,3,2,4.66.41.91-.84,1.65,0,2.47.2,1.12.25,2,1.17,3.28.95h0c.4.82,1.88.82,1.63,2.14.54-.17.83.13,1.07.55l2.17.47h0c1.49.91-.84,2.35.46,3.28-.24,1,1.09,1.86.13,2.86A8.79,8.79,0,0,1,293,93.43c-.46,0-.88-.05-1.07-.56a56.56,56.56,0,0,1-13.46-1.48,3.53,3.53,0,0,1-2.77-2.51,26.84,26.84,0,0,0-5-8.38c-1.73-2-4.52-1.25-6.06-3-2-2.16-4.36-2.15-6.88-2a4.25,4.25,0,0,0,1.12,3,23.29,23.29,0,0,1,5,7.25A30.52,30.52,0,0,1,266.44,96a3.73,3.73,0,0,0,.93,2.45c2,2.42,2.88,4.93,1.13,8.05-.65,1.16-.35,2.9-.31,4.36,0,.4.59.93,1,1.13s.73-.37.87-.76.4-1,1.06-1c2.76-.21,3.91-2.54,5.54-4.24.54.11.54.57.64,1-1.22,2.22-2.9,4.28-2.33,7.08l-.36.14c-1.58.14-1.78,1.91-3,2.49a9.81,9.81,0,0,0-3.46-.1c-.93-.22-2.34-.76-2.6.29-.46,1.92-2.24,2.71-3,4.3-2.25-.67-3.23.8-4.08,2.44a18.75,18.75,0,0,0-.77,1.92h0c-1.57.09-2.32,1.36-3.06,2.41a46.22,46.22,0,0,0-4.5,8.94c-.23.36-.47.72-.71,1.08h0c-1.8,1.41-3.16,3.36-5.64,3.91a4,4,0,0,0-2.8,2.64,4.53,4.53,0,0,1-2.92,2.54,8.13,8.13,0,0,0-5.36,5.14,49.81,49.81,0,0,1-3.56,9.2c-1.2,2.1-2.11,3.35.85,4.32.37.12.89.58.9.89.1,2.43.19,4.66,3.5,2.42.23-.15.84.18,1.23.38,2.93,1.53,6,1.25,9.19,1-.24-2-1.69-1.47-2.73-1.45-3.16,0-6.22.09-8.9-2.16-1.38-1.17-1.87-2.47-.73-3.59,2.89-2.83,4.46-6.7,7.57-9.33,2.1-1.77,4.76-2.33,6.85-4.64,3.45-3.8,7.74-6.9,10.83-11.14l-8.25-.16,8.26.16.64-.18c1.29-.72,1.62-2,1.95-3.29a26.56,26.56,0,0,1,7.46-1.89c3.28-.34,5.95-2.22,8.45-4.51,2.28-2.09,3.05-5.91,6.91-6.24a.51.51,0,0,0,.29-.41c-.37-2,1.41-3.66,1-5.69a16.25,16.25,0,0,1,6.43-6.07c2.06-1,4-2.22,6.34-.19a2.41,2.41,0,0,0,3.57-.48c2.17-1.33,4.63-.94,7-1.2,1.19-.14,2.65-.08,2.39-2,.42-.1.79-.16.95-.73.89-3-1.48-4.45-3-6.27a4.12,4.12,0,0,0-2.68-2,1.56,1.56,0,0,1-1.15-2.09c.31-1.06,1.09-2,2.14-1.49,2.26,1.09,4.8-2.46,6.87.53.08.13.83-.11,1.21-.3,2.17-1.14,5.41-.24,6.07,2,.76,2.56,2.66,3.45,4.85,4.18l.37.79c-1.05,3.72.7,6.2,3.62,8.16a1.25,1.25,0,0,0,1.42,1.53c2.09-.12,3.52,1,5,2.24,0,.74.48,1.06,1.09,1.27,2,2.23,5.36,2.55,7,5.25.54.26,1,.47,1.35.23-.31.24-.81,0-1.35-.23a7.63,7.63,0,0,0,2.19,5.87,21.19,21.19,0,0,1,3.5,6.19,4.19,4.19,0,0,0-.29,3.3,3.88,3.88,0,0,1-.22,3.35c-1.45,2.25-1.3,4.71-1,7.2-1.14,1.62-.08,4.2-2.42,5.37-.51.25-.47,1.31.06,2l-1.27,1.63c-.7,0-1,.28-.94,1l-.11.12c-.35,0-.75-.06-.81.39,0,.13.31.31.48.47-.18.75-.35,1.5-.53,2.24a7,7,0,0,0,1.37-.6,7,7,0,0,1-1.37.6,75.44,75.44,0,0,1-3.64,7.58c-.94,1.53-.42,3.4-1.59,4.75-1.93,2.24-1.85,5-2.13,7.73a4.59,4.59,0,0,0,.78.07,4.59,4.59,0,0,1-.78-.07c0,.37-.07.74-.11,1.11-.62.17-1.1.39-.31,1l-3.87,12c-2.16,1.54-1.95,4.25-3.08,6.33a84,84,0,0,0-3.47,8.22c-2.47-.21-1.52,1.66-1.73,2.83l-.76.54c-.65-.62-1.64-1.84-1.93-.13a1.6,1.6,0,0,1-1.27,1.53c-1.17.45-1.19,1.41-1.12,2.41.08,1.3,1.11,1.14,2,1.29-.34.4-.8.63-1,1.22-1.16,3.45-2.5,6.84-3.61,10.3-1.41,4.43-3.39,8.65-4.78,13.06-.92,2.9-2.06,5.65-3.18,8.46-1,2.52-3.31,4-4.23,6.45-1.1.07-2.86-.39-3,.85-.15,1.43-1.32,3.22-.13,4.33.91.85,2.46-.1,3.74-.37,1.62-.34,1.83-1.74,2.64-2.7.85-1.14,1.76-2.25,2.52-3.44,2.92-4.57,3.94-9.92,6-14.83.52-1.23,1.41-2.18,1.84-3.48,1.45-4.3,2.46-8.73,4.56-12.82,1.16-2.26,2.53-4.52,2.89-7.13-1.17-.14-1.17-.87-1.12-1.6-.05.73-.05,1.46,1.12,1.6l.33-.71c.1-.49.19-1,.28-1.46a1.2,1.2,0,0,0-.23.34,1.51,1.51,0,0,0-.09.73,1.51,1.51,0,0,1,.09-.73,1.2,1.2,0,0,1,.23-.34l.09-.6.79-.09c.26.88-.37,2.06,1.41,3.21v-8.59a3.23,3.23,0,0,0,1-1.81A42.12,42.12,0,0,1,332,194.45c1.06-1.53.87-3.62,2.26-5a8.56,8.56,0,0,0,2.07-6.26,5.25,5.25,0,0,0,2.69-3.41,80.1,80.1,0,0,1,7.28-18.51c1.52-.25.28-1.63,1-2.39,3.82-3.84,4.43-8.85,4.7-13.94,1.26-.39.93-1.48.82-2.26-.55-4-1-8-2.51-11.79a4,4,0,0,0-.38-2.57c-.86-1.71-2-3.45,0-5.18l-.83-.47c.17-2.2-2.17-3-2.66-4.86,0-.84.47-1.87-.9-2.11a2.08,2.08,0,0,1-1.34-.3,2.08,2.08,0,0,0,1.34.3c-.11-.33-.21-.67-.31-1-.39-2-.57-4.16-2.94-5v0c.11-2-1.57-2.67-2.67-3.79-1.8-1.84-4.2-3.33-3.88-6.46-.54-1,.54-2.59-1.09-3.25-.9-.47-.14-2-1.38-2.22l-.69-.62a2.87,2.87,0,0,0-.08-1.07c-.92-1.78-.72-4.52-2.83-5.23a32.81,32.81,0,0,1-9.88-5.83c-2.34-1.87-4.08-4.39-7.32-5-1.87-.38-4.09-1.28-4.2-3.5-.16-3.41-2.26-6.85,0-10.28,1.25-1.94.1-4.27,1.27-6.47a14.77,14.77,0,0,0,1.88-9.65c-.23-1.29.43-2.46.63-3.7a1.23,1.23,0,0,1,1.28-1.16,11.19,11.19,0,0,1,6.94,2.07c2.61,1.88,4.88,4.39,8.42,5.1,2.57.51,5.51,1.09,7.56,2.52,2.47,1.73,3.79.83,5.23-.73a2.5,2.5,0,0,1,2.79-.36c1.18,1.6,2.82.91,4.26,1,.71.06,1.52-.12,2,.51,1.55,1.92,3.15,2.06,5,.39.64-.57,1.57-.21,2.36-.3,3.49-.43,6.79,2.92,10.38.52,1.39.85,3,0,4.39.49,2.07.7,2.5-.21,2.24-2l1.8-.06c.76,1.51,1.5.94,2.13-.07a20.22,20.22,0,0,0,1-2.15c1,.09,2,.15,2-1.36A2.28,2.28,0,0,0,379.23,44.61ZM235.34,59.55A1.38,1.38,0,0,1,234,58.17a.89.89,0,0,1,1-1c.82,0,1.06.5,1.05,1.2C236,58.88,236.05,59.62,235.34,59.55Zm12.72-21.78a.7.7,0,0,1,.76-.61c.39,0,.78.3.69.65-.74,2.89,2.59,5.58.26,8.69-.74,1-1.33,2.64-2.35,2.47-1.47-.25-1-2-1.06-3.23,0-.27,0-.54,0-1.17C245.76,42.26,247.66,40.19,248.06,37.77Zm-5.71,55.69c-2.8-4.31-4.26-8.65-3.52-13.61.1-.62.35-1,1-1,.51,0,1,.24,1,.73-.41,4.05,1.45,7.62,2.27,11.41A2.39,2.39,0,0,1,242.35,93.46Zm4.59-18.82c-1.35-2.16-6.15-.53-5.45-5-2.14-.18-3.33-.59-3.85-1.56.52,1,1.71,1.38,3.85,1.56a1.11,1.11,0,0,0,1.32-1.19l0-1.89,0,1.89.75.56c0-1.22,0-2.44.05-3.66,0,1.22,0,2.44-.05,3.66l.59.67a5.58,5.58,0,0,0,1.3.87C247.92,71.33,248.23,72.12,246.94,74.64Zm-1.56-8.26a2.2,2.2,0,0,1,.07-.58A2.2,2.2,0,0,0,245.38,66.38ZM252,69.77c-1,.5-1.65-.7-2-1.39-.79-1.67-2.75-2-3.59-3.58a1.38,1.38,0,0,0-.9.84,1.38,1.38,0,0,1,.9-.84c.07-1.17-.86-1.19-1.62-1.41-1.72-1.74-1.39-4-.74-5.81a3.58,3.58,0,0,1,3.66-2.18c2,.05,2.52,1.43,2.85,2.63.86,3,1.33,6.18,2,9.27C252.72,68.25,252.62,69.42,252,69.77Zm2.53-44.15c-2-1.33-3.09-2.46-2.64-4.46a1.71,1.71,0,0,1,1.74-1.41c1.1,0,.87.93.89,1.6C254.51,22.6,254.48,23.85,254.48,25.62Zm16,74.59-.06-.1.06.1Zm49,113.49c-1,0-1.34,0-1.36-.47s.45-.44.76-.42.76-.14.76.35C319.62,213.49,319.41,213.83,319.45,213.7ZM330.12,29c0-.23-.06-.47-.07-.7C330.06,28.57,330.09,28.81,330.12,29Zm7.81,10.64a4.08,4.08,0,0,0-.17-1.57,3.47,3.47,0,0,0-.29-.65,3.47,3.47,0,0,1,.29.65,4.08,4.08,0,0,1,.17,1.57ZM347.25,22a2.76,2.76,0,0,1-.48,1.06A2.76,2.76,0,0,0,347.25,22Zm-1,1.69a5,5,0,0,1-.63.43A5,5,0,0,0,346.21,23.73ZM314,12c1.24,1.48,2.7,2.81,2.25,5.1-.19.94-.35,1.72-1.54,2.13a7.35,7.35,0,0,0-1.77-5h0a2.35,2.35,0,0,0-.22-.45c-.47-.63-1.75-1-1.11-2C312.45,10.5,313.23,11.94,314,12Zm-.93,17.8v0Zm-7.23,5a1.59,1.59,0,0,1-.07-.48A1.59,1.59,0,0,0,305.88,34.83Zm-4.25,43.93h0l.05-.07Zm.31-.4-.2.25Zm.77-1.09a1.41,1.41,0,0,1-.14.31,2,2,0,0,1-.22.31,2,2,0,0,0,.22-.31A1.41,1.41,0,0,0,302.71,77.27Zm6.49-56h0c0,.15,0,.3,0,.44a3.45,3.45,0,0,1-.11.87,3.45,3.45,0,0,0,.11-.87C309.23,21.57,309.22,21.42,309.2,21.27Zm0,0h0l0,0,.21-.26c0,.06,0,.15,0,.18a.75.75,0,0,1-.18.08Zm1.55-4.62c0,.44.05.9.06,1.35C310.82,17.54,310.77,17.08,310.77,16.64Zm0-.43a3,3,0,0,1,.12-.61A3,3,0,0,0,310.79,16.21Zm-31,28.41h0m3.9,28.73h0a10.27,10.27,0,0,0,0,2,10.27,10.27,0,0,1,0-2,.73.73,0,0,1-.48-.44A.73.73,0,0,0,283.73,73.35ZM296.65,96c-.09-.13-.26-.27-.25-.4a.33.33,0,0,1,.53-.27.51.51,0,0,1,.14.44C297,95.87,296.8,95.91,296.65,96Zm11.46-71.47a10,10,0,0,1,1.75.24,10,10,0,0,0-1.75-.24Zm-44.54-9.45a1.9,1.9,0,0,1,2-.86,2.57,2.57,0,0,1,2.07,1c1.38,1.28,1.58,3.13,2.74,4.49A1.83,1.83,0,0,1,270,22.5c-1.13.59-1.53-.51-2.09-1.39-1.06-1.65-2.54-3-3.28-4.88C264.42,15.68,263.09,16,263.57,15.07Zm-7.48-2c.05-2.15.74-2.36,1.9-1.62.6.39,1.41.68,1.7,1.23a20.54,20.54,0,0,1,2.76,8.89c.05,1.45-1.46,1.8-2.56.8-.67-.61-1.76-1.65-1.77-2.07C258,17.46,256.64,15,256.09,13Zm16,46.43c-2.15.55-3-1.93-4.24-3.41s-1.48-3.26-3.36-4.19c-.08,2.7-1.79,3.22-3.81,2.92a25,25,0,0,0-2.89.1,3.27,3.27,0,0,1,2.36-3.21c2.56-1.09,3.16-2.9,1.75-5.17-1.15-1.84-1-4.08-1.86-6a1.2,1.2,0,0,1,.71-1.58c.78-.28,1.08.36,1.38.94.69,1.34,1.85,2.4,2.19,4a1.64,1.64,0,0,0,3.21-.54c-.39-3.34.72-6.73-.86-10.07-.9-1.92.45-3.84,1.82-5.27A37.46,37.46,0,0,1,272.21,25c.7-.55,1.2-.27,1.56.32a1.69,1.69,0,0,0,1.81.87h0c-.07,1.06.21,1.8,1.53,1.71a2.35,2.35,0,0,0-1.48-1.76c-.44-2.24-2.32-4.2-1.27-7.06,1.5,3.61,3.7,6.44,5.78,9.34a2.08,2.08,0,0,1,.07,2.05,4.86,4.86,0,0,0,.92,5c-.43,3.06-.87,6.13-1.3,9.19-2.2.22-2.66,1.94-3.12,3.66a4.13,4.13,0,0,0-.5.15c-.65,3.28-.65,6.71-1.68,9.9,1-3.19,1-6.62,1.68-9.9-1.59.07-2.2,1-2.22,2.48,0,1.08,0,2.16,0,3.25C274,56.2,274.5,58.84,272,59.47Zm2.83,18-.05,0Zm20.65,15.43a2.45,2.45,0,0,1,1.44-.62A2.45,2.45,0,0,0,295.52,92.94Zm14.6-55c-.8.21-1.29-.49-1.77-1-1-1-.87-2.49-1.33-3.73a4.11,4.11,0,0,1,.5-1.21c.68-.8,1.56-2.23,2.17-2.13,1.3.2,0,1.66.52,2.47a3.3,3.3,0,0,0,.51.55h0c0,1.07.08,2.15,0,3.22C310.76,36.77,311.05,37.68,310.12,37.94Zm2.26-6.12a1.26,1.26,0,0,1,.59-.29h0A1.26,1.26,0,0,0,312.38,31.82Zm.62-.27,0,0a2.16,2.16,0,0,0,.68-1,2.16,2.16,0,0,1-.68,1Zm3.88-4.12c-1.35.16-1.63.78-1.62,1.51a3.88,3.88,0,0,0,.05.57,3.88,3.88,0,0,1-.05-.57c0-.73.27-1.35,1.62-1.51.58-.21,1.76.1,1-1.22l.08-.11a2.94,2.94,0,0,1-.17-1.06A2.94,2.94,0,0,0,318,26.1c1-.06.69-1.13,1.18-1.57.61-.27.85-1.51,1.86-.71-.21,1.62-.41,3.25-.62,4.87.06.9.11,1.79.17,2.69-.06-.9-.11-1.79-.17-2.69l-1.27.66a3.52,3.52,0,0,0,.15,1.17,3.52,3.52,0,0,1-.15-1.17l-1.39,0C316.2,29.28,316.57,28.34,316.88,27.43Zm7.89,10.86c-1.66.06-2.81-.85-4.18-1.25-.44-.12-2.19-1.71.32-2.32a14.82,14.82,0,0,0,3.5-1.91h0l1.27-.12c1.87,0,3.84.27,5.23-1.48a6.26,6.26,0,0,1-.4-.77,6.26,6.26,0,0,0,.4.77c1.39-.05,1.21-.92,1-1.83,2.35-1.94,2.58-1.9,3.38.57a13.61,13.61,0,0,1-.63,5.3h0C331.42,36.49,328.39,38.17,324.77,38.29Zm21.65,5.76a1.21,1.21,0,0,0,.36-.29A1.21,1.21,0,0,1,346.42,44.05Zm.36-.29a1.76,1.76,0,0,0,.36-.79h0A1.76,1.76,0,0,1,346.78,43.76Zm4.77.66a13.38,13.38,0,0,1-1.54-.26,13.38,13.38,0,0,0,1.54.26c.51.07,1,.12,1.54.18h0C352.58,44.54,352.06,44.49,351.55,44.42Zm12.5,4.18a4.69,4.69,0,0,0,1.17.07,4.69,4.69,0,0,1-1.17-.07c-.39-.06-.79-.15-1.18-.2h0C363.26,48.45,363.66,48.54,364.05,48.6Zm-4.44-1.86h0l0,0Z"/><path class="cls-3" d="M24.47,986a19.45,19.45,0,0,0,.21-2.39c0-.8-1-1.29-1.14-.63C23,984.87,21,986,21.07,988.19v11.66l.7,0c.83-3.28-.7-7,1.68-10,.49.29-.12,1.39,1,1.26C25.14,989.44,24,987.69,24.47,986Z"/><path class="cls-3" d="M183.08,744.06c1,4.91,3.88,7.7,8.95,8.24C189.79,748.57,184.79,748.14,183.08,744.06Z"/><path class="cls-3" d="M183,161.86c2-3.26,3.7-6.61,3.27-10.64a8.61,8.61,0,0,1,.33-2.65c.53-2.69,2.13-5.39.21-8.15L184,136.33c-1.06-.63-.95.16-1,.79a52,52,0,0,1-.12,6.73c-.86,6-.27,12-.31,18A3.61,3.61,0,0,0,183,161.86Z"/><path class="cls-3" d="M238.33,143.3c.72-1.23.16-3.19,2-3.75.55-.17,1.12-.3.95-1s-1-.51-1.22-.55c-1.88-.24-2.44.79-2.76,2-.25.94-.27,1.94-.49,2.88-.13.54-.37,1.14.24,1.4C237.92,144.61,238,143.86,238.33,143.3Z"/><path class="cls-3" d="M264.68,381.1c.4.71.78,0,1.16,0,.71.76,1.15.16,1.47-.37a17.39,17.39,0,0,1,7.28-6.83c2-1,3.72-1.78,6.09-1.37,1.67.3,4.4,1.11,4.51-2.34,0-.35.61-.64.87-1,3.56-4.9,8.25-9,10.73-14.63,1-2.35,2.83-3.89,4.58-5.53,1.21-1.14,2.37-1.32,3.67.18a6.41,6.41,0,0,0,5.69,2.54c.75-.08,1.73.33,2.13-.68s-.34-1.72-1-2.28a11.65,11.65,0,0,0-7.73-2.43,7,7,0,0,0-5,1.64,21.06,21.06,0,0,0-5.51,8.52,6.17,6.17,0,0,1-8,4.18,2.73,2.73,0,0,0-1.84-.07c-3.7,1.76-7.31,1.31-11.22.52-4.25-.85-7.42-2.64-9.5-6.42a5.27,5.27,0,0,0,1.18,6.77,21.57,21.57,0,0,1,3.26,6.8c-1,.51.56,2.74-1.62,2.44,0,.6.12,1.21-.47,1.62,0-.58-.32-1.26.45-1.62h0c-.27-1.17-.81-1.42-1.68-.47-3.14-4.95-7.09-9.54-6.47-16,.15-1.62-.93-1.16-1.77-.7-1.07.6-.88,1.69-.9,2.66,0,1.66-.12,3.4-1.55,4.43-1.72,1.23-2.09,3.06-2.67,4.83-.31.92.24,2.59-1.42,2.34-1.24-.18-3.07-.21-3.05-2.36a1.67,1.67,0,0,0-1.45-1.89,10.26,10.26,0,0,0,.94,6.16c1.75,4.19,3.94,8.34,1.75,13.1-.39.85.18,1.68.54,2.54.58,1.4,1.61,3.35-1.57,2.79-.76-.14-1.21.25-1.15,1.08h0c.12.39.25.78.37,1.17-.64,2-1.27,4.06-1.91,6.09,2.43-1.49,3.09-4.17,4.7-6.15.71-.12,1.75.25,1.63-1.1.89.23,2-.52,2.71.51.2,1,.12,2.12.65,2.84,1.86,2.5.14,4.13-1.23,5.82-.46.56-1.1.95-1.06,1.76,0,.46-.52,1.08.25,1.37a1.11,1.11,0,0,0,1.24-.33,13.09,13.09,0,0,1,2.25-2.62c3-1.93,3.19-4.61,2.47-7.66-.18-.79-.38-1.57-.58-2.35.26-.72-.3-.85-.75-1.06l0-4.84c0-1.54-.18-3.12,1.78-3.72s3.71-.89,4.73,1.37c.46,1,1.39.55,2.08.81a27.17,27.17,0,0,1-.53-8.14A27.17,27.17,0,0,0,264.68,381.1Zm-9.1,7.52a.93.93,0,0,1-.1-.39.93.93,0,0,0,.1.39Z"/><path class="cls-3" d="M14.76,988.25c-.36,1.38-1.57,3,.19,4.31a20.29,20.29,0,0,1-.27,4c-.63,2.46-1.7,4.9-.8,7.55.12.38.14,1-.39,1.12a1,1,0,0,1-1.12-.91c0-1.57-.6-3.23.45-4.7.39-.54.63-1.6-.15-1.31-3,1.13-2.41-1.29-2.9-2.67.17-1,1.21-2.11.16-3a3.09,3.09,0,0,0-3.56-.15c-1.49,1.11-1.11,3.15-1.4,4.84a10.7,10.7,0,0,1-3.1,6.33c-2.39,1.49-2.5,4.39-.28,5.83.65.41,1.74-.13,2,1H4.7c-.2-.89-.4-1.77-.59-2.65,1.17-2.61,1.62-5.54,3.48-7.59a6.79,6.79,0,0,1,2.88,4.69c.27,1.56,2,1.76,3.27,1.84s1-1.34,1.23-2.21c1.08-4.17.41-8.4.49-12.61,1.6-.9,1.18-2.26.69-3.53C15.9,987.82,15,987.43,14.76,988.25Z"/><path class="cls-3" d="M170.4,737.69c1.54-7.7,1.54-7.7-.85-9.82C171.55,731.44,169.62,734.62,170.4,737.69Z"/><path class="cls-3" d="M216.72,570.86c-1.18,2.8.11,5.49-.14,8.27C219.43,576.31,216.06,573.63,216.72,570.86Z"/><path class="cls-3" d="M33.15,977.88c-1-.51-1.51.47-1.72,1.16-.33,1.05-1.05,2.12-.06,3.48-.53-1.86,1.79-1.25,1.92-2.48C33.37,979.3,34.12,978.38,33.15,977.88Z"/><path class="cls-3" d="M212.41,715.17c-1.71-1.81-1.43-4.09-3-5.7C208.66,712.47,209.34,713.9,212.41,715.17Z"/><path class="cls-3" d="M150.72,723.14c2.6-.08,4.74,1.15,7.22,2.69A6.27,6.27,0,0,0,150.72,723.14Z"/><path class="cls-3" d="M166.69,730.52l0,.06s0-.06,0-.08Z"/><path class="cls-3" d="M166.73,730.58c.22,2.21.94,4.39.27,6.68C168.75,733.75,168.74,733.56,166.73,730.58Z"/><path class="cls-3" d="M245.09,128.6c3-.56,4-1.19,4.42-2.95C248.35,127,246.42,127,245.09,128.6Z"/><path class="cls-3" d="M270.35,115.34c-.94-1.35-2.15-1.54-3.65-2.42C267.41,115.09,268.4,115.63,270.35,115.34Z"/><path class="cls-3" d="M166.17,726.58c-.37,1.38-1.35,2.85.52,3.9C166.63,729.16,166.89,727.81,166.17,726.58Z"/><path class="cls-3" d="M166.69,730.52l0,0,0,0Z"/><path class="cls-3" d="M284.69,16.34c.4.09,1,.06,1-.5,0-1-.5-1.63-1.83-1.9C283.84,14.93,283.25,16,284.69,16.34Z"/><path class="cls-3" d="M149.06,723.53c-.86,0-1.45.63-1.38,2Z"/><path class="cls-3" d="M164.51,741.37h-2.12C163.1,743.27,163.8,742.32,164.51,741.37Z"/><path class="cls-3" d="M162.39,741.37h0Z"/><path class="cls-3" d="M165.86,739c0,.15.18.36.36.67.21-.33.4-.51.41-.71s-.2-.34-.32-.51C166.15,738.66,165.91,738.82,165.86,739Z"/><path class="cls-3" d="M164.56,741.34h0l0,0h0Z"/><path class="cls-3" d="M165.37,740.7a.25.25,0,0,0-.16-.17c-.53,0-.62.4-.65.81C165,741.29,165.36,741.25,165.37,740.7Z"/><path class="cls-3" d="M162.36,739.73v0l0,0Z"/><path class="cls-3" d="M162.36,741.34v-1.58C161.73,740.29,161.65,740.81,162.36,741.34Z"/><path class="cls-3" d="M162.36,741.37h0l0,0Z"/><path class="cls-4" d="M243.24,571.15l-.13-.2v0l.26.4Z"/><path class="cls-3" d="M182.09,743.13l.16,0-.05-.2c-.06,0-.16,0-.16,0A.65.65,0,0,0,182.09,743.13Z"/><path class="cls-3" d="M162.56,739.06l-.17.64C162.58,739.53,163,739.42,162.56,739.06Z"/><path class="cls-3" d="M162.36,739.73h0v0Z"/><path class="cls-2" d="M175.33,787.35l.4-.45"/><path class="cls-2" d="M176.42,239.37l-.61.52"/><polygon class="cls-4" points="184.43 426.39 184.57 426.44 184.52 426.33 184.43 426.39"/><polygon class="cls-4" points="173.2 717.49 173.22 717.48 173.09 717.37 173.2 717.49"/><path class="cls-5" d="M265.39,420l-.13.13.32.19Z"/><path class="cls-4" d="M309.45,21l-.21.26a.75.75,0,0,0,.18-.08S309.44,21,309.45,21Z"/><path class="cls-4" d="M309.2,21.25h0l0,0Z"/><path class="cls-4" d="M292.15,218l-.25.23a.39.39,0,0,0,.19-.06S292.13,218.05,292.15,218Z"/><path class="cls-4" d="M291.87,218.24l0,0h0Z"/><path class="cls-5" d="M276.74,406.5l-.08.09.29.2Z"/></g></g></svg>