<svg xmlns="http://www.w3.org/2000/svg" viewBox="0 0 573.51 1016.13"><defs><style>.cls-1,.cls-3{fill:none;}.cls-2{fill:#fdc34e;}.cls-3{stroke:#fdc34e;stroke-linecap:round;stroke-linejoin:round;stroke-width:0;}</style></defs><g id="Layer_2" data-name="Layer 2"><g id="Layer_1-2" data-name="Layer 1"><path class="cls-1" d="M390.76,575a6.48,6.48,0,0,0-.53-1.73c-1.54,2.81.3,5.59-1,7.39C390.45,578.92,388.91,576.39,390.76,575Z"/><polygon class="cls-1" points="477.56 687.21 477.56 687.21 477.51 687.28 477.51 687.28 477.56 687.21"/><path class="cls-1" d="M416.72,478.44l0,0Z"/><path class="cls-1" d="M475.55,708.24h0l0,0Z"/><path class="cls-1" d="M457.55,148.45a.78.78,0,0,1-.29.13c-.08-.46-.16-.92-.23-1.38.07.46.15.92.23,1.38A.78.78,0,0,0,457.55,148.45Z"/><path class="cls-1" d="M485.71,692.15a1.37,1.37,0,0,0,1,.34h0A1.37,1.37,0,0,1,485.71,692.15Z"/><path class="cls-1" d="M405.1,823.4a2.51,2.51,0,0,1,.44,1.68c0,1-.31,1.74-1.19,1.92.88-.18,1.21-.94,1.19-1.91A2.48,2.48,0,0,0,405.1,823.4Z"/><path class="cls-1" d="M400.94,828.86q0-.37,0-.75Q401,828.49,400.94,828.86Z"/><path class="cls-1" d="M479.38,69.68a5.41,5.41,0,0,0,.79.21A5.41,5.41,0,0,1,479.38,69.68Z"/><path class="cls-1" d="M417.72,260.58a1,1,0,0,1,.78.64A1,1,0,0,0,417.72,260.58Z"/><path class="cls-1" d="M451.38,163.05a3.7,3.7,0,0,1,1.87.91,3.7,3.7,0,0,0-1.87-.91l-.86,1.16Z"/><path class="cls-1" d="M424.81,342.33a1.57,1.57,0,0,1-1.18.4A1.57,1.57,0,0,0,424.81,342.33Z"/><path class="cls-1" d="M423.34,342.67l.12,0Z"/><path class="cls-1" d="M399,862.34c0-.12,0-.24,0-.36C399,862.1,399,862.22,399,862.34Z"/><path class="cls-1" d="M503.85,457.44a4.49,4.49,0,0,1-.38-1.31A4.49,4.49,0,0,0,503.85,457.44Z"/><path class="cls-1" d="M492.59,469.24a2.37,2.37,0,0,0,2.19,1.39A2.37,2.37,0,0,1,492.59,469.24Z"/><path class="cls-1" d="M505,458.85l0,0Z"/><path class="cls-1" d="M516.85,355.35a2.22,2.22,0,0,0,.17-.94A2.22,2.22,0,0,1,516.85,355.35Z"/><path class="cls-1" d="M227,895.39l0,0Z"/><path class="cls-1" d="M21.75,643.37a5.32,5.32,0,0,1,.69,0A5.32,5.32,0,0,0,21.75,643.37Z"/><path class="cls-1" d="M494.78,470.63a5.45,5.45,0,0,0,.9,0A5.45,5.45,0,0,1,494.78,470.63Z"/><path class="cls-1" d="M475.61,711.51c0,1.09,0,2.18-.08,3.27C475.58,713.69,475.61,712.6,475.61,711.51Z"/><path class="cls-1" d="M276.74,758.56a3.39,3.39,0,0,1-1.15-.8,3.39,3.39,0,0,0,1.15.8Z"/><path class="cls-1" d="M475.35,718c-.07,1.09-.14,2.18-.22,3.27C475.21,720.22,475.28,719.13,475.35,718Z"/><path class="cls-1" d="M275.43,757.53a1.35,1.35,0,0,1-.18-.47A1.35,1.35,0,0,0,275.43,757.53Z"/><path class="cls-1" d="M275.22,756.82a1.84,1.84,0,0,1,0-.51A1.84,1.84,0,0,0,275.22,756.82Z"/><path class="cls-1" d="M477.65,692.12c0-.81,0-1.61,0-2.42C477.69,690.51,477.68,691.31,477.65,692.12Z"/><path class="cls-1" d="M284.66,702.09a3.08,3.08,0,0,0-.73-.64A3.08,3.08,0,0,1,284.66,702.09Z"/><path class="cls-1" d="M479.91,602.44a6.08,6.08,0,0,0-1.05.8A6.08,6.08,0,0,1,479.91,602.44Z"/><path class="cls-1" d="M469.78,777.11a3.7,3.7,0,0,1,.36-.55A3.7,3.7,0,0,0,469.78,777.11Z"/><path class="cls-1" d="M513.54,736.59c0-.14.09-.27.14-.4C513.63,736.32,513.58,736.45,513.54,736.59Z"/><polygon class="cls-1" points="469.65 778.91 469.71 778.84 469.71 778.84 469.65 778.91"/><path class="cls-1" d="M513.14,738.65c0,.38,0,.77-.06,1.15C513.09,739.42,513.1,739,513.14,738.65Z"/><path class="cls-1" d="M514.81,734.38h0c-.11.12-.21.25-.3.37C514.6,734.63,514.7,734.5,514.81,734.38Z"/><path class="cls-1" d="M392.21,580.64a.61.61,0,0,1,.35,0A.61.61,0,0,0,392.21,580.64Z"/><path class="cls-1" d="M392.92,581a1.28,1.28,0,0,0-.11-.2A1.28,1.28,0,0,1,392.92,581Z"/><path class="cls-1" d="M514.81,734.38,515,728l-.15,6.39Z"/><path class="cls-1" d="M514.71,742a.84.84,0,0,0,.24.06A.84.84,0,0,1,514.71,742Z"/><path class="cls-1" d="M447.16,367.39a7.9,7.9,0,0,1-.68-.5A7.9,7.9,0,0,0,447.16,367.39Z"/><path class="cls-1" d="M451.48,394.21a.77.77,0,0,0-.39-.17A.77.77,0,0,1,451.48,394.21Z"/><path class="cls-1" d="M392.29,572.27a1.58,1.58,0,0,0-.22-.43A1.58,1.58,0,0,1,392.29,572.27Z"/><path class="cls-1" d="M515.6,597.6a2.6,2.6,0,0,1,1,1.21A2.6,2.6,0,0,0,515.6,597.6Z"/><path class="cls-1" d="M515.28,597.42l.21.12Z"/><path class="cls-1" d="M394.36,443.2a17.46,17.46,0,0,0,0,2.17A17.46,17.46,0,0,1,394.36,443.2Z"/><path class="cls-1" d="M496.68,635.48c-.47.82-.89,1.65-.28,2.51C495.79,637.13,496.21,636.3,496.68,635.48Z"/><path class="cls-1" d="M424,878.68a2.75,2.75,0,0,1-.84-.12A2.75,2.75,0,0,0,424,878.68Z"/><path class="cls-1" d="M421.84,877.16a1.31,1.31,0,0,1-1.27-1.37l-.66-.64h0l.66.64a1.31,1.31,0,0,0,1.27,1.37,2,2,0,0,0,1.33,1.4A2,2,0,0,1,421.84,877.16Z"/><path class="cls-1" d="M422,877h0l-.08.08Z"/><path class="cls-1" d="M401.6,438.62h0a14.46,14.46,0,0,1,.83,4.76A14.46,14.46,0,0,0,401.6,438.62Z"/><path class="cls-1" d="M402.43,443.44c0,.4,0,.8-.05,1.2C402.42,444.24,402.43,443.84,402.43,443.44Z"/><path class="cls-1" d="M398.1,442a11.8,11.8,0,0,0,1.31,2.31A12.34,12.34,0,0,1,398.1,442a3.12,3.12,0,0,0-1-2.78A3.12,3.12,0,0,1,398.1,442Z"/><path class="cls-1" d="M391.13,573.51a2.11,2.11,0,0,0-.77-.74,1.5,1.5,0,0,0-.09.32A.76.76,0,0,1,391.13,573.51Z"/><path class="cls-1" d="M469.78,777.11a2,2,0,0,0-.23,1A2,2,0,0,1,469.78,777.11Z"/><path class="cls-1" d="M470.35,776.3l.45-.52Z"/><path class="cls-1" d="M433.13,820.7a.83.83,0,0,1,.07.13A.83.83,0,0,0,433.13,820.7Z"/><path class="cls-1" d="M51.63,599.13h0c-.05-.45,0-1-.52-1.08C51.61,598.14,51.58,598.68,51.63,599.13Z"/><path class="cls-1" d="M482.11,759.9c-.11.21-.23.41-.34.61.11-.2.23-.4.34-.61Z"/><path class="cls-1" d="M400.83,442.3l0,.47Z"/><path class="cls-1" d="M391.28,578.38c.28.58,1,.9,2.68.63C392.36,579.27,391.63,579,391.28,578.38Z"/><path class="cls-2" d="M330.32,688.94a11.22,11.22,0,0,0,.4,2.42s3.67.43,4.63,0-1.75-.32-2.39-.87S330.32,687.94,330.32,688.94Z"/><path class="cls-2" d="M341.78,694.27c-.46-.33-2.51-1.67-3,0C338.79,694.27,342.25,694.6,341.78,694.27Z"/><path class="cls-2" d="M358.65,665s-2.33.91-2.33,1.91a3.75,3.75,0,0,1-.58,1.86s-.42,2.14.58,1.14S359,665.13,358.65,665Z"/><path class="cls-2" d="M355.65,673.76c-1.08.58-.33,3.18.67,3.18s-.29-.18.85-1.59S356,673.57,355.65,673.76Z"/><path class="cls-2" d="M351.32,686.94a3.67,3.67,0,0,1,1-3c1-1,3.61-4.16,2.8-5.08,0,0,.2,1.08-.8,1.08s-1,0-1,1-1,0-1,1a3.67,3.67,0,0,1-1,3c-1,1,0,2-1,3a3.51,3.51,0,0,0-.94,2.55C349.32,690.94,351.32,687.94,351.32,686.94Z"/><path class="cls-2" d="M346.87,697.94c-.55,0-2.06-1-2.31,0s-3.23,3.67-2.74,3.84,1.66.19,3.08-1.32,5.84-6.64,3.13-8.08a1.15,1.15,0,0,0-1.54,1.07C346.32,694.94,347.43,697.94,346.87,697.94Z"/><path class="cls-2" d="M350.63,697.94H357C358.32,697.94,353.94,695.94,350.63,697.94Z"/><path class="cls-2" d="M331.32,715.94c0,2,1,4,1,2s0-2.87,1-3.94,3-2.06,2-3.06C335.32,710.94,331.32,713.94,331.32,715.94Z"/><path class="cls-2" d="M326.32,730.94a10,10,0,0,1-1,4c-1,2-1,3.89,0,2.94S327.32,730.94,326.32,730.94Z"/><path class="cls-2" d="M328.32,723.94c-2-1-1.59,4-1.59,4,1.41,0,.59-2,.77-2.66S330.32,724.94,328.32,723.94Z"/><path class="cls-2" d="M319.32,741.94c-1-1-5.79,7-4.9,7.49S320.32,742.94,319.32,741.94Z"/><path class="cls-2" d="M308.32,771.94s-5,9-4,10S309.32,772.94,308.32,771.94Z"/><path class="cls-2" d="M413.73,293.82c-2.33,5.24-2.91,10.55-2.93,16.09a16,16,0,0,1-.33,2.56,58.6,58.6,0,0,0,0,17.59c.43,3.12,1.87,6.82,1,9.22-1,3.05-.24,5.76-.65,8.57a4.8,4.8,0,0,0,2.18,4.45c3.05,1.56.75,4.9,2.77,6.57-2.22,3.37-3,7.63-6,10.45-2.45,2.29-3.78,7.21-2.57,10.44a11.38,11.38,0,0,1,.68,4.44c-.11,2.12-3.82,3.94-5.66,2.89-2.2-1.27-3.92-1.18-5.61,1-1,1.26-1.77,2.95-2.93,3.71-3.36,2.2-5.22,6.56-9.84,6.92-.7.06-1,.69-1.36,1.25-1.64,2.33-2.47,5.5-2.36,9.47,0,.58-.48.89-.89,1.27a2.22,2.22,0,0,0-.39,2.72c1.67,2.1,1.49,3.85,0,5.95-.61.85,0,2.08,1,2.86a1.7,1.7,0,0,0,1.79.45c1.31-.56.45-1.73.49-2.58a83.1,83.1,0,0,0,0-8.5c-.24-4.17,2-6.84,5.15-9a10.83,10.83,0,0,0,2.24-1.78c3.14-3.55,7.44-5.81,10.54-9.43a4.2,4.2,0,0,1,3-1.14c-.42,1.69-.65,3-1.86,3.94-4.57,3.56-8.41,7.73-10.61,13.19-1.1-.87,0-2.35-1-3.24-4.16,4-4.33,6.55-.73,10.59a1.52,1.52,0,0,1,.32.88c.06,2.59.43,5.27-1.9,7.23h0a2.5,2.5,0,0,0-1.12,1.93c-2.12,2.73-1.8,6.21-2.84,9.28-.46,1.38-1.87,3.64-.75,4.06,3,1.11-.88,6.76,4.23,5.85a3.63,3.63,0,0,0,0,.57c.85,4.18,3.55,6.3,8.18,6.41-.16-1.82-.48-3.64-.62-5.46.14,1.82.46,3.64.62,5.46,0,.61,0,1.22,0,1.82-2.84-.52-5,1.41-7.53,2a11.05,11.05,0,0,0-6.08,3.73c-2.69,3.18-2.28,5,1,6.91a2.13,2.13,0,0,1,1,1.14c1.48,3.38,3.31,6.51,2.14,10.63-.42,1.45-2.16,5.12,2.25,5.26a.65.65,0,0,1,.55,1c-1.58,2,.89,2.13,1.51,2.62,1,.79,2.14,0,3.07-1,1.93-2,4-3.91,6-5.85a18,18,0,0,0,3.34,1.73c1.28.35,1.52,1,1.19,2.08a1.45,1.45,0,0,0-.35.07c-1.21,2.2-3.77,3.49-4.19,6.23v.16c-.58-.19-.76,0-.61.59h-.19c-.87,0-1.26.39-1.15,1.26l-.07.09c-3.65,2-3.6,6-4.59,9.25-.4,1.32.72,3,2.57,3.21,1.58.21,3.06.08,3.53-1.86,1.81,2.44-.22,4-1.32,5.82-.77.56-.69,1.05.2,1.28a1.71,1.71,0,0,1,.9,2.76c-3.34,1.45-.69,2.65.2,3.49,1.38,1.29,1.33,2.9,1.47,4.3,4-1.68,6.72-5,10.23-7.29l.15.15c-1.59,4.41-5.6,6.68-8.69,9.75-.65.65-1.32,1.05-1.18,2,.25,1.79-.34,2.42-2.26,2.95-2.16.61-2.92,3-2.18,5.1.65,1.85,2,1.21,3.32.32.79-.52,1.15.58.78,1.07-1.58,2.11-1.77,5.23-4.61,6.4a1.27,1.27,0,0,0-.93,1.18c-.27,4.94-3.73,8.08-6.62,11.51-1.69,2-3.92,4.11-3.66,6.68.38,3.84-1.22,7-2.31,10.36-.46,1.43-.27,4.06-2.54,4.19-3.49.2-4.64,1.82-4.79,5.15-.14,2.87,1.65,4.89,2.41,7.33.44,1.42,2.05.14,3.13.11.4,0,.89.56,1.21,1,1.49,1.85,3.23,1.83,5.22.93,2.87-1.29,4.56-3.86,6.68-6,1.13,1.36.67,2.7-.07,4-2.29.57-3.56,2.83-5.58,3.59-4.08,1.55-7.47-2.2-11.56-2-2,.09-1.21-2.49-1.68-3.75a17,17,0,0,1-.07-11.23c1.38-4.34,4.72-7.67,5.83-12.32,1.48-6.18,5.88-11.14,8.7-16.8.26-.53.8-.9-.27-1.35-3.64-1.53-3.6-1.61-1.06-4.36.7-.76,2.79-1.65,1.37-2.61-2.74-1.87-1.25-3.7-.9-5.8.64-3.78.43-7.7,2.32-11.24a2.29,2.29,0,0,0-.43-1.82c-2.38-3.4-2.93-7.18-2.57-11.21a5,5,0,0,0-.44-1.85,9.68,9.68,0,0,1-.12-6.39c.69-1.94.54-3.68.46-5.87-1.37,1.27-2.72,1.92-3.36,3.38s-1.85,1.41-3,.88c-2.69-1.17-4.39-3.13-4.16-6.21.58-7.67-.33-15.29-1.27-22.84a11.33,11.33,0,0,1,1.45-8c2.3-3.95,5.69-6.87,8.46-10.45-3.21-.62-3.68-1.09-6-5.94A3.67,3.67,0,0,1,378,439.5c.14-2.47-.29-5,1.14-7.28.47-.76.5-1.74-.73-2.05-1.61-.39-.9.89-1.09,1.54s-.61,1-.6,1.5c0,2.8-2.25,5.57-.94,8.17a59.72,59.72,0,0,0,3,5.47c.66.72,1.13,1.6-.09,2-2.81,1-3.19,3.44-3.7,5.89a36,36,0,0,1-.93,4.71c-1.93,5.41-1.47,11.05-.9,16.41.67,6.34,2,12.64,2.33,19,.15,2.79,2.25,4.33,4.87,3.51.79-.24.76.16,1.06.65,2.51,4.06,3.94,8.21,2.19,13-.61,1.68-1.05,4.05.28,5.25,1.69,1.53,3,2.83,1.83,5-1,2,.61,4.59-1.13,6.23-2,1.88-2.85,4.14-3.66,6.65-1.35,4.17-.52,8.4,3.05,10.45,1.67,1,1.07,1.46.72,2.7-.62,2.16-2.71,3.09-3.51,5.3-1.46,4-2.66,8.36-4.87,12a30.46,30.46,0,0,0-4.81,18.61c.27,3.59,1.47,5.33,5,6a13.12,13.12,0,0,1,5.06,1.8c1.72,1.13,3.33,2.22,5.6,2.2,3,0,2.34-3.05,3.72-4.25,1.47,2.54-1.86,6.82,2.39,7.91,2.82.73,4.81-2,7-4.82-1.93,0-3.19.05-4.45,0-1.78-.09-2.89-.88-2.66-2.87l7.75,2.11c.88,2.42,5.14,3.66,7.11,2.12,1.25-1,.3-1.57-.4-1.91a4.47,4.47,0,0,1-2.66-4.87l1.74-1.32c.5,1.2-.5,3,.7,3.68,2.07,1.15,4.63,2,6.65.12,3-2.84,6.64-4.69,10.05-6.9,3.09-2,4.7-4.89,4.3-8.46-.52-4.55,1.64-8,3.88-11.52s4.22-7.41,4-11.9c0-.84-.26-1.8.54-2.44,1.7-1.35,1.53-3.46,2.17-5.24,1.06-2.94,1.29-6.08,2.94-8.94a38.79,38.79,0,0,0,4.23-11.44c-1.7,1.16-3.1,2.27-4.88,1.07-1.36-.91-1,.54-1.29,1-2.62,4.18-5.17,8.4-7.8,12.57-2.1,3.34-4.64,6.45-6.32,10a16.78,16.78,0,0,1-5.89,6.9c-1.67-2.89.51-5,.89-7.3h0a11.13,11.13,0,0,0,4.45-5.57,95.57,95.57,0,0,1,4.77-11.72,11,11,0,0,0,.9-8.95c-1.34,2.11-2.34,3.65-2.69,5.81a30.91,30.91,0,0,1-3.71,11c-1.66,2.81-3.88,5.45-4.07,9-2.49,2.1-5,5.42-3.52,7.86,2.49,4-.35,6.55-1.46,9.13-1.25,2.9-3,5.51-2.83,8.82,0,.93-.07,1.71-1.35,1.72s-1.73-.65-1.76-1.81a14,14,0,0,1,1-5.24c2.1-5.84,1.73-12.37,4.86-18,1.82-3.27.86-7.33,2.79-10.67-4.37,5.52-5.93,12.77-11.18,18.48a22,22,0,0,1,1-12.08c1.26-3.5,3.21-6.71,4.56-10.13,2.67-6.77,4.85-13.6,9.77-19.37,1.71-2,3.94-4.47,4.39-7.56h0c2.21-.36,2.45-2.57,3.5-3.94,2.49-3.25,3-7.14,3.43-12-.87,1-1.19,1.25-1.24,1.51-.83,4.53-2.13,8.83-5.56,12.2-.38.37-.34,1.19-.49,1.8-.82.32-1.47,1.2-2.53.74l-.09-.09c.75-1,.83-2.34,1.76-3.36,3.29-3.6,4.48-9.44,3.1-14.68-1.17,1.75-2.4,3.28-2.35,5.82-3.46-3.14-6.18-5.77-3.88-10.63,1-2.17,2.89-4.37,2-7.17l-7.76-.05,0,0,0,0,7.76.05c1.2-3.48-2.34-5.41-2.76-8.41-.19-1.37-2.12-.5-3-1.24-1.36-3.19,1.87-4.16,3.25-4.65,2.29-.83,2.69-1.86,2.66-3.94,0-2.89-.45-5.83.69-8.67a2.39,2.39,0,0,0-.56-2.53,15.87,15.87,0,0,1-4.27,5.59c-2.26,2.2-4.81,1.43-5.73-1.61-.61-2-4.83-5.68-6.1-5.1-2.38,1.08-3.93,0-4.77-1.91a3.31,3.31,0,0,1,2.24-4.68c1.65-.52,1.67-1.42,1.59-2.63-.3-4.41-.62-8.83-.93-13.24.06-.42.12-.83.19-1.25.24-.21.56-.38.7-.65,2.34-4.16,4.47-8.43,6.91-12.55,1.3-2.19,3-4,4.25-6.3,2.32-4.15,4.85-8.41,8.2-11.72,4.29-4.25,4.79-8.9,4-14.35-2.08,1.12-2.91,3.59-5.48,4.14-.18-3.45-1.11-7.08.24-9.83,2.23-4.55,4.91-9.09,9.19-12.26.28-.69,0-1.6.74-2.11.86-1.54,1.76-3.06,2.57-4.63,1.49-2.87,2.93-6,1.92-9.16a27.76,27.76,0,0,1-1-10.11c3.11-.89,1.48-4.08,2.91-6.39,0,1.8,0,3.05,0,4.29,0,.55.19,1.08.87,1.16a1,1,0,0,0,1.12-.43c.82-1.21-.12-6.86-1.35-8-.93-.91-.5-2.06-.51-3.1a91.42,91.42,0,0,1,.76-15.59c1.11-6.67-2.3-12.83-2.29-19.39,0-3.19-2.08-6-1.53-9.35.42-2.5,1.27-5.09,1-7.53-1.24-10-1.08-20-1-30,0-3.72-.17-7.38,1-11.1a103.73,103.73,0,0,0,3.84-16c.39-2.47,1.79-4.73,1.89-6.86a60.3,60.3,0,0,1,1.59-9c.75-3.8,2-7.72,3-11.58.81-3.09,3-5.68,3.45-8.75a51,51,0,0,1,2.76-10.35c1.22,0,1.37-.74,1.13-1.73,2.55-6.26,4.25-12.82,6.8-19.12,1.68-4.14,4.64-8,4.28-12.93-.05-.73.52-1.15,1.28-1.2,2.37-.15,2.39-1.76,2.67-3.64.34-2.38,1.33-4.64-1.4-6.31-.31-.19-.35-1-.39-1.49-.22-3.19,2.38-4,4.49-5,1.63-.82,3.14-1.86,3-3.71-.32-5,1.4-9.83,1-14.85-.3-3.86-.11-7.71-.86-11.57-.9-4.66,1.28-9.1,1.82-13.68.33-.48,1.07-.72.9-1.5a2.53,2.53,0,0,1,.09-1c3.78-7.2,5.61-14.91,6.84-22.92.52-3.37,1-7,2.32-10.14A48,48,0,0,0,494,20c.15-2.15.29-4.12,2-6,.89,2.24-.06,4.72,1.93,6.86,2.67-6.88,2.36-14,3.21-20.88h-8.5a9.15,9.15,0,0,0,0,2.28c.93,3.78,0,7.28-1.24,10.84-2.46,7.25-7.91,13.7-5.64,22.24a5,5,0,0,0-6.13,5.06c.11,4.77-2.57,8.76-3.17,13.37-.5,4-2.38,7.7-.93,11.82a4,4,0,0,1-.49,3.12h0l.63,1.36c-1.58,2.22-3.29,4.5-3.87,7.1a39.29,39.29,0,0,0,1.52,22.49c1.51,4.11-.36,7.95-1.75,11.75-5,.9-3.12,5.48-3.41,8a31,31,0,0,1-1.54,5.54c-1.11,3.81-4.06,7.05-3.56,11.35.08.69.42,1.76-.42,2.07-2.47.94-2.64,3-2.74,5.1a2.6,2.6,0,0,1-.26.77c-1-.36-.13-1.86-1.33-2-1.1,1.47-1.17,3.2-1.23,4.92.07.46.15.92.23,1.38a.78.78,0,0,0,.29-.13.78.78,0,0,1-.29.13c-.08-.46-.16-.92-.23-1.38-2.36,1.94-3.18,5-3.53,7.5a7.09,7.09,0,0,1-3.07,5.39,4.86,4.86,0,0,0-2.3,4.19l0,0v.05h0c1.24,2.33-.09,4.35-.65,6.54-.77,2.95-4.32,5.06-2.37,8.63-1.28.47-.67-1.49-1.83-.9-1,1.93,2,3.56.66,5.34-1.5.56.22-1.7-1.27-1.08-1.21.51-2.19,1.6-1.42,2.79,2.55,3.92-.51,7.19-1,10.74-.1-.48-.2-1-.31-1.43-.21.18-.57.34-.61.56-.1.64.29.92.91.88-.49.45.63,2-1.17,1.61-.87-.18-1.62,1.16-1.52,1.31,1.37,2.1-.08,4.1-.06,6.13-1.65.44-1.54,1.7-.7,2.51s.29,1,0,1.45a11.65,11.65,0,0,1-.12,2.52,11.65,11.65,0,0,0,.12-2.52c-2,1.49-.68-1.91-2.41-1.28.54,4.23-1.36,7.88-2.87,11.85-2.15,5.67-1.77,12-1,18.16-2,1-.76,2.88-1,4.33-.19.93.16,2.11-1,2.54s-1.28-.85-1.81-1.38c-2-2-3.28-1.87-5,.6-.52.76-1.1,1.47-1.68,2.25-.57-3.92.2-5.06,3.77-5.58.73-.11,1.7.11,1.66-1s-1-.87-1.74-.94a3.67,3.67,0,0,0-2.65.95c-3.69,2.68-2.06,6.93-3.13,10.37-.35,1.15,2.36.52,1.53,2.06-1,1.86-.61,3.94-1.08,5.94-1.32-1.11.32-3.14-1.78-4.2v5.12c-.8.53-.59,1,.1,1.42-.67,7.39-1.15,14.78-1.13,22.23A27.86,27.86,0,0,1,413.73,293.82ZM389.28,580.61c1.25-1.8-.59-4.58,1-7.39a6.48,6.48,0,0,1,.53,1.73C388.91,576.39,390.45,578.92,389.28,580.61Zm1.08-7.84a2.11,2.11,0,0,1,.77.74.76.76,0,0,0-.86-.42A1.5,1.5,0,0,1,390.36,572.77Zm1.93-.5a1.58,1.58,0,0,0-.22-.43A1.58,1.58,0,0,1,392.29,572.27Zm-.08,8.37a.61.61,0,0,1,.35,0A.61.61,0,0,0,392.21,580.64Zm.6.16a1.28,1.28,0,0,1,.11.2A1.28,1.28,0,0,0,392.81,580.8Zm-1.53-2.42c.35.6,1.08.89,2.68.63C392.29,579.28,391.56,579,391.28,578.38Zm9.58-135.61,0-.47ZM398.1,442a12.34,12.34,0,0,0,1.31,2.31A11.8,11.8,0,0,1,398.1,442a3.12,3.12,0,0,0-1-2.78A3.12,3.12,0,0,1,398.1,442Zm3.5-3.4h0a14.46,14.46,0,0,1,.83,4.76A14.46,14.46,0,0,0,401.6,438.62Zm.83,4.82c0,.4,0,.8-.05,1.2C402.42,444.24,402.43,443.84,402.43,443.44Zm-8.07-.24a17.46,17.46,0,0,0,0,2.17A17.46,17.46,0,0,1,394.36,443.2ZM480.17,69.89a5.41,5.41,0,0,1-.79-.21A5.41,5.41,0,0,0,480.17,69.89ZM424.81,342.33a1.57,1.57,0,0,1-1.18.4A1.57,1.57,0,0,0,424.81,342.33Zm-1.35.36-.12,0Zm-5.74-82.11a1,1,0,0,1,.78.64A1,1,0,0,0,417.72,260.58ZM453.25,164a3.7,3.7,0,0,0-1.87-.91l-.86,1.16.86-1.16A3.7,3.7,0,0,1,453.25,164Z"/><path class="cls-2" d="M506.86,754.56c-4.5-3.07-9.12-5.82-13-9.75C491,742,487,743,487.27,747.41c-.74,1-2.35.25-3.06,1.43.48.95,1.38.48,2,.74-.22,3.91-2.89,6.83-4.14,10.33h0l0,0,0,0h0c-.11.21-.23.41-.34.61-4.29,3.81-6,9.52-10.07,13.54a9.47,9.47,0,0,1-5.56,1.38c-3.38.05-6.48,2.17-9.82,1.3-4.27-1.11-9.45,1-11,5.08a32.39,32.39,0,0,1-8.43,12.46c-1.57,1.4-2.05,2.76-1.18,4.09s1.92-.32,2.9-.72c1.33-.54,3.12-.92,4,.08s-.21,2.41-1.1,3.41c-1.72,1.94-3.32,4-5.18,5.79-3.33,3.23-4.34,7.54-5.87,11.63-1.92,0-2.94.79-2.75,2.88.17,1.8.15,3.62.21,5.42-.21,0-.5-.05-.63.07-4.1,3.78-5.42,9.49-9.3,13.43-.2.19-.18.62-.22.94-.69,5.47.78,10.47,3.11,15.36.9,1.9,2.57,3.21,3.49,5,3.82,7.31,10.9,9.37,18,11.41,3,.89,4.06-2.3,6.2-3.48a53.76,53.76,0,0,0-6.37-1.75c-3.39-.88-8.07-.84-8-6.36,0-.22-.54-.4-.67-.68-1.35-2.87-3.65-5-5.55-7.48-1.55-2-2.4-4.11-.6-6.52,4.08-5.51,6.86-11.76,9.9-17.86,1.32-.15,1.33-1.15,1.38-2.13.83-.69,1.69-1.36,2.49-2.08,2.2-2,3.06-5,6.09-6.52,3.48-1.76,5.36-5.81,9-7.6.25-.11.42-.5.52-.8,1.37-4.14,4.65-7.16,6.45-11a4.6,4.6,0,0,1,2.58-2.39c0-2.12.15-4.25.15-6.36,0,2.12-.15,4.25-.15,6.36,1.41.79.48-1.26,1.36-1.12a32,32,0,0,1,9.17-1.87,6.32,6.32,0,0,0,5.71-4c1.75-3.63,2.57-8.16,6.44-10.19a28.11,28.11,0,0,0,7.92-6c1.88-2.07,4.39-2.68,6.9-3.26,1.79-.41,3,.17,2.76,2.36-.28,2.75,1.52,3.29,3.71,3.31s2.91-1.33,3.29-3.5c.49-2.86-1.18-5.29-1-8C512.32,759.75,509.84,756.59,506.86,754.56ZM433.13,820.7a.83.83,0,0,1,.07.13A.83.83,0,0,0,433.13,820.7Zm37.67-44.92-.45.52Zm-1,1.33a3.7,3.7,0,0,1,.36-.55,3.7,3.7,0,0,0-.36.55,2,2,0,0,0-.23,1A2,2,0,0,1,469.78,777.11Zm-.13,1.8.06-.07h0Z"/><path class="cls-2" d="M445.77,593.23c-.44,2.2,1.19,4.11,3.21,3.3,3.24-1.28,5.9-3.58,9.19-6-4.59-.25-6.17-.94-6.89-2.71-1.15-2.88.16-8.38,2.64-10.8.22,2.26-.65,4.32-.82,6.45a5,5,0,0,0,3.47,5.44,4.61,4.61,0,0,0,6-1.86l1.29-1.93c1.83-.14,2.17.94,1.88,2.41-.19.92-.52,1.8-.79,2.7h0c-1,1.17,0,3-1.2,4.08-1.59,2.74-2.2,5.77-2.9,8.83-.37,1.6-1.88,3.66-.37,4.52,1.82,1,2-1.9,3.21-2.76,1.49-.63.59-1.9.73-2.86.39-2.59-.68-5.31.72-7.81,2.43-5.51,5.33-10.9,4.27-17.35l-4.05,1.7c1.76-3.82,1.48-7.35,1.49-10.86a43.39,43.39,0,0,1,1.25-11.15c1.21-4.49,2.52-8.69,1.46-13.32h0l.71-1.32c.95-2.1,2.45-4,2.52-6.46,0-1.23,1.67-2.67.59-3.57-1.49-1.23-2.37,1.1-3,1.72-2.89,2.89-6.9,5.25-6.63,10.23a11.28,11.28,0,0,0,2-.85,11.28,11.28,0,0,1-2,.85l-.51.71c.1,1.07-1.23,1.18-1.4,2.08-.28,1.49-.56,3-.83,4.47,0,1.14,0,2.28,0,3.42,0-1.14,0-2.28,0-3.42-2.42,2-2.93,5.27-4.65,7.53a51.82,51.82,0,0,0-8.11,16.67,5.72,5.72,0,0,0,.13,3.52c.65,1.63,0,3.93-1.67,4.53-.77.29-1.59,0-1.55-.64.19-3.24-1.09-6.51.91-9.75a59.7,59.7,0,0,0,7.15-15.9,107.74,107.74,0,0,1,6.07-17.35c2.22-4.75,6.06-8.65,9-13.07,1-1.58,1-3.49,2.28-4.81.13-.13-.14-.85-.4-1.12s-.68,0-1.08.18a6.4,6.4,0,0,0-3.21,3.17c-.18.43.05,1.39-.7,1.16-2.13-.64-2.05.84-2.44,2.15a34.13,34.13,0,0,1-1.64,3.79h0c-1.49-1.41.15-3.6-1.24-5,.3-.3.73-.54.88-.91.36-.89.78-2.05-.36-2.54s-.85.95-1.32,1.42a8.16,8.16,0,0,0-2.46,5.42l0,0h0l-.7.69c-1.27,0-.8,1.79-2,1.92.25-2.08.37-4.17.69-6.25.38-2.54,1.47-5.7-1-8.1,0,1.61,0,3.23-.06,4.84,0-1.61,0-3.23.06-4.84a3,3,0,0,0-1.68-1.63c-1.38-1.87-1.09-3.78-.15-5.73a2.08,2.08,0,0,0-.1-2.15,1.15,1.15,0,0,0-1.13-.11c-1,1.12-2.81,2.38-2.75,3.51.13,2.9.61,6,3.21,8,1.56,1.56.21,3.76,1.19,5.45,1.39,2.12-.91,3.81-.69,5.74.53,4.55-1.82,8.54-2.34,12.89-.37,3-3.65,5.52-1.37,9.43,1.88-6.43,4.74-12.16,6.16-18.41,2-.08,4,.09,5-2.29.31-.74,1.31-.51,2-.57.2,2.56-2.18,3.78-3.06,5.82-2.16,5-4.55,9.95-6.78,14.94-1.51,3.38-3.47,6.68-4.24,10.23-.92,4.3-1.93,8.51-4,12.34a13.85,13.85,0,0,0-1.53,9.82c.41,1.91,1.49,1.61,2.59.86.59-.41.9-1.23,2.09-1,0,2,0,4,0,6.07A13,13,0,0,1,445.77,593.23Z"/><path class="cls-2" d="M497.87,557c-.49-.51-.94-.44-1.34.11a.74.74,0,0,1-1.09.23c-2.38-1.22-2.69-1-2.86,1.75-.07,1,.31,2-.57,2.78-2.24,1.93-3,4.85-4.66,7.17-3,4-5.21,8.6-9.48,11.59a7,7,0,0,0-2.6,2.85c-2.48,6.47-7.12,12.35-5.64,19.94-.69.47-.65,1.22-.7,1.92-.06,1.41-1,2.54-1.39,3.84-1.26,3.94,0,8-.94,11.91-.3,1.24.94,2.35,2.07,2.47,2.89.3,2,1.29,1.46,3.37-.7,2.5-2.94,4.8-1.72,7.74l-.69.15c.42,1.51.85,3,1.25,4.54-.4-1.52-.83-3-1.25-4.54-1.4-.14-1.4-.14-1.21,2.58,1.19.2,1.28,1,1.25,1.75,0-.79-.06-1.55-1.25-1.75,1.07,1.34-1.3,2.53-.18,3.87-1.11,1.21-1.18,2.69-1.18,4.21,0,4.72-.08,9.44-.12,14.15a1,1,0,0,0-.39,1.52c-.72,4,1.3,7.47,2.31,11.07.61,2.17.17,5,2.69,6.52h-.07c.45,4.37,1.76,8.14,6.54,9.53a1.23,1.23,0,0,1,1.4-1l.05-.07h0l-.05.07h0a1.23,1.23,0,0,0-1.4,1c.18,1,.36,1.95.55,2.92a9.19,9.19,0,0,0-2.17,4.87c-.94,5-.29,10-.51,15-.07,1.52.19,3.25-.44,4.51-2.21,4.43-4.24,8.81-5.1,13.81-.63,3.67-.51,5.16,3,7.1l.05,0c.1.4.14.92.71.84.2,0,.35-.43.52-.66h0l.33-1-.12-1.31h0l.12,1.31a2,2,0,0,0,2-1.22c-1,3.68-1.94,7.37-4.73,10.16-1.45,1.44-2.47,3.26-2,5.05s2.46,1,4,1c1.84,0,3.86.4,2.2,2.93-2.12,3.24-4.5,6.18-8.42,7.65-2.86,1.07-6.45-.42-8.73,2.61-.34.44-1.27.52-1.16,1.32.16,1.09,1.13.84,1.83.84,6.48,0,11.48-2.74,15.55-7.75s7.15-10.32,11.42-15c.6-.64,1.64-1.22,1.14-2.56-2.14,1.65-4.46,2.78-6.07,5.15-1.33,2-2.95,4.38-6.88,4.21,1.69-1.21,1.84-2.46,2.41-3.48,1.19-2.17,2.11-5.22,4.2-5.92,4.85-1.63,6.86-5.8,10.7-9.62a43.27,43.27,0,0,0-4.53,0c-1.5.18-3,.46-4.49.59-2.74.24-3.33-1-3.32-3.44,0-1.84,1.21-3.34,1.23-5,.08-6.42,3.83-11.47,6-17.09,3.72-1.95,5.72-4.74,4.49-9.13a4.54,4.54,0,0,0-1.27-2.46,2.38,2.38,0,0,1-1.7-1.4,2.35,2.35,0,0,0,1.7,1.39,4.72,4.72,0,0,0-1.16-2.48,5.74,5.74,0,0,0-3.4-5.43c-.63-1.16-1-2.5-2.38-3.11-.3-2-1-3.74-2.78-4.83-.77-1.16-.68-2.91-2.36-3.46a27,27,0,0,1-2-4c-2.48-7.84.69-15.4,1.35-23.08a2.12,2.12,0,0,1,.6-1.13,6.06,6.06,0,0,0,1-5.86c-2-6.5,1.79-11.76,3.43-17.45.47-1.6,1.29-3.06,1.48-4.82.26-2.4.36-5.13,1.58-7,2.35-3.68,1.84-8,3.42-11.75-2.06.61-4.32.77-6.29,1.59,2-.82,4.23-1,6.29-1.59.51-.36,1.24-.58.91-1.46.66-1.8,1.64-3.55,1.9-5.41.45-3.21,3.19-5.62,3.06-8.92a57,57,0,0,1,4.69-25.94C498.13,558,498.33,557.52,497.87,557ZM484.72,690.5l.68.69Zm1,1.65a1.37,1.37,0,0,0,1,.34h0A1.37,1.37,0,0,1,485.71,692.15Zm-10.16,16.09,0,0,0,0Zm-.42,13.07c.08-1.09.15-2.18.22-3.27C475.28,719.13,475.21,720.22,475.13,721.31Zm.4-6.53c.05-1.09.08-2.18.08-3.27C475.61,712.6,475.58,713.69,475.53,714.78Zm2.12-22.66c0-.81,0-1.61,0-2.42C477.69,690.51,477.68,691.31,477.65,692.12Zm1.21-88.88a6.08,6.08,0,0,1,1.05-.8A6.08,6.08,0,0,0,478.86,603.24Z"/><path class="cls-2" d="M497.5,395.78c.22.6.84,1.28.49,1.78-1.93,2.82-.47,5.94-.88,8.89-.92,6.59,2.08,12.62,3,18.95,0,.57-.73,1-.37,1.64,1.3.87,1.34,2.75,2.8,3.5-1.06,1-2,2,.43,2.43.57,1.36,1,3.28-.1,4-3.52,2.21-3.54,6.11-4.9,9.28-2.26,5.23-2.05,5.32,1.79,5.84.45,1.24-2.29,2.29-.24,3.61,1.51,1,2.3,2.62,1.11,3.78-1.46,1.42-2.18,4.59-5.39,3.28-3.17-.24-2.67,2.15-2.87,4l-.06.18h0c-2.55,2.25-3.34,5.06-2.8,8.47,1.78-.55,2.36-3.36,3.94-2.66,2.24,1,3.47-.36,5-1.11a7.62,7.62,0,0,1,4.06-1c2.95.25,4.49-1,4.61-4.05a15.29,15.29,0,0,1,.77-3.12c2.26-1.73,4.93-2.9,6.71-5.27.88-1.18,2.47-2,1.29-3.83a4,4,0,0,0-4.73-1.87,7.22,7.22,0,0,1-4,.1c1.46-1.69,2.82-3.28,4.2-4.85,2.13-2.44,1.92-3.25-1.19-4.54-.94-.7-1.68-1.66-1-2.75,1.42-2.27.42-4.41-.13-6.54-.5-1.91-1.11-3.86-.61-5.73s-.44-2.29-1.55-3a14.93,14.93,0,0,1-1.37-6.51c.11-2.68-.11-5.37-.18-8.06.07-.65.13-1.31.2-2-1.38-7.9-.86-15.86-.7-23.8a3.75,3.75,0,0,1,.18-1.59c1.79-3.46.85-7.35,1.85-10.94a2.06,2.06,0,0,0-1.9-2.78c-1,0-1.15,1.63-1.27,2.64-.48,4.34-2.66,8.05-4.31,12C497.89,387.92,496,391.58,497.5,395.78Zm7.5,63,0,0Zm-1.15-1.37a4.49,4.49,0,0,1-.38-1.31A4.49,4.49,0,0,0,503.85,457.44Zm-9.07,13.19a2.37,2.37,0,0,1-2.19-1.39,2.37,2.37,0,0,0,2.19,1.39,5.45,5.45,0,0,0,.9,0A5.45,5.45,0,0,1,494.78,470.63Z"/><path class="cls-2" d="M355.24,201.57h-.05l0,0Z"/><path class="cls-2" d="M358.14,200.73c1.88-2.75,4-5.54,4.56-8.78.81-4.38.8-8.92,2.68-13.07.37-.82,0-1.4-.22-2.14-1.05-3.62-2.19-7.3-1.21-11.09,1.08-4.2,2.83-8.26,3.6-12.5,1.27-7.1,5.81-11.73,11-15.92a3.08,3.08,0,0,1,3.61-.66,7.68,7.68,0,0,0,4.68.88c3.21-.63,6.3-1.95,9.65-1.87A1.42,1.42,0,0,0,398,135c2-3.49,5.58-5.83,6.89-9.76a4.67,4.67,0,0,1,1.17-1.9c3.34-3.38,5.08-7.91,8.28-11.43.95-1,1.18-3.44-.26-4.35-1.79-1.15-1.53,1-1.94,1.93-.11.26-.5.4-.76.59-1.81,1.33-3.13,3.11-3.07,5.32.1,4-5.08,5.28-4.52,9.38,0,0-.18.1-.29.12-2.33.5-3.6,2.12-4.51,4.18a1.83,1.83,0,0,1-2.57.67c-1.81-.89-2.78,0-3.73,1.25-1.84,2.43-3.7,2.12-5.3-.15-.55-.78-1-1.31-1.72-.66-2.51,2.34-5.46,2.05-8.47,1.66-.8-.1-1.45,0-1.7,1a12.12,12.12,0,0,1-1.81,3.4A132,132,0,0,0,366.27,150c-1.36,2.8-1.18,5.84-2.56,8.52-.7,1.36-1.7,2.43-2.15,4.13-1.07,4-.54,8.28-2.52,12.16a6.49,6.49,0,0,0,.31,6c1.54,2.56,3.09,4.91.58,7.86-.57.66-.32,2.22.47,3.37a2.23,2.23,0,0,1-1,3.35c-3.16,1-3.57,3.59-4.2,6.15C356.26,201.5,357.35,201.88,358.14,200.73Z"/><path class="cls-2" d="M269.42,802a12,12,0,0,1,3.13-6.93,21.28,21.28,0,0,0,4.77-8.85c.23-.77.32-1.22,1.23-1.57,3.92-1.52,9.35-1.69,7.94-8.38-.14-.65.67-1.51,1-2.27a15,15,0,0,0,6.43,1.64c1.72,0,2.75-.31,1.19-2.14-1.95-2.28-.8-5-.92-7.51a.93.93,0,0,1,1.45-.76c1.42.76,2.6.65,3.13-.9.24-.68,1.23-1.51-.09-2.52s-2.5-3.29-4.11-2.3c-3.88,2.41-8,1.29-12,1.72h-1.36l-3.79-2a.69.69,0,0,0-.69-.67c-.22-1.29-.44-2.58-.65-3.86l1.3-.38a16,16,0,0,0,4.21-5.3c1.84-3.29,1-6.94,2.64-10.12a3.16,3.16,0,0,0-1-3.82c-1.2-1-2-.28-3.19.16-1.8.71-3.93,1-5.58-.22-1.85-1.4-1.36-3.86-.75-5.45a13.65,13.65,0,0,0,.82-6.32,5.57,5.57,0,0,1,3.47-6,10.94,10.94,0,0,0,5.73-5.23,15,15,0,0,1,5.53-5.6c1-.66,2.48-.88,2.86-2.23-1.25-1.24-2.79.89-4-.53-.37-1.25-1.5-.5-2.21-.84-.1-3.63-4.28-3.64-5.64-6.28-.38-.73-1.55.42-2.1,1.3-.73,1.17.62,2,.34,3.07,1.53.5,3.41-.34,5,.35-1.59-.69-3.47.15-5-.35-.62.2-1.53-.27-1.8.76-.19,1.62-.19,3,1.61,4a3,3,0,0,1,1.87,3.09,3.3,3.3,0,0,1-1.11,4,.61.61,0,0,0-.33,0c-1.06.19-.93,1.29-1.45,1.9A1.72,1.72,0,0,0,276,716h0l-.65.66h0c-.73.87-2.73,0-2.64,2h0c-1.6,2.46-.07,5.28-.87,7.83-3.32,2.91-5.87,6.22-4.85,11,.29,1.39.1,4.05,3.17,2.37,1.3-.71,2.83-.49,2.6,1.77a18.74,18.74,0,0,0,.09,2.59,30,30,0,0,1,3.12.25,30,30,0,0,0-3.12-.25c.49,1.13,1.89.58,2.57,1.38-.1,2.55,0,4.91-2.18,7.13-1.24,1.28-1.48,4-.66,6.19a3.47,3.47,0,0,0,4.24,2.33,2.35,2.35,0,0,1,2.28,1c2.26,2.93,4.49,5.88,6.73,8.82a15,15,0,0,0-3.85,2.64c-1.22,1.33-2.45,2.93-4,3.59-3.66,1.54-4.28,4.1-3.37,7.51a2.12,2.12,0,0,1-.77,2.15,9.74,9.74,0,0,0-3.12,5.63c-1,.62-2,1.27-1.91,2.67-1,.51-1.76,1.16-1.41,2.45l0,.09c-.92-.31-.93.49-1.31,1-3.72,4.69-4.27,11.09-8.37,15.56-2.72,3-1.59,7-2.9,10.42-1.76,4.57-.79,9.09.43,13.67.77,2.86,1.66,6.06-1.37,8.74,2.82-.26,5.84,1.91,5.79,3.82-.15.13-.45.32-.42.38a103.59,103.59,0,0,0,4.18,10.54c1,2,3.23,2.56,5.54,2s.89-2.52,1.54-3.71c.3-.55-.66-1-1-.68-2.36,2.17-2.3-.23-3-1.46-.86-1.56-1.45-3.24-2.38-4.81-1.28-2.15-3.36-4.44-2.39-7.47a1.32,1.32,0,0,0,.48-1.49A10.08,10.08,0,0,1,260,834.12a33,33,0,0,0,1.66-10.72c-.21-5.52,2.93-10,5.34-14.49A17.51,17.51,0,0,0,269.42,802Zm15.24-99.94a3.08,3.08,0,0,0-.73-.64A3.08,3.08,0,0,1,284.66,702.09Zm-9.39,54.22a1.84,1.84,0,0,0,0,.51A1.84,1.84,0,0,1,275.27,756.31Zm0,.75a1.35,1.35,0,0,0,.18.47A1.35,1.35,0,0,1,275.25,757.06Zm.34.7a3.39,3.39,0,0,0,1.15.8h0A3.39,3.39,0,0,1,275.59,757.76Z"/><path class="cls-2" d="M286.38,678.59c-.09-.85.49-2.37,1.09-2.57,4.17-1.38,2.28-4.79,2.73-7.41.2-1.2-.69-2.84.83-3.52,2.21-1,2-2.79,2.05-4.66,0-1.07-.24-2.16.33-3.19,1.95-3.58,3.77-7.24,5.85-10.75a73.75,73.75,0,0,1,5-8.24c3.66-4.72,9.17-8.23,10.26-14.8.54-3.32,3.38-5.34,5.06-8,2.14-3.44,3.2-6.7.68-10.45-1-1.45-1.39-3.16.86-4.32,3.31-1.71,6.21-4.19,9.79-5.4.83-.28,1.52-.68,1.36-1.53-.35-1.9.89-3.55.67-5.4a5.29,5.29,0,0,0,.94-3.26c0-.12-.74-.29-.8-.2-.73,1-1.48,2.08-1.22,3.47-.11,4.53-4.2,5.95-6.87,8.33-1.25,1.11-3.63,1-5.52,1.3-.65.09-1.33-1.64-2-.22s-2.66,3.35-1.63,4.71c1.35,1.78.43,3.17.64,4.6.74,5-1.07,8.67-3.64,12.49-1.64,2.43-2.26,5.76-4.28,7.69-3.22,3.06-4.26,7.66-8,10.22-.24.17-.54.54-.51.79.38,3-1.82,4.5-3.61,6.14a9.27,9.27,0,0,0-2.27,3.79c-1.55,4.06-3.89,7.91-3.62,12.53a3.15,3.15,0,0,1-1,2.31c-3.74,2.84-2.86,7.08-3.76,10.87-.78,3.33-1,6.87-3,10-3.16,4.83-3,4.94-2.13,7.5C283.44,687.47,286.94,684,286.38,678.59Z"/><path class="cls-2" d="M427.65,880.2a8.61,8.61,0,0,0-7.84-6.54h0l-.14.1L418,873.2a9.17,9.17,0,0,0-4.36.4c-3.18.86-5.59,2.85-8.09,4.77-3.36,3.49-7.58,3.83-12.06,3.35a2.9,2.9,0,0,0-1.81.54,1.47,1.47,0,0,1-1.75,0,8.71,8.71,0,0,0-12.53,5.48c-1.33,4.34-1.26,9.06-3.89,13-1.06,1.6.11,3.17,1.16,5,1.36-3.77,3-7,3.71-10.51,1.43-7.46,5.51-10.26,11.82-9.8.54,0,1.09,0,1.63,0,5.83.1,11.8.83,16.5-3.89.53-.54,1.32-.71,1.5.2.71,3.59,2.39,1.7,3.68.62,4.45-3.76,10-3.26,13.16,1.5.63.95,1.06,1.75,2.11,1.18,1.31-.71.81-1.88.15-2.78A6,6,0,0,1,427.65,880.2ZM422,877l-.08.08L422,877Zm1.17,1.57a2,2,0,0,1-1.33-1.4,1.31,1.31,0,0,1-1.27-1.37l-.66-.64h0l.66.64a1.31,1.31,0,0,0,1.27,1.37,2,2,0,0,0,1.33,1.4,2.75,2.75,0,0,0,.84.12A2.75,2.75,0,0,1,423.17,878.56Z"/><path class="cls-2" d="M347,739.58c1.86-.61,1.4-1.87,1-3.09-.55-1.49-1.3-2.92-1.8-4.43-.32-1-.6-2.12-1.72-2-.77.08-1.11,1.14-1.39,2-.79,2.47-2.36,5.18-4.38,5.93a58.1,58.1,0,0,0-10.62,5.7c-4.62,2.89-6.91,7.6-7.72,13.36,1.35-.39,1.23-1.05,1.45-1.5,1.19-2.43,2.33-4.43,5.82-4.15,1.64.13,5.42,1.51,4.84-3,2.37.95,5.28,2.24,6.48-.1,1-2,1.93-1.92,3.52-2.23s4.65.14,2.93-3.47A2.72,2.72,0,0,1,347,739.58Z"/><path class="cls-2" d="M345.92,242.58a4.15,4.15,0,0,1,2.06,4.33c-.31,4.15,2.31,7.57,2.67,11.54a17.14,17.14,0,0,0,0-10.32c-1-1.11-.7-2.48-.67-3.75.12-4.78.58-9.56.39-14.31-.21-5.07-1.07-10.11-1.08-15.2l-.27-9.38c-1.56,1.3-4.09,1.76-4.57,4a27.49,27.49,0,0,0,0,13.46c1,3.26.92,5.63-.79,8.31C342.92,232.4,344.71,241.87,345.92,242.58Z"/><path class="cls-2" d="M475.53,569.43c-.69,2.07,2.91,1.44,2.26,3.61-.12.42.9,1.58,1.87,1.45,1.27-.16.7-1.34.91-2.1.63-2.27-1.69-4.15-1-6.23,1.38-4.19,1.47-8.62,2.87-12.84.85-2.55,4-5.24,1-8.4-.1-.1,0-.43.07-.63,1.92-6.81,3.65-13.66,5.37-20.53.44-1.76-.36-2.89-.58-4.3a.93.93,0,0,0-1.19-.81c-.52.17-1.08.62-.95,1.17.78,3.3-1.06,6.12-2,9-1.07,3.33-.13,6.78-1.49,10-2,4.76-4.11,9.53-5.05,14.67a4.12,4.12,0,0,0,.09,1.83c4.11.57,1.08,2.73.6,3.71C476.76,562.34,476.81,566.06,475.53,569.43Z"/><path class="cls-2" d="M351.67,282.59c1,.85,2.25,2.68,1.4,4.33-1.18,2.3,0,4.21,1.19,5.5,2.81,3,.54,6.75,2.1,9.83.3.58-.73.31-.78.42-1.62,3.4-2.37,7.17-4.61,10.3a.36.36,0,0,0,0,.32c1.29,2.41.91,5.37,2.5,7.81a3.29,3.29,0,0,0,.36-2.85c-.7-3.1.56-5.75,1.47-8.57,1.37-4.23,2.69-8.41,2.67-13.07s-2.89-8.38-2.28-12.92c.05-.42-.69-1.23-1.2-1.38-3.13-.88-3.18-3.47-3.46-5.94a8.28,8.28,0,0,0-.4-2.86,6.7,6.7,0,0,1,.92-7.83c1.62-1.83.63-3.89.78-5.83,0-.69-1.14-.68-1.16-.45-.24,2.87-2.23.13-3.28.89,1.35,2.59,1.18,4.93.34,7.59C346.55,273.3,346.82,278.44,351.67,282.59Z"/><path class="cls-2" d="M570.35,478.63c-3.81-1.93-7.67-3.87-12.15-3.23-1.72.25-3.21-.5-4.71-1-1.83-.56-3.35-1.14-5.34-.09-1.09.57-4.22.23-4.1-.19.79-2.89-1.53-1.63-2.11-1.52a91.15,91.15,0,0,0-9.48,2.36,6.59,6.59,0,0,0-4.42,4.71c-.32,1.1.22,1.38,1.18,1.27.4,1.22-.53,1.73-1.25,2.36a12.53,12.53,0,0,0-3.44,4.85c-2.36.13-1.79,1.92-1.89,3.32-.82.07-.73.81-1,1.31-2.36.87-2.7,4.16-5.59,4.58-.64.09.4.56.71.82-1,3.13-3.3,5.47-4.94,8.2-.89,1.48-3,2.61-1.68,4.86a49.33,49.33,0,0,0-5.49,13.21c-.6,2.14-2.23,4.49-.88,7-2.93,2.73-5.66,5.56-4.27,10.61a32.68,32.68,0,0,0,6.32-8.59c.31-.34.53-.65-.16-.79h.08c-1-6.44,2.31-11.62,4.93-17,.56-2.36,2.2-4.15,3.33-6.21,1.7-3.09,3.17-6.35,6-8.7l.71-.19c1.23-2.56,4.43-4.13,3.84-7.61,2.9-6.68,7.28-11.9,14.28-14.55.91-1.21,2.35-.45,3.45-.95l1.35-.26.62-.17,12.46-.15a107.39,107.39,0,0,1,14.09,4.83c.45.19.73.44,1-.12.15-.36.44-.9.3-1.11A5.49,5.49,0,0,0,570.35,478.63Z"/><path class="cls-2" d="M464.61,634.57a29.36,29.36,0,0,1-.8-6.28c0-5.56,0-11.12,0-16.68,0-.76-.14-1.53-.26-2.82a43.1,43.1,0,0,0-3.17,10.93c-.41,2.39-1.85,5,1.58,6.56,1,.45.67,1.71.89,2.65.86,3.66-.66,7.15-1.25,10.54-.82,4.73-1.5,9.27-.84,14,.21,1.49-1.74,3.37-.75,4.59,2.5,3.08.93,6.8,2.17,10,.08.22.47.31,1.09.7-.78-3.83,1-7-.91-11.09-1.77-3.76-1.37-9.44.37-14.26C463.73,640.61,465.26,637.5,464.61,634.57Z"/><path class="cls-2" d="M544.17,435.2c.52.23,1.13,1,1.73.42a1.56,1.56,0,0,0,0-2.11,10.7,10.7,0,0,0-5-4c-3.74-1.15-6.33-3.56-8.77-6.53s-3.23-7-6.85-9c-1.06,3.63-.59,5,1.52,7.84A42.73,42.73,0,0,0,544.17,435.2Z"/><path class="cls-2" d="M445.24,403.42c-1.38.86-1.69,2.48-1.77,3.94-.15,2.78,0,5.57,0,8.31,3-.75,3.05-3.63,4.73-6.31v5.71c2.5-1.75,2.95-4.23,3.84-6.44.76-1.91-1.61-1.9-2-3.15-.15-.51-.76-1.16-.6-1.45,1.27-2.33.91-5.22,2.52-7.42.07-1.18-.05-2.05-.47-2.4a.77.77,0,0,0-.39-.17.77.77,0,0,1,.39.17c.42.35.54,1.22.47,2.4,2.16-2.14,2.78-5.45,3.38-7.83a112.08,112.08,0,0,0,2.5-16.29,29.77,29.77,0,0,0-3.9-19.42,18,18,0,0,1-2.2-14.46,7.42,7.42,0,0,0,.36-3.86c-1.5-.22-1.54-1.3-1.61-2.36.07,1.06.11,2.14,1.61,2.36-.33-2.59,1.54-4.85.77-7.76-.32-1.2,1.21-3.6,1-5.66.28-1.09.57-2.17.85-3.26.11-.19.21-.38.31-.58,0-1.54-.05-3.09-.08-4.63,1.38-3.9-1.52-7.38-1.08-11.18a10.44,10.44,0,0,0-1.32-7.14l-1.21,1.25c-1.23,2.38,1.59,4.29.77,6.61-1.31,3.63-.4,7.36-.57,11,.8,2.83.25,5.76.62,8.62a45.29,45.29,0,0,0-1.74,9.87c-.42,1-1.59,1.63-1.42,2.84,1,7.17-2.33,14.69,3.46,21.63,3.34,4,4.45,10.15,3.35,15.8a48.17,48.17,0,0,0-.63,10,18.41,18.41,0,0,0,1.19-5.82,18.41,18.41,0,0,1-1.19,5.82,2.84,2.84,0,0,0-1.22,2.18c.15,3.84-2.73,5.87-5,8.25a39.25,39.25,0,0,1-.73-14.39c.36-3.45,2.47-6.72.94-10.37a3.13,3.13,0,0,1-2-.49,7.9,7.9,0,0,1-.68-.5,7.9,7.9,0,0,0,.68.5,3.13,3.13,0,0,0,2,.49,1.59,1.59,0,0,0-.12-1.93,9.48,9.48,0,0,0,.14-2.24c-.23-1.37.91-3.67-.91-3.94-2.23-.32-.67,2.48-1.74,3.44-.79,1.06-.47,2.24-.39,3.4-.43,2.93,1.27,5.89.69,8.52-.68,3-.51,6-.7,8.93-.19,3.13.34,6.28-.29,9.4-.63,1.44.36,1.7,1.41,1.92C448,398.42,448.53,401.35,445.24,403.42Z"/><path class="cls-2" d="M455.61,722.1c.77,1.43-.14,2.87.95,3.71.51.38,1-.23,1.18-.76.56-1.47,1.12-3.1-.66-4s-1.31-2.17-1-3.34c.8-3.54,2.87-6.72,3.06-10.46a1,1,0,0,1,1-1c4.48.23,3.61-3,3.63-5.63,0-.61.93-1.56-.25-1.89s-1.47.63-1.72,1.5c-.73,2.62-1.58,5.1-4.75,5.77a1.54,1.54,0,0,0-1,1.58c.05,2.55-1.32,4.72-1.81,7.1-.7,3.45-1,7-5.06,8.56C451.39,722.33,453.72,723.58,455.61,722.1Z"/><path class="cls-2" d="M368.63,862.4c.07-.24-.2-.57-.48-1.28-1.9,5.46-1.83,10.76-5,14.93-1.81-.5-2.15-2.36-3-3.92.12,3.09-3,5.31-2,8.64,2.57-1,1-4,3.32-5.38,2.31,7.32,2.05,14-3,20.08-1.16,1.39-1.06,2.76.95,3.77.27-.91.24-2,.76-2.42,4.21-3.23,3.59-7.81,3.51-12.2a19.28,19.28,0,0,1,1.19-8.24C366.89,871.89,367.27,867,368.63,862.4Z"/><path class="cls-2" d="M507.92,786.38c-2.2-.32-4.72-.28-6.25,1.35s-5.1,2.75-2.76,6.24a1.38,1.38,0,0,1-.11,1.21c-2.35,3.66-.06,7.07.59,10.54.2,1.09,1.39,1.32,2.42.81,1.29-.64.52-1.33,0-2-1.66-2.24-1.82-4.85-1.51-7.45.8-6.82,4.75-9.63,10.46-7.25C510.56,787.71,509.51,786.61,507.92,786.38Z"/><path class="cls-2" d="M427.35,741.4c-1,2.61-2.91,3.74-4.69,5.31a17.08,17.08,0,0,1-2.35,1.64c-1.59,1-3.41,2.1-2.39,4.73,6-2,8.07-8.36,13.36-12.12-.36,1.95-.63,3.07-.75,4.2-.06.5,0,1.18.74,1.26s1-.39,1-1c.12-4.1,2.62-7.33,4-11-1.28.9-2.46,2.17-3.88,2.54A7.4,7.4,0,0,0,427.35,741.4Z"/><path class="cls-2" d="M453.34,204.34c-2,5.06-3.27,10.35-4.95,15.5-1,3.13-2.23,6.44-2.21,9.88,0,.86-.61,2.27.73,2.47s1.78-1.24,2.19-2.3a4,4,0,0,0,.07-1.3c0-4.62,1.28-9,2.58-13.41A33,33,0,0,0,453.34,204.34Z"/><path class="cls-2" d="M497,53.53c1.69-2.15,1.5-3.47-1.09-4.57-2.07,4.45-5.09,27.17-3.82,30.4.32-4.77,2.28-9.16,2.45-14C494.69,61.36,494.32,57,497,53.53Z"/><path class="cls-2" d="M442.05,447.36a3.49,3.49,0,0,0-.09-3.14c-.31-.62-1-.32-1.46-.14-1.44.55-.85,1.82-.82,2.8a10.58,10.58,0,0,1-1.7,5.77c-2.8,4.66-3.13,9.65-2.42,15,.53-.85,2.06-1,1.67-2.41a9.65,9.65,0,0,1,.95-6.77C439.86,454.91,439.94,450.8,442.05,447.36Z"/><path class="cls-2" d="M374.36,855.14c.75-1.55-.8-2.35-2.15-2.89-1-.41-2.94-.92-2.92-1.32.1-2.33-.87-1.29-1.88-.85-2.72,1.18-3.71,4.5-6.74,5.36-.47.13-.64,1.28-.87,1.77.05.78,0,1.34.78,1.44s.86-.26,1.18-.8c1.48-2.51,1.51-2.47,4.26-1.79a1,1,0,0,0,.82-.31c1.22-1.69,2.25-1.12,3.73-.14C371.63,856.31,373.67,856.59,374.36,855.14Z"/><path class="cls-2" d="M452.09,276.27c1.89-1.33,1.05-3.08.58-4.64a7.57,7.57,0,0,1-.65-2.12c-.09-4.85.18-9.68-.8-14.52-.81-4.06-2.08-8-3.15-11.91a.93.93,0,0,0-1.14-.82c-.56.06-.86.58-.64.89,1.32,1.85.63,4,1,6,1,5.32,2,10.65,2.7,16a88.27,88.27,0,0,1,.18,9.77,5.67,5.67,0,0,0-.39,5.24c.45,1.22,1.26,2.41.85,3.69-1.33,4.09-.72,8,.72,11.91l1.21-1.25C452.58,288.45,454.27,282.31,452.09,276.27Z"/><path class="cls-2" d="M403,776.93v-.08l0,0Z"/><path class="cls-2" d="M518.2,476.55c1.42-.48,2.85-.92,4.25-1.43a6.6,6.6,0,0,0,4.39-4.27c.39-1.17,0-1.54-.89-1.33-2,.47-4.08.39-5.75,2s-2.87,1.78-5,1.17a2,2,0,0,0-1.2.24c-6.94,3.21-13.13,7.36-17.32,14-.4,1.34-1.6,2.36-1.48,3.89a2.49,2.49,0,0,0-1.35,1.37c-1.23-.4-2.44,1.66-3.69.05.42-1.18.62-2.38-.71-3.08s-2,.41-2.69,1.16c-1.17,1.22-2.55,2.28-3.3,3.86l-1.41,2.59a1,1,0,0,0-.67,1.28c-1.4,0-.84,1.42-1.38,2-.58,1.29-1.66,2.34-1.79,3.83l.06,2.14c.3-.09.78-.09.88-.29,2.12-4.18,5-7.87,7.36-11.93.71-1.24,1.41-1.78,2.75-1.56.65,1.49-.3,3,.13,4.51-.18.26-.53.54-.52.79.07,1.16-1.6,2.7.15,3.38,1.32.51,2.1-1,2.6-2.18.6-1.43,1.47-3.07,2.77-3.43,3.79-1,3.67-4.37,4.74-7,1.47.16,2.15-.47,2-2,1.45.15,2.11-.5,2-2,2.83-.14,4.32-2.69,6.65-3.69.94-.4,2.44-2.38,3.13.36C515.84,481,516.31,477.91,518.2,476.55Z"/><path class="cls-2" d="M512.88,481.08v0h0Z"/><path class="cls-2" d="M434.68,413.25c4.53-4.8,6.32-10.89,8.43-16.83C437.7,400.8,435.57,406.74,434.68,413.25Z"/><path class="cls-2" d="M355.19,201.57v0h0Z"/><path class="cls-2" d="M436.67,443.29c2.7.34,1.59-2.75,2-4.22.9-2.92,1.08-6.07,1.53-9.13a1.87,1.87,0,0,0-1.07-2.17c-1.21-.43-1.19.87-1.69,1.47-2,2.37-.79,5.19-1.15,7.46a11,11,0,0,0,0,1.95C436.71,440.27,435.4,443.13,436.67,443.29Z"/><path class="cls-2" d="M464.38,117.75a.91.91,0,0,0,1.34-.9c0-3.81,3-7,1.92-10.9,1.2-.31.77,1.49,1.81,1V96.79c-.4,2.17-2.19,3.77-2.6,5.62-1,4.51-.28,9.4-3.2,13.51A1.31,1.31,0,0,0,464.38,117.75Z"/><path class="cls-2" d="M326.35,875.36c.12.52.29,1.16,1,.84s.74-.8.29-1.52c-.87-1.41-2.28-2.88.1-4.4-4.14-1-6.7-3.41-8.8-7-1.36,2.91-.42,7.34,1.76,7.67C323.64,871.4,325.65,872.38,326.35,875.36Z"/><path class="cls-2" d="M521.4,719.14c-1.46,0-1.88-1.32-2.82-1.82-1.5-.79-1.48-3-3.36-3.23-.08-.77-.51-1.22-1.29-1.09-2.85.5-5-.74-6.83-2.72-.08-1.51-.17-3-.25-4.55,1.24-4.09-2.11-7.09-2.54-10.78h0c-.57-2.88-2.44-4-5.23-3.87-2.21-1.87-2.16-5-3.85-7.09-.46-2.23-2.92-3.19-3.63-4.66-2-4.14-3.69-8.79-2.81-13.52a6.51,6.51,0,0,0-.86-5.07c-1.29-2.17-.38-4.66-.55-7-.12-1.66,1.67-1.42,2.4-2.23,1.58-1.75,3.41-3.18,3.81-5.94.27-1.82.22-4.18,2.13-5.54.54-.29,1.3-.37,1.25-1.26l.1-.13h0c.23.21.56.37.68.63.44.91,1.71,2.05,1.66.55-.09-2.45,1-4.27,1.62-6.36a2.53,2.53,0,0,1,2.64-2c4.7-.28,7.6-3.8,10.92-6.31,1.41-1.07,4.25-1.16,4.19-3.93,2.11-2.24,2.14-5.87,1.92-7.86a98.53,98.53,0,0,1-.11-12.62,11.61,11.61,0,0,0-.09-8.25c.73-2.92-.65-5.89.18-8.83.19-.67-.36-1.18-1-1.42.42-2.52-1.06-4.82-.84-7.32.07-1.59.28-3.22-1.17-4.41l-.18-.92c-.18-2.1.56-4.3-.63-6.31,0-.29,0-.58,0-.87.91-1.86.43-3.75.23-5.68-.46-4.23-.19-8.37,2.32-12.05a1.29,1.29,0,0,1-1.33-1,1.29,1.29,0,0,0,1.33,1c-.61-3.56,1.76-6.54,1.91-9.95-.23-3.58.91-7.57-3.45-9.81a3.17,3.17,0,0,0-2.32-.54c-.63.15-.73.75-.66,1.31a1.31,1.31,0,0,0,1.6,1.22c1.54-.19,1.77,1,2.07,2a18.73,18.73,0,0,1,.84,6,2.27,2.27,0,0,0,0,.52l-.48.57.48-.57-.48.57c-.07,2-3.64,2.36-2.42,5l0,.05c-.8-.28-2-.08-2,.48-.37,3.35-2.57,5.92-3.58,9-1.92,5.82,1.05,11.76-.67,17.55-.11.36.25.83.24,1.25-.09,6.11,2.12,12.12.11,18.39-.87,2.68-1.77,6.22,1.39,8.66h0c-1.08.83-1.23,1.62.11,2.34-2.35,2.57-1.26,5.79-1.32,8.67s1.46,6.07-.65,8.94c-1.5,2.26-4.48,3.48-4.94,6.42a3.14,3.14,0,0,1-3.39,3.05c-.32,0-.81-.18-.94,0-2.24,2.55-6,4.09-5.69,8.37,0,.66,0,1.46-.72,1.67-2.64.74-1.18,4.32-3.64,5.14,1.06,4.31-2.5,6.91-4,10.24-1.35,3.09-1.12,6.29-1.76,9.4-.09.47.25,2.29,1,2,2.13-1,1.5.88,1.28,1.27-1.6,3-.69,6.17-1,9.24a7.65,7.65,0,0,0,3.42,7.59,14.79,14.79,0,0,1,4.33,3.94c-.71,2.29,1.16,6,3.78,7.53,2.81,0,4.38,1.2,4.37,4.13-4.37,2.5-3.26,6.7-3.25,10.55,0,1.87,1.13,2.36,2.76,2.23,1.13,1.24,2.27,2.47,3.41,3.71.57,4.67,4,6.85,7.87,5,1.63,3,5.18,2.84,7.55,4.66.64.49,1.78-.07,2-1.07S522.81,719.14,521.4,719.14ZM515.6,597.6a2.6,2.6,0,0,1,1,1.21A2.6,2.6,0,0,0,515.6,597.6Zm-.11-.06-.21-.12Zm-18.81,37.94c-.47.82-.89,1.65-.28,2.51C495.79,637.13,496.21,636.3,496.68,635.48Z"/><path class="cls-2" d="M444.29,441.82c1.58-3.26,1.58-7.1,5.38-8.28.08,0,.06-.38.06-.59,0-2.06.73-4.09.32-6.17-.57.27-1.53.44-1.62.81-.79,3.32-3.14,5.74-4.69,8.62C442.74,438.06,443.32,439.66,444.29,441.82Z"/><path class="cls-2" d="M450.05,426.74v0h0Z"/><path class="cls-2" d="M552.68,432.43c2.54.69,3,3.57,5.2,4.57l.51,1c0,1.49,1.24,2,2.14,2.85,3.2,6.09,7.92,10.92,13,15.51a53.4,53.4,0,0,0-11.68-19.11l-.63-.63-.52-.66c-1.92-4.34-1.92-4.34,1.68-4.69.15,0,.27-.25.49-.46-2.57-.85-5.36-.35-7.78-1.76-1.13-.66-2,.56-2.62,1.37C552,431.06,551.93,432.23,552.68,432.43Z"/><path class="cls-2" d="M387.46,895.11a10.82,10.82,0,0,0-2.15,6.59,3.81,3.81,0,0,0-1.26.25c-1.27.82-.58,1,.36,1.51,1.6.92-.09.75-.47,1-1.28.82-.68,1.26.32,1.61h2.11c3.1-.59.86-2.37.82-3.66-.68-7.54,2.67-7.84,8.41-7.75,2,0,4.1,0,6.16,0V893.6c-3.61-.07-7.21-.21-10.78-.58C389.64,892.88,388.34,894,387.46,895.11Z"/><path class="cls-2" d="M485.9,822c-3.09-.52-5.52,1.37-8.26,2.11-2.25.4-3,2.93-5.25,3.6-.6.18.66.89,1.29,1.13,0,1.41-.11,2.83,0,4.24.05,1.21-.87,2.3-1.55,2.14-3-.72-2,1.38-2.47,2.8-.76,2.41.51,4.52.45,6.85-.23-3.56,1.28-6.28,3.55-8.81a14.81,14.81,0,0,0,3.27-7.23c-.81-.68-1.61-.31-2.41-.1.8-.21,1.6-.58,2.41.1.85-.3.77-1.05.85-1.72,3.34-2.41,7.91-1.12,11.26-3.63C488.3,822,487.05,822.21,485.9,822Z"/><path class="cls-2" d="M355.38,910.7c.7-1.39,1.11-3.37,3.1-3.88a10.21,10.21,0,0,0,4.07-3.61c2.13-1.92,4.51-3.54,5.51-6.51,1.29-3.8,2.9-7.45,3.6-11.49.61-3.48,1.44-7,5.52-8.67,3.33-1.4,6.9-2.27,10-4.38,1.17-.79,4.7-1.85,5.15,2a.82.82,0,0,0,.92.73c.69-.06.87-.59.89-1.15,0-1.29.33-2.1,1.93-1.72,3.42.81,4.7-.18,4.89-3.71.11-2.13-.19-4.24,1-6.28.67-1.12,1.18-2.94.73-4a33.56,33.56,0,0,1-2.27-9.55,45.21,45.21,0,0,1-.29-9.37c.21-2.18-.73-4.58,1.47-6.29a3.33,3.33,0,0,1-.78-2.12,3.33,3.33,0,0,0,.78,2.12,3.8,3.8,0,0,0,.19-2.51c-.1-1,.1-1.76,1.35-1.55,2.41.4,3.35-1.38,4.43-2.95l.25,0h.26c.5.94,1.08,1.19,1.38-.05s1.28-2.89,2.24-2.74c4.71.78,2.33-2.08,2.16-3.82a5.63,5.63,0,0,1,.12-1.94c2.82-6.43,5.25-13,8.88-19.12s7-12.53,10.56-19c-.68-.09-1.08-.27-1.27-.14-4.08,2.66-9.62,3.69-10.7,9.68a3.69,3.69,0,0,1-1,1.64c-3.39,3.76-5.38,8.35-7.38,12.87a35.58,35.58,0,0,1-2.21,3.82c-1.95,3.27-6.28,4.72-6.78,9.09-.19,1.71-.69,3.39-1.05,5.08h0c-2.25,1.35-2.56,3.47-2.31,5.81-3,.69-4.6,3.38-7.12,4.8-2.89,1.64-1.58,4.62-1.52,7.08,0,.93,1,.86,1.81.47,1.49-.75,2.87.18,3.77.94s0,2.19-.08,3.31c-.25,4.51-2.67,9.47,2.11,13.19a1.18,1.18,0,0,0-.09.46c-3.31-1.95-6.39-.63-9.51.6-2,.78-3.66,2.6-6.1,2.19v0H384c-.41-.76-.82-.91-1.23,0h-.06v0a3.51,3.51,0,0,0-1.24.23c-.76.46-.2.65.18,1.08.7.79-.15,1.59-.64,1.82-3,1.45-4.82,4.33-7.4,6.27a10,10,0,0,0-4,10.25c.15.6.19.77,1,.75,1,0,1.12.22.82,1-1.17,2.94-1,6.23-2.78,9-2.64,4.25-2.8,10.16-8.44,12.37h0c-2-1.14-1.65.57-1.9,1.55-5.66,5.14-7.24,12-8.27,19.18a3.53,3.53,0,0,0-.34.84,17.21,17.21,0,0,0-.16,1.89c-.07,1.13.09,2.8,1.48,1.86,1.21-.82.11-2.72-.24-4.12.49-1.07,1.22-2.07,1.16-3.31C351.74,917,353.8,913.87,355.38,910.7Zm49-83.7c.88-.18,1.21-.94,1.19-1.92a2.51,2.51,0,0,0-.44-1.68,2.48,2.48,0,0,1,.44,1.69C405.56,826.06,405.23,826.82,404.35,827Zm-3.41,1.86q0-.37,0-.75Q401,828.49,400.94,828.86ZM399,862c0,.12,0,.24,0,.36C399,862.22,399,862.1,399,862Z"/><path class="cls-2" d="M506.94,19.63c-.77-2.22.53-4.21.72-6.32.29-3.12-.36-6.44,2.09-9.15a3,3,0,0,0-.1-3.22c-1.23,3.81-2.75,7.33-3.1,11.21-.37,4-2.82,7.65-2.62,12C505.22,22.73,504.79,20.29,506.94,19.63Z"/><path class="cls-2" d="M379.41,707.51c0,.56-1.79,1-.19,1.6,1,.36,1.62-.65,1.92-1.37.7-1.67-1.47-4.48-3.39-4.57-3.11-.15-6.21,0-9.29-.86-1.23-.34-2.28-1.92-4.12-.67a20.44,20.44,0,0,0,11.33,2.62C377.77,704.12,379.52,704.81,379.41,707.51Z"/><path class="cls-2" d="M331.17,924.45c-.88-.46-1.77-.09-1.41.85,1.75,4.6,1.36,9.46,1.62,14.7,2.1-2.92,2.34-12.49.71-14.65A2.92,2.92,0,0,0,331.17,924.45Z"/><path class="cls-2" d="M384.22,852.79a23.7,23.7,0,0,0-6.9,3.93c-1.05.79-2.72.95-2.27,3.06,2.12-1.49,4.67-1.82,6.51-3.88,1.42-1.58,4.49-.45,5.05,1.49.91-.42.57-1.27.65-2C387.5,853.1,387,851.91,384.22,852.79Z"/><path class="cls-2" d="M459.26,180.21c-2.24,5.81-1.89,12.25-4.36,18a.57.57,0,0,0,.63.83q2.14-6.5,4.3-13c.83-2.2,2.38-4.26,1.27-6.81.67-1.53,1.59-3.36,1.61-4.65,0-2.58,3.17-3.74,2.3-6.38-.38-1.43.65-2.47,1.25-3.62-.6,1.15-1.63,2.18-1.25,3.62a11.36,11.36,0,0,0,4.58-9.1c.86-2.32,1.26-5,2.68-6.88,2.6-3.5,3-7.38,3.28-11.43a7.9,7.9,0,0,0-2.81,5c-1,4.57-3,8.78-4.08,13.28a4,4,0,0,0-2.07,3.54c-.73.69-1.52,1.34-2.22,2-2,1.95-1.58,4.39-2,6.6-.6,3-3.26,5.38-2.5,8.74l0,0,0,0C459.64,180,459.31,180.07,459.26,180.21Z"/><path class="cls-2" d="M406.81,857.61c-.65-.14-1.38-.36-1.77.28-.56.89.22,1.37.84,1.81,2.43,1.73,4.88,3.46,7.56,5.35C413.73,861.1,411.3,858.52,406.81,857.61Z"/><path class="cls-2" d="M420,107.71a2.11,2.11,0,0,0,1.8.3c1.34-.56.09-1.43.09-2.17,0-1.25-.33-2.48.95-3.52s1.31-2.63.75-4.16a27.94,27.94,0,0,0,1.5-8.54c.45-1.72.89-3.44,1.34-5.16.1-2.58,1.38-4.68,2.46-7,1.41-3,2.92-6.07,3.27-9.48l1.57-1.91a13.11,13.11,0,0,0,7.76-6.48c.72-.29,1.47-.55.74-1.54a5.31,5.31,0,0,1,.94-1.26c3.41-2.45,3.88-4.22,1.86-7.9a6.08,6.08,0,0,1-.89-2.31c-.1-.94.48-2.52-1.06-2.62a3,3,0,0,0-3,2.37l-.57,1.79c-1.83.49-1.21,2-1.42,3.24-.81.75-.49,1.82-.74,2.73h0c-2.66,3.4-2.44,4.68.91,5.4,0,.63,0,1.39-.8,1.44-2.13.11-2.81,1.8-3.76,3.23-2.13,1.09-4.95,1.64-5.78,4-1,2.8-1.09,5.9-3.2,8.26a1,1,0,0,0-.09.63c.35,4.41-1.2,8.73-.51,13.15h0c-1.14,2.53-.81,5.48-2.31,7.9-.9,2.38-1.71,4.79-2.73,7.12C418.55,106.54,419.29,107.16,420,107.71Z"/><path class="cls-2" d="M276.53,855a5.52,5.52,0,0,0,5.32-.67,16.17,16.17,0,0,1,8.39-2.91c2.33.38,5.07-.72,7,.9,2.25,1.92,4.53,1,6.86,1-4.52-.65-8.49-3.24-13.07-3.62C285.38,849.39,281.47,853.51,276.53,855Z"/><path class="cls-2" d="M249.75,848.91c-2,3.43-5.26,6-6.14,10.15a23.51,23.51,0,0,0,8.23-10.79C251.11,848.47,250,848.45,249.75,848.91Z"/><path class="cls-2" d="M251.84,848.27h0v0h0Z"/><path class="cls-2" d="M350.1,877.54c3.4-2.92,4.33-5.95,3.19-9.43-1.76,1,1.27,4.46-2.41,4.48-1.71,0-2.53-.7-2.79-2.52-1.1,1.39-2.37,2.47-.1,3.22C350,873.94,350.23,875.43,350.1,877.54Z"/><path class="cls-2" d="M446.87,473.13c1.78-.52,3.06-1,3.11-2.73a11.26,11.26,0,0,1,1.15-4.92,6.82,6.82,0,0,0,.5-5.84C450.07,464.58,447.9,468.43,446.87,473.13Z"/><path class="cls-2" d="M359.26,864c.94.66,0,2.82,1.8,2.16,1.19-.45.77-1.88.37-2.89s-1-2-1.91-3.88c-1.25,4-4,6.6-3.42,11.27C357.87,868.25,357.15,865.43,359.26,864Z"/><path class="cls-2" d="M68.91,967.71c-.78-.58-1.46,0-1.91.62-2.15,3.09-3.65,6.41-3.14,10.29,1.15-3.41,3.71-5.94,5-9.15C69.05,968.89,69.57,968.21,68.91,967.71Z"/><path class="cls-2" d="M544.16,446c-2.42.89-2.62,3.69-3.68,5.71-.48.94.64,1.27,1.42,1.13,2.66-.47,2.61-3,3.58-4.46C545.29,447.17,545.54,445.52,544.16,446Z"/><path class="cls-2" d="M481.62,419.69c.36-.63.7-1.5-.35-1.86a1.45,1.45,0,0,0-1.85.81c-1.08,1.8-2.49,3.42-3,5.54l1.09.43C480.18,424,480.53,421.54,481.62,419.69Z"/><path class="cls-2" d="M437.31,516.31c1,.67.82-.37,1.06-.87.61-1.23,1.28-2.43,1.93-3.64,1.06-2.7,2-5.45,3.77-7.81,1.06-2.7,2.22-5.38,3.11-8.14.26-.8.64-2.29-1.14-2.43l-.65.66.65-.66-.65.66-1.22.3c0-2.36-.17-4.68,1.07-6.95.49-.89.93-3.08-.49-3.35s-1.63,1.72-1.66,2.94c-.1,3,0,6.06,0,9.1-.52,2.16.94,4.58-.87,6.57h0a5.7,5.7,0,0,0-2,5c-2.21,1.83-2.79,4.57-4,7C435.75,515.78,436.84,516,437.31,516.31Z"/><path class="cls-2" d="M475.6,140.7h-.05l0,0,0,0v.08l0,0A.11.11,0,0,0,475.6,140.7Z"/><path class="cls-2" d="M476.56,140.08c0-3.34,2.41-5.6,3.56-8.42,2.31.56,3.57-.06,3.62-2.73,0-1.41.25-3.32,1.16-4.12,3-2.66.8-5.94,1.52-8.81a27.85,27.85,0,0,0-.14-6.64l.36-1c.86-3.7,2.61-7.29,1.27-11.27-.21,1.39-1.41,2.29-1.63,3.63l-.06,2.74-.12.46c.13,1.11-.11,2.27.13,3.36-.24-1.09,0-2.25-.13-3.36-2.64,1.5-.75,3.6-.73,5.46.54,2.84-.58,5.48-1,8.21-.87,4.12-1.83,8.2-4.94,11.35a22.53,22.53,0,0,0-3.85,11.73C476,140.61,476.57,140.59,476.56,140.08Z"/><path class="cls-2" d="M517,732.33A4.49,4.49,0,0,0,515,728l-.15,6.39h0L515,728c-.5-4.6-1.28-5.06-5.54-3a44,44,0,0,0-4.14,2.52c-.18-.18-.35-.37-.53-.54-.91-2.06-2.13-1.07-2.94-.1a10.5,10.5,0,0,0-2.27,3.88c-1,4.06-2.77,6.91-7.64,5.94-.81-.16-1.61.13-1.65,1.1s.84.81,1.43.89c3.12.45,5.27,2.36,7.1,4.72a22.1,22.1,0,0,0,8.25,6.79c1.29,2.56,3.68.57,5.41,1.31s2.33-.09,2.2-1.62a21.58,21.58,0,0,1,1.29-8h0l1.84-1.75C515.36,737.73,517.89,734.87,517,732.33Zm-2.23,2h0c-.11.12-.21.25-.3.37C514.6,734.63,514.7,734.5,514.81,734.38Zm-1.73,5.42c0-.38,0-.77.06-1.15C513.1,739,513.09,739.42,513.08,739.8Zm.6-3.61c0,.13-.1.26-.14.4C513.58,736.45,513.63,736.32,513.68,736.19Zm1,5.76a.84.84,0,0,0,.24.06A.84.84,0,0,1,514.71,742Z"/><path class="cls-2" d="M436.31,734.36h0a.3.3,0,0,0,0,.1l.08-.06h0v-.06Z"/><path class="cls-2" d="M440.81,728.61c.23-.09.25-.71.37-1.09-.77,1.19-1.86,1.12-3,1.13-2,0-3,1.15-2.74,3.09.1.89,1.08,1.56.93,2.6.3-.11.78-.23.78-.34A5.18,5.18,0,0,1,440.81,728.61Z"/><path class="cls-2" d="M365,944.34,362.4,933.1c-2.23-1.56-2.11-4.8-4.48-6.26a26.46,26.46,0,0,1,10.43-16.45c1-.79,1.12-1,.35-1.81-.51-.51-.64-1.82-1.9-.8-5.92,4.77-10.18,10.58-11.47,18.24-.12.74.52,1.13,1.12,1.42,1.21,3.28,2.06,6.73,4.4,9.49.45,1.79,1.27,3.51.86,5.43a5.29,5.29,0,0,0,2.4,5.47c.58.42,1,1.86,2,1,.82-.72.53-2,.29-2.9C366.23,945.29,365.45,944.85,365,944.34Z"/><path class="cls-2" d="M325.54,943.18c-.36-.3-.3-1.56-1.29-.74-.62.52-.37,1.17-.19,1.78.42,1.38,1,2.63,2.62,2.9,2.69.47,2.28-2.29,3.87-3.36C328.63,943.45,327,944.36,325.54,943.18Z"/><path class="cls-2" d="M510.48,534c.84.23,1.39,0,1.64-1,.52-2,1.2-4,1.81-6a8.91,8.91,0,0,0-4.08,5.18C509.57,532.93,509.46,533.7,510.48,534Z"/><path class="cls-2" d="M454.28,36.69c1.75.13,3.6-.52,5.31.58-1.08-2-3.17-2.28-4.85-3.21-.63-.36-1.34-1.26-2.25-.3a1.54,1.54,0,0,0-.33,1.77C452.54,36.44,453.38,36.62,454.28,36.69Z"/><path class="cls-2" d="M391.33,800.85c.88,2.35,1.74,4.7,2.65,7a1.22,1.22,0,0,0,1.54.86c.48-.13.81-.56.54-1C394.52,805.46,393.93,802.58,391.33,800.85Z"/><path class="cls-2" d="M227,895.35l-.07.08.1,0,0,0,0,0v0l0,0Z"/><path class="cls-2" d="M223.41,902.55c1.22-2.48,1.63-5.2,3.49-7.12C222.14,897.07,221.09,899,223.41,902.55Z"/><path class="cls-2" d="M515.25,352.76c.23,1.15-.26,2.4.42,3.49-.7,3.14-.16,6.25-.09,9.4.21,8.76,2,17.46,1.19,26.24-.46,4.92-.33,9.53,1.62,14.34,1.21,3,3.08,3.6,5.93,5-5.89-19.9-6.16-39.8-6.86-59.66a1.5,1.5,0,0,0-.49.93,1.52,1.52,0,0,1,.49-.94,2.75,2.75,0,0,0,0-2.23c0-.75.06-1.5.1-2.25s1-2.14-.6-2.29c-1.28-.12-2.17.75-2,2.27C515.08,348.94,514.44,350.89,515.25,352.76Zm1.6,2.59a2.22,2.22,0,0,0,.17-.94A2.22,2.22,0,0,1,516.85,355.35Z"/><path class="cls-2" d="M230.87,890.71c-2-1.15-1.8,1.57-2.71,2.47a2.93,2.93,0,0,0-1.15,2.19c1.33.63,2.86,1.21,3.11-.94C230.28,893.08,232,891.34,230.87,890.71Z"/><path class="cls-2" d="M372,731.13c-1.15-.5-2-.92-2.84-1.22-.57-.19-1.4.39-1.09.67,1.8,1.64-.08,3.3-.05,5.16C370.3,734.68,370.06,732.17,372,731.13Z"/><path class="cls-2" d="M471,69.23c-1.15,2.43-2.26,4.77-3.36,7.11C471.63,71.13,471.63,71.13,471,69.23Z"/><path class="cls-2" d="M491.12,81.66c-1.78,2.9-1.39,5.67-2.65,7.93-.8,2-.41,3.87.2,6.34a6.88,6.88,0,0,0,.51-4.34A17.42,17.42,0,0,0,491.12,81.66Z"/><path class="cls-2" d="M427.35,751.83c.11,3.12-3,3.81-4.07,6.06C426.88,757.31,427.48,756.49,427.35,751.83Z"/><path class="cls-2" d="M423.28,757.89h-.07a.09.09,0,0,1,0,.05h.05l0,0,0,0Z"/><path class="cls-2" d="M446.59,538.36c-3.21,1.72-2.23,4.76-2.4,7.44C446.22,543.71,445.58,540.77,446.59,538.36Z"/><path class="cls-2" d="M444.19,545.87v-.07l0,0Z"/><path class="cls-2" d="M403,776.93l0,0,0,.07Z"/><path class="cls-2" d="M397.45,784.43c1.91-2.42,4.54-4.31,5.46-7.47C399.55,778.3,399,781.71,397.45,784.43Z"/><path class="cls-2" d="M321.89,690.49c-3.54.53-6.92,1.45-9.77,3.78Z"/><path class="cls-2" d="M314.83,857.34c1,2.9,3.59,3,5.92,4.46C319.65,858.63,317.39,858,314.83,857.34Z"/><path class="cls-2" d="M312,853.5s0,0,0,0l.06,0Z"/><path class="cls-2" d="M312,853.55l-4.21,1.11c1.78,1.38,3.17,3,5.45,1.68C313,855.22,311.43,854.84,312,853.55Z"/><path class="cls-2" d="M235.21,880.05c3.29-3.65,3.35-3.86,2.21-7.81A39.88,39.88,0,0,1,235.21,880.05Z"/><path class="cls-2" d="M500.67,40.18c-.19-2.45,1.37-4.67,1.49-7.81C499.87,35.22,499.57,37.61,500.67,40.18Z"/><path class="cls-2" d="M474.64,507.45c-1.62,3.09-2,6.71-4.17,9.58a1.17,1.17,0,0,0,.72,1.82c1,.19,1.56-.56,1.72-1.5.21-1.24-.43-3.07.86-3.58,2.82-1.11,3-3.59,3.75-5.85a1.7,1.7,0,0,0,.75-1.95l0,.09-.06-2.14C477.1,505.16,474,504.35,474.64,507.45Z"/><path class="cls-2" d="M436.43,484.29a1,1,0,0,0,1-1.07,29.08,29.08,0,0,1,3.73-12.09c.79-1.52,1.44-3.12,2.16-4.69l4.83-8.24a4.85,4.85,0,0,0,1.29-2.51,9.24,9.24,0,0,0,2.54-5.55l0-.24a.81.81,0,0,0,.54-.94c2.26-1.83,1.46-4.78,2.58-7.08a63,63,0,0,1,8.81-12.73c.55-.66.85-1.21.19-2-.82-1-1.48-.57-2.15.14s-1.37,1.32-2,2.05c-3.87,4.64-6.1,10.21-8.18,15.74-1.16,3.11-3.31,5.78-3.8,9.14h0c-3,3.69-3.72,8.76-7.09,12.27-3.66,5.36-4.63,11.58-5.66,17.78.25,2.23-1.36,4.14-1.37,6.69C437.17,489.34,436.05,486.55,436.43,484.29Z"/><path class="cls-2" d="M43.27,1011.52c-.48,1-1.66,1.83-.82,3.1.32.49,0,1.38,1.15,1.51.11-.69.17-1.39.34-2.07.24-.89,1-1.75.2-2.68A1,1,0,0,0,43.27,1011.52Z"/><path class="cls-2" d="M87.52,928.84c1.38-1.33,3.14-2,3.3-4.28C88.19,925.84,88.16,925.89,87.52,928.84Z"/><path class="cls-2" d="M353.41,884.46c-.17,1.39,1.6,1.69,2.12,3.2.39-1.68.68-2.87,1-4.07C355.41,884.27,353.6,883,353.41,884.46Z"/><path class="cls-2" d="M446.62,169.82c.73-1.78,1.74-3.48,1.48-5.52C446,165.69,446,167.67,446.62,169.82Z"/><path class="cls-2" d="M413.2,765.12A12.91,12.91,0,0,1,418,762C414,761.71,413.25,762.18,413.2,765.12Z"/><path class="cls-2" d="M237.31,713.63a4.63,4.63,0,0,0,2.56-5.36C238.88,710.33,238.1,712,237.31,713.63Z"/><path class="cls-2" d="M349.58,893.79c.68-1.19.39-2.47.17-4.42-1.36,1.53-2,2.67-1.26,4.1A1.5,1.5,0,0,0,349.58,893.79Z"/><path class="cls-2" d="M350.05,214a3.53,3.53,0,0,0,1.93-1.47c2.41-3.3,3.12-7,3.21-10.95-2.28-.64-3.66.94-5.19,2.13-.08-.07-.15-.19-.24-.2a.32.32,0,0,0-.27.14c-.17.6-.31,1.21-.46,1.81l.27,9.38Z"/><path class="cls-2" d="M475.11,425.21l-3,4.93c-2.19,2.95-2.55,6.64-4,9.9-.41.93-.36,1.8.8,1.95s.64-1,.88-1.55c1.09-2.55,2.32-5,3.49-7.56.38-.5.76-1,1.15-1.51l.54-1.32h0c.73-.23.55-.9.68-1.42v-.2c1.53-.83,2.62-1.88,1.89-3.82l-1.09-.43Z"/><path class="cls-2" d="M394.74,788.76c-.54,2.09-2.31,3.41-1,5.41C393.89,792.44,395.65,791.08,394.74,788.76Z"/><path class="cls-2" d="M45.81,1004.64c2.25-1.06.16-3.29,1.49-4.6A5.33,5.33,0,0,0,45.81,1004.64Z"/><path class="cls-2" d="M45.82,1004.71a.15.15,0,0,0,0-.07l0,0Z"/><path class="cls-2" d="M184.79,744.39c2-.83,3.21-1.27,3.59-2.78C186.83,741.59,186.14,742.72,184.79,744.39Z"/><path class="cls-2" d="M420.77,760.12A2.43,2.43,0,0,0,423.2,758,2.58,2.58,0,0,0,420.77,760.12Z"/><path class="cls-2" d="M206.73,723.18c1-.73,2.31-1.26,1.59-3.23C207.71,721.16,206.62,721.84,206.73,723.18Z"/><path class="cls-2" d="M222.39,738.33c-1,.09-1.46.58-1.09,1.64.12.35.4.6.7.37C222.7,739.81,222.34,739,222.39,738.33Z"/><path class="cls-2" d="M205,725.62c1.91-.14,1.6-1.36,1.68-2.33A3.12,3.12,0,0,0,205,725.62Z"/><path class="cls-2" d="M206.68,723.29l0,0,0,0,0,0v-.07l0,0Z"/><path class="cls-2" d="M224.33,735.67c-1.29.7-1.45,1.73-1.87,2.58C223.64,737.93,224.05,737.06,224.33,735.67Z"/><path class="cls-2" d="M222.46,738.25l-.07,0,0,0,0,0v.05h0Z"/><path class="cls-2" d="M427.16,763.82c-1.63,0-2.5,2.73-3.79,1.87-2-1.35-3.15.11-4.6.59a48.8,48.8,0,0,0-14.45,7.6,3,3,0,0,0-1.34,3c4.45-4.05,9.88-6.47,15.15-9.19,1.55-.8,3.83-1.26,4.54-.32,2.05,2.74,2.48.17,3-.75s1.72-1.45,1.49-2.73v0c1.87-.12,1.08-1.3,1.4-2.6A3.07,3.07,0,0,0,427.16,763.82Z"/><path class="cls-2" d="M188.44,741.54a2.9,2.9,0,0,0,1.46-1.77C188.8,740.08,188.39,740.65,188.44,741.54Z"/><path class="cls-2" d="M188.39,741.57s0,0,0,0h.06s0,0,0-.07l-.05,0Z"/><path class="cls-2" d="M383.76,908.41c-1,4.22-4.11,6.35-7.78,7.82-2.49,1-4.91,2.23-6,4.65-2.28,5-4.66,10-2.51,16,1.55,4.39,5,6.87,9.75,5.26-.34-.95-1.28-.61-1.93-.91-3-1.35-6.89-1.67-6.83-6.25a31,31,0,0,1,.49-7c.71-3,1.35-6.27,3.9-8.15a20,20,0,0,1,7.48-3.36c1.79-.38,2.15-1.47,2.88-2.56,1.6-2.39,1.43-5.49,3.15-7.83h-2.1c.08.48.16,1,.23,1.43C383.74,907.4,383.52,907.72,383.76,908.41Z"/><path class="cls-2" d="M379.48,861.46a2.7,2.7,0,0,0-.65.52s.19.28.3.43l.77-.58C379.72,861.67,379.53,861.44,379.48,861.46Z"/><path class="cls-2" d="M312,853.5l0,0a.2.2,0,0,0,0-.07Z"/><path class="cls-2" d="M312.46,852.49a.82.82,0,0,0-.4,1l.81-.8C312.73,852.6,312.55,852.45,312.46,852.49Z"/><path class="cls-2" d="M385.4,858c0,.11.16.43.19.42a1.28,1.28,0,0,0,1-1C386.06,857.34,385.61,857.41,385.4,858Z"/><path class="cls-2" d="M386.58,857.44h.05a.14.14,0,0,0,0-.06h0Z"/><path class="cls-3" d="M543.63,477.23l-1.35.26"/><path class="cls-2" d="M357.42,882.63c.08,0,.2-.09.22-.16a.67.67,0,0,0,0-.31,1.81,1.81,0,0,0-.32.22S357.37,882.54,357.42,882.63Z"/><path class="cls-2" d="M468.65,394.66c2.18-2.37,1.76-5.25,1.62-8.08.23-.95.85-2,.62-2.81-1.17-4.26.26-8.12,1.51-12,.53-.29.53-.73.32-1.22l-.3-3.95c1.09-2,0-3.62-.8-5.32-.34-2.3,1.1-5.13-2-6.6-.25-1.37-.54-2.73-.72-4.11-.12-.88-.06-2-1.21-2a1.79,1.79,0,0,0-1.91,1.81c-.06,2.33-.43,4.73,1.27,6.74,1.05,2.34.59,4.88.92,7.33a58.59,58.59,0,0,1,.14,10,10.14,10.14,0,0,0-1,3.33c-.15,2.79-2.35,5.4-.82,8.32a12.49,12.49,0,0,0,3,.51,12.49,12.49,0,0,1-3-.51c-.37,1.46-3.2,3.05.31,4.32.65.23.11,1-.16,1.63-.84,2-2.53,3.62-2.37,6-2,4.68-6.32,8-7.46,13.14-.22,1-2.42,1.83-.82,2.85,1.07.67,1.6-1.43,2.64-2,.61-.32.65-1,.83-1.68a10.63,10.63,0,0,1,2.65-4.39,25.79,25.79,0,0,0,5.89-10h0C468.64,396,468.45,395.17,468.65,394.66Z"/><path class="cls-2" d="M251.87,848.24c.23,0,.64,0,.29-.44Z"/><path class="cls-3" d="M446,493.42l-.65.66"/><path class="cls-2" d="M512.88,481.08l0,0-.11.24Z"/><path class="cls-2" d="M450,426.74l0,0,.08-.27Z"/><path class="cls-3" d="M561.83,437.25l-.63-.63"/><path class="cls-3" d="M455.05,317.49c-.1.2-.2.39-.31.58"/><polygon class="cls-2" points="88.98 808.96 88.95 808.99 89.09 809.13 88.98 808.96"/><path class="cls-3" d="M456.63,529.5h0"/><path class="cls-3" d="M455.91,530.2l.7-.69"/><path class="cls-3" d="M519.4,535.43l-.48.57"/><polygon class="cls-2" points="444.19 545.87 444.16 545.84 444.04 546.01 444.19 545.87"/><path class="cls-3" d="M481.77,760.51c.11-.2.23-.4.34-.61"/><path class="cls-3" d="M482.11,759.9l0,0"/><path class="cls-3" d="M37.34,636.16l.5.57"/><path class="cls-3" d="M276,716h0"/><path class="cls-3" d="M275.37,716.67,276,716"/><path class="cls-3" d="M275.37,716.67h0"/><path class="cls-2" d="M45.82,1004.71l0-.05,0,.06Z"/><path class="cls-2" d="M45.49,1005.18l.26-.46C45.49,1004.76,45.12,1004.71,45.49,1005.18Z"/><path class="cls-2" d="M363.37,700.9c.06-.06.16-.12.17-.19a.71.71,0,0,0,.78-.77c0-1-2-2-2.55-2s-1.45,1-1.45,1l2.9,1.75C363.21,700.75,363.31,700.83,363.37,700.9Z"/><path class="cls-3" d="M484.72,690.5l.68.69"/><path class="cls-2" d="M53.67,596.3c-.68-2.1-1.87-1.16-3-.48C47,598,45.87,602,45,605.61c-.42,1.77-2.85,2.92-1.61,5.11-.09.43-.17.85-.25,1.28a.6.6,0,0,0-.07.52c-1,3.48-3.12,4.56-5.14,2.7-.4-.78.59-2.16-.9-2.43s-1.7,1-2.18,1.94c-1.1,2.2-.88,4.42-.62,7.15,1.63-1.71.21-3.66,1.51-4.89l.59.49c-.34,5.83-3.54,10.53-5.78,16-.75-1.43,0-2.61-.83-3.52-1.59,4.58-4.58,8.26-7.44,12a6.29,6.29,0,0,1-2.76-.18c-1-.1-2-.07-1.76,1.4-.64.38-1.54.6-1.87,1.16a10.82,10.82,0,0,1-5.28,4.47,6.66,6.66,0,0,0-2.41,10l-.6.45c-.9.44-.63,1.27-.68,2-.67,9.11,2.1,18.14.53,27.25-.19,1.12.58,1.78,1.06,2.59l.09,0-.09,0A3.82,3.82,0,0,1,5.71,691l-.32-6.31-.57.06-.57,3.52c-2.89-2.23-.73-5.5-2.24-8-.79,3.72-3.73,6.9-.6,10.39-1,1.81-1,1.79,1,2.27a1.07,1.07,0,0,1,.61.67C3.73,695.9,4,699,7.67,696c.46-.37.57.77,1,1,1.88.84,3.75,1.42,5.33-.58a2.17,2.17,0,0,0,2.13.68c1.13,1.08,2.07.46,3.18-.18,1.71-1,1.87-2.85,2.73-4.29,1.9-3.18-1.56-3.74-2.84-5.29-1.66-2-1.86.7-2.81,1a4.29,4.29,0,0,1,.5-2.8c2.44-3.38,1.53-6.95.21-10.41-.18-.48-.46-1.74-1.74-1.47-.5,3.47.88,7.45-2.66,10.58-.72-3,0-5.47-.18-8-.39-5.47-.2-11-.11-16.51a10,10,0,0,1,3.23-6.31c.08-.07.19-.15.22-.24,1-3.62,4.21-4.13,7.17-4.94-.22,2.27-2.52,2.67-3.67,4.11-.78,1-2.16,1.55-2.16,3,0,.92-.28,2.23.84,2.46.66.14,1.36-.79,1.48-1.81a2.31,2.31,0,0,1,1.66-2.16c3.39-.93,3.23-3.83,3.62-6.44h0c.28-.93.55-1.87.82-2.8h0c.69-.47,1.43-.93.66-1.91l3.54-2.23c.63,3.31,2.09,3.87,4.49,1.73a9.65,9.65,0,0,0,3.51-5.54l-.5-.57h0c.64-3.76,1.49-7.43,4.11-10.41,1-3,2.36-5.81,3.38-8.79.83-2.42,1.29-5,2.59-7.38.9-1.64,2-1,2.92-1.39,1.49-.59,1.15,1,1.42,1.79a4.19,4.19,0,0,0,2.64,2.57c.36-5.65,2.64-11.08-.73-16.24Zm-31.23,47a5.32,5.32,0,0,0-.69,0A5.32,5.32,0,0,1,22.44,643.33Zm29.19-44.2h0c-.05-.45,0-1-.52-1.08C51.61,598.14,51.58,598.68,51.63,599.13Z"/><path class="cls-2" d="M300.75,700.7a23.91,23.91,0,0,0-2.81,2.27l12.38-5s-5.26,1.49-7,2A16.92,16.92,0,0,0,300.75,700.7Z"/></g></g></svg>