<svg xmlns="http://www.w3.org/2000/svg" viewBox="0 0 1247.39 998.86"><MetaInfo xmlns="http://www.prognoz.ru"><Geo><GeoItem X="0" Y="998.86" Latitude="40.835941568613384" Longitude="-73.77089471454812"/><GeoItem X="1247.39" Y="0" Latitude="42.04409554418611" Longitude="-71.79399435007319"/></Geo></MetaInfo><polygon stroke="black" fill="purple" points="904.000,635.860 906.000,637.150 904.000,635.860" /><polygon stroke="black" fill="purple" points="908.860,640.130 906.860,638.630 908.860,640.130" /><polygon stroke="black" fill="purple" points="916.220,641.110 915.640,640.840 916.220,641.110" /><polygon stroke="black" fill="purple" points="1246.550,307.820 1246.170,296.230 1245.060,292.960 1242.590,287.960 1241.530,286.300 1236.240,284.880 1227.670,284.640 1224.810,284.250 1220.440,275.570 1222.440,272.160 1236.270,269.160 1241.360,267.830 1242.220,263.250 1242.600,261.520 1240.870,260.050 1238.060,261.250 1231.520,266.600 1226.080,269.370 1222.840,267.370 1217.460,266.560 1215.000,266.720 1208.840,267.230 1208.530,268.780 1209.910,278.210 1212.130,283.970 1212.810,286.450 1215.740,289.980 1221.860,296.620 1224.240,302.140 1231.610,300.590 1234.890,303.520 1244.180,310.710 1244.860,312.710 1244.860,337.060 1247.420,340.060 1247.420,310.610 1246.550,307.820" /><polygon stroke="black" fill="purple" points="1203.650,600.360 1203.360,595.550 1197.580,592.760 1196.110,591.920 1192.920,588.240 1192.390,585.630 1188.340,584.630 1183.280,589.630 1177.570,588.360 1177.000,586.670 1171.390,581.490 1165.060,585.610 1163.740,591.230 1161.800,592.510 1156.450,589.430 1155.380,585.760 1155.040,584.560 1154.150,584.380 1150.000,581.080 1149.830,573.510 1149.830,565.180 1146.050,556.930 1144.050,555.220 1136.740,557.490 1134.800,563.880 1134.380,570.000 1133.380,578.150 1125.710,593.030 1125.160,593.700 1122.930,601.850 1121.600,605.750 1119.160,605.860 1115.230,601.700 1110.670,600.500 1106.370,599.270 1105.230,595.970 1103.290,586.500 1103.550,584.300 1101.040,581.100 1099.670,578.040 1102.360,574.640 1099.540,571.840 1094.400,568.740 1092.700,568.300 1086.200,574.140 1085.620,577.000 1084.760,581.830 1084.490,584.410 1082.800,590.350 1075.990,594.890 1076.600,600.560 1077.830,604.810 1075.670,607.050 1067.980,600.860 1066.040,592.670 1065.040,581.530 1065.040,580.200 1061.270,557.510 1058.820,544.280 1058.820,542.520 1058.720,536.740 1058.890,534.120 1063.720,521.690 1064.320,521.070 1063.480,514.910 1061.190,513.540 1061.840,509.700 1063.560,509.330 1068.000,505.110 1070.360,501.580 1075.890,491.890 1075.890,487.890 1078.970,479.730 1083.670,472.890 1090.670,473.020 1092.080,477.690 1094.210,481.470 1096.810,482.210 1096.040,480.000 1095.380,477.930 1095.970,469.060 1094.970,462.980 1092.840,466.470 1090.270,457.150 1089.270,465.010 1087.480,466.520 1086.640,464.680 1086.540,457.530 1085.540,456.310 1084.260,457.230 1080.130,464.660 1074.470,466.130 1071.310,463.800 1069.090,462.880 1065.090,463.300 1062.170,464.920 1063.500,468.350 1065.800,478.820 1064.250,481.870 1067.430,483.040 1066.670,491.600 1059.220,502.460 1055.110,504.210 1054.010,500.540 1052.010,494.430 1049.870,492.360 1048.680,493.570 1047.390,495.370 1047.190,500.230 1048.950,504.900 1048.200,513.740 1052.510,521.440 1054.120,525.060 1052.590,536.660 1050.800,538.460 1048.590,538.240 1044.360,538.390 1044.710,541.980 1046.360,543.660 1046.430,543.720 1049.760,546.790 1050.030,547.340 1051.910,549.930 1052.680,553.620 1053.400,554.690 1054.000,556.280 1055.090,562.140 1057.720,573.260 1055.470,584.920 1055.340,585.170 1054.970,585.310 1055.330,585.470 1056.330,590.960 1056.750,600.040 1058.750,606.290 1058.270,609.980 1056.620,611.770 1056.350,612.050 1052.410,614.200 1052.300,615.280 1051.790,617.110 1049.790,619.630 1049.100,619.960 1045.830,622.470 1043.450,624.770 1043.450,624.770 1040.060,624.900 1029.370,624.540 1029.100,624.230 1026.780,622.350 1026.780,622.350 1024.580,616.090 1025.020,600.500 1026.810,595.970 1029.370,594.970 1039.570,599.970 1045.220,599.690 1045.120,595.960 1041.610,594.050 1032.900,584.570 1031.960,583.100 1031.960,581.160 1032.250,578.850 1029.760,578.670 1026.360,579.720 1022.070,590.460 1023.410,596.020 1021.160,604.440 1020.530,605.590 1018.800,608.130 1017.630,608.710 1017.340,608.640 1017.250,608.950 1015.010,611.430 1013.550,613.530 1013.410,613.710 1010.670,614.910 1008.750,609.410 1009.840,599.410 1010.410,598.290 1010.410,594.670 1005.770,589.520 1005.510,592.940 1003.720,597.120 1003.720,602.810 999.890,602.810 998.890,600.960 997.240,599.300 995.100,598.300 994.950,598.020 994.780,598.330 991.780,600.730 990.280,602.790 986.520,606.470 985.520,607.160 984.690,607.500 983.750,608.060 982.900,608.390 981.960,608.950 981.120,609.320 980.490,609.900 977.490,615.700 976.140,617.930 975.210,620.700 974.320,622.400 972.250,624.400 971.450,624.500 969.990,624.340 965.990,622.490 966.990,619.920 967.900,614.350 969.040,608.140 968.610,606.390 968.460,603.680 964.530,602.800 961.770,611.490 961.640,623.060 958.420,624.310 957.930,624.730 957.570,624.730 957.440,625.070 956.220,626.230 955.850,626.350 955.850,626.730 955.360,631.470 953.700,633.940 948.120,636.730 942.950,635.730 933.950,634.980 931.950,636.520 930.550,638.520 930.180,639.210 928.680,640.750 926.680,640.410 924.030,639.490 921.630,626.030 919.770,629.340 918.020,629.870 912.080,629.450 910.470,620.590 907.550,616.390 905.040,615.260 906.380,611.720 910.090,610.530 913.790,607.370 917.590,603.500 919.960,602.330 921.960,597.330 917.830,595.580 913.000,594.400 907.730,595.470 904.820,600.930 904.090,606.770 903.420,611.380 899.790,617.920 899.680,618.060 898.680,618.830 899.550,624.010 901.070,629.330 901.620,631.270 902.370,634.030 903.190,635.180 903.430,635.800 903.940,635.860 903.430,635.800 905.960,639.800 905.860,644.920 905.230,646.510 904.950,647.100 900.620,650.860 901.020,651.440 900.620,650.860 899.460,650.060 898.810,649.320 898.020,648.240 897.380,647.240 889.980,648.530 885.400,649.200 883.730,649.580 881.550,649.250 880.870,647.420 882.760,643.040 888.840,641.720 892.710,641.580 895.350,641.000 894.350,637.830 892.930,636.710 889.580,636.550 889.010,636.800 885.110,636.130 887.940,631.990 891.210,628.530 891.960,623.280 892.100,620.590 892.100,618.720 892.530,618.500 894.270,613.500 893.740,611.700 893.140,608.480 890.140,608.220 886.260,614.640 884.560,615.510 882.620,615.420 880.410,615.990 880.010,616.070 878.440,620.070 879.280,622.480 873.730,627.550 871.250,626.750 864.020,626.930 862.020,627.280 861.660,627.570 862.020,627.280 860.370,627.790 859.370,627.790 855.670,627.710 854.670,631.140 857.860,632.060 863.270,632.160 857.170,636.090 850.930,637.390 846.840,640.280 846.940,642.050 845.010,643.810 836.010,638.460 832.700,637.530 830.010,639.110 819.660,640.600 808.830,637.110 804.890,638.410 802.580,638.840 799.750,638.410 802.000,642.570 802.000,645.040 799.900,645.320 789.560,637.630 784.390,637.340 783.190,639.220 777.190,638.790 776.060,636.370 774.290,635.290 766.770,635.120 761.430,640.430 757.520,647.490 752.520,647.420 751.520,642.420 753.750,638.620 756.830,636.060 757.270,633.760 755.270,633.630 747.000,640.120 745.540,641.590 738.800,642.900 734.140,637.790 733.650,634.910 730.790,630.960 722.480,631.830 722.290,632.240 716.520,634.080 714.370,632.490 707.680,633.300 705.920,638.680 704.120,641.920 700.120,640.660 697.560,636.510 684.560,633.510 681.760,634.710 672.710,637.970 676.290,641.430 681.050,648.090 682.550,651.260 685.550,655.150 685.070,659.010 681.680,665.230 674.680,668.310 674.330,666.820 674.660,660.030 672.390,658.030 666.000,656.560 662.090,656.450 658.610,657.130 646.450,656.810 644.450,655.970 640.550,652.970 636.670,652.680 623.500,655.680 618.940,657.030 606.740,667.320 599.020,667.930 596.170,667.490 585.700,665.250 576.300,665.190 574.510,667.190 571.000,665.990 571.330,659.800 566.640,641.670 564.710,638.280 562.440,630.680 561.210,629.680 557.040,635.740 558.250,639.980 551.790,654.250 549.300,644.530 550.790,639.650 554.790,626.650 556.350,622.480 564.040,615.180 567.330,611.180 570.030,599.180 576.310,590.180 577.060,585.120 577.440,581.570 579.050,578.040 580.520,576.710 585.230,573.640 585.170,567.220 586.710,558.070 588.640,557.410 590.370,556.770 589.580,555.380 589.380,548.900 589.720,547.310 590.480,539.390 591.480,535.980 594.480,526.330 593.880,521.330 592.220,515.330 593.060,505.170 594.150,502.810 597.150,496.120 598.270,494.290 600.440,489.870 603.260,484.690 607.550,476.490 607.730,471.590 606.560,465.450 607.070,463.050 608.070,461.100 605.840,460.100 602.140,454.320 602.820,449.140 602.320,448.540 599.030,449.640 597.200,446.640 592.330,441.640 588.330,444.480 590.820,451.680 595.240,466.490 592.920,473.150 588.670,483.320 589.500,487.210 586.300,494.420 585.130,496.420 584.620,498.990 580.300,509.610 575.600,518.070 573.600,529.280 571.920,536.720 569.240,541.720 566.450,546.500 565.340,548.750 561.800,555.080 555.800,563.770 553.920,584.440 551.920,588.310 547.770,596.930 550.380,605.030 550.290,607.830 547.130,607.630 544.130,601.790 542.980,589.520 543.270,586.900 541.200,580.810 538.870,579.500 536.870,576.880 535.300,574.460 532.560,576.280 526.980,577.100 521.650,577.100 516.340,580.220 512.020,585.330 510.960,596.330 507.050,600.690 503.810,603.010 506.570,620.790 510.120,626.960 510.990,629.840 512.300,640.970 512.650,643.140 515.350,651.280 514.780,661.460 512.430,662.610 507.790,665.760 501.480,676.340 495.620,678.980 492.120,674.980 488.800,672.110 478.220,678.760 469.850,682.810 466.680,680.420 462.560,679.700 453.990,683.060 451.880,683.360 447.160,686.820 437.360,705.270 435.700,707.360 433.260,707.640 432.560,705.690 433.620,701.350 432.990,699.350 430.570,699.710 426.720,703.440 420.380,706.350 416.320,702.640 414.470,696.450 409.470,696.240 406.090,699.680 404.010,703.950 402.810,707.950 398.350,716.000 396.920,718.540 392.330,721.950 387.780,720.950 382.660,719.140 377.410,719.300 367.940,709.880 361.460,709.110 359.190,712.940 360.710,721.400 360.420,729.890 355.980,731.890 344.580,731.990 339.090,734.420 332.710,741.850 324.300,753.160 317.630,753.770 313.630,749.550 312.140,752.000 310.560,760.700 309.610,762.950 304.240,762.270 301.500,761.000 295.350,767.790 282.700,777.420 273.230,775.790 266.650,777.250 265.250,779.880 264.920,782.510 263.010,784.170 261.600,782.770 255.380,779.770 250.540,779.080 247.230,780.200 244.050,782.100 241.150,784.270 235.680,794.270 231.920,795.180 224.440,796.910 221.440,803.780 218.820,806.280 214.390,811.040 209.650,820.870 205.220,822.500 203.450,820.500 201.450,820.090 200.040,822.310 191.040,826.880 180.680,827.550 171.270,827.270 164.790,833.710 160.570,842.100 157.340,843.550 154.270,846.460 149.450,850.590 146.980,849.410 140.820,851.270 139.040,853.790 130.330,861.680 122.330,872.250 120.010,874.590 115.590,875.030 109.930,877.030 104.550,878.740 98.400,879.090 94.170,888.790 86.780,891.790 77.440,894.690 72.740,899.480 65.150,908.770 60.150,911.640 57.000,914.000 56.540,915.630 58.460,916.190 66.860,912.190 71.420,910.780 73.950,912.040 71.880,914.410 68.250,916.580 62.610,920.700 57.430,922.030 49.150,927.680 48.960,934.950 48.330,937.330 46.210,937.030 41.790,930.290 39.880,927.610 36.480,929.120 35.420,932.910 35.670,936.470 30.910,941.320 24.850,944.320 22.460,947.000 22.530,952.890 29.000,958.180 29.730,968.180 27.350,968.580 22.350,969.690 11.980,972.920 7.450,973.920 3.830,979.920 0.000,995.720 1.820,998.580 8.680,993.180 19.300,983.720 28.430,977.800 32.860,975.380 36.600,976.740 41.920,980.880 54.400,991.300 58.700,992.300 66.790,983.300 67.210,981.120 70.890,966.900 75.950,960.390 80.190,954.390 80.490,952.190 84.320,950.400 95.050,952.830 104.050,947.390 108.410,943.980 114.610,941.580 120.760,938.960 126.760,941.180 132.090,944.630 139.090,945.630 147.800,943.330 157.580,945.120 169.160,948.120 170.750,944.360 169.100,939.360 169.240,928.840 170.900,924.890 177.330,914.890 184.620,912.150 188.000,915.000 190.890,917.670 194.890,921.590 200.050,924.200 203.920,923.200 207.270,924.790 211.520,930.880 217.450,939.350 220.650,941.890 223.870,939.890 223.040,932.650 221.360,921.910 226.670,910.620 233.250,903.050 239.800,902.890 245.880,906.620 248.880,911.800 248.650,914.910 250.930,922.190 255.030,926.870 266.630,930.010 276.500,927.280 297.410,927.970 299.990,928.630 305.760,930.920 316.900,936.420 328.090,942.660 341.270,942.150 347.580,934.640 355.810,932.560 359.580,933.850 369.150,935.850 381.150,929.140 384.150,918.450 382.300,912.870 379.660,911.200 377.860,907.090 379.480,897.450 381.860,895.450 385.000,896.000 394.900,893.880 407.110,887.710 414.610,889.890 419.340,893.090 422.510,894.660 428.730,895.540 436.050,893.690 457.740,892.690 466.870,897.830 480.490,900.240 492.310,893.110 495.680,892.110 507.990,888.780 514.890,887.980 525.490,891.370 531.340,890.690 540.670,888.120 563.430,893.670 573.840,892.990 584.900,890.370 594.700,890.780 609.530,893.310 616.930,894.710 627.060,896.000 629.650,896.350 637.650,895.610 643.180,894.300 666.240,884.920 689.810,881.300 695.620,881.300 703.690,879.070 707.690,877.070 725.950,869.980 738.600,865.810 745.200,859.810 755.200,845.340 761.380,841.970 779.110,837.730 780.870,837.730 793.660,837.490 802.840,832.150 808.670,826.790 818.300,819.030 827.840,802.150 831.380,796.020 838.510,795.780 853.510,798.620 870.920,784.010 882.370,770.410 888.370,759.000 891.670,757.000 895.010,756.920 909.640,754.000 919.030,751.640 933.140,745.040 954.250,741.820 967.360,736.350 972.840,730.480 984.690,720.580 1000.420,716.390 1003.830,715.510 1018.240,713.510 1025.940,712.170 1036.130,705.060 1054.080,697.980 1065.930,691.490 1072.930,681.790 1073.750,680.260 1078.350,669.650 1082.290,665.650 1090.420,662.160 1097.930,652.220 1101.440,643.790 1105.790,643.790 1108.350,646.280 1118.590,645.170 1126.970,641.430 1134.040,637.160 1137.400,634.820 1146.570,633.320 1160.490,623.450 1164.490,623.400 1173.240,624.170 1175.240,622.580 1177.310,624.780 1186.970,630.780 1191.370,629.480 1196.460,628.020 1203.060,625.740 1207.060,610.140 1205.750,607.880 1203.650,600.360" /><polygon stroke="black" fill="purple" points="640.700,140.350 638.700,148.350 636.250,154.920 638.750,156.510 643.070,154.590 642.070,163.240 642.020,167.790 644.250,172.790 644.770,180.090 645.380,182.290 652.380,186.730 653.500,193.870 653.950,194.580 655.680,203.510 653.800,207.810 648.260,221.660 646.860,227.200 645.500,228.110 644.290,226.970 643.210,222.730 643.210,218.660 641.040,210.160 634.440,206.490 630.990,208.810 633.100,219.970 634.600,232.710 636.350,244.710 639.080,265.320 641.080,276.210 641.080,277.000 637.080,283.000 637.080,286.130 631.680,293.460 629.330,294.670 629.790,298.820 631.610,305.470 630.120,313.690 630.490,315.350 630.490,320.580 626.490,322.580 624.070,326.010 619.070,327.010 616.460,327.010 613.830,329.010 616.020,332.600 618.200,332.840 619.990,333.750 622.870,345.950 622.770,349.950 624.620,352.770 627.250,356.950 629.130,362.740 630.520,365.510 639.280,375.900 642.850,374.960 645.030,371.600 647.950,372.110 648.900,372.850 650.080,371.120 654.220,363.550 662.220,363.860 662.560,365.860 659.020,372.420 656.850,380.940 655.850,389.500 655.000,393.400 657.840,397.610 661.120,395.960 663.810,393.680 668.240,388.120 670.410,383.780 675.990,381.860 679.760,385.790 680.050,389.330 680.840,401.750 681.110,410.050 681.850,412.050 682.660,418.550 679.800,420.770 679.000,422.770 674.300,426.390 672.350,427.250 668.960,430.770 667.830,435.620 666.620,439.980 664.740,444.710 661.580,447.910 658.860,451.460 659.410,454.460 662.250,473.300 662.780,475.000 660.030,478.230 657.430,477.670 655.370,478.130 655.660,480.570 657.570,482.440 659.020,489.880 658.220,491.480 659.060,494.480 664.060,494.680 667.630,494.090 667.390,498.020 664.320,503.930 659.390,512.210 665.390,510.500 675.170,502.140 676.980,500.860 680.490,502.050 680.490,504.860 678.210,510.770 674.690,521.640 674.230,523.700 676.820,532.590 681.490,534.680 683.690,532.110 682.500,523.040 682.500,520.460 684.210,510.460 687.690,501.580 689.930,497.830 693.930,490.160 695.340,489.220 695.570,486.330 695.860,482.960 698.720,480.320 704.610,469.900 704.360,467.530 700.360,464.610 695.820,467.040 694.510,468.260 687.720,469.710 683.290,461.880 679.690,458.880 673.690,454.880 673.630,451.320 679.460,447.800 682.820,450.900 686.820,455.700 687.340,446.410 688.540,443.490 697.670,438.560 702.490,440.400 704.090,444.470 707.020,443.410 710.470,445.730 711.560,449.930 716.730,449.260 719.110,444.560 723.110,433.030 724.110,429.740 726.290,425.880 730.850,413.610 732.470,410.490 734.250,403.490 737.950,391.640 741.720,381.550 740.790,371.390 738.850,360.510 736.500,346.720 736.200,345.550 735.200,337.930 735.870,332.670 734.870,331.320 732.950,331.930 729.380,337.210 727.440,339.360 720.760,341.810 717.410,344.250 708.490,346.860 707.070,345.240 704.960,339.930 699.890,336.660 692.370,337.330 687.200,340.080 677.790,354.380 673.390,355.050 671.800,346.190 672.220,345.400 676.840,341.050 686.730,330.110 682.100,332.170 677.180,334.690 672.080,336.950 669.970,338.560 667.920,338.500 667.630,336.060 668.630,334.620 670.490,331.080 666.790,331.400 663.920,330.710 664.150,327.770 664.870,326.640 666.750,319.960 666.750,315.540 671.020,305.840 670.620,301.720 667.620,295.390 668.710,286.780 669.710,280.870 669.150,269.990 669.690,268.290 672.960,262.040 674.250,259.750 678.610,247.250 684.740,243.030 688.740,247.180 690.420,251.180 690.240,255.360 688.070,260.930 683.800,270.270 682.800,272.980 685.530,285.980 688.890,290.650 691.290,291.650 692.830,290.120 689.470,276.370 689.040,271.560 692.440,269.400 694.440,271.730 697.560,283.730 703.730,296.670 705.010,299.940 710.350,309.020 711.930,310.580 717.790,318.970 720.420,320.590 734.370,322.710 738.810,320.770 740.610,316.350 751.540,305.280 754.080,298.280 749.920,294.530 752.270,291.050 753.270,284.780 752.270,277.220 755.520,273.860 757.250,270.860 756.300,267.860 756.790,260.510 759.510,249.890 765.390,244.290 768.520,244.290 772.060,246.430 774.330,247.700 776.510,247.600 783.750,244.790 786.330,245.400 786.470,247.170 791.150,251.450 793.380,251.520 797.140,249.130 800.040,239.490 800.520,237.800 803.430,232.800 802.910,227.500 799.910,222.610 799.730,219.270 800.340,213.060 802.430,204.820 801.210,200.080 803.690,193.320 805.120,191.780 809.780,188.780 814.690,186.250 817.440,173.180 814.830,171.400 812.760,174.110 812.330,177.110 812.330,180.370 810.190,183.900 806.780,182.190 804.970,181.340 804.410,183.260 802.500,188.150 797.800,192.870 790.490,199.620 789.820,200.180 785.270,203.180 775.270,209.570 774.270,210.490 768.050,208.700 766.830,205.830 767.980,201.330 764.930,193.330 766.610,189.680 767.340,186.260 765.340,174.910 764.060,175.350 762.750,171.900 758.910,160.140 759.910,158.760 764.440,150.670 768.690,136.300 769.280,133.300 771.280,129.300 773.490,126.210 776.260,123.080 779.900,122.710 782.330,120.270 781.140,119.990 782.340,120.270 783.040,119.270 783.470,113.520 794.040,98.690 794.550,97.970 797.670,80.070 798.850,71.670 804.260,67.580 807.940,72.000 815.570,77.690 822.900,81.960 823.550,82.550 824.960,91.690 817.530,103.790 814.530,106.100 810.380,107.320 806.160,105.650 804.780,102.390 798.610,101.510 797.250,107.980 798.850,111.350 802.010,114.800 804.080,117.320 804.080,119.090 808.380,120.350 811.020,120.350 813.020,127.240 810.440,140.240 809.180,142.480 807.180,151.420 810.510,153.800 812.510,150.800 816.240,147.500 821.500,143.500 822.990,136.350 823.410,128.910 826.550,113.760 830.370,102.470 829.970,84.770 833.810,80.860 836.530,79.790 838.140,72.000 835.950,69.590 833.770,65.510 834.450,62.510 837.030,55.340 840.500,51.860 841.720,49.580 840.460,37.310 838.920,27.000 838.510,24.370 836.710,15.920 836.450,15.160 831.400,13.240 828.400,18.360 828.710,20.110 828.190,30.600 826.540,39.310 824.280,49.500 823.210,50.870 818.670,54.360 814.570,62.360 814.640,64.590 813.500,66.740 811.240,65.620 808.700,60.930 806.700,59.630 802.970,61.860 800.080,58.640 799.210,58.480 796.550,56.320 792.750,52.810 789.750,47.870 789.750,43.410 788.280,30.690 788.170,24.510 789.510,17.510 787.230,14.790 785.000,14.790 773.590,13.700 771.880,13.950 768.340,14.340 759.960,17.290 758.790,17.900 751.090,21.790 747.830,22.510 738.130,20.780 729.680,16.200 728.290,15.260 721.800,13.860 711.530,13.730 700.230,15.130 696.780,15.200 678.950,11.600 673.830,14.600 670.940,29.370 667.730,40.730 663.730,49.850 662.320,62.640 657.530,75.260 659.530,85.400 661.100,87.400 661.910,103.830 658.910,105.660 655.630,105.900 648.700,115.560 642.480,131.060 640.700,140.350" /><polygon stroke="black" fill="purple" points="532.790,429.730 536.360,428.730 542.270,426.090 547.270,424.670 550.200,425.670 550.330,423.570 553.940,420.970 556.610,420.110 558.560,419.760 559.250,421.760 555.630,428.330 551.030,428.670 550.340,429.390 553.620,437.560 556.780,437.800 560.280,436.340 571.280,436.820 573.990,433.520 572.370,427.180 568.170,423.110 568.800,419.210 568.980,416.280 568.070,405.400 576.650,390.450 585.160,384.130 584.840,379.550 582.110,375.890 580.880,374.890 576.880,372.480 573.810,375.240 570.440,375.790 569.660,372.600 571.310,366.600 571.120,362.830 570.230,362.950 566.570,362.700 567.060,359.120 567.490,357.120 567.490,344.450 570.380,342.040 574.610,340.190 578.610,337.970 581.360,335.460 581.960,330.660 582.650,315.730 583.370,314.160 585.190,308.060 585.240,300.520 585.810,292.620 586.960,284.760 590.320,277.030 595.920,270.760 598.430,266.760 599.490,259.280 600.550,250.920 601.870,239.550 601.250,231.550 602.250,224.550 604.590,206.620 604.830,203.550 607.830,189.550 607.310,187.210 605.310,187.520 602.910,194.290 601.140,198.750 597.260,201.750 586.410,203.440 583.200,205.170 579.060,211.810 585.320,219.760 585.320,221.540 579.110,230.360 575.050,234.660 573.050,238.980 573.050,240.270 572.650,246.920 567.830,245.750 562.690,242.910 560.260,240.490 557.430,225.970 556.290,224.800 554.920,226.170 554.850,232.860 551.730,243.970 551.140,245.160 554.260,248.630 558.260,249.400 561.010,250.810 566.320,256.050 571.020,259.550 574.500,262.690 572.180,269.900 570.640,272.740 569.410,278.020 566.900,287.960 568.820,296.120 566.480,299.060 563.820,300.520 556.880,306.050 554.990,308.740 551.990,311.740 550.050,314.460 554.710,319.390 556.810,321.190 557.420,325.110 557.770,338.160 557.870,338.580 557.640,345.580 556.810,348.100 558.960,351.960 562.770,357.230 558.110,367.480 556.700,371.410 554.890,380.480 550.270,381.750 548.940,375.330 549.400,370.050 548.930,362.050 546.680,359.500 543.330,363.030 542.440,365.920 537.640,360.920 536.470,353.760 532.470,362.860 532.120,369.520 530.590,381.430 532.010,394.310 531.110,419.990 529.920,426.110 529.660,428.300 532.790,429.730" /><polygon stroke="black" fill="purple" points="1227.000,424.190 1225.080,420.190 1225.080,405.280 1224.280,401.200 1220.370,403.300 1219.310,403.450 1215.200,396.330 1209.610,392.700 1203.450,393.220 1201.450,394.050 1199.350,398.200 1202.030,399.880 1203.920,405.620 1201.400,408.130 1196.110,406.870 1195.560,400.240 1191.690,397.960 1189.690,398.860 1187.860,402.090 1185.280,406.220 1180.700,404.340 1178.610,397.150 1174.550,383.560 1172.320,385.310 1170.740,385.200 1171.470,379.800 1173.310,371.580 1170.130,363.910 1167.400,357.390 1163.100,357.610 1161.790,362.750 1159.650,365.650 1155.070,363.970 1151.330,360.600 1148.330,355.600 1150.150,351.150 1151.740,349.040 1158.310,330.480 1166.790,318.280 1169.870,315.060 1169.310,312.300 1167.030,310.460 1166.440,302.540 1167.740,295.230 1161.470,291.740 1160.680,290.740 1157.490,290.600 1155.420,292.670 1150.340,292.230 1148.270,296.060 1146.560,298.810 1140.220,295.180 1137.060,295.800 1136.750,298.970 1137.620,301.920 1136.030,304.260 1133.960,302.920 1132.830,300.010 1130.570,298.270 1128.030,300.360 1128.690,307.780 1129.920,313.460 1132.320,318.970 1131.720,321.970 1131.390,326.360 1130.720,331.160 1127.050,335.160 1124.050,339.560 1124.120,349.480 1124.050,350.780 1120.500,362.170 1118.040,364.170 1116.040,370.580 1118.830,379.580 1118.830,381.790 1118.200,393.300 1119.610,400.160 1122.610,400.160 1123.740,398.250 1125.520,382.040 1128.810,374.440 1129.350,373.800 1133.900,369.300 1136.330,368.790 1145.200,369.660 1147.520,372.320 1145.960,374.440 1146.960,377.390 1149.790,379.550 1150.890,387.200 1154.980,391.940 1157.270,398.010 1160.330,403.310 1166.730,407.150 1166.730,412.390 1166.730,419.100 1168.900,417.190 1173.900,414.680 1175.900,408.780 1182.330,419.170 1182.660,416.570 1189.660,409.900 1200.180,419.770 1202.680,423.950 1206.510,433.290 1209.770,438.910 1212.590,443.730 1217.760,442.730 1219.760,440.510 1215.540,429.130 1211.690,418.010 1212.580,416.250 1214.130,416.910 1215.300,418.250 1219.370,423.830 1225.660,427.640 1227.660,426.590 1227.000,424.190" /><polygon stroke="black" fill="purple" points="188.220,542.850 193.970,546.650 197.190,550.330 203.810,557.520 209.490,564.840 215.750,570.940 220.120,574.680 222.180,574.730 225.180,569.490 225.500,564.740 224.060,554.740 215.900,547.590 210.290,541.480 205.860,537.370 203.540,535.240 201.240,530.450 201.240,527.720 203.320,528.930 209.260,534.100 215.670,539.680 217.260,540.110 225.660,545.910 229.010,554.910 229.540,556.120 232.660,556.890 235.250,555.710 239.480,554.030 242.980,553.150 248.290,563.930 249.400,565.430 249.710,565.130 250.010,561.620 253.290,559.180 254.100,559.540 258.820,557.840 257.820,553.950 255.140,547.370 252.220,540.310 250.570,541.500 249.180,545.600 250.070,550.780 249.290,552.630 247.470,551.690 245.400,541.880 249.710,537.280 250.110,537.070 249.910,534.710 247.120,531.230 240.000,517.940 238.450,514.190 238.380,500.950 238.270,491.140 233.560,478.710 229.560,471.510 229.180,457.830 229.180,455.620 227.560,444.300 227.510,437.240 229.510,422.240 229.510,419.720 226.870,408.670 225.150,402.670 220.890,399.720 217.660,401.420 215.890,402.760 213.830,411.040 213.900,414.480 213.840,417.960 214.700,430.070 215.470,435.200 218.540,444.270 219.620,456.580 220.880,463.680 222.440,477.780 223.440,484.780 225.890,490.250 228.570,493.670 229.670,502.490 227.250,506.290 226.250,507.510 223.250,513.580 218.180,516.810 217.820,517.060 213.900,519.690 211.100,515.690 207.250,515.410 199.980,520.040 197.810,521.190 197.560,532.340 197.980,536.560 194.670,540.160 190.140,538.760 186.750,537.600 186.750,541.090 188.220,542.850" /><polygon stroke="black" fill="purple" points="252.770,53.560 256.510,62.660 256.790,68.510 259.850,69.140 270.450,75.450 269.870,78.960 269.380,80.310 272.010,85.400 275.520,85.720 277.710,84.420 283.030,83.980 285.860,86.490 286.590,88.950 287.790,87.950 289.440,85.500 292.530,86.990 298.160,92.570 310.590,103.380 313.800,111.380 308.190,124.810 303.770,136.810 301.020,148.020 301.340,151.820 305.040,149.390 305.390,147.220 307.390,138.620 308.950,134.000 312.090,127.300 317.000,117.840 317.320,117.010 317.770,107.360 317.500,99.450 317.130,96.870 314.000,91.060 307.450,83.960 297.340,72.960 292.720,69.520 286.950,67.460 281.300,63.880 276.440,59.000 276.510,48.000 283.090,39.380 278.690,26.780 281.960,24.060 284.960,23.010 284.220,19.350 284.640,10.540 287.220,2.980 284.390,-0.020 271.450,-0.020 269.340,3.700 268.340,12.570 266.150,18.650 262.060,25.570 258.780,29.000 254.290,37.270 253.730,38.860 252.770,53.560" /><polygon stroke="black" fill="purple" points="598.300,91.840 599.530,95.510 602.530,94.030 607.370,85.030 609.620,84.030 610.320,85.960 615.640,94.380 617.330,96.380 617.450,102.810 616.450,110.810 618.250,125.040 616.800,127.710 616.390,130.480 617.390,135.610 619.600,143.230 621.710,143.860 626.350,136.410 626.690,134.680 628.280,122.140 630.990,115.790 635.540,115.710 638.000,114.400 638.090,111.620 634.660,105.230 634.880,100.080 637.590,91.560 638.470,89.560 639.100,85.030 640.100,81.310 642.100,78.490 642.270,66.490 641.350,65.270 640.120,66.360 639.770,71.670 636.200,78.350 633.530,82.590 629.110,87.980 626.290,86.200 625.290,76.140 625.000,63.060 624.900,56.430 624.300,49.520 626.080,42.590 608.900,45.000 603.130,47.460 601.130,47.610 600.000,47.800 598.000,52.680 599.630,55.680 600.250,63.040 599.970,68.980 602.720,77.810 602.810,79.510 598.300,91.840" /><polygon stroke="black" fill="purple" points="467.440,324.080 469.550,321.630 472.050,323.810 479.770,324.630 484.220,324.690 486.790,321.580 488.370,324.070 492.280,321.070 501.100,320.220 508.100,318.970 511.380,316.260 515.380,309.670 515.850,308.460 522.220,292.910 517.300,289.550 515.560,285.030 516.130,276.920 516.840,274.180 521.760,269.800 524.210,261.440 523.470,260.440 514.750,255.250 506.090,250.200 503.240,246.260 500.540,245.100 499.540,247.800 499.540,255.700 497.210,258.100 495.070,259.640 496.410,264.110 499.410,263.110 500.810,262.010 503.760,263.210 506.580,268.040 508.180,278.620 510.890,283.160 508.750,287.530 502.950,300.220 501.950,302.150 492.480,302.510 489.350,301.380 483.570,305.990 480.920,309.990 480.920,312.990 482.920,314.680 485.000,316.530 482.650,318.840 479.290,323.100 473.290,319.850 469.150,319.730 466.920,321.960 467.440,324.080" /><polygon stroke="black" fill="purple" points="306.000,13.890 308.170,25.550 306.100,27.870 305.650,32.420 309.900,33.900 321.730,34.420 323.210,35.330 327.700,38.220 339.130,38.580 346.710,39.350 350.710,42.840 350.250,46.170 345.830,50.170 343.350,57.290 347.000,63.780 349.660,64.990 356.160,72.530 356.970,74.020 359.790,73.860 359.790,71.190 358.950,64.710 359.330,63.470 360.600,54.860 361.300,53.330 363.530,46.460 363.190,40.270 363.530,37.130 361.130,33.190 359.040,33.080 358.620,34.690 358.860,35.550 353.660,39.920 347.850,36.740 337.030,33.430 335.800,33.880 328.380,32.880 324.710,24.880 327.660,7.880 325.460,5.500 319.850,12.740 320.370,14.440 318.190,17.440 315.410,16.930 308.130,8.630 295.910,1.100 294.600,1.040 293.660,3.650 306.000,13.890" /><polygon stroke="black" fill="purple" points="360.750,417.210 364.940,415.910 369.520,414.420 370.220,409.260 366.710,404.690 361.570,405.100 357.070,406.920 353.070,407.530 344.590,418.780 346.850,424.680 348.670,426.400 351.180,435.940 351.640,438.050 350.820,448.670 348.820,450.290 341.090,455.040 338.940,462.590 339.410,472.160 339.610,475.160 337.980,484.910 336.190,485.810 330.770,483.310 327.830,481.990 325.320,485.990 328.000,487.440 332.570,492.510 330.860,496.270 330.710,497.450 331.710,498.070 337.850,494.400 344.930,489.170 348.820,482.780 350.590,479.300 353.530,473.940 352.710,470.060 355.140,455.110 358.400,452.110 356.330,447.220 358.610,437.220 358.080,432.710 356.190,425.510 356.270,424.190 360.750,417.210" /><polygon stroke="black" fill="purple" points="306.820,576.300 314.500,576.540 319.040,574.890 321.670,579.050 325.870,579.050 329.990,577.190 331.750,576.190 334.380,571.290 333.970,569.810 331.220,567.580 326.460,567.020 321.460,565.930 320.160,564.750 317.160,558.390 321.070,546.660 323.620,544.320 325.290,545.320 326.590,543.420 328.460,545.980 328.680,538.180 326.840,533.910 324.170,529.040 321.430,527.040 319.320,527.680 316.420,524.880 317.800,514.090 314.540,511.880 307.330,520.940 305.800,525.050 303.070,535.140 303.970,536.480 306.020,537.310 308.880,542.220 309.600,543.710 313.320,548.710 312.930,551.870 310.640,551.190 308.700,549.380 306.180,549.330 305.930,551.720 309.040,557.720 303.740,559.580 302.140,560.760 303.140,562.130 307.350,571.860 306.820,576.300" /><polygon stroke="black" fill="purple" points="470.130,178.440 477.900,183.210 480.720,188.920 481.810,191.220 487.810,188.280 492.900,184.640 496.950,183.210 499.660,186.410 504.000,189.630 506.000,190.700 502.730,192.700 501.330,195.270 503.710,196.880 508.710,204.550 516.270,209.240 521.270,212.050 527.330,210.990 529.180,208.720 527.110,206.100 523.700,196.010 525.700,192.010 526.980,188.700 523.480,186.850 519.980,187.020 515.070,184.900 511.020,182.140 508.140,179.830 506.570,176.680 503.810,179.900 499.240,178.610 495.670,172.540 492.350,171.020 491.450,173.710 485.730,179.650 480.730,174.950 480.590,174.530 477.040,163.780 476.400,163.010 472.700,164.250 467.540,169.480 468.620,177.780 470.130,178.440" /><polygon stroke="black" fill="purple" points="360.520,258.840 357.310,257.330 356.240,254.480 354.100,255.680 352.910,255.390 349.080,250.880 348.130,247.460 346.710,246.590 345.580,247.790 345.290,250.410 343.690,260.300 343.970,261.940 346.040,265.370 345.280,271.750 344.160,274.750 344.680,282.630 339.680,285.740 340.250,291.740 339.910,295.610 337.840,299.110 336.050,302.600 339.380,304.810 342.840,303.990 349.130,302.420 351.380,300.280 350.380,296.090 349.590,292.420 350.140,287.240 351.510,283.870 353.040,286.460 355.340,287.130 357.660,280.330 358.820,276.760 360.930,280.020 363.930,282.510 372.200,280.810 373.770,279.520 372.820,277.650 370.450,271.590 370.680,268.040 368.820,266.170 365.050,263.250 362.410,259.170 360.520,258.840" /><polygon stroke="black" fill="purple" points="878.690,391.330 886.690,395.650 893.170,398.430 894.350,402.690 896.650,410.490 899.580,416.490 903.580,423.320 906.280,419.920 909.130,413.340 911.130,410.340 911.890,407.270 908.750,404.950 905.750,402.490 901.070,396.580 898.940,395.300 894.140,393.770 893.010,381.200 900.340,375.420 898.510,366.850 898.830,363.770 899.050,355.770 897.820,347.460 896.310,346.170 895.150,347.810 895.240,353.590 893.240,357.070 891.650,361.990 888.880,370.680 886.440,378.350 884.830,386.180 879.460,387.990 877.460,389.540 878.690,391.330" /><polygon stroke="black" fill="purple" points="421.170,175.000 426.430,173.750 428.290,169.310 430.770,163.670 445.000,129.440 450.890,113.500 451.690,110.180 455.980,88.840 461.000,71.000 459.570,67.830 455.990,69.930 455.670,72.540 452.670,84.480 446.530,101.980 444.840,104.280 439.150,101.200 438.000,98.350 436.540,97.580 435.330,99.240 441.330,107.780 443.450,108.460 445.190,112.120 444.440,114.210 441.070,123.780 437.280,137.860 437.060,140.480 432.620,149.850 425.450,157.330 423.540,158.230 419.910,158.230 419.910,158.340 424.300,158.340 426.180,160.630 420.630,170.550 421.170,175.000" /><polygon stroke="black" fill="purple" points="779.670,308.630 787.670,302.630 789.090,299.800 791.010,292.590 797.090,291.870 799.640,293.200 800.920,289.790 799.490,278.330 787.550,287.700 786.770,288.080 784.080,291.080 780.080,295.780 779.080,297.480 773.550,300.810 770.430,302.310 763.910,308.100 758.910,311.450 749.010,317.750 746.010,319.990 744.780,323.310 746.220,327.020 751.860,326.420 754.950,323.200 769.600,318.680 770.910,318.910 776.780,317.120 777.310,313.000 779.670,308.630" /><polygon stroke="black" fill="purple" points="1136.400,224.340 1138.920,231.920 1139.660,241.040 1141.820,249.730 1144.020,253.730 1146.130,258.220 1150.310,254.730 1153.210,235.660 1149.750,224.770 1150.490,220.420 1154.670,216.320 1156.040,218.540 1154.770,215.160 1145.590,214.060 1138.590,214.830 1136.360,215.950 1130.800,218.740 1136.400,224.340" /><polygon stroke="black" fill="purple" points="243.110,104.460 255.400,100.100 256.610,99.560 259.490,99.320 259.790,102.320 257.050,107.690 259.050,113.960 259.050,115.300 259.890,119.660 261.840,121.580 262.840,119.360 261.930,110.020 261.930,109.210 264.720,103.820 263.180,95.010 260.590,86.820 256.380,75.550 254.720,75.100 251.570,75.940 248.830,76.700 249.830,79.370 253.280,82.170 253.920,87.030 250.530,91.030 241.900,95.090 241.090,103.900 243.110,104.460" /><polygon stroke="black" fill="purple" points="148.000,549.920 155.510,549.260 160.440,550.350 169.710,557.100 173.250,564.540 171.690,569.210 185.830,570.410 187.600,564.920 187.530,561.650 189.070,556.960 186.390,552.580 183.800,551.500 177.750,551.830 174.350,550.950 169.560,549.120 148.100,543.310 144.740,547.250 148.000,549.920" /><polygon stroke="black" fill="purple" points="835.050,586.770 830.590,592.670 831.680,594.440 833.680,593.920 834.950,591.100 836.270,589.500 845.410,587.940 851.680,587.630 854.320,589.910 853.040,594.570 853.920,599.830 859.830,600.640 862.830,599.860 865.830,596.320 864.890,591.530 864.660,587.700 863.450,583.160 861.870,579.410 860.360,576.630 857.710,577.630 852.590,580.900 847.410,580.370 843.940,582.300 840.140,585.130 835.050,586.770" /><polygon stroke="black" fill="purple" points="789.360,261.090 789.970,259.090 787.970,258.370 776.900,261.530 770.800,269.370 767.490,274.220 763.980,279.900 764.300,282.000 767.120,283.070 774.940,279.160 783.070,275.620 784.220,270.990 784.980,265.530 789.360,261.090" /><polygon stroke="black" fill="purple" points="281.940,160.590 280.760,158.360 278.560,159.480 275.270,165.270 270.010,168.530 261.660,170.720 261.040,174.350 268.040,176.930 271.390,174.500 274.490,173.210 276.030,176.120 275.570,184.120 273.570,195.580 274.820,202.080 278.020,203.660 278.240,200.390 277.240,193.690 279.940,183.470 280.940,176.900 281.800,161.900 281.940,160.590" /><polygon stroke="black" fill="purple" points="827.190,597.430 818.280,595.310 817.530,594.850 815.530,594.950 815.060,596.950 817.510,599.340 821.690,604.160 825.690,607.040 831.390,600.550 827.190,597.430" /><polygon stroke="black" fill="purple" points="1230.360,383.250 1224.190,383.160 1223.190,382.970 1221.720,385.090 1222.840,387.980 1227.840,391.260 1231.140,388.450 1232.600,385.710 1232.370,383.620 1230.360,383.250" /><polygon stroke="black" fill="purple" points="981.820,609.000 982.760,608.440 981.820,609.000" /></svg>