<svg xmlns="http://www.w3.org/2000/svg" viewBox="0 0 404.82 1010.52"><polygon stroke="black" fill="purple" points="249.290,655.150 247.520,652.850 245.830,651.310 244.710,652.310 245.370,651.310 244.710,652.310 243.100,654.420 245.850,661.120 246.560,656.660 249.290,656.660 251.070,656.030 249.290,655.150" /><polygon stroke="black" fill="purple" points="253.130,693.600 252.350,688.110 249.580,689.860 253.130,693.600" /><polygon stroke="black" fill="purple" points="240.420,674.160 240.420,674.010 240.420,674.160" /><polygon stroke="black" fill="purple" points="239.930,667.120 240.190,667.180 239.930,667.120" /><polygon stroke="black" fill="purple" points="254.380,639.350 251.670,646.070 247.940,649.650 249.320,651.000 255.320,645.220 255.890,642.970 254.380,639.350" /><polygon stroke="black" fill="purple" points="241.500,540.320 241.500,542.770 241.500,540.320 244.710,533.380 241.500,540.320" /><polygon stroke="black" fill="purple" points="218.720,700.710 218.820,700.110 218.630,699.230 217.110,699.160 216.830,699.870 216.370,701.870 218.040,701.080 218.720,700.680 224.830,697.560 218.720,700.710" /><polygon stroke="black" fill="purple" points="248.730,630.710 246.150,631.200 246.480,635.870 248.730,630.710" /><polygon stroke="black" fill="purple" points="231.140,725.560 228.560,721.830 224.750,714.310 224.810,707.830 221.270,702.510 218.820,702.940 218.060,707.220 222.940,719.780 229.180,730.490 231.640,731.490 231.780,727.490 231.140,725.560" /><polygon stroke="black" fill="purple" points="270.460,100.210 270.400,100.110" /><polygon stroke="black" fill="purple" points="246.880,470.820 246.880,470.120 246.880,470.820" /><polygon stroke="black" fill="purple" points="246.400,467.360 246.920,470.110 246.400,467.360" /><polygon stroke="black" fill="purple" points="238.490,679.660 237.190,680.970 238.490,679.660" /><polygon stroke="black" fill="purple" points="221.320,682.700 221.070,682.050 221.320,682.700" /><polygon stroke="black" fill="purple" points="245.450,70.590 244.150,69.720 243.560,69.050 243.610,65.390 243.560,69.050 242.810,68.490 242.810,66.600 242.810,68.490 241.490,69.680 237.640,68.120 241.490,69.680 246.940,74.680 245.450,70.590" /><polygon stroke="black" fill="purple" points="245.380,66.380 245.450,65.800 245.380,66.380" /><polygon stroke="black" fill="purple" points="247.630,473.400 248.990,473.450 247.630,473.400" /><polygon stroke="black" fill="purple" points="250.530,58.000 247.680,55.370 244.000,57.580 244.740,63.390 246.360,64.800 245.460,65.640 246.360,64.800 249.950,68.380 251.950,69.770 252.520,67.300 250.530,58.000" /><polygon stroke="black" fill="purple" points="253.580,19.750 251.840,21.160 254.480,25.620 254.480,21.350 253.580,19.750" /><polygon stroke="black" fill="purple" points="246.360,45.740 247.420,48.970 249.770,46.500 249.510,37.810 248.820,37.160 248.060,37.770 246.360,44.570 246.360,45.740" /><polygon stroke="black" fill="purple" points="240.800,79.570 239.800,78.840 238.800,79.840 242.320,93.450 243.040,90.970 240.800,79.570" /><polygon stroke="black" fill="purple" points="291.880,92.860 292.950,93.420 291.880,92.870" /><polygon stroke="black" fill="purple" points="293.000,93.430 295.770,100.020 295.640,97.160 295.180,93.880 293.000,93.410" /><polygon stroke="black" fill="purple" points="358.610,43.300 358.390,44.150 358.610,43.300" /><polygon stroke="black" fill="purple" points="324.160,213.250 324.070,213.980 324.160,213.250" /><polygon stroke="black" fill="purple" points="264.620,77.540 270.680,80.540 275.680,88.920 278.450,91.430 291.910,92.910 290.280,90.770 287.000,89.820 284.530,89.620 279.870,89.210 278.650,86.470 277.520,81.200 274.180,77.200 274.010,75.600 273.010,75.500 270.780,73.960 266.650,71.310 262.030,59.450 260.480,57.890 257.740,54.970 258.340,59.260 259.560,66.000 257.720,75.550 264.620,77.540" /><polygon stroke="black" fill="purple" points="235.000,57.170 234.000,58.170 235.350,59.550 236.010,58.370 235.000,57.170" /><polygon stroke="black" fill="purple" points="219.170,699.580" /><polygon stroke="black" fill="purple" points="197.580,399.470 197.580,398.970 196.200,401.800 196.880,402.080 197.580,399.470" /><polygon stroke="black" fill="purple" points="198.590,397.930 200.590,397.760 198.590,397.930 197.590,397.930 197.590,398.930 198.590,397.930" /><polygon stroke="black" fill="purple" points="202.930,396.730 198.080,410.100 208.080,389.530 203.950,395.750 202.950,396.750" /><polygon stroke="black" fill="purple" points="214.700,334.380 214.250,334.290 214.700,334.380" /><polygon stroke="black" fill="purple" points="180.110,405.270 182.270,409.960 182.020,413.400 182.420,413.580 184.060,412.580 186.790,409.330 189.330,409.330 191.330,409.040 192.150,405.440 193.960,394.200 193.530,388.200 192.530,385.460 192.840,384.390 193.840,384.620 195.840,391.110 195.420,396.770 197.730,395.450 199.220,397.190 203.310,395.540 199.220,397.190 197.220,385.020 194.340,380.020 193.290,379.880 190.480,378.700 190.780,381.850 189.950,383.200 187.860,381.080 189.360,373.080 191.890,366.730 196.000,351.730 194.340,349.290 192.710,350.960 184.600,367.870 183.530,368.870 179.790,373.180 181.180,379.630 183.550,395.630 184.110,397.090 184.540,396.570 188.540,392.740 190.660,396.360 191.090,397.360 190.090,398.610 185.750,401.030 184.600,399.550 183.260,398.370 177.680,399.010 177.530,400.690 180.110,405.270" /><polygon stroke="black" fill="purple" points="192.750,409.000 193.250,410.130 194.130,409.820 195.390,402.430 192.750,409.000" /><polygon stroke="black" fill="purple" points="187.600,785.300 187.010,785.300 185.520,781.600 178.290,785.260 177.570,785.260 178.290,785.260 178.190,788.700 178.390,788.980 179.140,787.550 179.840,788.770 179.940,792.230 179.810,792.860 179.940,792.230 180.480,791.700 181.260,787.820 181.330,787.290 182.990,784.290 184.660,787.380 186.360,789.610 184.900,790.970 186.370,789.610 186.640,789.610 187.010,785.350 187.600,785.300" /><polygon stroke="black" fill="purple" points="180.240,465.920 181.240,464.650 181.240,459.050 180.540,458.990 179.700,464.620 180.240,465.920" /><polygon stroke="black" fill="purple" points="291.860,218.240 291.350,219.240 291.860,218.240" /><polygon stroke="black" fill="purple" points="179.470,472.390 178.470,476.560 179.470,472.390" /><polygon stroke="black" fill="purple" points="290.220,219.340 288.830,220.550 290.220,219.340" /><polygon stroke="black" fill="purple" points="175.470,494.200 179.150,491.610 180.480,489.130 182.350,487.250 180.860,472.250 180.340,477.870 178.340,480.000 176.510,481.920 175.360,489.520 174.880,492.970 175.470,494.200" /><polygon stroke="black" fill="purple" points="197.470,350.670 201.860,350.140 204.280,349.060 208.340,343.610 209.730,338.120 212.180,334.340 212.080,337.090 212.180,334.340 215.770,324.340 215.960,322.170 214.210,323.760 211.210,329.890 205.780,337.110 204.680,337.990 204.100,336.420 204.700,334.950 204.440,331.340 202.210,333.760 201.920,334.210 199.170,340.280 199.020,334.170 199.170,340.280 196.640,346.430 197.470,350.670" /><polygon stroke="black" fill="purple" points="215.700,471.230 212.890,469.150 216.610,473.800 216.610,465.180 215.700,471.230" /><polygon stroke="black" fill="purple" points="255.580,388.620 255.480,388.230 255.580,388.620" /><polygon stroke="black" fill="purple" points="217.130,470.570 216.850,472.720 217.130,470.570" /><polygon stroke="black" fill="purple" points="216.610,465.180 217.130,470.570 216.610,465.180" /><polygon stroke="black" fill="purple" points="153.860,694.000 153.550,694.310" /><polygon stroke="black" fill="purple" points="265.380,372.340 265.850,370.720 265.380,372.340" /><polygon stroke="black" fill="purple" points="187.130,398.170 187.260,398.350" /><polygon stroke="black" fill="purple" points="174.640,400.410 176.210,398.880 174.640,400.410 172.290,401.140 174.640,400.410" /><polygon stroke="black" fill="purple" points="181.770,413.430" /><polygon stroke="black" fill="purple" points="169.060,391.580 168.940,389.640 167.180,390.050 166.180,390.860 165.040,393.540 166.170,396.260 169.060,391.580" /><polygon stroke="black" fill="purple" points="167.830,480.770 167.560,483.510 170.080,490.440 171.970,491.520 174.250,487.270 173.810,485.270 169.960,481.790 167.830,480.770" /><polygon stroke="black" fill="purple" points="188.250,424.800 192.630,419.240 193.190,416.810 189.830,417.290 187.920,420.150 186.710,421.810 186.240,425.030 188.250,424.800" /><polygon stroke="black" fill="purple" points="181.530,413.390 181.160,413.740 181.530,413.390" /><polygon stroke="black" fill="purple" points="232.490,552.690 232.960,552.280 232.490,552.690" /><polygon stroke="black" fill="purple" points="274.000,54.160 274.000,50.910 276.220,48.430 274.540,58.330 276.220,48.430 276.720,48.280 279.840,44.620 281.140,35.430 280.220,30.430 280.150,28.380 274.370,19.040 275.640,26.100 277.120,27.860 275.590,26.150 273.780,25.280 272.220,24.960 268.450,27.880 266.630,33.150 267.490,43.220 264.280,43.760 262.090,39.760 260.710,38.820 260.000,40.400 261.860,46.400 260.110,51.570 257.750,54.780 260.640,54.680 264.450,51.760 267.810,55.950 272.050,59.360 274.000,54.160" /><polygon stroke="black" fill="purple" points="318.850,212.810 318.090,213.230 319.450,213.700 319.610,213.160 318.850,212.810" /><polygon stroke="black" fill="purple" points="259.890,22.340 262.450,21.540 259.690,12.650 257.990,11.420 256.090,13.040 258.090,20.270 259.890,22.340" /><polygon stroke="black" fill="purple" points="264.640,16.230 267.920,21.110 270.010,22.500 270.380,19.660 267.640,15.170 265.570,14.170 263.570,15.030 264.640,16.230" /><polygon stroke="black" fill="purple" points="310.720,32.880 310.210,32.330 309.690,29.860 307.520,31.990 307.020,33.200 308.350,36.930 310.120,37.930 310.770,36.090 310.720,32.880" /><polygon stroke="black" fill="purple" points="295.520,92.940 296.960,92.320 295.520,92.940" /><polygon stroke="black" fill="purple" points="296.930,95.320 296.400,95.590 296.650,95.990 297.070,95.760 296.930,95.320" /><polygon stroke="black" fill="purple" points="308.110,24.520 309.860,24.760 308.110,24.520" /><polygon stroke="black" fill="purple" points="310.830,18.000 310.770,16.650 310.830,18.000" /><polygon stroke="black" fill="purple" points="283.750,75.350 283.750,73.350 283.750,75.350" /><polygon stroke="black" fill="purple" points="279.830,44.620 284.200,37.120 279.830,44.620" /><polygon stroke="black" fill="purple" points="283.730,73.350 283.250,72.910 283.730,73.350" /><polygon stroke="black" fill="purple" points="312.380,31.820 312.970,31.530 312.380,31.820" /><polygon stroke="black" fill="purple" points="310.790,16.210 310.910,15.600 310.790,16.210" /><polygon stroke="black" fill="purple" points="362.870,48.400 364.050,48.600 362.870,48.400" /><polygon stroke="black" fill="purple" points="313.000,31.580 313.680,30.580 313.000,31.580" /><polygon stroke="black" fill="purple" points="353.090,44.600 351.550,44.420 353.090,44.600" /><polygon stroke="black" fill="purple" points="387.120,66.630 387.210,64.300 387.120,66.630" /><polygon stroke="black" fill="purple" points="365.220,48.670 364.050,48.600 365.220,48.670" /><polygon stroke="black" fill="purple" points="319.280,30.520 319.130,29.350 320.400,28.690 320.570,31.380 320.400,28.690 321.020,23.820 319.160,24.530 318.000,26.100 317.830,25.040 318.000,26.100 317.920,26.210 316.920,27.430 315.300,28.940 316.920,27.430 317.780,29.370 319.170,29.370 319.280,30.520" /><polygon stroke="black" fill="purple" points="315.260,28.940 315.310,29.510 315.260,28.940" /><polygon stroke="black" fill="purple" points="335.260,30.000 331.880,29.430 330.880,31.260 330.480,30.490 330.880,31.260 325.650,32.740 324.380,32.860 320.880,34.770 320.560,37.090 324.740,38.340 334.600,35.340 335.260,30.000" /><polygon stroke="black" fill="purple" points="346.780,43.760 346.420,44.050 346.780,43.760" /><polygon stroke="black" fill="purple" points="351.550,44.420 350.010,44.160 351.550,44.420" /><polygon stroke="black" fill="purple" points="347.140,43.000 346.780,43.790 347.140,43.000" /><polygon stroke="black" fill="purple" points="274.820,77.490 274.870,77.490" /><polygon stroke="black" fill="purple" points="313.110,29.800" /><polygon stroke="black" fill="purple" points="330.050,28.340 330.120,29.040 330.050,28.340" /><polygon stroke="black" fill="purple" points="311.650,11.750 312.760,13.750 312.980,14.200 314.750,19.200 316.290,17.070 314.040,11.970 311.650,11.750" /><polygon stroke="black" fill="purple" points="294.230,46.300 294.760,45.730" /><polygon stroke="black" fill="purple" points="301.500,19.080 300.010,23.990 301.500,19.080" /><polygon stroke="black" fill="purple" points="292.740,52.360 292.830,53.840 292.740,52.360" /><polygon stroke="black" fill="purple" points="337.760,38.110 337.470,37.460 337.760,38.110" /><polygon stroke="black" fill="purple" points="301.630,78.760 301.680,78.690" /><polygon stroke="black" fill="purple" points="293.490,50.000 294.230,46.280 293.490,49.990 292.730,52.330 293.490,50.000" /><polygon stroke="black" fill="purple" points="337.930,39.680 337.760,38.110 337.930,39.680" /><polygon stroke="black" fill="purple" points="346.210,23.730 345.580,24.160 346.210,23.730" /><polygon stroke="black" fill="purple" points="347.250,22.000 346.770,23.060 347.250,22.000" /><polygon stroke="black" fill="purple" points="302.570,77.580 302.350,77.890 302.570,77.580" /><polygon stroke="black" fill="purple" points="292.920,55.330 292.920,54.330 292.920,55.330" /><polygon stroke="black" fill="purple" points="305.810,34.350 305.880,34.830 305.810,34.350" /><polygon stroke="black" fill="purple" points="309.240,21.710 309.130,22.580 309.240,21.710" /><polygon stroke="black" fill="purple" points="306.640,48.210 307.450,49.490 306.640,48.210" /><polygon stroke="black" fill="purple" points="302.570,77.580 302.710,77.270 302.570,77.580" /><polygon stroke="black" fill="purple" points="309.200,21.270 309.200,21.710 309.200,21.270" /><polygon stroke="black" fill="purple" points="301.740,78.610 301.940,78.360" /><polygon stroke="black" fill="purple" points="234.730,136.780 233.940,136.780" /><polygon stroke="black" fill="purple" points="257.720,75.510" /><polygon stroke="black" fill="purple" points="190.880,768.860 189.750,768.220 189.430,772.040 189.780,774.040 187.780,773.350 185.170,772.800 182.910,768.800 183.300,766.240 182.480,763.700 180.900,748.600 177.000,745.860 169.300,745.650 167.450,744.840 156.510,747.840 154.980,754.150 160.700,753.890 170.100,749.680 172.170,749.890 175.990,760.110 176.280,765.170 178.000,771.410 176.880,778.410 175.880,785.870 176.740,785.440 175.880,785.870 175.740,786.870 175.340,787.320 174.790,787.970 174.110,788.300 171.620,787.250 171.080,787.310 171.620,787.250 171.880,777.250 170.050,768.110 170.170,762.580 171.850,758.390 170.670,759.030 163.670,763.030 160.430,763.030 155.820,762.100 147.440,755.780 140.090,752.240 140.990,741.630 137.660,746.140 137.930,747.980 137.540,760.620 138.540,761.390 147.130,769.200 156.910,779.330 162.490,787.140 163.420,787.990 162.940,790.240 163.460,791.930 165.130,793.630 165.190,794.390 165.580,794.390 165.190,794.390 164.540,794.460 164.010,794.120 164.440,794.950 165.720,796.240 158.010,802.420 155.420,810.260 153.500,815.630 152.140,820.120 154.000,830.120 156.590,831.910 157.960,829.320 161.800,824.270 165.200,817.180 168.820,808.350 173.980,807.350 181.470,810.820 183.180,811.400 187.300,812.400 188.900,809.880 188.030,798.280 189.710,793.960 193.330,786.510 193.910,785.510 195.540,784.160 195.970,777.080 195.580,776.170 190.880,768.860" /><polygon stroke="black" fill="purple" points="171.940,478.550 169.570,477.630 167.630,472.720 164.320,465.820 162.840,464.940 162.440,466.390 163.230,475.100 167.340,491.000 172.140,499.570 176.540,498.830 179.320,498.130 180.500,498.950 179.900,493.880 181.350,493.700 181.820,492.340 183.670,494.210 184.010,500.210 185.190,497.490 186.820,505.200 186.340,498.970 184.530,488.240 183.810,480.500 182.530,469.440 182.970,459.440 183.190,457.880 183.380,453.740 182.440,452.540 181.440,453.540 179.900,456.950 175.220,459.500 173.140,455.900 172.910,454.850 176.760,435.100 180.350,432.860 181.870,431.340 183.020,437.030 184.640,437.900 187.880,435.900 186.700,443.170 184.700,450.300 184.700,451.460 188.300,446.660 193.990,430.140 197.430,418.940 209.770,396.090 207.030,395.000 211.640,392.280 213.950,386.590 215.950,379.710 224.950,370.290 226.020,370.170 227.710,375.170 227.640,376.400 226.360,379.900 218.690,391.670 218.690,394.460 222.580,388.580 230.760,378.930 230.530,370.650 227.870,367.110 220.000,366.470 217.660,369.470 216.900,370.210 212.800,379.100 210.110,381.400 205.590,383.400 204.090,385.940 200.720,387.500 199.050,385.640 194.300,379.840 195.920,367.510 197.490,359.930 203.600,354.510 205.600,353.010 207.840,349.650 210.750,346.700 212.750,340.450 213.810,338.200 215.410,334.610 215.410,333.810 224.490,314.960 234.760,302.960 237.760,299.160 242.690,291.160 247.360,283.320 242.050,283.320 247.360,283.320 247.600,282.710 251.040,278.710 257.540,268.020 261.620,263.080 269.160,256.570 271.320,254.570 279.790,246.350 280.340,245.130 282.790,241.870 288.730,235.870 294.810,225.680 302.320,224.100 300.220,239.260 300.360,249.150 303.360,242.300 305.360,235.550 305.660,225.980 306.440,224.070 307.580,214.850 304.900,208.670 301.100,207.510 297.100,208.680 292.350,210.010 287.550,214.400 285.430,217.600 282.710,220.860 279.310,223.640 275.530,232.000 274.940,232.830 274.200,237.520 273.640,244.740 269.750,249.300 265.750,252.610 264.880,253.390 257.350,258.540 253.590,263.850 246.250,272.010 245.320,273.900 240.850,281.430 240.420,281.610 234.600,286.080 227.540,291.080 219.200,298.250 216.450,303.900 208.570,313.580 205.280,317.520 197.470,327.880 193.050,332.970 186.650,348.450 183.150,356.100 178.010,363.500 173.450,377.120 166.110,388.630 163.930,390.250 162.550,392.030 162.470,403.400 164.280,405.100 171.280,407.990 173.280,409.750 175.280,414.410 178.160,419.620 179.900,423.710 183.680,420.450 184.680,420.590 185.110,426.010 184.630,426.250 184.630,426.360 182.720,427.130 180.460,427.450 178.720,430.620 177.720,432.480 175.170,431.340 171.700,427.130 171.700,429.510 170.340,441.670 168.410,452.080 171.590,470.260 173.180,475.590 171.940,478.550" /><polygon stroke="black" fill="purple" points="293.000,93.430" /><polygon stroke="black" fill="purple" points="241.610,438.090 243.150,436.440 245.540,426.960 243.440,424.510 238.230,427.940 233.990,443.210 232.420,445.050 230.070,443.640 228.860,421.790 234.590,406.170 235.970,402.170 235.490,400.740 234.260,400.880 228.260,408.880 224.680,417.330 221.000,423.500 221.130,426.000 223.400,424.370 230.290,411.460 230.380,413.660 227.020,423.180 225.570,428.180 224.670,432.920 224.350,440.670 224.430,443.030 224.510,451.520 224.800,461.580 229.460,471.670 232.460,467.070 235.940,457.530 238.020,442.810 241.610,438.090" /><polygon stroke="black" fill="purple" points="205.660,585.570 208.470,586.490 210.060,583.880 208.530,577.980 204.810,564.980 200.290,547.870 200.030,541.250 197.570,530.700 193.940,519.700 187.250,505.950 191.710,520.720 193.710,527.350 195.910,540.640 198.720,556.420 204.040,574.350 203.430,576.010 194.990,566.640 190.840,561.580 187.760,547.060 187.760,534.330 184.660,526.840 183.760,526.520 175.410,535.780 171.410,542.070 165.230,549.670 160.330,557.440 153.580,563.200 153.210,564.100 153.540,568.280 162.830,558.730 166.480,552.860 167.780,550.860 176.690,538.070 182.610,530.010 185.170,530.350 185.730,539.450 185.620,550.320 185.270,550.820 184.590,552.660 190.820,566.320 195.480,570.400 199.600,575.400 205.660,585.570" /><polygon stroke="black" fill="purple" points="237.340,755.760 228.610,755.510 222.610,758.790 220.130,763.790 216.660,770.510 210.830,778.660 209.770,783.710 210.660,788.890 210.980,789.830 212.100,789.400 215.100,786.550 219.100,777.550 218.840,773.690 223.510,768.180 224.760,770.180 227.870,771.090 233.470,765.170 238.940,757.850 241.480,753.090 237.340,755.760" /><polygon stroke="black" fill="purple" points="220.480,507.130 223.340,499.020 222.900,476.930 220.830,473.830 220.300,467.430 220.840,465.430 220.360,463.380 218.550,458.440 217.260,457.800 216.140,458.870 212.070,469.460 211.640,476.210 215.010,483.830 217.160,493.100 216.070,502.400 216.070,505.560 217.750,508.400 220.480,507.130" /><polygon stroke="black" fill="purple" points="318.660,1.520 317.740,1.000 318.660,1.520" /><polygon stroke="black" fill="purple" points="291.890,92.870" /><polygon stroke="black" fill="purple" points="173.200,717.490" /><polygon stroke="black" fill="purple" points="185.120,110.650 186.240,109.840 188.830,109.960 191.830,110.320 193.300,107.010 194.300,97.760 194.300,96.700 186.300,84.820 186.120,87.500 185.410,100.380 184.510,109.290 185.120,110.650" /><polygon stroke="black" fill="purple" points="213.770,429.160 214.130,427.850 214.760,425.790 223.030,414.890 222.590,409.750 220.330,404.380 219.850,400.290 216.660,407.150 214.460,414.150 213.630,421.580 212.840,427.860 213.770,429.160" /><polygon stroke="black" fill="purple" points="145.270,697.260 153.700,695.260 154.360,694.770 158.560,694.640 159.150,693.120 158.560,694.640 161.930,697.440 162.930,698.510 165.100,700.180 172.640,705.120 178.210,709.540 177.210,713.460 177.210,715.320 175.750,718.100 173.250,717.560 177.900,720.880 189.980,721.790 190.980,722.020 192.980,721.390 192.270,719.560 192.200,717.930 194.200,715.530 195.340,712.290 192.240,707.770 191.790,708.480 187.330,703.010 183.870,702.670 175.870,698.670 173.150,696.310 167.230,692.630 160.720,689.630 159.720,688.900 148.520,688.900 145.180,690.440 146.300,666.590 145.220,671.000 144.000,686.440 142.490,690.510 142.160,695.290 145.270,697.260" /><polygon stroke="black" fill="purple" points="146.310,666.570 146.480,665.020 146.310,666.570" /><polygon stroke="black" fill="purple" points="329.000,364.900 320.570,369.480 315.420,373.430 304.810,378.850 293.700,392.850 288.100,396.450 279.980,403.160 276.760,406.450 276.970,406.740 276.680,406.540 270.760,413.540 269.680,415.150 265.410,420.030 265.600,420.350 265.280,420.160 264.220,423.160 258.500,436.360 252.980,444.210 251.830,446.350 249.700,451.290 249.260,453.160 247.570,454.100 244.910,461.050 243.560,466.900 244.090,469.520 244.090,469.930 242.620,472.410 242.620,467.910 240.950,472.270 238.370,473.500 235.100,477.370 233.730,481.570 232.310,483.570 230.700,481.440 230.110,475.600 228.860,473.240 227.470,475.510 229.290,488.590 230.640,496.590 231.410,503.770 232.350,502.000 232.710,503.650 233.490,503.430 232.710,503.650 232.550,505.250 230.990,507.720 230.780,513.190 231.780,519.390 227.960,521.530 226.520,522.070 225.420,528.520 229.540,531.170 231.290,532.760 232.110,535.850 228.470,540.620 227.350,541.230 224.590,546.230 229.590,552.520 232.260,552.870 229.590,552.520 230.240,556.340 230.240,557.910 231.850,565.790 232.690,566.630 232.530,569.870 232.530,571.560 232.680,572.690 233.250,575.230 232.250,579.990 234.400,580.350 235.520,595.470 235.850,596.470 235.910,601.470 238.180,609.320 238.710,618.560 244.430,624.120 244.750,630.220 245.490,631.710 245.370,639.800 243.370,641.260 241.200,642.020 238.710,651.950 237.000,649.550 236.610,651.050 233.300,655.370 231.650,656.440 231.060,665.670 232.190,665.010 231.060,665.680 222.190,676.330 222.100,677.860 220.310,680.970 211.220,678.270 210.960,678.270 203.250,680.360 199.480,684.920 200.960,692.370 208.680,699.880 214.420,704.990 217.760,709.850 229.050,730.750 229.800,733.010 232.220,738.010 232.300,750.940 231.780,753.280 232.780,754.280 236.710,749.470 237.880,736.320 237.110,726.720 239.170,717.790 238.930,716.850 238.230,712.780 236.080,707.030 235.580,706.530 235.100,704.420 229.950,708.690 235.100,704.420 233.430,701.090 225.820,694.810 225.710,694.700 219.800,693.700 218.720,693.700 215.470,692.570 210.620,691.570 210.620,689.170 211.620,687.420 212.280,687.120 219.770,685.680 220.830,685.680 228.070,679.940 232.800,672.940 236.700,681.210 237.140,680.990 238.440,679.680 237.140,680.990 236.700,681.210 236.640,684.950 240.830,690.360 241.830,694.430 246.160,706.370 249.930,705.800 251.540,702.460 252.930,705.210 254.260,706.210 258.160,696.300 255.420,693.660 255.110,693.660 255.050,693.710 251.770,698.920 255.050,693.700 254.220,693.590 253.650,688.590 251.870,686.830 249.190,684.200 248.380,682.940 246.220,678.540 244.910,676.090 240.910,672.810 240.390,667.060 239.820,666.430 239.820,659.950 241.230,657.370 243.520,656.090 244.520,658.150 244.520,668.150 245.790,672.870 247.450,666.320 252.400,662.240 250.550,659.790 254.160,658.550 250.980,653.420 254.850,649.350 254.850,654.760 256.710,657.510 257.960,659.920 257.130,655.820 255.980,654.320 256.780,644.930 256.660,642.080 255.920,638.230 255.850,626.860 255.750,622.980 254.430,616.440 253.430,611.440 252.430,608.370 249.430,606.230 246.810,603.350 240.440,609.120 246.810,603.350 244.730,598.570 244.120,582.460 243.580,574.900 242.390,573.540 242.280,570.630 242.980,570.840 242.880,554.030 242.720,551.900 241.380,542.650 244.520,538.220 244.800,531.410 247.080,519.230 248.930,494.390 249.630,489.390 253.330,478.390 253.860,472.230 252.750,468.290 257.980,464.710 258.820,461.450 264.340,440.650 265.850,436.180 268.730,429.240 273.880,418.240 274.300,416.810 282.380,405.610 291.310,396.200 295.010,392.900 296.610,391.730 297.000,391.650 300.000,390.150 313.070,381.000 321.440,373.850 328.840,367.850 329.690,365.690 329.000,364.900" /><polygon stroke="black" fill="purple" points="243.110,571.000" /><polygon stroke="black" fill="purple" points="145.000,809.190 137.300,796.490 135.580,794.560 134.030,795.860 135.080,798.000 139.980,809.680 143.700,813.980 145.910,813.320 145.910,811.410 145.000,809.190" /><polygon stroke="black" fill="purple" points="172.920,423.430 168.920,416.810 167.730,416.710 163.190,425.780 164.500,424.600 167.670,422.230 170.540,425.570 171.540,427.140 172.920,423.430" /><polygon stroke="black" fill="purple" points="171.560,427.140 171.560,427.080" /><polygon stroke="black" fill="purple" points="404.000,71.560 404.540,65.990 404.230,62.910 402.480,61.960 400.820,61.960 399.930,61.520 391.690,61.110 386.690,63.050 386.130,63.550 384.020,71.710 384.110,73.850 385.190,76.380 390.920,80.200 396.170,80.290 397.510,84.880 394.390,85.390 391.690,87.920 393.690,91.530 399.090,92.370 401.490,95.790 403.920,92.860 399.920,89.600 399.180,86.340 400.730,83.670 402.390,81.320 402.980,76.790 404.000,71.560" /><polygon stroke="black" fill="purple" points="379.230,44.610 369.340,46.700 363.910,43.030 361.380,39.190 358.610,43.300 358.390,44.150 358.610,43.300 361.380,39.190 359.080,38.600 352.020,33.780 351.430,28.780 350.030,24.250 347.030,19.720 346.970,19.650 346.120,18.510 343.070,12.280 344.800,7.990 348.500,6.390 350.060,4.730 348.560,2.730 343.440,1.350 329.020,2.350 318.620,1.580 320.490,5.580 327.540,14.860 327.670,15.290 328.670,15.870 328.720,15.870 328.180,18.240 324.260,20.240 321.330,17.970 315.330,12.500 314.330,2.830 314.830,2.400 314.150,1.880 313.000,1.380 303.370,1.220 301.480,1.090 295.710,9.090 295.710,10.640 290.520,19.640 289.690,23.490 289.100,25.600 283.340,32.360 283.640,27.490 283.340,24.680 282.340,23.230 281.340,21.030 280.170,17.030 279.460,11.240 279.730,9.380 282.460,9.380 286.540,6.500 286.860,5.160 282.540,2.160 249.610,0.800 233.710,0.080 231.710,1.230 230.180,9.550 229.560,22.000 227.650,26.540 225.250,28.220 222.730,32.990 223.300,34.920 226.820,39.760 227.280,42.090 228.530,52.710 228.530,54.300 229.860,60.300 230.120,58.420 230.820,56.620 232.530,57.720 233.020,61.560 233.510,63.620 236.510,65.500 235.140,69.610 224.890,80.850 219.440,85.050 213.270,89.200 208.640,93.730 204.240,101.170 200.680,114.840 198.680,115.560 195.360,118.830 196.430,121.830 196.770,125.180 194.500,131.400 193.830,135.750 194.650,141.750 194.950,142.190 193.900,148.730 193.720,149.990 191.540,157.890 188.310,161.890 186.030,164.420 183.230,167.530 181.800,166.530 180.800,167.190 179.890,178.040 179.340,191.380 178.060,208.380 178.060,208.650 176.400,226.410 174.910,238.670 174.910,240.230 175.790,239.760 176.400,239.240 177.690,238.320 186.780,223.890 195.880,207.390 200.560,198.120 203.740,190.350 208.660,178.350 214.300,165.140 220.300,155.480 226.660,146.010 233.140,137.820 233.780,136.820 233.940,136.680 234.840,135.680 237.160,134.560 243.350,126.890 253.690,117.210 257.600,116.810 260.780,115.930 260.970,113.250 263.410,107.990 263.170,105.740 258.000,98.520 257.190,93.000 248.840,76.770 248.840,74.980 249.660,74.660 257.730,75.450 259.570,65.900 258.340,59.140 257.740,54.850 260.480,57.770 262.030,59.330 266.650,71.190 270.780,73.840 273.010,75.380 274.010,75.480 274.180,77.080 277.520,81.080 278.650,86.350 279.870,89.090 284.530,89.500 287.000,89.700 290.280,90.650 291.910,92.790 292.980,93.340 295.150,93.810 295.610,97.090 295.740,99.950 293.000,93.430 291.930,92.870 278.470,91.390 275.700,88.880 270.700,80.500 264.640,77.500 257.760,75.500 258.880,78.500 263.880,85.750 266.440,96.000 267.370,98.450 268.500,106.500 268.190,110.860 269.190,111.990 270.060,111.230 271.120,110.230 276.660,105.990 277.300,106.990 274.970,114.070 274.610,114.210 271.610,116.700 268.150,116.600 265.550,116.890 262.550,121.190 258.470,123.630 257.700,125.550 254.640,127.960 250.140,136.900 249.430,137.980 243.790,141.890 240.990,144.530 238.070,147.070 232.710,152.210 229.150,161.410 230.000,165.730 230.900,166.620 234.400,169.040 235.630,169.420 244.820,170.420 242.090,168.970 233.190,166.810 232.460,163.220 240.030,153.890 246.880,149.250 257.710,138.110 249.460,137.950 257.720,138.110 258.360,137.930 260.310,134.640 267.770,132.750 276.220,128.240 283.130,122.000 283.420,121.590 284.420,115.900 290.850,109.830 297.190,109.640 300.760,109.160 307.760,107.960 310.150,105.960 311.100,105.230 308.100,98.960 305.420,96.960 304.270,94.870 306.410,93.380 313.280,93.910 314.490,93.610 320.560,95.610 325.410,99.790 325.780,100.580 329.400,108.740 330.820,110.270 335.820,112.510 336.910,113.780 343.910,119.030 345.260,119.260 343.910,119.030 346.100,124.900 349.600,131.090 349.310,134.390 349.090,137.740 348.090,144.940 345.670,150.310 345.730,152.310 344.460,153.940 343.520,154.940 343.410,155.060 342.600,155.450 343.080,155.920 342.550,158.160 343.920,157.560 342.550,158.160 338.910,165.740 337.320,170.490 335.190,178.220 335.970,178.290 335.190,178.220 335.080,179.330 334.770,180.330 330.900,192.330 327.820,198.660 324.350,206.880 322.620,209.710 321.860,210.250 319.930,210.120 318.660,211.650 317.540,214.060 319.540,215.350 318.540,216.570 314.930,226.870 310.150,239.930 306.970,248.390 302.740,254.840 299.740,255.690 299.610,260.020 303.350,259.650 305.990,256.950 308.510,253.510 314.510,238.680 316.350,235.200 320.910,222.380 323.800,215.250 322.680,213.650 323.800,215.250 324.130,214.540 324.410,213.080 324.180,213.420 324.090,214.150 324.180,213.420 324.410,213.080 324.500,212.480 325.290,212.390 326.700,215.600 326.700,207.010 327.700,205.200 332.000,194.450 334.260,189.450 336.330,183.190 339.020,179.780 346.300,161.270 347.300,158.880 352.000,144.940 352.820,142.680 350.310,130.890 349.930,128.320 349.930,123.140 349.100,122.670 346.440,117.810 345.540,115.700 344.200,115.400 345.540,115.700 345.230,114.700 342.290,109.700 339.620,105.910 335.740,99.450 334.650,96.200 333.270,93.980 332.580,93.360 332.500,92.290 329.670,87.060 319.790,81.230 312.470,76.230 308.270,72.730 308.270,62.450 309.540,55.980 311.420,46.330 312.050,42.630 313.330,41.470 320.270,43.540 328.690,48.640 336.250,51.160 341.480,50.430 344.270,50.070 348.530,51.070 350.530,51.580 355.530,51.970 357.890,51.670 368.270,52.190 372.660,52.680 374.900,50.680 376.700,50.620 378.830,50.550 379.830,48.400 381.830,47.040 379.230,44.610" /><polygon stroke="black" fill="purple" points="24.470,986.000 24.680,983.610 23.540,982.980 21.070,988.190 21.070,999.850 21.770,999.850 23.450,989.850 24.450,991.110 24.470,986.000" /><polygon stroke="black" fill="purple" points="183.080,744.060 192.030,752.300 183.080,744.060" /><polygon stroke="black" fill="purple" points="183.000,161.860 186.270,151.220 186.600,148.570 186.810,140.420 184.000,136.330 183.000,137.120 182.880,143.850 182.570,161.850 183.000,161.860" /><polygon stroke="black" fill="purple" points="238.330,143.300 240.330,139.550 241.280,138.550 240.060,138.000 237.300,140.000 236.810,142.880 237.050,144.280 238.330,143.300" /><polygon stroke="black" fill="purple" points="264.680,381.100 265.840,381.100 267.310,380.730 274.590,373.900 280.680,372.530 285.190,370.190 286.060,369.190 296.790,354.560 301.370,349.030 305.040,349.210 310.730,351.750 312.860,351.070 311.860,348.790 304.130,346.360 299.130,348.000 293.620,356.520 285.620,360.700 283.780,360.630 272.560,361.150 263.060,354.730 264.240,361.500 267.500,368.300 265.880,370.740 265.410,372.360 265.860,370.740 264.180,370.270 257.710,354.270 255.940,353.570 255.040,356.230 253.490,360.660 250.820,365.490 249.400,367.830 246.350,365.470 244.900,363.580 245.840,369.740 247.590,382.840 248.130,385.380 246.560,388.170 245.410,389.250 245.780,390.420 243.870,396.510 248.570,390.360 250.200,389.260 252.910,389.770 253.560,392.610 252.330,398.430 251.270,400.190 251.520,401.560 252.760,401.230 255.010,398.610 257.480,390.950 256.900,388.600 256.150,387.540 256.150,382.700 257.930,378.980 262.660,380.350 264.740,381.160 264.210,373.020 264.680,381.100" /><polygon stroke="black" fill="purple" points="14.760,988.250 14.950,992.560 14.680,996.560 13.880,1004.110 13.490,1005.230 12.370,1004.320 12.820,999.620 12.670,998.310 9.770,995.640 9.930,992.640 6.370,992.490 4.970,997.330 1.870,1003.660 1.590,1009.490 3.590,1010.490 4.700,1010.490 4.110,1007.840 7.590,1000.250 10.470,1004.940 13.740,1006.780 14.970,1004.570 15.460,991.960 16.150,988.430 14.760,988.250" /><polygon stroke="black" fill="purple" points="170.400,737.690 169.550,727.870 170.400,737.690" /><polygon stroke="black" fill="purple" points="216.720,570.860 216.580,579.130 216.720,570.860" /><polygon stroke="black" fill="purple" points="33.150,977.880 31.430,979.040 31.370,982.520 33.290,980.040 33.150,977.880" /><polygon stroke="black" fill="purple" points="212.410,715.170 209.410,709.470 212.410,715.170" /><polygon stroke="black" fill="purple" points="150.720,723.140 157.940,725.830 150.720,723.140" /><polygon stroke="black" fill="purple" points="166.690,730.520 166.690,730.580 166.690,730.500" /><polygon stroke="black" fill="purple" points="166.730,730.580 167.000,737.260 166.730,730.580" /><polygon stroke="black" fill="purple" points="245.090,128.600 249.510,125.650 245.090,128.600" /><polygon stroke="black" fill="purple" points="270.350,115.340 266.700,112.920 270.350,115.340" /><polygon stroke="black" fill="purple" points="166.170,726.580 166.690,730.480 166.170,726.580" /><polygon stroke="black" fill="purple" points="166.690,730.520" /><polygon stroke="black" fill="purple" points="284.690,16.340 285.690,15.840 283.860,13.940 284.690,16.340" /><polygon stroke="black" fill="purple" points="149.060,723.530 147.680,725.530" /><polygon stroke="black" fill="purple" points="164.510,741.370 162.390,741.370 164.510,741.370" /><polygon stroke="black" fill="purple" points="162.390,741.370" /><polygon stroke="black" fill="purple" points="165.860,739.000 166.220,739.670 166.630,738.960 166.310,738.450 165.860,739.000" /><polygon stroke="black" fill="purple" points="164.560,741.340" /><polygon stroke="black" fill="purple" points="165.370,740.700 165.210,740.530 164.560,741.340 165.370,740.700" /><polygon stroke="black" fill="purple" points="162.360,739.730" /><polygon stroke="black" fill="purple" points="162.360,741.340 162.360,739.760 162.360,741.340" /><polygon stroke="black" fill="purple" points="162.360,741.370" /><polygon stroke="black" fill="purple" points="243.240,571.150 243.110,570.950 243.370,571.350" /><polygon stroke="black" fill="purple" points="182.090,743.130 182.250,743.130 182.200,742.930 182.040,742.930 182.090,743.130" /><polygon stroke="black" fill="purple" points="162.560,739.060 162.390,739.700 162.560,739.060" /><polygon stroke="black" fill="purple" points="162.360,739.730" /><polygon stroke="black" fill="purple" points="175.330,787.350 175.730,786.900" /><polygon stroke="black" fill="purple" points="176.420,239.370 175.810,239.890" /><polygon stroke="black" fill="purple" points="265.390,420.000 265.260,420.130 265.580,420.320" /><polygon stroke="black" fill="purple" points="309.450,21.000 309.240,21.260 309.420,21.180 309.450,21.000" /><polygon stroke="black" fill="purple" points="309.200,21.250" /><polygon stroke="black" fill="purple" points="292.150,218.000 291.900,218.230 292.090,218.170 292.150,218.000" /><polygon stroke="black" fill="purple" points="291.870,218.240" /><polygon stroke="black" fill="purple" points="276.740,406.500 276.660,406.590 276.950,406.790" /></svg>