<svg xmlns="http://www.w3.org/2000/svg" viewBox="0 0 573.51 1016.13"><polygon stroke="black" fill="purple" points="390.760,575.000 390.230,573.270 389.230,580.660 390.760,575.000" /><polygon stroke="black" fill="purple" points="416.720,478.440 416.720,478.440" /><polygon stroke="black" fill="purple" points="475.550,708.240 475.550,708.240 475.550,708.240" /><polygon stroke="black" fill="purple" points="457.550,148.450 457.260,148.580 457.030,147.200 457.260,148.580 457.550,148.450" /><polygon stroke="black" fill="purple" points="485.710,692.150 486.710,692.490 486.710,692.490 485.710,692.150" /><polygon stroke="black" fill="purple" points="405.100,823.400 405.540,825.080 404.350,827.000 405.540,825.090 405.100,823.400" /><polygon stroke="black" fill="purple" points="400.940,828.860 400.940,828.110 400.940,828.860" /><polygon stroke="black" fill="purple" points="479.380,69.680 480.170,69.890 479.380,69.680" /><polygon stroke="black" fill="purple" points="417.720,260.580 418.500,261.220 417.720,260.580" /><polygon stroke="black" fill="purple" points="451.380,163.050 453.250,163.960 451.380,163.050 450.520,164.210" /><polygon stroke="black" fill="purple" points="424.810,342.330 423.630,342.730 424.810,342.330" /><polygon stroke="black" fill="purple" points="423.340,342.670 423.460,342.670" /><polygon stroke="black" fill="purple" points="399.000,862.340 399.000,861.980 399.000,862.340" /><polygon stroke="black" fill="purple" points="503.850,457.440 503.470,456.130 503.850,457.440" /><polygon stroke="black" fill="purple" points="492.590,469.240 494.780,470.630 492.590,469.240" /><polygon stroke="black" fill="purple" points="505.000,458.850 505.000,458.850" /><polygon stroke="black" fill="purple" points="516.850,355.350 517.020,354.410 516.850,355.350" /><polygon stroke="black" fill="purple" points="227.000,895.390 227.000,895.390" /><polygon stroke="black" fill="purple" points="21.750,643.370 22.440,643.370 21.750,643.370" /><polygon stroke="black" fill="purple" points="494.780,470.630 495.680,470.630 494.780,470.630" /><polygon stroke="black" fill="purple" points="475.610,711.510 475.530,714.780 475.610,711.510" /><polygon stroke="black" fill="purple" points="276.740,758.560 275.590,757.760 276.740,758.560" /><polygon stroke="black" fill="purple" points="475.350,718.000 475.130,721.270 475.350,718.000" /><polygon stroke="black" fill="purple" points="275.430,757.530 275.250,757.060 275.430,757.530" /><polygon stroke="black" fill="purple" points="275.220,756.820 275.220,756.310 275.220,756.820" /><polygon stroke="black" fill="purple" points="477.650,692.120 477.650,689.700 477.650,692.120" /><polygon stroke="black" fill="purple" points="284.660,702.090 283.930,701.450 284.660,702.090" /><polygon stroke="black" fill="purple" points="479.910,602.440 478.860,603.240 479.910,602.440" /><polygon stroke="black" fill="purple" points="469.780,777.110 470.140,776.560 469.780,777.110" /><polygon stroke="black" fill="purple" points="513.540,736.590 513.680,736.190 513.540,736.590" /><polygon stroke="black" fill="purple" points="513.140,738.650 513.080,739.800 513.140,738.650" /><polygon stroke="black" fill="purple" points="514.810,734.380 514.810,734.380 514.510,734.750 514.810,734.380" /><polygon stroke="black" fill="purple" points="392.210,580.640 392.560,580.640 392.210,580.640" /><polygon stroke="black" fill="purple" points="392.920,581.000 392.810,580.800 392.920,581.000" /><polygon stroke="black" fill="purple" points="514.810,734.380 515.000,728.000 514.850,734.390" /><polygon stroke="black" fill="purple" points="514.710,742.000 514.950,742.060 514.710,742.000" /><polygon stroke="black" fill="purple" points="447.160,367.390 446.480,366.890 447.160,367.390" /><polygon stroke="black" fill="purple" points="451.480,394.210 451.090,394.040 451.480,394.210" /><polygon stroke="black" fill="purple" points="392.290,572.270 392.070,571.840 392.290,572.270" /><polygon stroke="black" fill="purple" points="515.600,597.600 516.600,598.810 515.600,597.600" /><polygon stroke="black" fill="purple" points="515.280,597.420 515.490,597.540" /><polygon stroke="black" fill="purple" points="394.360,443.200 394.360,445.370 394.360,443.200" /><polygon stroke="black" fill="purple" points="496.680,635.480 496.400,637.990 496.680,635.480" /><polygon stroke="black" fill="purple" points="424.000,878.680 423.160,878.560 424.000,878.680" /><polygon stroke="black" fill="purple" points="421.840,877.160 420.570,875.790 419.910,875.150 419.910,875.150 420.570,875.790 421.840,877.160 423.170,878.560 421.840,877.160" /><polygon stroke="black" fill="purple" points="422.000,877.000 422.000,877.000 421.920,877.080" /><polygon stroke="black" fill="purple" points="401.600,438.620 401.600,438.620 402.430,443.380 401.600,438.620" /><polygon stroke="black" fill="purple" points="402.430,443.440 402.380,444.640 402.430,443.440" /><polygon stroke="black" fill="purple" points="398.100,442.000 399.410,444.310 398.100,442.000 397.100,439.220 398.100,442.000" /><polygon stroke="black" fill="purple" points="391.130,573.510 390.360,572.770 390.270,573.090 391.130,573.510" /><polygon stroke="black" fill="purple" points="469.780,777.110 469.550,778.110 469.780,777.110" /><polygon stroke="black" fill="purple" points="470.350,776.300 470.800,775.780" /><polygon stroke="black" fill="purple" points="433.130,820.700 433.200,820.830 433.130,820.700" /><polygon stroke="black" fill="purple" points="51.630,599.130 51.630,599.130 51.110,598.050 51.630,599.130" /><polygon stroke="black" fill="purple" points="482.110,759.900 481.770,760.510 482.110,759.900" /><polygon stroke="black" fill="purple" points="400.830,442.300 400.830,442.770" /><polygon stroke="black" fill="purple" points="391.280,578.380 393.960,579.010 391.280,578.380" /><polygon stroke="black" fill="purple" points="330.320,688.940 330.720,691.360 335.350,691.360 332.960,690.490 330.320,688.940" /><polygon stroke="black" fill="purple" points="341.780,694.270 338.780,694.270 341.780,694.270" /><polygon stroke="black" fill="purple" points="358.650,665.000 356.320,666.910 355.740,668.770 356.320,669.910 358.650,665.000" /><polygon stroke="black" fill="purple" points="355.650,673.760 356.320,676.940 357.170,675.350 355.650,673.760" /><polygon stroke="black" fill="purple" points="351.320,686.940 352.320,683.940 355.120,678.860 354.320,679.940 353.320,680.940 352.320,681.940 351.320,684.940 350.320,687.940 349.380,690.490 351.320,686.940" /><polygon stroke="black" fill="purple" points="346.870,697.940 344.560,697.940 341.820,701.780 344.900,700.460 348.030,692.380 346.490,693.450 346.870,697.940" /><polygon stroke="black" fill="purple" points="350.630,697.940 357.000,697.940 350.630,697.940" /><polygon stroke="black" fill="purple" points="331.320,715.940 332.320,717.940 333.320,714.000 335.320,710.940 331.320,715.940" /><polygon stroke="black" fill="purple" points="326.320,730.940 325.320,734.940 325.320,737.880 326.320,730.940" /><polygon stroke="black" fill="purple" points="328.320,723.940 326.730,727.940 327.500,725.280 328.320,723.940" /><polygon stroke="black" fill="purple" points="319.320,741.940 314.420,749.430 319.320,741.940" /><polygon stroke="black" fill="purple" points="308.320,771.940 304.320,781.940 308.320,771.940" /><polygon stroke="black" fill="purple" points="413.730,293.820 410.800,309.910 410.470,312.470 410.470,330.060 411.470,339.280 410.820,347.850 413.000,352.300 415.770,358.870 409.770,369.320 407.200,379.760 407.880,384.200 402.220,387.090 396.610,388.090 393.680,391.800 383.840,398.720 382.480,399.970 380.120,409.440 379.230,410.710 378.840,413.430 378.840,419.380 379.840,422.240 381.630,422.690 382.120,420.110 382.120,411.610 387.270,402.610 389.510,400.830 400.050,391.400 403.050,390.260 401.190,394.200 390.580,407.390 389.580,404.150 388.850,414.740 389.170,415.620 387.270,422.850 387.270,422.850 386.150,424.780 383.310,434.060 382.560,438.120 386.790,443.970 386.790,444.540 394.970,450.950 394.350,445.490 394.970,450.950 394.970,452.770 387.440,454.770 381.360,458.500 382.360,465.410 383.360,466.550 385.500,477.180 387.750,482.440 388.300,483.440 389.810,486.060 392.880,485.060 398.880,479.210 402.220,480.940 403.410,483.020 403.060,483.090 398.870,489.320 398.870,489.480 398.260,490.070 398.070,490.070 396.920,491.330 396.850,491.420 392.260,500.670 394.830,503.880 398.360,502.020 397.040,507.840 397.240,509.120 398.140,511.880 398.340,515.370 399.810,519.670 410.040,512.380 410.190,512.530 401.500,522.280 400.320,524.280 398.060,527.230 395.880,532.330 399.200,532.650 399.980,533.720 395.370,540.120 394.440,541.300 387.820,552.810 384.160,559.490 381.850,569.850 379.310,574.040 374.520,579.190 376.930,586.520 380.060,586.630 381.270,587.630 386.490,588.560 393.170,582.560 393.100,586.560 387.520,590.150 375.960,588.150 374.280,584.400 374.210,573.170 380.040,560.850 388.740,544.050 388.470,542.700 387.410,538.340 388.780,535.730 387.880,529.930 390.200,518.690 389.770,516.870 387.200,505.660 386.760,503.810 386.640,497.420 387.100,491.550 383.740,494.930 380.740,495.810 376.580,489.600 375.310,466.760 376.760,458.760 385.220,448.310 379.220,442.370 378.000,439.500 379.140,432.220 378.410,430.170 377.320,431.710 376.720,433.210 375.780,441.380 378.780,446.850 378.690,448.850 374.990,454.740 374.060,459.450 373.160,475.860 375.490,494.860 380.360,498.370 381.420,499.020 383.610,512.020 383.890,517.270 385.720,522.270 384.590,528.500 380.930,535.150 383.980,545.600 384.700,548.300 381.190,553.600 376.320,565.600 371.510,584.210 376.510,590.210 381.570,592.010 387.170,594.210 390.890,589.960 393.280,597.870 400.280,593.050 395.830,593.050 393.170,590.180 400.920,592.290 408.030,594.410 407.630,592.500 404.970,587.630 406.710,586.310 407.410,589.990 414.060,590.110 424.110,583.210 428.410,574.750 432.290,563.230 436.290,551.330 436.830,548.890 439.000,543.650 441.940,534.710 446.170,523.270 441.290,524.340 440.000,525.340 432.200,537.910 425.880,547.910 419.990,554.810 420.880,547.510 420.880,547.510 425.330,541.940 430.100,530.220 431.000,521.270 428.310,527.080 424.600,538.080 420.530,547.080 417.010,554.940 415.550,564.070 412.720,572.890 411.370,574.610 409.610,572.800 410.610,567.560 415.470,549.560 418.260,538.890 407.080,557.370 408.080,545.290 412.640,535.160 422.410,515.790 426.800,508.230 426.800,508.230 430.300,504.290 433.730,492.290 432.490,493.800 426.930,506.000 426.440,507.800 423.910,508.540 423.820,508.450 425.580,505.090 428.680,490.410 426.330,496.230 422.450,485.600 424.450,478.430 416.690,478.380 416.690,478.380 416.690,478.380 424.450,478.430 421.690,470.020 418.690,468.780 421.940,464.130 424.600,460.190 425.290,451.520 424.730,448.990 420.460,454.580 414.730,452.970 408.630,447.870 403.860,445.960 406.100,441.280 407.690,438.650 406.760,425.410 406.950,424.160 407.650,423.510 414.560,410.960 418.810,404.660 427.010,392.940 431.010,378.590 425.530,382.730 425.770,372.900 434.960,360.640 435.700,358.530 438.270,353.900 440.190,344.740 439.190,334.630 442.100,328.240 442.100,332.530 442.970,333.690 444.090,333.260 442.740,325.260 442.230,322.160 442.990,306.570 440.700,287.180 439.170,277.830 440.170,270.300 439.170,240.300 440.170,229.200 444.010,213.200 445.900,206.340 447.490,197.340 450.490,185.760 453.940,177.010 456.700,166.660 457.830,164.930 464.630,145.810 468.910,132.880 470.190,131.680 472.860,128.040 471.460,121.730 471.070,120.240 475.560,115.240 478.560,111.530 479.560,96.680 478.700,85.110 480.520,71.430 481.420,69.930 481.510,68.930 488.350,46.010 490.670,35.870 494.000,20.000 496.000,14.000 497.930,20.860 501.140,-0.020 492.640,-0.020 492.640,2.260 491.400,13.100 485.760,35.340 479.630,40.400 476.460,53.770 475.530,65.590 475.040,68.710 475.040,68.710 475.670,70.070 471.800,77.170 473.320,99.660 471.570,111.410 468.160,119.410 466.620,124.950 463.060,136.300 462.640,138.370 459.900,143.470 459.640,144.240 458.310,142.240 457.080,147.160 457.310,148.540 457.600,148.410 457.310,148.540 457.080,147.160 453.550,154.660 450.480,160.050 448.180,164.240 448.180,164.240 448.180,164.290 448.180,164.290 447.530,170.830 445.160,179.460 443.330,178.560 443.990,183.900 442.720,182.820 441.300,185.610 440.300,196.350 439.990,194.920 439.380,195.480 440.290,196.360 439.120,197.970 437.600,199.280 437.540,205.410 436.840,207.920 436.840,209.370 436.720,211.890 436.840,209.370 434.430,208.090 431.560,219.940 430.560,238.100 429.560,242.430 428.560,244.970 426.750,243.590 421.750,244.190 420.070,246.440 423.840,240.860 425.500,239.860 423.760,238.920 421.110,239.870 417.980,250.240 419.510,252.300 418.430,258.240 416.650,254.040 416.650,259.160 416.750,260.580 415.620,282.810 413.730,293.820" /><polygon stroke="black" fill="purple" points="506.860,754.560 493.860,744.810 487.270,747.410 484.210,748.840 486.210,749.580 482.070,759.910 482.070,759.910 482.070,759.910 482.070,759.910 482.070,759.910 481.730,760.520 471.660,774.060 466.100,775.440 456.280,776.740 445.280,781.820 436.850,794.280 435.670,798.370 438.570,797.650 442.570,797.730 441.470,801.140 436.290,806.930 430.420,818.560 427.670,821.440 427.880,826.860 427.250,826.930 417.950,840.360 417.730,841.300 420.840,856.660 424.330,861.660 442.330,873.070 448.530,869.590 442.160,867.840 434.160,861.480 433.490,860.800 427.940,853.320 427.340,846.800 437.240,828.940 438.620,826.810 441.110,824.730 447.200,818.210 456.200,810.610 456.720,809.810 463.170,798.810 465.750,796.420 465.900,790.060 465.750,796.420 467.110,795.300 476.280,793.430 481.990,789.430 488.430,779.240 496.350,773.240 503.250,769.980 506.010,772.340 509.720,775.650 513.010,772.150 512.010,764.150 506.860,754.560" /><polygon stroke="black" fill="purple" points="445.770,593.230 448.980,596.530 458.170,590.530 451.280,587.820 453.920,577.020 453.100,583.470 456.570,588.910 462.570,587.050 463.860,585.120 465.740,587.530 464.950,590.230 464.950,590.230 463.750,594.310 460.850,603.140 460.480,607.660 463.690,604.900 464.420,602.040 465.140,594.230 469.410,576.880 465.360,578.580 466.850,567.720 468.100,556.570 469.560,543.250 469.560,543.250 470.270,541.930 472.790,535.470 473.380,531.900 470.380,533.620 463.750,543.850 465.750,543.000 463.750,543.850 463.240,544.560 461.840,546.640 461.010,551.110 461.010,554.530 461.010,551.110 456.360,558.640 448.250,575.310 448.380,578.830 446.710,583.360 445.160,582.720 446.070,572.970 453.220,557.070 459.290,539.720 468.290,526.650 470.570,521.840 470.170,520.720 469.090,520.900 465.880,524.070 465.180,525.230 462.740,527.380 461.100,531.170 461.100,531.170 459.860,526.170 460.740,525.260 460.380,522.720 459.060,524.140 456.600,529.560 456.600,529.560 456.600,529.560 455.900,530.250 453.900,532.170 454.590,525.920 453.590,517.820 453.530,522.660 453.590,517.820 451.910,516.190 451.760,510.460 451.660,508.310 450.530,508.200 447.780,511.710 450.990,519.710 452.180,525.160 451.490,530.900 449.150,543.790 447.780,553.220 453.940,534.810 458.940,532.520 460.940,531.950 457.880,537.770 451.100,552.710 446.860,562.940 442.860,575.280 441.330,585.100 443.920,585.960 446.010,584.960 446.010,591.030 445.770,593.230" /><polygon stroke="black" fill="purple" points="497.870,557.000 496.530,557.110 495.440,557.340 492.580,559.090 492.010,561.870 487.350,569.040 477.870,580.630 475.270,583.480 469.630,603.420 468.930,605.340 467.540,609.180 466.600,621.090 468.670,623.560 470.130,626.930 468.410,634.670 467.720,634.820 468.970,639.360 467.720,634.820 466.510,637.400 467.760,639.150 466.510,637.400 466.330,641.270 465.150,645.480 465.030,659.630 464.640,661.150 466.950,672.220 469.640,678.740 469.570,678.740 476.110,688.270 477.510,687.270 477.560,687.200 477.560,687.200 477.510,687.270 477.510,687.270 476.110,688.270 476.660,691.190 474.490,696.060 473.980,711.060 473.540,715.570 468.440,729.380 471.440,736.480 471.490,736.480 472.200,737.320 472.720,736.660 472.720,736.660 473.050,735.660 472.930,734.350 472.930,734.350 473.050,735.660 475.050,734.440 470.320,744.600 468.320,749.650 472.320,750.650 474.520,753.580 466.100,761.230 457.370,763.840 456.210,765.160 458.040,766.000 473.590,758.250 485.010,743.250 486.150,740.690 480.080,745.840 473.200,750.050 475.610,746.570 479.810,740.650 490.510,731.030 485.980,731.030 481.490,731.620 478.170,728.180 479.400,723.180 485.400,706.090 489.890,696.960 488.620,694.500 486.920,693.100 488.620,694.490 487.460,692.010 484.060,686.580 481.680,683.470 478.900,678.640 476.540,675.180 474.540,671.180 475.890,648.100 476.490,646.970 477.490,641.110 480.920,623.660 482.400,618.840 483.980,611.840 487.400,600.090 481.110,601.680 487.400,600.090 488.310,598.630 490.210,593.220 493.270,584.300 497.960,558.360 497.870,557.000" /><polygon stroke="black" fill="purple" points="497.500,395.780 497.990,397.560 497.110,406.450 500.110,425.400 499.740,427.040 502.540,430.540 502.970,432.970 502.870,436.970 497.970,446.250 499.760,452.090 499.520,455.700 500.630,459.480 495.240,462.760 492.370,466.760 492.310,466.940 492.310,466.940 489.510,475.410 493.450,472.750 498.450,471.640 502.510,470.640 507.120,466.590 507.890,463.470 514.600,458.200 515.890,454.370 511.160,452.500 507.160,452.600 511.360,447.750 510.170,443.210 509.170,440.460 509.040,433.920 508.430,428.190 506.880,425.190 505.510,418.680 505.330,410.620 505.530,408.620 504.830,384.820 505.010,383.230 506.860,372.290 504.960,369.510 503.690,372.150 499.380,384.150 497.500,395.780" /><polygon stroke="black" fill="purple" points="355.240,201.570 355.190,201.570 355.190,201.570" /><polygon stroke="black" fill="purple" points="358.140,200.730 362.700,191.950 365.380,178.880 365.160,176.740 363.950,165.650 367.550,153.150 378.550,137.230 382.160,136.570 386.840,137.450 396.490,135.580 398.000,135.000 404.890,125.240 406.060,123.340 414.340,111.910 414.080,107.560 412.140,109.490 411.380,110.080 408.310,115.400 403.790,124.780 403.500,124.900 398.990,129.080 396.420,129.750 392.690,131.000 387.390,130.850 385.670,130.190 377.200,131.850 375.500,132.850 373.690,136.250 366.270,150.000 363.710,158.520 361.560,162.650 359.040,174.810 359.350,180.810 359.930,188.670 360.400,192.040 359.400,195.390 355.200,201.540 358.140,200.730" /><polygon stroke="black" fill="purple" points="269.420,802.000 272.550,795.070 277.320,786.220 278.550,784.650 286.490,776.270 287.490,774.000 293.920,775.640 295.110,773.500 294.190,765.990 295.640,765.230 298.770,764.330 298.680,761.810 294.570,759.510 282.570,761.230 281.210,761.230 277.420,759.230 276.730,758.560 276.080,754.700 277.380,754.320 281.590,749.020 284.230,738.900 283.230,735.080 280.040,735.240 274.460,735.020 273.710,729.570 274.530,723.250 278.000,717.250 283.730,712.020 289.260,706.420 292.120,704.190 288.120,703.660 285.910,702.820 280.270,696.540 278.170,697.840 278.510,700.910 283.510,701.260 278.510,700.910 276.710,701.670 278.320,705.670 280.190,708.760 279.080,712.760 278.750,712.760 277.300,714.660 276.000,716.000 276.000,716.000 275.350,716.660 275.350,716.660 272.710,718.660 272.710,718.660 271.840,726.490 266.990,737.490 270.160,739.860 272.760,741.630 272.850,744.220 275.970,744.470 272.850,744.220 275.420,745.600 273.240,752.730 272.580,758.920 276.820,761.250 279.100,762.250 285.830,771.070 281.980,773.710 277.980,777.300 274.610,784.810 273.840,786.960 270.720,792.590 268.810,795.260 267.400,797.710 267.400,797.800 266.090,798.800 257.720,814.360 254.820,824.780 255.250,838.450 253.880,847.190 259.670,851.010 259.250,851.390 263.430,861.930 268.970,863.930 270.510,860.220 269.510,859.540 266.510,858.080 264.130,853.270 261.740,845.800 262.220,844.310 260.000,834.120 261.660,823.400 267.000,808.910 269.420,802.000" /><polygon stroke="black" fill="purple" points="286.380,678.590 287.470,676.020 290.200,668.610 291.030,665.090 293.080,660.430 293.410,657.240 299.260,646.490 304.260,638.250 314.520,623.450 319.580,615.450 320.260,605.000 321.120,600.680 330.910,595.280 332.270,593.750 332.940,588.350 333.880,585.090 333.080,584.890 331.860,588.360 324.990,596.690 319.470,597.990 317.470,597.770 315.840,602.480 316.480,607.080 312.840,619.570 308.560,627.260 300.560,637.480 300.050,638.270 296.440,644.410 294.170,648.200 290.550,660.730 289.550,663.040 285.790,673.910 282.790,683.910 280.660,691.410 286.380,678.590" /><polygon stroke="black" fill="purple" points="427.650,880.200 419.810,873.660 419.810,873.660 419.670,873.760 418.000,873.200 413.640,873.600 405.550,878.370 393.490,881.720 391.680,882.260 389.930,882.260 377.400,887.740 373.510,900.740 374.670,905.740 378.380,895.230 390.200,885.430 391.830,885.430 408.330,881.540 409.830,881.740 413.510,882.360 426.670,883.860 428.780,885.040 428.930,882.260 427.650,880.200" /><polygon stroke="black" fill="purple" points="347.000,739.580 348.000,736.490 346.200,732.060 344.480,730.060 343.090,732.060 338.710,737.990 328.090,743.690 320.370,757.050 321.820,755.550 327.640,751.400 332.480,748.400 338.960,748.300 342.480,746.070 345.410,742.600 347.000,739.580" /><polygon stroke="black" fill="purple" points="345.920,242.580 347.980,246.910 350.650,258.450 350.650,248.130 349.980,244.380 350.370,230.070 349.290,214.870 349.020,205.490 344.450,209.490 344.450,222.950 343.660,231.260 345.920,242.580" /><polygon stroke="black" fill="purple" points="475.530,569.430 477.790,573.040 479.660,574.490 480.570,572.390 479.570,566.160 482.440,553.320 483.440,544.920 483.510,544.290 488.880,523.760 488.300,519.460 487.110,518.650 486.160,519.820 484.160,528.820 482.670,538.820 477.620,553.490 477.710,555.320 478.310,559.030 475.530,569.430" /><polygon stroke="black" fill="purple" points="351.670,282.590 353.070,286.920 354.260,292.420 356.360,302.250 355.580,302.670 350.970,312.970 350.970,313.290 353.470,321.100 353.830,318.250 355.300,309.680 357.970,296.610 355.690,283.690 354.490,282.310 351.030,276.370 350.630,273.510 351.550,265.680 352.330,259.850 351.170,259.400 347.890,260.290 348.230,267.880 351.670,282.590" /><polygon stroke="black" fill="purple" points="570.350,478.630 558.200,475.400 553.490,474.400 548.150,474.310 544.050,474.120 541.940,472.600 532.460,474.960 528.040,479.670 529.220,480.940 527.970,483.300 524.530,488.150 522.640,491.470 521.640,492.780 516.050,497.360 516.760,498.180 511.820,506.380 510.140,511.240 504.650,524.450 503.770,531.450 499.500,542.060 505.820,533.470 505.660,532.680 505.740,532.680 510.670,515.680 514.000,509.470 520.000,500.770 520.710,500.580 524.550,492.970 538.830,478.420 542.280,477.470 543.630,477.210 544.250,477.040 556.710,476.890 570.800,481.720 571.800,481.600 572.100,480.490 570.350,478.630" /><polygon stroke="black" fill="purple" points="464.610,634.570 463.810,628.290 463.810,611.610 463.550,608.790 460.380,619.720 461.960,626.280 462.850,628.930 461.600,639.470 460.760,653.470 460.010,658.060 462.180,668.060 463.270,668.760 462.360,657.670 462.730,643.410 464.610,634.570" /><polygon stroke="black" fill="purple" points="544.170,435.200 545.900,435.620 545.900,433.510 540.900,429.510 532.130,422.980 525.280,413.980 526.800,421.820 544.170,435.200" /><polygon stroke="black" fill="purple" points="445.240,403.420 443.470,407.360 443.470,415.670 448.200,409.360 448.200,415.070 452.040,408.630 450.040,405.480 449.440,404.030 451.960,396.610 451.490,394.210 451.100,394.040 451.490,394.210 451.960,396.610 455.340,388.780 457.840,372.490 453.940,353.070 451.740,338.610 452.100,334.750 450.490,332.390 452.100,334.750 452.870,326.990 453.870,321.330 454.720,318.070 455.030,317.490 454.950,312.860 453.870,301.680 452.550,294.540 451.340,295.790 452.110,302.400 451.540,313.400 452.160,322.020 450.420,331.890 449.000,334.730 452.460,356.360 455.810,372.160 455.180,382.160 456.370,376.340 455.180,382.160 453.960,384.340 448.960,392.590 448.230,378.200 449.170,367.830 447.170,367.340 446.490,366.840 447.170,367.340 449.170,367.830 449.050,365.900 449.190,363.660 448.280,359.720 446.540,363.160 446.150,366.560 446.840,375.080 446.140,384.010 445.850,393.410 447.260,395.330 445.240,403.420" /><polygon stroke="black" fill="purple" points="455.610,722.100 456.560,725.810 457.740,725.050 457.080,721.050 456.080,717.710 459.140,707.250 460.140,706.250 463.770,700.620 463.520,698.730 461.800,700.230 457.050,706.000 456.050,707.580 454.240,714.680 449.180,723.240 455.610,722.100" /><polygon stroke="black" fill="purple" points="368.630,862.400 368.150,861.120 363.150,876.050 360.150,872.130 358.150,880.770 361.470,875.390 358.470,895.470 359.420,899.240 360.180,896.820 363.690,884.620 364.880,876.380 368.630,862.400" /><polygon stroke="black" fill="purple" points="507.920,786.380 501.670,787.730 498.910,793.970 498.800,795.180 499.390,805.720 501.810,806.530 501.810,804.530 500.300,797.080 510.760,789.830 507.920,786.380" /><polygon stroke="black" fill="purple" points="427.350,741.400 422.660,746.710 420.310,748.350 417.920,753.080 431.280,740.960 430.530,745.160 431.270,746.420 432.270,745.420 436.270,734.420 432.390,736.960 427.350,741.400" /><polygon stroke="black" fill="purple" points="453.340,204.340 448.390,219.840 446.180,229.720 446.910,232.190 449.100,229.890 449.170,228.590 451.750,215.180 453.340,204.340" /><polygon stroke="black" fill="purple" points="497.000,53.530 495.910,48.960 492.090,79.360 494.540,65.360 497.000,53.530" /><polygon stroke="black" fill="purple" points="442.050,447.360 441.960,444.220 440.500,444.080 439.680,446.880 437.980,452.650 435.560,467.650 437.230,465.240 438.180,458.470 442.050,447.360" /><polygon stroke="black" fill="purple" points="374.360,855.140 372.210,852.250 369.290,850.930 367.410,850.080 360.670,855.440 359.800,857.210 360.580,858.650 361.760,857.850 366.020,856.060 366.840,855.750 370.570,855.610 374.360,855.140" /><polygon stroke="black" fill="purple" points="452.090,276.270 452.670,271.630 452.020,269.510 451.220,254.990 448.070,243.080 446.930,242.260 446.290,243.150 447.290,249.150 449.990,265.150 450.170,274.920 449.780,280.160 450.630,283.850 451.350,295.760 452.560,294.510 452.090,276.270" /><polygon stroke="black" fill="purple" points="403.000,776.930 403.000,776.850 403.000,776.850" /><polygon stroke="black" fill="purple" points="518.200,476.550 522.450,475.120 526.840,470.850 525.950,469.520 520.200,471.520 515.200,472.690 514.000,472.930 496.680,486.930 495.200,490.820 493.850,492.190 490.160,492.240 489.450,489.160 486.760,490.320 483.460,494.180 482.050,496.770 481.380,498.050 480.000,500.050 478.210,503.880 478.270,506.020 479.150,505.730 486.510,493.800 489.260,492.240 489.390,496.750 488.870,497.540 489.020,500.920 491.620,498.740 494.390,495.310 499.130,488.310 501.130,486.310 503.130,484.310 509.780,480.620 512.910,480.980 518.200,476.550" /><polygon stroke="black" fill="purple" points="512.880,481.080 512.880,481.080 512.880,481.080" /><polygon stroke="black" fill="purple" points="434.680,413.250 443.110,396.420 434.680,413.250" /><polygon stroke="black" fill="purple" points="355.190,201.570 355.190,201.570 355.190,201.570" /><polygon stroke="black" fill="purple" points="436.670,443.290 438.670,439.070 440.200,429.940 439.130,427.770 437.440,429.240 436.290,436.700 436.290,438.650 436.670,443.290" /><polygon stroke="black" fill="purple" points="464.380,117.750 465.720,116.850 467.640,105.950 469.450,106.950 469.450,96.790 466.850,102.410 463.650,115.920 464.380,117.750" /><polygon stroke="black" fill="purple" points="326.350,875.360 327.350,876.200 327.640,874.680 327.740,870.280 318.940,863.280 320.700,870.950 326.350,875.360" /><polygon stroke="black" fill="purple" points="521.400,719.140 518.580,717.320 515.220,714.090 513.930,713.000 507.100,710.280 506.850,705.730 504.310,694.950 504.310,694.950 499.080,691.080 495.230,683.990 491.600,679.330 488.790,665.810 487.930,660.740 487.380,653.740 489.780,651.510 493.590,645.570 495.720,640.030 496.970,638.770 497.070,638.640 497.070,638.640 497.750,639.270 499.410,639.820 501.030,633.460 503.670,631.460 514.590,625.150 518.780,621.220 520.700,613.360 520.590,600.740 520.500,592.490 520.680,583.660 519.680,582.240 518.840,574.920 517.670,570.510 517.490,569.590 516.860,563.280 516.860,562.410 517.090,556.730 519.410,544.680 518.080,543.680 519.410,544.680 521.320,534.730 517.870,524.920 515.550,524.380 514.890,525.690 516.490,526.910 518.560,528.910 519.400,534.910 519.400,535.430 518.920,536.000 519.400,535.430 518.920,536.000 516.500,541.000 516.500,541.050 514.500,541.530 510.920,550.530 510.250,568.080 510.490,569.330 510.600,587.720 511.990,596.380 511.990,596.380 512.100,598.720 510.780,607.390 510.130,616.330 505.190,622.750 501.800,625.800 500.860,625.800 495.170,634.170 494.450,635.840 490.810,640.980 486.810,651.220 485.050,660.620 486.050,662.620 487.330,663.890 486.330,673.130 489.750,680.720 494.080,684.660 497.860,692.190 502.230,696.320 498.980,706.870 501.740,709.100 505.150,712.810 513.020,717.810 520.570,722.470 522.570,721.400 521.400,719.140" /><polygon stroke="black" fill="purple" points="444.290,441.820 449.670,433.540 449.730,432.950 450.050,426.780 448.430,427.590 443.740,436.210 444.290,441.820" /><polygon stroke="black" fill="purple" points="450.050,426.740 450.050,426.740 450.050,426.740" /><polygon stroke="black" fill="purple" points="552.680,432.430 557.880,437.000 558.390,438.000 560.530,440.850 573.530,456.360 561.850,437.250 561.220,436.620 560.700,435.960 562.380,431.270 562.870,430.810 555.090,429.050 552.470,430.420 552.680,432.430" /><polygon stroke="black" fill="purple" points="387.460,895.110 385.310,901.700 384.050,901.950 384.410,903.460 383.940,904.460 384.260,906.070 386.370,906.070 387.190,902.410 395.600,894.660 401.760,894.660 401.760,893.600 390.980,893.020 387.460,895.110" /><polygon stroke="black" fill="purple" points="485.900,822.000 477.640,824.110 472.390,827.710 473.680,828.840 473.680,833.080 472.130,835.220 469.660,838.020 470.110,844.870 473.660,836.060 476.930,828.830 474.520,828.730 476.930,828.830 477.780,827.110 489.040,823.480 485.900,822.000" /><polygon stroke="black" fill="purple" points="355.380,910.700 358.480,906.820 362.550,903.210 368.060,896.700 371.660,885.210 377.180,876.540 387.180,872.160 392.330,874.160 393.250,874.890 394.140,873.740 396.070,872.020 400.960,868.310 401.960,862.030 402.690,858.030 400.420,848.480 400.130,839.110 401.600,832.820 400.820,830.700 401.600,832.820 401.790,830.310 403.140,828.760 407.570,825.810 407.820,825.810 408.080,825.810 409.460,825.760 411.700,823.020 413.860,819.200 413.980,817.260 422.860,798.140 433.420,779.140 432.150,779.000 421.450,788.680 420.450,790.320 413.070,803.190 410.860,807.010 404.080,816.100 403.030,821.180 403.030,821.180 400.720,826.990 393.600,831.790 392.080,838.870 393.890,839.340 397.660,840.280 397.580,843.590 399.690,856.780 399.600,857.240 390.090,857.840 383.990,860.030 383.990,860.030 384.000,860.030 382.770,860.030 382.710,860.030 382.710,860.030 381.470,860.260 381.650,861.340 381.010,863.160 373.610,869.430 369.610,879.680 370.610,880.430 371.430,881.430 368.650,890.430 360.210,902.800 360.210,902.800 358.310,904.350 350.040,923.530 349.700,924.370 349.540,926.260 351.020,928.120 350.780,924.000 351.940,920.690 355.380,910.700" /><polygon stroke="black" fill="purple" points="506.940,19.630 507.660,13.310 509.750,4.160 509.650,0.940 506.550,12.150 503.930,24.150 506.940,19.630" /><polygon stroke="black" fill="purple" points="379.410,707.510 379.220,709.110 381.140,707.740 377.750,703.170 368.460,702.310 364.340,701.640 375.670,704.260 379.410,707.510" /><polygon stroke="black" fill="purple" points="331.170,924.450 329.760,925.300 331.380,940.000 332.090,925.350 331.170,924.450" /><polygon stroke="black" fill="purple" points="384.220,852.790 377.320,856.720 375.050,859.780 381.560,855.900 386.610,857.390 387.260,855.390 384.220,852.790" /><polygon stroke="black" fill="purple" points="459.260,180.210 454.900,198.210 455.530,199.040 459.830,186.040 461.100,179.230 462.710,174.580 465.010,168.200 466.260,164.580 465.010,168.200 469.590,159.100 472.270,152.220 475.550,140.790 472.740,145.790 468.660,159.070 466.590,162.610 464.370,164.610 462.370,171.210 459.870,179.950 459.870,179.950 459.870,179.950 459.260,180.210" /><polygon stroke="black" fill="purple" points="406.810,857.610 405.040,857.890 405.880,859.700 413.440,865.050 406.810,857.610" /><polygon stroke="black" fill="purple" points="420.000,107.710 421.800,108.010 421.890,105.840 422.840,102.320 423.590,98.160 425.090,89.620 426.430,84.460 428.890,77.460 432.160,67.980 433.730,66.070 441.490,59.590 442.230,58.050 443.170,56.790 445.030,48.890 444.140,46.580 443.080,43.960 440.080,46.330 439.510,48.120 438.090,51.360 437.350,54.090 437.350,54.090 438.260,59.490 437.460,60.930 433.700,64.160 427.920,68.160 424.720,76.420 424.630,77.050 424.120,90.200 424.120,90.200 421.810,98.100 419.080,105.220 420.000,107.710" /><polygon stroke="black" fill="purple" points="276.530,855.000 281.850,854.330 290.240,851.420 297.240,852.320 304.100,853.320 291.030,849.700 276.530,855.000" /><polygon stroke="black" fill="purple" points="249.750,848.910 243.610,859.060 251.840,848.270 249.750,848.910" /><polygon stroke="black" fill="purple" points="251.840,848.270 251.840,848.270 251.840,848.270 251.840,848.270" /><polygon stroke="black" fill="purple" points="350.100,877.540 353.290,868.110 350.880,872.590 348.090,870.070 347.990,873.290 350.100,877.540" /><polygon stroke="black" fill="purple" points="446.870,473.130 449.980,470.400 451.130,465.480 451.630,459.640 446.870,473.130" /><polygon stroke="black" fill="purple" points="359.260,864.000 361.060,866.160 361.430,863.270 359.520,859.390 356.100,870.660 359.260,864.000" /><polygon stroke="black" fill="purple" points="68.910,967.710 67.000,968.330 63.860,978.620 68.860,969.470 68.910,967.710" /><polygon stroke="black" fill="purple" points="544.160,446.000 540.480,451.710 541.900,452.840 545.480,448.380 544.160,446.000" /><polygon stroke="black" fill="purple" points="481.620,419.690 481.270,417.830 479.420,418.640 476.420,424.180 477.510,424.610 481.620,419.690" /><polygon stroke="black" fill="purple" points="437.310,516.310 438.370,515.440 440.300,511.800 444.070,503.990 447.180,495.850 446.040,493.420 445.390,494.080 446.040,493.420 445.390,494.080 444.170,494.380 445.240,487.430 444.750,484.080 443.090,487.020 443.090,496.120 442.220,502.690 442.220,502.690 440.220,507.690 436.220,514.690 437.310,516.310" /><polygon stroke="black" fill="purple" points="475.600,140.700 475.550,140.700 475.550,140.700 475.550,140.700 475.550,140.780 475.550,140.780 475.600,140.700" /><polygon stroke="black" fill="purple" points="476.560,140.080 480.120,131.660 483.740,128.930 484.900,124.810 486.420,116.000 486.280,109.360 486.640,108.360 487.910,97.090 486.280,100.720 486.220,103.460 486.100,103.920 486.230,107.280 486.100,103.920 485.370,109.380 484.370,117.590 479.430,128.940 475.580,140.670 476.560,140.080" /><polygon stroke="black" fill="purple" points="517.000,732.330 515.000,728.000 514.850,734.390 514.850,734.390 515.000,728.000 509.460,725.000 505.320,727.520 504.790,726.980 501.850,726.880 499.580,730.760 491.940,736.700 490.290,737.800 491.720,738.690 498.820,743.410 507.070,750.200 512.480,751.510 514.680,749.890 515.970,741.890 515.970,741.890 517.810,740.140 517.000,732.330" /><polygon stroke="black" fill="purple" points="436.310,734.360 436.310,734.360 436.310,734.460 436.390,734.400 436.390,734.400 436.390,734.340" /><polygon stroke="black" fill="purple" points="440.810,728.610 441.180,727.520 438.180,728.650 435.440,731.740 436.370,734.340 437.150,734.000 440.810,728.610" /><polygon stroke="black" fill="purple" points="365.000,944.340 362.400,933.100 357.920,926.840 368.350,910.390 368.700,908.580 366.800,907.780 355.330,926.020 356.450,927.440 360.850,936.930 361.710,942.360 364.110,947.830 366.110,948.830 366.400,945.930 365.000,944.340" /><polygon stroke="black" fill="purple" points="325.540,943.180 324.250,942.440 324.060,944.220 326.680,947.120 330.550,943.760 325.540,943.180" /><polygon stroke="black" fill="purple" points="510.480,534.000 512.120,533.000 513.930,527.000 509.850,532.180 510.480,534.000" /><polygon stroke="black" fill="purple" points="454.280,36.690 459.590,37.270 454.740,34.060 452.490,33.760 452.160,35.530 454.280,36.690" /><polygon stroke="black" fill="purple" points="391.330,800.850 393.980,807.850 395.520,808.710 396.060,807.710 391.330,800.850" /><polygon stroke="black" fill="purple" points="227.000,895.350 226.930,895.430 227.030,895.430 227.030,895.430 227.030,895.430 227.030,895.430 227.030,895.430" /><polygon stroke="black" fill="purple" points="223.410,902.550 226.900,895.430 223.410,902.550" /><polygon stroke="black" fill="purple" points="515.250,352.760 515.670,356.250 515.580,365.650 516.770,391.890 518.390,406.230 524.320,411.230 517.460,351.570 516.970,352.500 517.460,351.560 517.460,349.330 517.560,347.080 516.960,344.790 514.960,347.060 515.250,352.760" /><polygon stroke="black" fill="purple" points="230.870,890.710 228.160,893.180 227.010,895.370 230.120,894.430 230.870,890.710" /><polygon stroke="black" fill="purple" points="372.000,731.130 369.160,729.910 368.070,730.580 368.020,735.740 372.000,731.130" /><polygon stroke="black" fill="purple" points="471.000,69.230 467.640,76.340 471.000,69.230" /><polygon stroke="black" fill="purple" points="491.120,81.660 488.470,89.590 488.670,95.930 489.180,91.590 491.120,81.660" /><polygon stroke="black" fill="purple" points="427.350,751.830 423.280,757.890 427.350,751.830" /><polygon stroke="black" fill="purple" points="423.280,757.890 423.210,757.890 423.210,757.940 423.260,757.940 423.260,757.940 423.260,757.940" /><polygon stroke="black" fill="purple" points="446.590,538.360 444.190,545.800 446.590,538.360" /><polygon stroke="black" fill="purple" points="444.190,545.870 444.190,545.800 444.190,545.800" /><polygon stroke="black" fill="purple" points="403.000,776.930 403.000,776.930 403.000,777.000" /><polygon stroke="black" fill="purple" points="397.450,784.430 402.910,776.960 397.450,784.430" /><polygon stroke="black" fill="purple" points="321.890,690.490 312.120,694.270" /><polygon stroke="black" fill="purple" points="314.830,857.340 320.750,861.800 314.830,857.340" /><polygon stroke="black" fill="purple" points="312.000,853.500 312.000,853.500 312.060,853.500" /><polygon stroke="black" fill="purple" points="312.000,853.550 307.790,854.660 313.240,856.340 312.000,853.550" /><polygon stroke="black" fill="purple" points="235.210,880.050 237.420,872.240 235.210,880.050" /><polygon stroke="black" fill="purple" points="500.670,40.180 502.160,32.370 500.670,40.180" /><polygon stroke="black" fill="purple" points="474.640,507.450 470.470,517.030 471.190,518.850 472.910,517.350 473.770,513.770 477.520,507.920 478.270,505.970 478.270,506.060 478.210,503.920 474.640,507.450" /><polygon stroke="black" fill="purple" points="436.430,484.290 437.430,483.220 441.160,471.130 443.320,466.440 448.150,458.200 449.440,455.690 451.980,450.140 451.980,449.900 452.520,448.960 455.100,441.880 463.910,429.150 464.100,427.150 461.950,427.290 459.950,429.340 451.770,445.080 447.970,454.220 447.970,454.220 440.880,466.490 435.220,484.270 433.850,490.960 436.430,484.290" /><polygon stroke="black" fill="purple" points="43.270,1011.520 42.450,1014.620 43.600,1016.130 43.940,1014.060 44.140,1011.380 43.270,1011.520" /><polygon stroke="black" fill="purple" points="87.520,928.840 90.820,924.560 87.520,928.840" /><polygon stroke="black" fill="purple" points="353.410,884.460 355.530,887.660 356.530,883.590 353.410,884.460" /><polygon stroke="black" fill="purple" points="446.620,169.820 448.100,164.300 446.620,169.820" /><polygon stroke="black" fill="purple" points="413.200,765.120 418.000,762.000 413.200,765.120" /><polygon stroke="black" fill="purple" points="237.310,713.630 239.870,708.270 237.310,713.630" /><polygon stroke="black" fill="purple" points="349.580,893.790 349.750,889.370 348.490,893.470 349.580,893.790" /><polygon stroke="black" fill="purple" points="350.050,214.000 351.980,212.530 355.190,201.580 350.000,203.710 349.760,203.510 349.490,203.650 349.030,205.460 349.300,214.840" /><polygon stroke="black" fill="purple" points="475.110,425.210 472.110,430.140 468.110,440.040 468.910,441.990 469.790,440.440 473.280,432.880 474.430,431.370 474.970,430.050 474.970,430.050 475.650,428.630 475.650,428.430 477.540,424.610 476.450,424.180" /><polygon stroke="black" fill="purple" points="394.740,788.760 393.740,794.170 394.740,788.760" /><polygon stroke="black" fill="purple" points="45.810,1004.640 47.300,1000.040 45.810,1004.640" /><polygon stroke="black" fill="purple" points="45.820,1004.710 45.820,1004.640 45.820,1004.640" /><polygon stroke="black" fill="purple" points="184.790,744.390 188.380,741.610 184.790,744.390" /><polygon stroke="black" fill="purple" points="420.770,760.120 423.200,758.000 420.770,760.120" /><polygon stroke="black" fill="purple" points="206.730,723.180 208.320,719.950 206.730,723.180" /><polygon stroke="black" fill="purple" points="222.390,738.330 221.300,739.970 222.000,740.340 222.390,738.330" /><polygon stroke="black" fill="purple" points="205.000,725.620 206.680,723.290 205.000,725.620" /><polygon stroke="black" fill="purple" points="206.680,723.290 206.680,723.290 206.680,723.290 206.680,723.290 206.680,723.220 206.680,723.220" /><polygon stroke="black" fill="purple" points="224.330,735.670 222.460,738.250 224.330,735.670" /><polygon stroke="black" fill="purple" points="222.460,738.250 222.390,738.250 222.390,738.250 222.390,738.250 222.390,738.300 222.390,738.300" /><polygon stroke="black" fill="purple" points="427.160,763.820 423.370,765.690 418.770,766.280 404.320,773.880 402.980,776.880 418.130,767.690 422.670,767.370 425.670,766.620 427.160,763.890 427.160,763.890 428.560,761.290 427.160,763.820" /><polygon stroke="black" fill="purple" points="188.440,741.540 189.900,739.770 188.440,741.540" /><polygon stroke="black" fill="purple" points="188.390,741.570 188.390,741.570 188.450,741.570 188.450,741.500 188.400,741.500" /><polygon stroke="black" fill="purple" points="383.760,908.410 375.980,916.230 369.980,920.880 367.470,936.880 377.220,942.140 375.290,941.230 368.460,934.980 368.950,927.980 372.850,919.830 380.330,916.470 383.210,913.910 386.360,906.080 384.260,906.080 384.490,907.510 383.760,908.410" /><polygon stroke="black" fill="purple" points="379.480,861.460 378.830,861.980 379.130,862.410 379.900,861.830 379.480,861.460" /><polygon stroke="black" fill="purple" points="312.000,853.500 312.000,853.500 312.000,853.430" /><polygon stroke="black" fill="purple" points="312.460,852.490 312.060,853.490 312.870,852.690 312.460,852.490" /><polygon stroke="black" fill="purple" points="385.400,858.000 385.590,858.420 386.590,857.420 385.400,858.000" /><polygon stroke="black" fill="purple" points="386.580,857.440 386.630,857.440 386.630,857.380 386.630,857.380" /><polygon stroke="black" fill="purple" points="543.630,477.230 542.280,477.490" /><polygon stroke="black" fill="purple" points="357.420,882.630 357.640,882.470 357.640,882.160 357.320,882.380 357.420,882.630" /><polygon stroke="black" fill="purple" points="468.650,394.660 470.270,386.580 470.890,383.770 472.400,371.770 472.720,370.550 472.420,366.600 471.620,361.280 469.620,354.680 468.900,350.570 467.690,348.570 465.780,350.380 467.050,357.120 467.970,364.450 468.110,374.450 467.110,377.780 466.290,386.100 469.290,386.610 466.290,386.100 466.600,390.420 466.440,392.050 464.070,398.050 456.610,411.190 455.790,414.040 458.430,412.040 459.260,410.360 461.910,405.970 467.800,395.970 467.800,395.970 468.650,394.660" /><polygon stroke="black" fill="purple" points="251.870,848.240 252.160,847.800" /><polygon stroke="black" fill="purple" points="446.000,493.420 445.350,494.080" /><polygon stroke="black" fill="purple" points="512.880,481.080 512.880,481.080 512.770,481.320" /><polygon stroke="black" fill="purple" points="450.000,426.740 450.000,426.740 450.080,426.470" /><polygon stroke="black" fill="purple" points="561.830,437.250 561.200,436.620" /><polygon stroke="black" fill="purple" points="455.050,317.490 454.740,318.070" /><polygon stroke="black" fill="purple" points="456.630,529.500 456.630,529.500" /><polygon stroke="black" fill="purple" points="455.910,530.200 456.610,529.510" /><polygon stroke="black" fill="purple" points="519.400,535.430 518.920,536.000" /><polygon stroke="black" fill="purple" points="481.770,760.510 482.110,759.900" /><polygon stroke="black" fill="purple" points="482.110,759.900 482.110,759.900" /><polygon stroke="black" fill="purple" points="37.340,636.160 37.840,636.730" /><polygon stroke="black" fill="purple" points="276.000,716.000 276.000,716.000" /><polygon stroke="black" fill="purple" points="275.370,716.670 276.000,716.000" /><polygon stroke="black" fill="purple" points="275.370,716.670 275.370,716.670" /><polygon stroke="black" fill="purple" points="45.820,1004.710 45.820,1004.660 45.820,1004.720" /><polygon stroke="black" fill="purple" points="45.490,1005.180 45.750,1004.720 45.490,1005.180" /><polygon stroke="black" fill="purple" points="363.370,700.900 363.540,700.710 364.320,699.940 361.770,697.940 360.320,698.940 363.220,700.690 363.370,700.900" /><polygon stroke="black" fill="purple" points="484.720,690.500 485.400,691.190" /><polygon stroke="black" fill="purple" points="53.670,596.300 50.670,595.820 45.000,605.610 43.390,610.720 43.140,612.000 43.070,612.520 37.930,615.220 37.030,612.790 34.850,614.730 34.230,621.880 35.740,616.990 36.330,617.480 30.550,633.480 29.720,629.960 22.280,641.960 19.520,641.780 17.760,643.180 15.890,644.340 10.610,648.810 8.200,658.810 7.600,659.260 6.920,661.260 7.450,688.510 8.510,691.100 8.600,691.100 8.510,691.100 5.710,691.000 5.390,684.690 4.820,684.750 4.250,688.270 2.010,680.270 1.410,690.660 2.410,692.930 3.020,693.600 7.670,696.000 8.670,697.000 14.000,696.420 16.130,697.100 19.310,696.920 22.040,692.630 19.200,687.340 16.390,688.340 16.890,685.540 17.100,675.130 15.360,673.660 12.700,684.240 12.520,676.240 12.410,659.730 15.640,653.420 15.860,653.180 23.030,648.240 19.360,652.350 17.200,655.350 18.040,657.810 19.520,656.000 21.180,653.840 24.800,647.400 24.800,647.400 25.620,644.600 25.620,644.600 26.280,642.690 29.820,640.460 34.310,642.190 37.820,636.650 37.320,636.080 37.320,636.080 41.430,625.670 44.810,616.880 47.400,609.500 50.320,608.110 51.740,609.900 54.380,612.470 53.650,596.230" /><polygon stroke="black" fill="purple" points="300.750,700.700 297.940,702.970 310.320,697.970 303.320,699.970 300.750,700.700" /></svg>